%TF.GenerationSoftware,KiCad,Pcbnew,10.0.3*%
%TF.CreationDate,2026-05-28T08:34:56-07:00*%
%TF.ProjectId,RXProg,52585072-6f67-42e6-9b69-6361645f7063,rev?*%
%TF.SameCoordinates,Original*%
%TF.FileFunction,Copper,L3,Inr*%
%TF.FilePolarity,Positive*%
%FSLAX46Y46*%
G04 Gerber Fmt 4.6, Leading zero omitted, Abs format (unit mm)*
G04 Created by KiCad (PCBNEW 10.0.3) date 2026-05-28 08:34:56*
%MOMM*%
%LPD*%
G01*
G04 APERTURE LIST*
%TA.AperFunction,ComponentPad*%
%ADD10C,1.400000*%
%TD*%
%TA.AperFunction,ComponentPad*%
%ADD11O,1.350000X1.700000*%
%TD*%
%TA.AperFunction,ComponentPad*%
%ADD12O,1.100000X1.500000*%
%TD*%
%TA.AperFunction,ComponentPad*%
%ADD13R,1.700000X1.700000*%
%TD*%
%TA.AperFunction,ComponentPad*%
%ADD14C,1.700000*%
%TD*%
%TA.AperFunction,ViaPad*%
%ADD15C,0.450000*%
%TD*%
%TA.AperFunction,ViaPad*%
%ADD16C,0.500000*%
%TD*%
%TA.AperFunction,Conductor*%
%ADD17C,0.200000*%
%TD*%
G04 APERTURE END LIST*
D10*
%TO.N,~{CS3}*%
%TO.C,J4*%
X130800000Y-118600000D03*
%TD*%
D11*
%TO.N,GND*%
%TO.C,J5*%
X123490000Y-124600000D03*
D12*
X123800000Y-121600000D03*
X128640000Y-121600000D03*
D11*
X128950000Y-124600000D03*
%TD*%
D13*
%TO.N,{slash}VBAT*%
%TO.C,J2*%
X133840000Y-91600000D03*
D14*
%TO.N,{slash}~{WE}*%
X133840000Y-94140000D03*
%TO.N,VBAT{slash}~{RES}*%
X133840000Y-96680000D03*
%TO.N,A8*%
X133840000Y-99220000D03*
%TO.N,A9*%
X133840000Y-101760000D03*
%TO.N,~{WE}{slash}A11*%
X133840000Y-104300000D03*
%TO.N,RES{slash}~{OE}*%
X133840000Y-106840000D03*
%TO.N,A10*%
X133840000Y-109380000D03*
%TO.N,~{CS1}*%
X133840000Y-111920000D03*
%TO.N,D8*%
X133840000Y-114460000D03*
%TO.N,D7*%
X133840000Y-117000000D03*
%TO.N,D6*%
X133840000Y-119540000D03*
%TO.N,D5*%
X133840000Y-122080000D03*
%TO.N,D4*%
X133840000Y-124620000D03*
%TD*%
D10*
%TO.N,~{CS2}*%
%TO.C,J3*%
X130800000Y-116400000D03*
%TD*%
D13*
%TO.N,unconnected-(J1-Pin_1-Pad1)*%
%TO.C,J1*%
X118600000Y-91600000D03*
D14*
%TO.N,{slash}A12*%
X118600000Y-94140000D03*
%TO.N,A7*%
X118600000Y-96680000D03*
%TO.N,A6*%
X118600000Y-99220000D03*
%TO.N,A5*%
X118600000Y-101760000D03*
%TO.N,A4*%
X118600000Y-104300000D03*
%TO.N,A3*%
X118600000Y-106840000D03*
%TO.N,A2*%
X118600000Y-109380000D03*
%TO.N,A1*%
X118600000Y-111920000D03*
%TO.N,A0*%
X118600000Y-114460000D03*
%TO.N,D1*%
X118600000Y-117000000D03*
%TO.N,D2*%
X118600000Y-119540000D03*
%TO.N,D3*%
X118600000Y-122080000D03*
%TO.N,GND*%
X118600000Y-124620000D03*
%TD*%
D15*
%TO.N,~{CS3}*%
X121000000Y-100800000D03*
D16*
%TO.N,+3V3*%
X129000000Y-112800000D03*
X121900000Y-112300000D03*
X131100000Y-103500000D03*
D15*
X125800000Y-117300000D03*
D16*
X128200000Y-98100000D03*
X126600000Y-92700000D03*
X121200000Y-92400000D03*
%TO.N,GND*%
X131100000Y-113950000D03*
X120400000Y-110300000D03*
X126300000Y-98800000D03*
X131500000Y-107245000D03*
X131700000Y-121300000D03*
X120700000Y-91000000D03*
X120700000Y-115100000D03*
X126500000Y-94500000D03*
X120400000Y-111700000D03*
X131500000Y-104800000D03*
X128900000Y-115700000D03*
X126900000Y-110300000D03*
X121000000Y-98900000D03*
X127000000Y-108700000D03*
X128400000Y-120100000D03*
X124100000Y-99100000D03*
X125333880Y-105535521D03*
X130700000Y-99150000D03*
X131200000Y-101500000D03*
X120700000Y-121400000D03*
X131700000Y-124800000D03*
X120700000Y-124600000D03*
X131700000Y-111500000D03*
X127300000Y-114300000D03*
X123600000Y-104450000D03*
X126050000Y-119650000D03*
X120700000Y-94500000D03*
X132300000Y-95100000D03*
%TO.N,{slash}VBAT*%
X127000000Y-118180000D03*
X120926752Y-108803700D03*
X121573215Y-103354367D03*
X123600000Y-101520000D03*
X130400000Y-97400000D03*
D15*
%TO.N,Net-(U1-PA0)*%
X125975000Y-115800000D03*
X126430000Y-105200000D03*
%TO.N,Net-(U1-PA1)*%
X125325000Y-115800000D03*
X125800000Y-105100000D03*
%TO.N,Net-(U1-PA2)*%
X125258820Y-104899860D03*
X124475000Y-115775000D03*
%TO.N,Net-(U1-PA3)*%
X123777003Y-115800000D03*
X124450000Y-104900000D03*
%TO.N,Net-(U1-PA4)*%
X123200000Y-115800000D03*
X124110589Y-105389412D03*
%TO.N,Net-(U1-PA5)*%
X122623047Y-115807500D03*
X123884343Y-105947728D03*
%TO.N,Net-(U1-PA6)*%
X123650000Y-106475000D03*
X122000000Y-115800000D03*
%TO.N,Net-(U1-PA7)*%
X123550000Y-107050000D03*
X121300000Y-115800000D03*
%TO.N,Net-(U1-PB0)*%
X130980261Y-110649216D03*
X121000000Y-104300000D03*
%TO.N,Net-(U1-PB1)*%
X129925000Y-110800000D03*
X119900000Y-107200000D03*
%TO.N,Net-(U1-PB2)*%
X127800000Y-109800000D03*
X120400000Y-107700000D03*
%TO.N,Net-(U1-PB10)*%
X130950000Y-104150000D03*
X120400000Y-108300000D03*
%TO.N,Net-(U1-PB11)*%
X127800000Y-104300000D03*
X126500000Y-106000000D03*
%TO.N,Net-(U1-PB12)*%
X125700000Y-106800000D03*
X127100000Y-102100000D03*
%TO.N,Net-(U1-PB13)*%
X125791998Y-107491998D03*
X128625000Y-101750000D03*
%TO.N,Net-(U1-PB14)*%
X128686840Y-101115798D03*
X126200000Y-107900000D03*
%TO.N,Net-(U1-PB15)*%
X128800000Y-100550000D03*
X127000000Y-108000000D03*
%TO.N,Net-(U1-PA8)*%
X125900000Y-112900000D03*
X120400000Y-118100000D03*
%TO.N,~{ADDR_OE}*%
X126450000Y-111562500D03*
%TO.N,Net-(J6-SWDIO)*%
X128100000Y-108200000D03*
X124900000Y-93100000D03*
%TO.N,Net-(J6-SWCLK)*%
X128548542Y-107774937D03*
X125500000Y-94400000D03*
%TO.N,Net-(JP1-B)*%
X126700000Y-100500000D03*
X131500000Y-108900000D03*
%TO.N,Net-(U1-PB3)*%
X129000000Y-109200000D03*
%TO.N,Net-(U1-PB4)*%
X130936692Y-108175000D03*
%TO.N,Net-(U1-PB5)*%
X129125000Y-107800000D03*
%TO.N,Net-(U1-PB6)*%
X129312143Y-106825001D03*
%TO.N,Net-(U1-PB7)*%
X131028587Y-106625000D03*
%TO.N,Net-(U1-PB8)*%
X129073086Y-105871549D03*
%TO.N,Net-(U1-PB9)*%
X130984693Y-105674994D03*
%TO.N,RES{slash}~{OE}*%
X131300000Y-95100000D03*
%TO.N,A8*%
X128500000Y-106500000D03*
%TO.N,A9*%
X120775000Y-103425000D03*
%TO.N,~{WE}{slash}A11*%
X126300000Y-102100000D03*
%TO.N,A10*%
X127200000Y-104400000D03*
%TO.N,~{CS1}*%
X121100000Y-102300000D03*
%TO.N,D8*%
X121100000Y-118800000D03*
%TO.N,D7*%
X122200000Y-119200000D03*
%TO.N,D6*%
X122250000Y-120250000D03*
%TO.N,D5*%
X122850000Y-120250000D03*
%TO.N,D4*%
X123500000Y-120250000D03*
%TO.N,~{CS2}*%
X121100000Y-101500000D03*
%TO.N,D1*%
X125176842Y-118570762D03*
%TO.N,D2*%
X124702816Y-120249964D03*
%TO.N,D3*%
X124125861Y-120257414D03*
%TD*%
%TO.N,{slash}VBAT*%
D17*
X121765633Y-103354367D02*
X123600000Y-101520000D01*
X120926752Y-109601752D02*
X127000000Y-115675000D01*
X121573215Y-103354367D02*
X121765633Y-103354367D01*
X121573215Y-108157237D02*
X120926752Y-108803700D01*
X130400000Y-97400000D02*
X130400000Y-98175000D01*
X130400000Y-98175000D02*
X127055000Y-101520000D01*
X120926752Y-108803700D02*
X120926752Y-109601752D01*
X127000000Y-115675000D02*
X127000000Y-118180000D01*
X121573215Y-103354367D02*
X121573215Y-108157237D01*
X127055000Y-101520000D02*
X123600000Y-101520000D01*
%TD*%
%TA.AperFunction,Conductor*%
%TO.N,+3V3*%
G36*
X130159191Y-89819407D02*
G01*
X130195155Y-89868907D01*
X130200000Y-89899500D01*
X130200000Y-95901000D01*
X130181093Y-95959191D01*
X130131593Y-95995155D01*
X130101000Y-96000000D01*
X129200000Y-96000000D01*
X129200000Y-98200000D01*
X129866584Y-98200000D01*
X129924775Y-98218907D01*
X129960739Y-98268407D01*
X129960739Y-98329593D01*
X129936588Y-98369004D01*
X127005089Y-101300504D01*
X126950572Y-101328281D01*
X126935085Y-101329500D01*
X124182835Y-101329500D01*
X124124644Y-101310593D01*
X124097099Y-101280000D01*
X124040512Y-101181989D01*
X124040510Y-101181987D01*
X124040509Y-101181985D01*
X123938015Y-101079491D01*
X123938012Y-101079489D01*
X123938010Y-101079487D01*
X123812488Y-101007017D01*
X123812489Y-101007017D01*
X123782896Y-100999087D01*
X123672475Y-100969500D01*
X123527525Y-100969500D01*
X123465790Y-100986041D01*
X123387510Y-101007017D01*
X123261989Y-101079487D01*
X123159487Y-101181989D01*
X123087017Y-101307510D01*
X123051928Y-101438463D01*
X123049500Y-101447525D01*
X123049500Y-101592475D01*
X123059163Y-101628540D01*
X123078792Y-101701795D01*
X123075589Y-101762897D01*
X123053169Y-101797422D01*
X121981114Y-102869477D01*
X121926597Y-102897254D01*
X121866165Y-102887683D01*
X121861610Y-102885209D01*
X121785703Y-102841384D01*
X121785704Y-102841384D01*
X121729078Y-102826211D01*
X121645690Y-102803867D01*
X121578310Y-102803867D01*
X121520119Y-102784960D01*
X121484155Y-102735460D01*
X121484155Y-102674274D01*
X121508304Y-102634865D01*
X121520505Y-102622665D01*
X121589688Y-102502836D01*
X121625500Y-102369183D01*
X121625500Y-102230817D01*
X121589688Y-102097164D01*
X121520505Y-101977335D01*
X121513171Y-101970001D01*
X121485396Y-101915487D01*
X121494967Y-101855055D01*
X121513170Y-101829999D01*
X121520505Y-101822665D01*
X121589688Y-101702836D01*
X121625500Y-101569183D01*
X121625500Y-101430817D01*
X121589688Y-101297164D01*
X121520505Y-101177335D01*
X121490809Y-101147639D01*
X121463034Y-101093125D01*
X121472605Y-101032693D01*
X121475067Y-101028159D01*
X121489688Y-101002836D01*
X121525500Y-100869183D01*
X121525500Y-100730817D01*
X121489688Y-100597164D01*
X121420505Y-100477335D01*
X121373987Y-100430817D01*
X126174500Y-100430817D01*
X126174500Y-100569183D01*
X126210312Y-100702836D01*
X126279495Y-100822665D01*
X126377335Y-100920505D01*
X126497164Y-100989688D01*
X126630817Y-101025500D01*
X126630819Y-101025500D01*
X126769181Y-101025500D01*
X126769183Y-101025500D01*
X126902836Y-100989688D01*
X127022665Y-100920505D01*
X127120505Y-100822665D01*
X127189688Y-100702836D01*
X127225500Y-100569183D01*
X127225500Y-100430817D01*
X127189688Y-100297164D01*
X127120505Y-100177335D01*
X127022665Y-100079495D01*
X126902836Y-100010312D01*
X126769183Y-99974500D01*
X126630817Y-99974500D01*
X126497164Y-100010312D01*
X126377335Y-100079495D01*
X126279495Y-100177335D01*
X126210312Y-100297164D01*
X126174500Y-100430817D01*
X121373987Y-100430817D01*
X121322665Y-100379495D01*
X121202836Y-100310312D01*
X121069183Y-100274500D01*
X120930817Y-100274500D01*
X120797164Y-100310312D01*
X120677335Y-100379495D01*
X120579495Y-100477335D01*
X120510312Y-100597164D01*
X120474500Y-100730817D01*
X120474500Y-100869183D01*
X120510312Y-101002836D01*
X120543022Y-101059491D01*
X120579495Y-101122665D01*
X120609188Y-101152358D01*
X120636964Y-101206875D01*
X120627392Y-101267307D01*
X120624921Y-101271858D01*
X120610313Y-101297161D01*
X120610312Y-101297163D01*
X120610312Y-101297164D01*
X120574500Y-101430817D01*
X120574500Y-101569183D01*
X120610312Y-101702836D01*
X120679495Y-101822665D01*
X120686826Y-101829996D01*
X120686829Y-101829999D01*
X120714604Y-101884517D01*
X120705030Y-101944949D01*
X120686829Y-101970001D01*
X120679495Y-101977335D01*
X120610312Y-102097164D01*
X120574500Y-102230817D01*
X120574500Y-102369183D01*
X120610312Y-102502836D01*
X120679495Y-102622665D01*
X120777335Y-102720505D01*
X120777340Y-102720508D01*
X120779226Y-102721955D01*
X120780193Y-102723362D01*
X120781924Y-102725093D01*
X120781603Y-102725413D01*
X120813884Y-102772378D01*
X120812285Y-102833543D01*
X120775040Y-102882086D01*
X120718962Y-102899500D01*
X120705817Y-102899500D01*
X120572164Y-102935312D01*
X120452335Y-103004495D01*
X120354495Y-103102335D01*
X120285312Y-103222164D01*
X120249500Y-103355817D01*
X120249500Y-103494183D01*
X120285312Y-103627836D01*
X120354495Y-103747665D01*
X120452335Y-103845505D01*
X120519053Y-103884024D01*
X120559994Y-103929492D01*
X120566390Y-103990342D01*
X120555290Y-104019258D01*
X120510312Y-104097164D01*
X120474500Y-104230817D01*
X120474500Y-104369183D01*
X120510312Y-104502836D01*
X120579495Y-104622665D01*
X120677335Y-104720505D01*
X120797164Y-104789688D01*
X120930817Y-104825500D01*
X120930819Y-104825500D01*
X121069181Y-104825500D01*
X121069183Y-104825500D01*
X121202836Y-104789688D01*
X121234216Y-104771570D01*
X121294062Y-104758849D01*
X121349958Y-104783735D01*
X121380551Y-104836723D01*
X121382715Y-104857307D01*
X121382715Y-108037322D01*
X121363808Y-108095513D01*
X121353718Y-108107326D01*
X121204173Y-108256870D01*
X121186205Y-108266024D01*
X121170675Y-108278890D01*
X121159707Y-108279526D01*
X121149657Y-108284647D01*
X121109613Y-108282772D01*
X121109093Y-108282638D01*
X120999227Y-108253200D01*
X120994123Y-108253200D01*
X120982969Y-108250344D01*
X120961896Y-108236990D01*
X120939377Y-108226248D01*
X120936007Y-108220584D01*
X120931287Y-108217593D01*
X120925400Y-108202755D01*
X120911900Y-108180062D01*
X120889688Y-108097164D01*
X120862168Y-108049498D01*
X120849447Y-107989653D01*
X120862168Y-107950501D01*
X120889688Y-107902836D01*
X120925500Y-107769183D01*
X120925500Y-107630817D01*
X120889688Y-107497164D01*
X120820505Y-107377335D01*
X120722665Y-107279495D01*
X120602836Y-107210312D01*
X120489941Y-107180062D01*
X120438626Y-107146737D01*
X120419938Y-107110060D01*
X120389688Y-106997164D01*
X120320505Y-106877335D01*
X120222665Y-106779495D01*
X120102836Y-106710312D01*
X119969183Y-106674500D01*
X119830817Y-106674500D01*
X119824328Y-106674500D01*
X119824328Y-106671627D01*
X119775902Y-106662615D01*
X119733818Y-106618201D01*
X119725424Y-106591136D01*
X119722171Y-106570591D01*
X119666211Y-106398361D01*
X119583996Y-106237006D01*
X119477553Y-106090499D01*
X119349501Y-105962447D01*
X119202994Y-105856004D01*
X119202993Y-105856003D01*
X119202991Y-105856002D01*
X119041637Y-105773788D01*
X118869406Y-105717828D01*
X118690549Y-105689500D01*
X118690546Y-105689500D01*
X118509454Y-105689500D01*
X118509451Y-105689500D01*
X118330593Y-105717828D01*
X118158362Y-105773788D01*
X117997008Y-105856002D01*
X117965979Y-105878546D01*
X117850499Y-105962447D01*
X117722447Y-106090499D01*
X117677523Y-106152332D01*
X117616002Y-106237008D01*
X117533788Y-106398362D01*
X117477828Y-106570593D01*
X117449500Y-106749450D01*
X117449500Y-106930549D01*
X117477828Y-107109406D01*
X117533788Y-107281637D01*
X117605722Y-107422816D01*
X117616004Y-107442994D01*
X117722447Y-107589501D01*
X117850499Y-107717553D01*
X117997006Y-107823996D01*
X118158361Y-107906211D01*
X118330591Y-107962171D01*
X118393685Y-107972164D01*
X118509451Y-107990500D01*
X118509454Y-107990500D01*
X118690549Y-107990500D01*
X118806315Y-107972164D01*
X118869409Y-107962171D01*
X119041639Y-107906211D01*
X119202994Y-107823996D01*
X119349501Y-107717553D01*
X119441942Y-107625111D01*
X119496456Y-107597335D01*
X119556889Y-107606906D01*
X119572207Y-107616570D01*
X119577333Y-107620503D01*
X119577335Y-107620505D01*
X119697164Y-107689688D01*
X119810059Y-107719938D01*
X119823813Y-107728869D01*
X119839587Y-107733350D01*
X119847284Y-107744112D01*
X119861372Y-107753261D01*
X119877379Y-107781469D01*
X119878911Y-107785645D01*
X119910312Y-107902836D01*
X119942096Y-107957888D01*
X119945037Y-107965905D01*
X119945878Y-107988367D01*
X119950550Y-108010350D01*
X119947099Y-108020970D01*
X119947327Y-108027047D01*
X119943057Y-108033411D01*
X119937831Y-108049498D01*
X119910312Y-108097163D01*
X119910312Y-108097164D01*
X119874500Y-108230817D01*
X119874500Y-108369183D01*
X119910312Y-108502836D01*
X119979495Y-108622665D01*
X120077335Y-108720505D01*
X120197164Y-108789688D01*
X120309928Y-108819902D01*
X120361241Y-108853226D01*
X120379930Y-108889905D01*
X120413767Y-109016184D01*
X120413769Y-109016188D01*
X120486239Y-109141710D01*
X120486241Y-109141712D01*
X120486243Y-109141715D01*
X120588737Y-109244209D01*
X120686754Y-109300799D01*
X120727693Y-109346267D01*
X120736252Y-109386534D01*
X120736252Y-109639645D01*
X120744107Y-109658608D01*
X120748906Y-109719605D01*
X120716936Y-109771773D01*
X120660408Y-109795187D01*
X120618779Y-109788595D01*
X120618753Y-109788696D01*
X120617799Y-109788440D01*
X120614765Y-109787960D01*
X120612489Y-109787017D01*
X120523790Y-109763250D01*
X120472475Y-109749500D01*
X120327525Y-109749500D01*
X120276210Y-109763250D01*
X120187510Y-109787017D01*
X120061989Y-109859487D01*
X119959487Y-109961989D01*
X119887017Y-110087510D01*
X119849500Y-110227525D01*
X119849500Y-110372474D01*
X119887017Y-110512489D01*
X119959487Y-110638010D01*
X119959489Y-110638012D01*
X119959491Y-110638015D01*
X120061985Y-110740509D01*
X120061987Y-110740510D01*
X120061989Y-110740512D01*
X120187511Y-110812982D01*
X120187512Y-110812982D01*
X120187515Y-110812984D01*
X120327525Y-110850500D01*
X120327526Y-110850500D01*
X120472474Y-110850500D01*
X120472475Y-110850500D01*
X120612485Y-110812984D01*
X120612487Y-110812982D01*
X120612489Y-110812982D01*
X120738010Y-110740512D01*
X120738010Y-110740511D01*
X120738015Y-110740509D01*
X120840509Y-110638015D01*
X120840512Y-110638010D01*
X120912982Y-110512489D01*
X120912982Y-110512487D01*
X120912984Y-110512485D01*
X120950500Y-110372475D01*
X120950500Y-110227525D01*
X120924380Y-110130044D01*
X120927581Y-110068943D01*
X120966086Y-110021393D01*
X121025187Y-110005557D01*
X121082308Y-110027483D01*
X121090010Y-110034417D01*
X126173485Y-115117892D01*
X126201262Y-115172409D01*
X126191691Y-115232841D01*
X126148426Y-115276106D01*
X126087994Y-115285677D01*
X126077859Y-115283523D01*
X126044183Y-115274500D01*
X125905817Y-115274500D01*
X125772164Y-115310312D01*
X125699498Y-115352265D01*
X125639651Y-115364986D01*
X125600502Y-115352265D01*
X125527836Y-115310312D01*
X125394183Y-115274500D01*
X125255817Y-115274500D01*
X125122164Y-115310312D01*
X125006983Y-115376812D01*
X125002332Y-115379497D01*
X124982500Y-115399328D01*
X124927982Y-115427104D01*
X124867550Y-115417530D01*
X124842498Y-115399328D01*
X124797665Y-115354495D01*
X124677836Y-115285312D01*
X124544183Y-115249500D01*
X124405817Y-115249500D01*
X124338990Y-115267406D01*
X124272162Y-115285312D01*
X124153849Y-115353620D01*
X124094001Y-115366341D01*
X124054852Y-115353620D01*
X123979839Y-115310312D01*
X123846186Y-115274500D01*
X123707820Y-115274500D01*
X123574167Y-115310312D01*
X123574165Y-115310312D01*
X123574165Y-115310313D01*
X123537999Y-115331193D01*
X123478151Y-115343912D01*
X123439002Y-115331192D01*
X123402837Y-115310312D01*
X123358285Y-115298374D01*
X123269183Y-115274500D01*
X123130817Y-115274500D01*
X123041715Y-115298374D01*
X122997163Y-115310312D01*
X122954526Y-115334928D01*
X122894677Y-115347647D01*
X122855530Y-115334928D01*
X122825883Y-115317812D01*
X122797892Y-115310312D01*
X122692230Y-115282000D01*
X122553864Y-115282000D01*
X122420211Y-115317812D01*
X122420209Y-115317812D01*
X122420209Y-115317813D01*
X122367516Y-115348234D01*
X122307667Y-115360953D01*
X122268519Y-115348233D01*
X122202837Y-115310312D01*
X122158285Y-115298374D01*
X122069183Y-115274500D01*
X121930817Y-115274500D01*
X121889104Y-115285677D01*
X121797162Y-115310312D01*
X121699499Y-115366698D01*
X121639651Y-115379419D01*
X121600501Y-115366698D01*
X121502837Y-115310312D01*
X121458285Y-115298374D01*
X121369183Y-115274500D01*
X121349500Y-115274500D01*
X121291309Y-115255593D01*
X121255345Y-115206093D01*
X121250500Y-115175500D01*
X121250500Y-115027525D01*
X121212984Y-114887515D01*
X121212982Y-114887512D01*
X121212982Y-114887510D01*
X121140512Y-114761989D01*
X121140510Y-114761987D01*
X121140509Y-114761985D01*
X121038015Y-114659491D01*
X121038012Y-114659489D01*
X121038010Y-114659487D01*
X120912488Y-114587017D01*
X120912489Y-114587017D01*
X120882896Y-114579087D01*
X120772475Y-114549500D01*
X120627525Y-114549500D01*
X120565790Y-114566041D01*
X120487510Y-114587017D01*
X120361989Y-114659487D01*
X120259487Y-114761989D01*
X120187017Y-114887510D01*
X120187016Y-114887515D01*
X120149500Y-115027525D01*
X120149500Y-115172475D01*
X120165675Y-115232841D01*
X120187017Y-115312489D01*
X120259487Y-115438010D01*
X120259489Y-115438012D01*
X120259491Y-115438015D01*
X120361985Y-115540509D01*
X120361987Y-115540510D01*
X120361989Y-115540512D01*
X120487511Y-115612982D01*
X120487512Y-115612982D01*
X120487515Y-115612984D01*
X120627525Y-115650500D01*
X120627526Y-115650500D01*
X120675500Y-115650500D01*
X120733691Y-115669407D01*
X120769655Y-115718907D01*
X120774500Y-115749500D01*
X120774500Y-115869183D01*
X120810312Y-116002836D01*
X120879495Y-116122665D01*
X120977335Y-116220505D01*
X121097164Y-116289688D01*
X121230817Y-116325500D01*
X121230819Y-116325500D01*
X121369181Y-116325500D01*
X121369183Y-116325500D01*
X121502836Y-116289688D01*
X121600502Y-116233300D01*
X121660348Y-116220580D01*
X121699496Y-116233299D01*
X121797164Y-116289688D01*
X121930817Y-116325500D01*
X121930819Y-116325500D01*
X122069181Y-116325500D01*
X122069183Y-116325500D01*
X122202836Y-116289688D01*
X122255528Y-116259265D01*
X122315375Y-116246544D01*
X122354527Y-116259265D01*
X122420211Y-116297188D01*
X122553864Y-116333000D01*
X122553866Y-116333000D01*
X122692228Y-116333000D01*
X122692230Y-116333000D01*
X122825883Y-116297188D01*
X122868517Y-116272572D01*
X122928364Y-116259850D01*
X122967517Y-116272571D01*
X122997164Y-116289688D01*
X123130817Y-116325500D01*
X123130819Y-116325500D01*
X123269181Y-116325500D01*
X123269183Y-116325500D01*
X123402836Y-116289688D01*
X123439002Y-116268807D01*
X123498848Y-116256086D01*
X123537998Y-116268806D01*
X123574167Y-116289688D01*
X123707820Y-116325500D01*
X123707822Y-116325500D01*
X123846184Y-116325500D01*
X123846186Y-116325500D01*
X123979839Y-116289688D01*
X124098152Y-116221379D01*
X124158000Y-116208658D01*
X124197152Y-116221380D01*
X124272164Y-116264688D01*
X124405817Y-116300500D01*
X124405819Y-116300500D01*
X124544181Y-116300500D01*
X124544183Y-116300500D01*
X124677836Y-116264688D01*
X124797665Y-116195505D01*
X124817495Y-116175675D01*
X124872011Y-116147896D01*
X124932443Y-116157466D01*
X124957500Y-116175670D01*
X125002335Y-116220505D01*
X125122164Y-116289688D01*
X125255817Y-116325500D01*
X125255819Y-116325500D01*
X125394181Y-116325500D01*
X125394183Y-116325500D01*
X125527836Y-116289688D01*
X125600502Y-116247734D01*
X125660348Y-116235013D01*
X125699496Y-116247733D01*
X125772164Y-116289688D01*
X125905817Y-116325500D01*
X125905819Y-116325500D01*
X126044181Y-116325500D01*
X126044183Y-116325500D01*
X126177836Y-116289688D01*
X126297665Y-116220505D01*
X126395505Y-116122665D01*
X126464688Y-116002836D01*
X126500500Y-115869183D01*
X126500500Y-115730817D01*
X126491476Y-115697139D01*
X126494679Y-115636040D01*
X126533184Y-115588490D01*
X126592284Y-115572654D01*
X126649406Y-115594580D01*
X126657107Y-115601514D01*
X126780504Y-115724911D01*
X126808281Y-115779428D01*
X126809500Y-115794915D01*
X126809500Y-117597165D01*
X126790593Y-117655356D01*
X126760000Y-117682901D01*
X126661989Y-117739487D01*
X126559487Y-117841989D01*
X126487017Y-117967510D01*
X126460570Y-118066211D01*
X126449500Y-118107525D01*
X126449500Y-118252475D01*
X126455402Y-118274500D01*
X126487017Y-118392489D01*
X126559487Y-118518010D01*
X126559489Y-118518012D01*
X126559491Y-118518015D01*
X126661985Y-118620509D01*
X126661987Y-118620510D01*
X126661989Y-118620512D01*
X126787511Y-118692982D01*
X126787512Y-118692982D01*
X126787515Y-118692984D01*
X126927525Y-118730500D01*
X126927526Y-118730500D01*
X127072474Y-118730500D01*
X127072475Y-118730500D01*
X127212485Y-118692984D01*
X127212487Y-118692982D01*
X127212489Y-118692982D01*
X127338010Y-118620512D01*
X127338010Y-118620511D01*
X127338015Y-118620509D01*
X127440509Y-118518015D01*
X127450070Y-118501456D01*
X129799500Y-118501456D01*
X129799500Y-118698543D01*
X129805857Y-118730500D01*
X129832079Y-118862327D01*
X129837949Y-118891834D01*
X129837949Y-118891836D01*
X129913367Y-119073913D01*
X129945942Y-119122664D01*
X130022861Y-119237782D01*
X130162218Y-119377139D01*
X130326086Y-119486632D01*
X130508165Y-119562051D01*
X130701459Y-119600500D01*
X130701460Y-119600500D01*
X130898540Y-119600500D01*
X130898541Y-119600500D01*
X131091835Y-119562051D01*
X131273914Y-119486632D01*
X131329561Y-119449450D01*
X132689500Y-119449450D01*
X132689500Y-119630549D01*
X132717828Y-119809406D01*
X132773788Y-119981637D01*
X132807157Y-120047128D01*
X132856004Y-120142994D01*
X132962447Y-120289501D01*
X133090499Y-120417553D01*
X133237006Y-120523996D01*
X133398361Y-120606211D01*
X133570591Y-120662171D01*
X133642136Y-120673502D01*
X133749451Y-120690500D01*
X133749454Y-120690500D01*
X133930549Y-120690500D01*
X134019977Y-120676335D01*
X134109409Y-120662171D01*
X134281639Y-120606211D01*
X134442994Y-120523996D01*
X134589501Y-120417553D01*
X134717553Y-120289501D01*
X134823996Y-120142994D01*
X134906211Y-119981639D01*
X134962171Y-119809409D01*
X134985916Y-119659491D01*
X134990500Y-119630549D01*
X134990500Y-119449450D01*
X134968727Y-119311985D01*
X134962171Y-119270591D01*
X134906211Y-119098361D01*
X134823996Y-118937006D01*
X134717553Y-118790499D01*
X134589501Y-118662447D01*
X134442994Y-118556004D01*
X134442993Y-118556003D01*
X134442991Y-118556002D01*
X134281637Y-118473788D01*
X134109406Y-118417828D01*
X133930549Y-118389500D01*
X133930546Y-118389500D01*
X133749454Y-118389500D01*
X133749451Y-118389500D01*
X133570593Y-118417828D01*
X133398362Y-118473788D01*
X133237008Y-118556002D01*
X133180354Y-118597164D01*
X133090499Y-118662447D01*
X132962447Y-118790499D01*
X132961122Y-118792323D01*
X132856002Y-118937008D01*
X132773788Y-119098362D01*
X132717828Y-119270593D01*
X132689500Y-119449450D01*
X131329561Y-119449450D01*
X131437782Y-119377139D01*
X131577139Y-119237782D01*
X131686632Y-119073914D01*
X131762051Y-118891835D01*
X131800500Y-118698541D01*
X131800500Y-118501459D01*
X131762051Y-118308165D01*
X131686632Y-118126086D01*
X131577139Y-117962218D01*
X131437782Y-117822861D01*
X131273914Y-117713368D01*
X131273915Y-117713368D01*
X131273913Y-117713367D01*
X131091835Y-117637949D01*
X130898543Y-117599500D01*
X130898541Y-117599500D01*
X130701459Y-117599500D01*
X130701456Y-117599500D01*
X130508165Y-117637949D01*
X130508163Y-117637949D01*
X130326086Y-117713367D01*
X130162218Y-117822861D01*
X130162214Y-117822864D01*
X130022864Y-117962214D01*
X130022861Y-117962218D01*
X129913367Y-118126086D01*
X129837949Y-118308163D01*
X129837949Y-118308165D01*
X129799500Y-118501456D01*
X127450070Y-118501456D01*
X127466044Y-118473788D01*
X127481456Y-118447094D01*
X127500164Y-118414688D01*
X127512984Y-118392485D01*
X127550500Y-118252475D01*
X127550500Y-118107525D01*
X127512984Y-117967515D01*
X127512982Y-117967512D01*
X127512982Y-117967510D01*
X127440512Y-117841989D01*
X127440510Y-117841987D01*
X127440509Y-117841985D01*
X127338015Y-117739491D01*
X127338012Y-117739489D01*
X127338010Y-117739487D01*
X127240000Y-117682901D01*
X127199059Y-117637432D01*
X127190500Y-117597165D01*
X127190500Y-116301456D01*
X129799500Y-116301456D01*
X129799500Y-116498543D01*
X129837949Y-116691834D01*
X129837949Y-116691836D01*
X129913367Y-116873913D01*
X129913368Y-116873914D01*
X130022861Y-117037782D01*
X130162218Y-117177139D01*
X130326086Y-117286632D01*
X130508165Y-117362051D01*
X130701459Y-117400500D01*
X130701460Y-117400500D01*
X130898540Y-117400500D01*
X130898541Y-117400500D01*
X131091835Y-117362051D01*
X131273914Y-117286632D01*
X131437782Y-117177139D01*
X131577139Y-117037782D01*
X131662888Y-116909450D01*
X132689500Y-116909450D01*
X132689500Y-117090549D01*
X132717828Y-117269406D01*
X132773788Y-117441637D01*
X132854223Y-117599500D01*
X132856004Y-117602994D01*
X132962447Y-117749501D01*
X133090499Y-117877553D01*
X133237006Y-117983996D01*
X133398361Y-118066211D01*
X133570591Y-118122171D01*
X133642136Y-118133502D01*
X133749451Y-118150500D01*
X133749454Y-118150500D01*
X133930549Y-118150500D01*
X134019977Y-118136335D01*
X134109409Y-118122171D01*
X134281639Y-118066211D01*
X134442994Y-117983996D01*
X134589501Y-117877553D01*
X134717553Y-117749501D01*
X134823996Y-117602994D01*
X134906211Y-117441639D01*
X134962171Y-117269409D01*
X134990500Y-117090546D01*
X134990500Y-116909454D01*
X134990500Y-116909450D01*
X134962171Y-116730593D01*
X134962171Y-116730591D01*
X134906211Y-116558361D01*
X134823996Y-116397006D01*
X134717553Y-116250499D01*
X134589501Y-116122447D01*
X134442994Y-116016004D01*
X134442993Y-116016003D01*
X134442991Y-116016002D01*
X134281637Y-115933788D01*
X134109406Y-115877828D01*
X133930549Y-115849500D01*
X133930546Y-115849500D01*
X133749454Y-115849500D01*
X133749451Y-115849500D01*
X133570593Y-115877828D01*
X133398362Y-115933788D01*
X133237008Y-116016002D01*
X133206717Y-116038010D01*
X133090499Y-116122447D01*
X132962447Y-116250499D01*
X132925425Y-116301456D01*
X132856002Y-116397008D01*
X132773788Y-116558362D01*
X132717828Y-116730593D01*
X132689500Y-116909450D01*
X131662888Y-116909450D01*
X131686632Y-116873914D01*
X131762051Y-116691835D01*
X131800500Y-116498541D01*
X131800500Y-116301459D01*
X131762051Y-116108165D01*
X131686632Y-115926086D01*
X131577139Y-115762218D01*
X131437782Y-115622861D01*
X131314538Y-115540512D01*
X131273913Y-115513367D01*
X131091835Y-115437949D01*
X130898543Y-115399500D01*
X130898541Y-115399500D01*
X130701459Y-115399500D01*
X130701456Y-115399500D01*
X130508165Y-115437949D01*
X130508163Y-115437949D01*
X130326086Y-115513367D01*
X130162218Y-115622861D01*
X130162214Y-115622864D01*
X130022864Y-115762214D01*
X130022861Y-115762218D01*
X129913367Y-115926086D01*
X129837949Y-116108163D01*
X129837949Y-116108165D01*
X129799500Y-116301456D01*
X127190500Y-116301456D01*
X127190500Y-115637108D01*
X127190500Y-115637107D01*
X127186531Y-115627525D01*
X128349500Y-115627525D01*
X128349500Y-115772474D01*
X128387017Y-115912489D01*
X128459487Y-116038010D01*
X128459489Y-116038012D01*
X128459491Y-116038015D01*
X128561985Y-116140509D01*
X128561987Y-116140510D01*
X128561989Y-116140512D01*
X128687511Y-116212982D01*
X128687512Y-116212982D01*
X128687515Y-116212984D01*
X128827525Y-116250500D01*
X128827526Y-116250500D01*
X128972474Y-116250500D01*
X128972475Y-116250500D01*
X129112485Y-116212984D01*
X129112487Y-116212982D01*
X129112489Y-116212982D01*
X129116167Y-116210859D01*
X129238010Y-116140512D01*
X129238010Y-116140511D01*
X129238015Y-116140509D01*
X129340509Y-116038015D01*
X129400685Y-115933788D01*
X129412982Y-115912489D01*
X129412982Y-115912487D01*
X129412984Y-115912485D01*
X129450500Y-115772475D01*
X129450500Y-115627525D01*
X129412984Y-115487515D01*
X129412982Y-115487512D01*
X129412982Y-115487510D01*
X129340512Y-115361989D01*
X129340510Y-115361987D01*
X129340509Y-115361985D01*
X129238015Y-115259491D01*
X129238012Y-115259489D01*
X129238010Y-115259487D01*
X129112488Y-115187017D01*
X129112489Y-115187017D01*
X129058214Y-115172474D01*
X128972475Y-115149500D01*
X128827525Y-115149500D01*
X128765790Y-115166041D01*
X128687510Y-115187017D01*
X128561989Y-115259487D01*
X128459487Y-115361989D01*
X128387017Y-115487510D01*
X128349500Y-115627525D01*
X127186531Y-115627525D01*
X127161498Y-115567090D01*
X127107910Y-115513502D01*
X127107908Y-115513501D01*
X125821932Y-114227525D01*
X126749500Y-114227525D01*
X126749500Y-114372474D01*
X126787017Y-114512489D01*
X126859487Y-114638010D01*
X126859489Y-114638012D01*
X126859491Y-114638015D01*
X126961985Y-114740509D01*
X126961987Y-114740510D01*
X126961989Y-114740512D01*
X127087511Y-114812982D01*
X127087512Y-114812982D01*
X127087515Y-114812984D01*
X127227525Y-114850500D01*
X127227526Y-114850500D01*
X127372474Y-114850500D01*
X127372475Y-114850500D01*
X127512485Y-114812984D01*
X127512487Y-114812982D01*
X127512489Y-114812982D01*
X127638010Y-114740512D01*
X127638010Y-114740511D01*
X127638015Y-114740509D01*
X127740509Y-114638015D01*
X127769953Y-114587017D01*
X127812982Y-114512489D01*
X127812982Y-114512487D01*
X127812984Y-114512485D01*
X127850500Y-114372475D01*
X127850500Y-114227525D01*
X127812984Y-114087515D01*
X127812982Y-114087512D01*
X127812982Y-114087510D01*
X127740512Y-113961989D01*
X127740510Y-113961987D01*
X127740509Y-113961985D01*
X127656049Y-113877525D01*
X130549500Y-113877525D01*
X130549500Y-114022474D01*
X130587017Y-114162489D01*
X130659487Y-114288010D01*
X130659489Y-114288012D01*
X130659491Y-114288015D01*
X130761985Y-114390509D01*
X130761987Y-114390510D01*
X130761989Y-114390512D01*
X130887511Y-114462982D01*
X130887512Y-114462982D01*
X130887515Y-114462984D01*
X131027525Y-114500500D01*
X131027526Y-114500500D01*
X131172474Y-114500500D01*
X131172475Y-114500500D01*
X131312485Y-114462984D01*
X131312487Y-114462982D01*
X131312489Y-114462982D01*
X131438010Y-114390512D01*
X131438010Y-114390511D01*
X131438015Y-114390509D01*
X131459074Y-114369450D01*
X132689500Y-114369450D01*
X132689500Y-114550549D01*
X132717828Y-114729406D01*
X132773788Y-114901637D01*
X132837931Y-115027525D01*
X132856004Y-115062994D01*
X132962447Y-115209501D01*
X133090499Y-115337553D01*
X133237006Y-115443996D01*
X133398361Y-115526211D01*
X133570591Y-115582171D01*
X133642136Y-115593502D01*
X133749451Y-115610500D01*
X133749454Y-115610500D01*
X133930549Y-115610500D01*
X134031061Y-115594580D01*
X134109409Y-115582171D01*
X134281639Y-115526211D01*
X134442994Y-115443996D01*
X134589501Y-115337553D01*
X134717553Y-115209501D01*
X134823996Y-115062994D01*
X134906211Y-114901639D01*
X134962171Y-114729409D01*
X134990500Y-114550546D01*
X134990500Y-114369454D01*
X134990500Y-114369450D01*
X134962171Y-114190593D01*
X134962171Y-114190591D01*
X134906211Y-114018361D01*
X134823996Y-113857006D01*
X134717553Y-113710499D01*
X134589501Y-113582447D01*
X134442994Y-113476004D01*
X134442993Y-113476003D01*
X134442991Y-113476002D01*
X134281637Y-113393788D01*
X134109406Y-113337828D01*
X133930549Y-113309500D01*
X133930546Y-113309500D01*
X133749454Y-113309500D01*
X133749451Y-113309500D01*
X133570593Y-113337828D01*
X133398362Y-113393788D01*
X133237008Y-113476002D01*
X133190920Y-113509487D01*
X133090499Y-113582447D01*
X132962447Y-113710499D01*
X132909225Y-113783752D01*
X132856002Y-113857008D01*
X132773788Y-114018362D01*
X132717828Y-114190593D01*
X132689500Y-114369450D01*
X131459074Y-114369450D01*
X131540509Y-114288015D01*
X131612984Y-114162485D01*
X131650500Y-114022475D01*
X131650500Y-113877525D01*
X131612984Y-113737515D01*
X131612982Y-113737512D01*
X131612982Y-113737510D01*
X131540512Y-113611989D01*
X131540510Y-113611987D01*
X131540509Y-113611985D01*
X131438015Y-113509491D01*
X131438012Y-113509489D01*
X131438010Y-113509487D01*
X131312488Y-113437017D01*
X131312489Y-113437017D01*
X131269507Y-113425500D01*
X131172475Y-113399500D01*
X131027525Y-113399500D01*
X130965790Y-113416041D01*
X130887510Y-113437017D01*
X130761989Y-113509487D01*
X130659487Y-113611989D01*
X130587017Y-113737510D01*
X130549500Y-113877525D01*
X127656049Y-113877525D01*
X127638015Y-113859491D01*
X127638012Y-113859489D01*
X127638010Y-113859487D01*
X127512488Y-113787017D01*
X127512489Y-113787017D01*
X127482896Y-113779087D01*
X127372475Y-113749500D01*
X127227525Y-113749500D01*
X127165790Y-113766041D01*
X127087510Y-113787017D01*
X126961989Y-113859487D01*
X126859487Y-113961989D01*
X126787017Y-114087510D01*
X126749500Y-114227525D01*
X125821932Y-114227525D01*
X124425224Y-112830817D01*
X125374500Y-112830817D01*
X125374500Y-112969183D01*
X125410312Y-113102836D01*
X125479495Y-113222665D01*
X125577335Y-113320505D01*
X125697164Y-113389688D01*
X125830817Y-113425500D01*
X125830819Y-113425500D01*
X125969181Y-113425500D01*
X125969183Y-113425500D01*
X126102836Y-113389688D01*
X126222665Y-113320505D01*
X126320505Y-113222665D01*
X126389688Y-113102836D01*
X126425500Y-112969183D01*
X126425500Y-112830817D01*
X126389688Y-112697164D01*
X126320505Y-112577335D01*
X126222665Y-112479495D01*
X126102836Y-112410312D01*
X125969183Y-112374500D01*
X125830817Y-112374500D01*
X125697164Y-112410312D01*
X125577335Y-112479495D01*
X125479495Y-112577335D01*
X125410312Y-112697164D01*
X125374500Y-112830817D01*
X124425224Y-112830817D01*
X123087724Y-111493317D01*
X125924500Y-111493317D01*
X125924500Y-111631683D01*
X125960312Y-111765336D01*
X126029495Y-111885165D01*
X126127335Y-111983005D01*
X126247164Y-112052188D01*
X126380817Y-112088000D01*
X126380819Y-112088000D01*
X126519181Y-112088000D01*
X126519183Y-112088000D01*
X126652836Y-112052188D01*
X126772665Y-111983005D01*
X126870505Y-111885165D01*
X126939688Y-111765336D01*
X126975500Y-111631683D01*
X126975500Y-111493317D01*
X126939688Y-111359664D01*
X126870505Y-111239835D01*
X126772665Y-111141995D01*
X126652836Y-111072812D01*
X126519183Y-111037000D01*
X126380817Y-111037000D01*
X126247164Y-111072812D01*
X126127335Y-111141995D01*
X126029495Y-111239835D01*
X125960312Y-111359664D01*
X125924500Y-111493317D01*
X123087724Y-111493317D01*
X121821932Y-110227525D01*
X126349500Y-110227525D01*
X126349500Y-110372474D01*
X126387017Y-110512489D01*
X126459487Y-110638010D01*
X126459489Y-110638012D01*
X126459491Y-110638015D01*
X126561985Y-110740509D01*
X126561987Y-110740510D01*
X126561989Y-110740512D01*
X126687511Y-110812982D01*
X126687512Y-110812982D01*
X126687515Y-110812984D01*
X126827525Y-110850500D01*
X126827526Y-110850500D01*
X126972474Y-110850500D01*
X126972475Y-110850500D01*
X127112485Y-110812984D01*
X127112487Y-110812982D01*
X127112489Y-110812982D01*
X127238010Y-110740512D01*
X127238010Y-110740511D01*
X127238015Y-110740509D01*
X127247707Y-110730817D01*
X129399500Y-110730817D01*
X129399500Y-110869183D01*
X129435312Y-111002836D01*
X129504495Y-111122665D01*
X129602335Y-111220505D01*
X129722164Y-111289688D01*
X129855817Y-111325500D01*
X129855819Y-111325500D01*
X129994181Y-111325500D01*
X129994183Y-111325500D01*
X130127836Y-111289688D01*
X130247665Y-111220505D01*
X130345505Y-111122665D01*
X130414608Y-111002973D01*
X130460075Y-110962034D01*
X130520926Y-110955638D01*
X130570344Y-110982469D01*
X130657596Y-111069721D01*
X130777425Y-111138904D01*
X130911078Y-111174716D01*
X130911080Y-111174716D01*
X131049443Y-111174716D01*
X131049444Y-111174716D01*
X131064588Y-111170658D01*
X131125689Y-111173859D01*
X131173239Y-111212363D01*
X131189076Y-111271464D01*
X131185839Y-111291907D01*
X131149500Y-111427525D01*
X131149500Y-111572475D01*
X131165365Y-111631683D01*
X131187017Y-111712489D01*
X131259487Y-111838010D01*
X131259489Y-111838012D01*
X131259491Y-111838015D01*
X131361985Y-111940509D01*
X131361987Y-111940510D01*
X131361989Y-111940512D01*
X131487511Y-112012982D01*
X131487512Y-112012982D01*
X131487515Y-112012984D01*
X131627525Y-112050500D01*
X131627526Y-112050500D01*
X131772474Y-112050500D01*
X131772475Y-112050500D01*
X131912485Y-112012984D01*
X131912487Y-112012982D01*
X131912489Y-112012982D01*
X132038010Y-111940512D01*
X132038010Y-111940511D01*
X132038015Y-111940509D01*
X132140509Y-111838015D01*
X132145454Y-111829450D01*
X132689500Y-111829450D01*
X132689500Y-112010549D01*
X132717828Y-112189406D01*
X132717829Y-112189409D01*
X132773789Y-112361639D01*
X132856004Y-112522994D01*
X132962447Y-112669501D01*
X133090499Y-112797553D01*
X133237006Y-112903996D01*
X133398361Y-112986211D01*
X133570591Y-113042171D01*
X133642136Y-113053502D01*
X133749451Y-113070500D01*
X133749454Y-113070500D01*
X133930549Y-113070500D01*
X134019977Y-113056335D01*
X134109409Y-113042171D01*
X134281639Y-112986211D01*
X134442994Y-112903996D01*
X134589501Y-112797553D01*
X134717553Y-112669501D01*
X134823996Y-112522994D01*
X134906211Y-112361639D01*
X134962171Y-112189409D01*
X134984172Y-112050500D01*
X134990500Y-112010549D01*
X134990500Y-111829450D01*
X134962171Y-111650593D01*
X134962171Y-111650591D01*
X134906211Y-111478361D01*
X134823996Y-111317006D01*
X134717553Y-111170499D01*
X134589501Y-111042447D01*
X134442994Y-110936004D01*
X134442993Y-110936003D01*
X134442991Y-110936002D01*
X134281637Y-110853788D01*
X134109406Y-110797828D01*
X133930549Y-110769500D01*
X133930546Y-110769500D01*
X133749454Y-110769500D01*
X133749451Y-110769500D01*
X133570593Y-110797828D01*
X133398362Y-110853788D01*
X133237008Y-110936002D01*
X133187625Y-110971881D01*
X133090499Y-111042447D01*
X132962447Y-111170499D01*
X132926116Y-111220505D01*
X132856002Y-111317008D01*
X132773788Y-111478362D01*
X132717828Y-111650593D01*
X132689500Y-111829450D01*
X132145454Y-111829450D01*
X132178350Y-111772474D01*
X132212982Y-111712489D01*
X132212982Y-111712487D01*
X132212984Y-111712485D01*
X132250500Y-111572475D01*
X132250500Y-111427525D01*
X132212984Y-111287515D01*
X132212982Y-111287512D01*
X132212982Y-111287510D01*
X132140512Y-111161989D01*
X132140510Y-111161987D01*
X132140509Y-111161985D01*
X132038015Y-111059491D01*
X132038012Y-111059489D01*
X132038010Y-111059487D01*
X131912488Y-110987017D01*
X131912489Y-110987017D01*
X131856001Y-110971881D01*
X131772475Y-110949500D01*
X131627525Y-110949500D01*
X131627522Y-110949500D01*
X131595257Y-110958145D01*
X131534156Y-110954942D01*
X131486606Y-110916435D01*
X131470772Y-110857335D01*
X131474006Y-110836908D01*
X131505761Y-110718399D01*
X131505761Y-110580033D01*
X131469949Y-110446380D01*
X131400766Y-110326551D01*
X131302926Y-110228711D01*
X131183097Y-110159528D01*
X131049444Y-110123716D01*
X130911078Y-110123716D01*
X130777425Y-110159528D01*
X130657596Y-110228711D01*
X130559754Y-110326553D01*
X130490653Y-110446240D01*
X130445184Y-110487181D01*
X130384334Y-110493577D01*
X130334915Y-110466745D01*
X130247665Y-110379495D01*
X130127836Y-110310312D01*
X129994183Y-110274500D01*
X129855817Y-110274500D01*
X129722164Y-110310312D01*
X129602335Y-110379495D01*
X129504495Y-110477335D01*
X129435312Y-110597164D01*
X129399500Y-110730817D01*
X127247707Y-110730817D01*
X127340509Y-110638015D01*
X127340512Y-110638010D01*
X127412982Y-110512489D01*
X127412982Y-110512487D01*
X127412984Y-110512485D01*
X127450500Y-110372475D01*
X127450500Y-110372472D01*
X127451347Y-110366042D01*
X127453788Y-110366363D01*
X127469407Y-110318293D01*
X127518907Y-110282329D01*
X127580093Y-110282329D01*
X127591150Y-110287252D01*
X127591170Y-110287205D01*
X127597159Y-110289685D01*
X127597164Y-110289688D01*
X127730817Y-110325500D01*
X127730819Y-110325500D01*
X127869181Y-110325500D01*
X127869183Y-110325500D01*
X128002836Y-110289688D01*
X128122665Y-110220505D01*
X128220505Y-110122665D01*
X128289688Y-110002836D01*
X128325500Y-109869183D01*
X128325500Y-109730817D01*
X128289688Y-109597164D01*
X128220505Y-109477335D01*
X128122665Y-109379495D01*
X128002836Y-109310312D01*
X127869183Y-109274500D01*
X127730817Y-109274500D01*
X127632675Y-109300797D01*
X127597164Y-109310312D01*
X127477335Y-109379495D01*
X127379495Y-109477335D01*
X127310312Y-109597164D01*
X127273146Y-109735870D01*
X127239822Y-109787185D01*
X127182700Y-109809111D01*
X127128021Y-109795985D01*
X127112487Y-109787017D01*
X127112486Y-109787016D01*
X127112485Y-109787016D01*
X126972475Y-109749500D01*
X126827525Y-109749500D01*
X126776210Y-109763250D01*
X126687510Y-109787017D01*
X126561989Y-109859487D01*
X126459487Y-109961989D01*
X126387017Y-110087510D01*
X126349500Y-110227525D01*
X121821932Y-110227525D01*
X121146248Y-109551841D01*
X121142621Y-109544723D01*
X121136159Y-109540028D01*
X121128995Y-109517979D01*
X121118471Y-109497324D01*
X121117252Y-109481837D01*
X121117252Y-109386534D01*
X121136159Y-109328343D01*
X121166748Y-109300800D01*
X121264767Y-109244209D01*
X121367261Y-109141715D01*
X121367957Y-109140509D01*
X121439734Y-109016189D01*
X121439734Y-109016187D01*
X121439736Y-109016185D01*
X121477252Y-108876175D01*
X121477252Y-108731225D01*
X121447959Y-108621903D01*
X121451160Y-108560802D01*
X121473579Y-108526278D01*
X121681123Y-108318735D01*
X121681125Y-108318735D01*
X121734713Y-108265147D01*
X121763715Y-108195130D01*
X121763715Y-106980817D01*
X123024500Y-106980817D01*
X123024500Y-107119183D01*
X123060312Y-107252836D01*
X123129495Y-107372665D01*
X123227335Y-107470505D01*
X123347164Y-107539688D01*
X123480817Y-107575500D01*
X123480819Y-107575500D01*
X123619181Y-107575500D01*
X123619183Y-107575500D01*
X123752836Y-107539688D01*
X123872665Y-107470505D01*
X123970505Y-107372665D01*
X124039688Y-107252836D01*
X124075500Y-107119183D01*
X124075500Y-106980817D01*
X124050469Y-106887399D01*
X124053672Y-106826298D01*
X124067559Y-106801503D01*
X124070501Y-106797668D01*
X124070505Y-106797665D01*
X124139688Y-106677836D01*
X124175500Y-106544183D01*
X124175500Y-106440748D01*
X124194407Y-106382557D01*
X124204496Y-106370744D01*
X124207005Y-106368234D01*
X124207008Y-106368233D01*
X124304848Y-106270393D01*
X124374031Y-106150564D01*
X124409843Y-106016911D01*
X124409843Y-105878545D01*
X124409843Y-105874335D01*
X124428750Y-105816144D01*
X124438833Y-105804337D01*
X124531094Y-105712077D01*
X124600277Y-105592248D01*
X124600277Y-105592244D01*
X124602952Y-105587613D01*
X124648422Y-105546671D01*
X124709272Y-105540275D01*
X124762260Y-105570868D01*
X124784315Y-105611486D01*
X124820896Y-105748006D01*
X124820897Y-105748008D01*
X124820898Y-105748011D01*
X124893367Y-105873531D01*
X124893369Y-105873533D01*
X124893371Y-105873536D01*
X124995865Y-105976030D01*
X124995867Y-105976031D01*
X124995869Y-105976033D01*
X125121391Y-106048503D01*
X125121392Y-106048503D01*
X125121395Y-106048505D01*
X125261405Y-106086021D01*
X125261406Y-106086021D01*
X125406354Y-106086021D01*
X125406355Y-106086021D01*
X125546365Y-106048505D01*
X125546367Y-106048503D01*
X125546369Y-106048503D01*
X125671890Y-105976033D01*
X125671890Y-105976032D01*
X125671895Y-105976030D01*
X125774389Y-105873536D01*
X125800451Y-105828394D01*
X125845920Y-105787453D01*
X125906771Y-105781057D01*
X125959759Y-105811650D01*
X125984646Y-105867545D01*
X125981815Y-105903516D01*
X125974500Y-105930817D01*
X125974500Y-106069183D01*
X126005271Y-106184021D01*
X126002068Y-106245123D01*
X125963563Y-106292672D01*
X125904463Y-106308508D01*
X125884024Y-106305271D01*
X125769183Y-106274500D01*
X125630817Y-106274500D01*
X125497164Y-106310312D01*
X125377335Y-106379495D01*
X125279495Y-106477335D01*
X125210312Y-106597164D01*
X125174500Y-106730817D01*
X125174500Y-106869183D01*
X125210312Y-107002836D01*
X125279495Y-107122665D01*
X125279497Y-107122667D01*
X125301186Y-107144357D01*
X125328962Y-107198874D01*
X125319390Y-107259306D01*
X125316919Y-107263856D01*
X125302311Y-107289159D01*
X125302310Y-107289161D01*
X125302310Y-107289162D01*
X125266498Y-107422815D01*
X125266498Y-107561181D01*
X125302310Y-107694834D01*
X125371493Y-107814663D01*
X125469333Y-107912503D01*
X125589162Y-107981686D01*
X125629499Y-107992493D01*
X125680813Y-108025817D01*
X125699502Y-108062496D01*
X125710310Y-108102832D01*
X125710311Y-108102835D01*
X125710312Y-108102836D01*
X125779495Y-108222665D01*
X125877335Y-108320505D01*
X125997164Y-108389688D01*
X126130817Y-108425500D01*
X126130819Y-108425500D01*
X126269181Y-108425500D01*
X126269183Y-108425500D01*
X126356139Y-108402200D01*
X126417238Y-108405402D01*
X126464788Y-108443908D01*
X126480624Y-108503008D01*
X126477387Y-108523450D01*
X126449500Y-108627525D01*
X126449500Y-108772474D01*
X126487017Y-108912489D01*
X126559487Y-109038010D01*
X126559489Y-109038012D01*
X126559491Y-109038015D01*
X126661985Y-109140509D01*
X126661987Y-109140510D01*
X126661989Y-109140512D01*
X126787511Y-109212982D01*
X126787512Y-109212982D01*
X126787515Y-109212984D01*
X126927525Y-109250500D01*
X126927526Y-109250500D01*
X127072474Y-109250500D01*
X127072475Y-109250500D01*
X127212485Y-109212984D01*
X127212487Y-109212982D01*
X127212489Y-109212982D01*
X127338010Y-109140512D01*
X127338010Y-109140511D01*
X127338015Y-109140509D01*
X127347707Y-109130817D01*
X128474500Y-109130817D01*
X128474500Y-109269183D01*
X128510312Y-109402836D01*
X128579495Y-109522665D01*
X128677335Y-109620505D01*
X128797164Y-109689688D01*
X128930817Y-109725500D01*
X128930819Y-109725500D01*
X129069181Y-109725500D01*
X129069183Y-109725500D01*
X129202836Y-109689688D01*
X129322665Y-109620505D01*
X129420505Y-109522665D01*
X129489688Y-109402836D01*
X129525500Y-109269183D01*
X129525500Y-109130817D01*
X129489688Y-108997164D01*
X129420505Y-108877335D01*
X129322665Y-108779495D01*
X129202836Y-108710312D01*
X129069183Y-108674500D01*
X128930817Y-108674500D01*
X128797164Y-108710312D01*
X128677335Y-108779495D01*
X128579495Y-108877335D01*
X128510312Y-108997164D01*
X128474500Y-109130817D01*
X127347707Y-109130817D01*
X127440509Y-109038015D01*
X127453113Y-109016184D01*
X127512982Y-108912489D01*
X127512982Y-108912487D01*
X127512984Y-108912485D01*
X127550500Y-108772475D01*
X127550500Y-108632677D01*
X127569407Y-108574486D01*
X127618907Y-108538522D01*
X127680093Y-108538522D01*
X127719501Y-108562671D01*
X127777335Y-108620505D01*
X127897164Y-108689688D01*
X128030817Y-108725500D01*
X128030819Y-108725500D01*
X128169181Y-108725500D01*
X128169183Y-108725500D01*
X128302836Y-108689688D01*
X128422665Y-108620505D01*
X128520505Y-108522665D01*
X128589688Y-108402836D01*
X128602286Y-108355817D01*
X128611953Y-108340931D01*
X128617282Y-108323998D01*
X128627600Y-108316835D01*
X128635608Y-108304505D01*
X128666446Y-108287576D01*
X128669324Y-108286610D01*
X128751378Y-108264625D01*
X128774174Y-108251463D01*
X128783599Y-108248304D01*
X128804734Y-108248107D01*
X128825410Y-108243712D01*
X128837986Y-108247798D01*
X128844782Y-108247735D01*
X128850641Y-108251909D01*
X128864564Y-108256433D01*
X128913432Y-108284647D01*
X128922164Y-108289688D01*
X129055817Y-108325500D01*
X129055819Y-108325500D01*
X129194181Y-108325500D01*
X129194183Y-108325500D01*
X129327836Y-108289688D01*
X129447665Y-108220505D01*
X129545505Y-108122665D01*
X129555232Y-108105817D01*
X130411192Y-108105817D01*
X130411192Y-108244183D01*
X130447004Y-108377836D01*
X130516187Y-108497665D01*
X130614027Y-108595505D01*
X130733856Y-108664688D01*
X130867509Y-108700500D01*
X130867511Y-108700500D01*
X130880399Y-108700500D01*
X130938590Y-108719407D01*
X130974554Y-108768907D01*
X130976025Y-108825121D01*
X130974500Y-108830817D01*
X130974500Y-108969183D01*
X131010312Y-109102836D01*
X131079495Y-109222665D01*
X131177335Y-109320505D01*
X131297164Y-109389688D01*
X131430817Y-109425500D01*
X131430819Y-109425500D01*
X131569181Y-109425500D01*
X131569183Y-109425500D01*
X131702836Y-109389688D01*
X131822665Y-109320505D01*
X131853720Y-109289450D01*
X132689500Y-109289450D01*
X132689500Y-109470549D01*
X132717828Y-109649406D01*
X132765453Y-109795985D01*
X132773789Y-109821639D01*
X132856004Y-109982994D01*
X132962447Y-110129501D01*
X133090499Y-110257553D01*
X133237006Y-110363996D01*
X133398361Y-110446211D01*
X133570591Y-110502171D01*
X133635711Y-110512485D01*
X133749451Y-110530500D01*
X133749454Y-110530500D01*
X133930549Y-110530500D01*
X134044263Y-110512489D01*
X134109409Y-110502171D01*
X134281639Y-110446211D01*
X134442994Y-110363996D01*
X134589501Y-110257553D01*
X134717553Y-110129501D01*
X134823996Y-109982994D01*
X134906211Y-109821639D01*
X134962171Y-109649409D01*
X134982245Y-109522665D01*
X134990500Y-109470549D01*
X134990500Y-109289450D01*
X134971614Y-109170212D01*
X134962171Y-109110591D01*
X134906211Y-108938361D01*
X134823996Y-108777006D01*
X134717553Y-108630499D01*
X134589501Y-108502447D01*
X134442994Y-108396004D01*
X134442993Y-108396003D01*
X134442991Y-108396002D01*
X134281637Y-108313788D01*
X134109406Y-108257828D01*
X133930549Y-108229500D01*
X133930546Y-108229500D01*
X133749454Y-108229500D01*
X133749451Y-108229500D01*
X133570593Y-108257828D01*
X133398362Y-108313788D01*
X133237008Y-108396002D01*
X133196408Y-108425500D01*
X133090499Y-108502447D01*
X132962447Y-108630499D01*
X132930479Y-108674500D01*
X132856002Y-108777008D01*
X132773788Y-108938362D01*
X132717828Y-109110593D01*
X132689500Y-109289450D01*
X131853720Y-109289450D01*
X131920505Y-109222665D01*
X131989688Y-109102836D01*
X132025500Y-108969183D01*
X132025500Y-108830817D01*
X131989688Y-108697164D01*
X131920505Y-108577335D01*
X131822665Y-108479495D01*
X131702836Y-108410312D01*
X131569183Y-108374500D01*
X131556293Y-108374500D01*
X131498102Y-108355593D01*
X131462138Y-108306093D01*
X131460666Y-108249877D01*
X131462192Y-108244183D01*
X131462192Y-108105817D01*
X131426380Y-107972164D01*
X131410118Y-107943998D01*
X131397398Y-107884151D01*
X131422285Y-107828256D01*
X131475273Y-107797663D01*
X131495856Y-107795500D01*
X131572474Y-107795500D01*
X131572475Y-107795500D01*
X131712485Y-107757984D01*
X131712487Y-107757982D01*
X131712489Y-107757982D01*
X131838010Y-107685512D01*
X131838010Y-107685511D01*
X131838015Y-107685509D01*
X131940509Y-107583015D01*
X131945573Y-107574244D01*
X132012982Y-107457489D01*
X132012982Y-107457487D01*
X132012984Y-107457485D01*
X132050500Y-107317475D01*
X132050500Y-107172525D01*
X132012984Y-107032515D01*
X132012982Y-107032512D01*
X132012982Y-107032510D01*
X131940512Y-106906989D01*
X131940510Y-106906987D01*
X131940509Y-106906985D01*
X131838015Y-106804491D01*
X131838012Y-106804489D01*
X131838010Y-106804487D01*
X131742683Y-106749450D01*
X132689500Y-106749450D01*
X132689500Y-106930549D01*
X132717828Y-107109406D01*
X132773788Y-107281637D01*
X132845722Y-107422816D01*
X132856004Y-107442994D01*
X132962447Y-107589501D01*
X133090499Y-107717553D01*
X133237006Y-107823996D01*
X133398361Y-107906211D01*
X133570591Y-107962171D01*
X133633685Y-107972164D01*
X133749451Y-107990500D01*
X133749454Y-107990500D01*
X133930549Y-107990500D01*
X134046315Y-107972164D01*
X134109409Y-107962171D01*
X134281639Y-107906211D01*
X134442994Y-107823996D01*
X134589501Y-107717553D01*
X134717553Y-107589501D01*
X134823996Y-107442994D01*
X134906211Y-107281639D01*
X134962171Y-107109409D01*
X134976735Y-107017458D01*
X134990500Y-106930549D01*
X134990500Y-106749450D01*
X134969712Y-106618201D01*
X134962171Y-106570591D01*
X134906211Y-106398361D01*
X134823996Y-106237006D01*
X134717553Y-106090499D01*
X134589501Y-105962447D01*
X134442994Y-105856004D01*
X134442993Y-105856003D01*
X134442991Y-105856002D01*
X134281637Y-105773788D01*
X134109406Y-105717828D01*
X133930549Y-105689500D01*
X133930546Y-105689500D01*
X133749454Y-105689500D01*
X133749451Y-105689500D01*
X133570593Y-105717828D01*
X133398362Y-105773788D01*
X133237008Y-105856002D01*
X133205979Y-105878546D01*
X133090499Y-105962447D01*
X132962447Y-106090499D01*
X132917523Y-106152332D01*
X132856002Y-106237008D01*
X132773788Y-106398362D01*
X132717828Y-106570593D01*
X132689500Y-106749450D01*
X131742683Y-106749450D01*
X131712488Y-106732017D01*
X131712484Y-106732015D01*
X131627463Y-106709233D01*
X131576149Y-106675909D01*
X131554223Y-106618787D01*
X131554087Y-106613607D01*
X131554087Y-106555818D01*
X131553835Y-106554877D01*
X131518275Y-106422164D01*
X131449092Y-106302335D01*
X131351252Y-106204495D01*
X131351249Y-106204493D01*
X131346663Y-106199907D01*
X131348364Y-106198205D01*
X131319639Y-106156384D01*
X131321258Y-106095220D01*
X131344565Y-106058291D01*
X131405198Y-105997659D01*
X131474381Y-105877830D01*
X131510193Y-105744177D01*
X131510193Y-105605811D01*
X131475175Y-105475121D01*
X131478378Y-105414021D01*
X131516883Y-105366472D01*
X131566113Y-105351888D01*
X131566042Y-105351347D01*
X131569463Y-105350896D01*
X131570802Y-105350500D01*
X131572474Y-105350500D01*
X131572475Y-105350500D01*
X131712485Y-105312984D01*
X131712487Y-105312982D01*
X131712489Y-105312982D01*
X131838010Y-105240512D01*
X131838010Y-105240511D01*
X131838015Y-105240509D01*
X131940509Y-105138015D01*
X131946605Y-105127456D01*
X132012982Y-105012489D01*
X132012982Y-105012487D01*
X132012984Y-105012485D01*
X132050500Y-104872475D01*
X132050500Y-104727525D01*
X132012984Y-104587515D01*
X132012982Y-104587512D01*
X132012982Y-104587510D01*
X131940512Y-104461989D01*
X131940510Y-104461987D01*
X131940509Y-104461985D01*
X131838015Y-104359491D01*
X131838012Y-104359489D01*
X131838010Y-104359487D01*
X131719909Y-104291301D01*
X131719908Y-104291301D01*
X131712488Y-104287017D01*
X131712485Y-104287016D01*
X131642480Y-104268258D01*
X131572472Y-104249499D01*
X131566042Y-104248653D01*
X131566282Y-104246829D01*
X131516309Y-104230593D01*
X131500948Y-104209450D01*
X132689500Y-104209450D01*
X132689500Y-104390549D01*
X132717828Y-104569406D01*
X132773788Y-104741637D01*
X132854555Y-104900152D01*
X132856004Y-104902994D01*
X132962447Y-105049501D01*
X133090499Y-105177553D01*
X133237006Y-105283996D01*
X133398361Y-105366211D01*
X133570591Y-105422171D01*
X133642136Y-105433502D01*
X133749451Y-105450500D01*
X133749454Y-105450500D01*
X133930549Y-105450500D01*
X134019977Y-105436335D01*
X134109409Y-105422171D01*
X134281639Y-105366211D01*
X134442994Y-105283996D01*
X134589501Y-105177553D01*
X134717553Y-105049501D01*
X134823996Y-104902994D01*
X134906211Y-104741639D01*
X134962171Y-104569409D01*
X134978045Y-104469183D01*
X134990500Y-104390549D01*
X134990500Y-104209450D01*
X134962171Y-104030593D01*
X134962171Y-104030591D01*
X134906211Y-103858361D01*
X134823996Y-103697006D01*
X134717553Y-103550499D01*
X134589501Y-103422447D01*
X134442994Y-103316004D01*
X134442993Y-103316003D01*
X134442991Y-103316002D01*
X134281637Y-103233788D01*
X134109406Y-103177828D01*
X133930549Y-103149500D01*
X133930546Y-103149500D01*
X133749454Y-103149500D01*
X133749451Y-103149500D01*
X133570593Y-103177828D01*
X133398362Y-103233788D01*
X133237008Y-103316002D01*
X133182208Y-103355817D01*
X133090499Y-103422447D01*
X132962447Y-103550499D01*
X132950566Y-103566852D01*
X132856002Y-103697008D01*
X132773788Y-103858362D01*
X132717828Y-104030593D01*
X132689500Y-104209450D01*
X131500948Y-104209450D01*
X131480345Y-104181093D01*
X131475500Y-104150500D01*
X131475500Y-104080818D01*
X131474567Y-104077335D01*
X131439688Y-103947164D01*
X131370505Y-103827335D01*
X131272665Y-103729495D01*
X131152836Y-103660312D01*
X131019183Y-103624500D01*
X130880817Y-103624500D01*
X130747164Y-103660312D01*
X130627335Y-103729495D01*
X130529495Y-103827335D01*
X130460312Y-103947164D01*
X130424500Y-104080817D01*
X130424500Y-104219183D01*
X130460312Y-104352836D01*
X130529495Y-104472665D01*
X130627335Y-104570505D01*
X130747164Y-104639688D01*
X130876124Y-104674242D01*
X130927437Y-104707565D01*
X130949364Y-104764686D01*
X130949500Y-104769868D01*
X130949500Y-104872475D01*
X130963708Y-104925500D01*
X130987018Y-105012492D01*
X130987764Y-105014293D01*
X130987873Y-105015682D01*
X130988696Y-105018753D01*
X130988126Y-105018905D01*
X130992558Y-105075290D01*
X130960583Y-105127456D01*
X130921056Y-105145123D01*
X130921778Y-105147815D01*
X130915512Y-105149494D01*
X130915510Y-105149494D01*
X130781857Y-105185306D01*
X130662028Y-105254489D01*
X130564188Y-105352329D01*
X130495005Y-105472158D01*
X130459193Y-105605811D01*
X130459193Y-105744177D01*
X130495005Y-105877830D01*
X130564188Y-105997659D01*
X130662028Y-106095499D01*
X130662030Y-106095500D01*
X130666617Y-106100087D01*
X130664913Y-106101790D01*
X130693638Y-106143602D01*
X130692024Y-106204766D01*
X130668713Y-106241703D01*
X130608084Y-106302332D01*
X130608082Y-106302334D01*
X130608082Y-106302335D01*
X130538899Y-106422164D01*
X130503087Y-106555817D01*
X130503087Y-106694183D01*
X130538899Y-106827836D01*
X130608082Y-106947665D01*
X130705922Y-107045505D01*
X130825751Y-107114688D01*
X130876123Y-107128185D01*
X130927437Y-107161507D01*
X130949364Y-107218629D01*
X130949500Y-107223811D01*
X130949500Y-107317475D01*
X130985619Y-107452272D01*
X130987017Y-107457487D01*
X131012139Y-107500999D01*
X131024861Y-107560848D01*
X130999975Y-107616743D01*
X130946987Y-107647336D01*
X130926403Y-107649500D01*
X130867509Y-107649500D01*
X130733856Y-107685312D01*
X130614027Y-107754495D01*
X130516187Y-107852335D01*
X130447004Y-107972164D01*
X130411192Y-108105817D01*
X129555232Y-108105817D01*
X129576383Y-108069183D01*
X129587558Y-108049828D01*
X129614687Y-108002837D01*
X129614688Y-108002836D01*
X129650500Y-107869183D01*
X129650500Y-107730817D01*
X129614688Y-107597164D01*
X129545505Y-107477335D01*
X129522446Y-107454276D01*
X129494671Y-107399762D01*
X129504242Y-107339330D01*
X129542950Y-107298539D01*
X129634808Y-107245506D01*
X129732648Y-107147666D01*
X129801831Y-107027837D01*
X129837643Y-106894184D01*
X129837643Y-106755818D01*
X129801831Y-106622165D01*
X129732648Y-106502336D01*
X129634808Y-106404496D01*
X129624182Y-106398361D01*
X129522891Y-106339880D01*
X129481950Y-106294411D01*
X129475554Y-106233560D01*
X129490944Y-106200178D01*
X129490346Y-106199833D01*
X129493588Y-106194216D01*
X129493591Y-106194214D01*
X129562774Y-106074385D01*
X129598586Y-105940732D01*
X129598586Y-105802366D01*
X129562774Y-105668713D01*
X129493591Y-105548884D01*
X129395751Y-105451044D01*
X129275922Y-105381861D01*
X129142269Y-105346049D01*
X129003903Y-105346049D01*
X128870250Y-105381861D01*
X128750421Y-105451044D01*
X128652581Y-105548884D01*
X128583398Y-105668713D01*
X128555244Y-105773788D01*
X128547586Y-105802367D01*
X128547586Y-105875500D01*
X128528679Y-105933691D01*
X128479179Y-105969655D01*
X128448586Y-105974500D01*
X128430817Y-105974500D01*
X128297164Y-106010312D01*
X128177335Y-106079495D01*
X128079495Y-106177335D01*
X128010312Y-106297164D01*
X127974500Y-106430817D01*
X127974500Y-106569183D01*
X128010312Y-106702836D01*
X128079495Y-106822665D01*
X128177335Y-106920505D01*
X128297164Y-106989688D01*
X128430817Y-107025500D01*
X128430819Y-107025500D01*
X128569181Y-107025500D01*
X128569183Y-107025500D01*
X128702836Y-106989688D01*
X128702837Y-106989687D01*
X128709104Y-106988008D01*
X128709543Y-106989647D01*
X128710489Y-106989573D01*
X128718385Y-106984982D01*
X128740355Y-106987222D01*
X128762378Y-106985489D01*
X128770167Y-106990262D01*
X128779254Y-106991189D01*
X128795550Y-107005816D01*
X128814548Y-107017458D01*
X128824851Y-107031988D01*
X128824931Y-107032125D01*
X128891638Y-107147666D01*
X128892781Y-107148809D01*
X128896796Y-107155713D01*
X128901979Y-107179734D01*
X128910179Y-107202892D01*
X128908326Y-107209146D01*
X128909702Y-107215522D01*
X128899778Y-107237997D01*
X128892799Y-107261557D01*
X128887623Y-107265527D01*
X128884989Y-107271495D01*
X128863750Y-107283844D01*
X128844256Y-107298802D01*
X128837734Y-107298972D01*
X128832096Y-107302251D01*
X128807656Y-107299758D01*
X128783092Y-107300401D01*
X128773487Y-107296274D01*
X128771227Y-107296044D01*
X128769634Y-107294619D01*
X128761716Y-107291217D01*
X128751380Y-107285250D01*
X128751379Y-107285249D01*
X128751378Y-107285249D01*
X128617725Y-107249437D01*
X128479359Y-107249437D01*
X128359186Y-107281637D01*
X128345706Y-107285249D01*
X128225877Y-107354432D01*
X128128037Y-107452272D01*
X128058852Y-107572104D01*
X128046255Y-107619118D01*
X128012931Y-107670432D01*
X127976253Y-107689120D01*
X127897164Y-107710312D01*
X127777335Y-107779495D01*
X127679492Y-107877338D01*
X127676942Y-107880662D01*
X127626515Y-107915315D01*
X127565351Y-107913710D01*
X127516811Y-107876460D01*
X127502777Y-107846015D01*
X127489688Y-107797164D01*
X127420505Y-107677335D01*
X127322665Y-107579495D01*
X127202836Y-107510312D01*
X127069183Y-107474500D01*
X126930817Y-107474500D01*
X126863990Y-107492406D01*
X126797162Y-107510312D01*
X126708462Y-107561523D01*
X126648614Y-107574244D01*
X126592718Y-107549357D01*
X126588978Y-107545808D01*
X126522665Y-107479495D01*
X126402836Y-107410312D01*
X126402835Y-107410311D01*
X126402832Y-107410310D01*
X126362496Y-107399502D01*
X126311182Y-107366178D01*
X126292494Y-107329500D01*
X126281686Y-107289162D01*
X126212503Y-107169333D01*
X126190809Y-107147639D01*
X126163034Y-107093125D01*
X126172605Y-107032693D01*
X126175067Y-107028159D01*
X126189688Y-107002836D01*
X126225500Y-106869183D01*
X126225500Y-106730817D01*
X126194728Y-106615974D01*
X126197930Y-106554877D01*
X126236435Y-106507327D01*
X126295536Y-106491491D01*
X126315967Y-106494726D01*
X126430817Y-106525500D01*
X126430819Y-106525500D01*
X126569181Y-106525500D01*
X126569183Y-106525500D01*
X126702836Y-106489688D01*
X126822665Y-106420505D01*
X126920505Y-106322665D01*
X126989688Y-106202836D01*
X127025500Y-106069183D01*
X127025500Y-105930817D01*
X126989688Y-105797164D01*
X126920505Y-105677335D01*
X126873226Y-105630056D01*
X126845451Y-105575542D01*
X126855022Y-105515110D01*
X126857485Y-105510574D01*
X126919688Y-105402836D01*
X126955500Y-105269183D01*
X126955500Y-105130817D01*
X126927049Y-105024636D01*
X126930251Y-104963538D01*
X126968757Y-104915988D01*
X127027857Y-104900152D01*
X127048294Y-104903388D01*
X127130817Y-104925500D01*
X127130819Y-104925500D01*
X127269181Y-104925500D01*
X127269183Y-104925500D01*
X127402836Y-104889688D01*
X127522665Y-104820505D01*
X127522670Y-104820499D01*
X127527811Y-104816556D01*
X127528643Y-104817641D01*
X127576801Y-104793097D01*
X127617916Y-104795248D01*
X127730817Y-104825500D01*
X127730820Y-104825500D01*
X127869181Y-104825500D01*
X127869183Y-104825500D01*
X128002836Y-104789688D01*
X128122665Y-104720505D01*
X128220505Y-104622665D01*
X128289688Y-104502836D01*
X128325500Y-104369183D01*
X128325500Y-104230817D01*
X128289688Y-104097164D01*
X128220505Y-103977335D01*
X128122665Y-103879495D01*
X128002836Y-103810312D01*
X127869183Y-103774500D01*
X127730817Y-103774500D01*
X127597164Y-103810312D01*
X127477335Y-103879495D01*
X127477334Y-103879495D01*
X127477327Y-103879500D01*
X127472185Y-103883446D01*
X127471354Y-103882364D01*
X127423174Y-103906906D01*
X127382078Y-103904750D01*
X127269183Y-103874500D01*
X127130817Y-103874500D01*
X126997164Y-103910312D01*
X126877335Y-103979495D01*
X126779495Y-104077335D01*
X126710312Y-104197164D01*
X126674500Y-104330817D01*
X126674500Y-104469183D01*
X126702950Y-104575360D01*
X126699747Y-104636462D01*
X126661242Y-104684012D01*
X126602141Y-104699847D01*
X126581701Y-104696610D01*
X126527985Y-104682217D01*
X126499183Y-104674500D01*
X126360817Y-104674500D01*
X126227164Y-104710312D01*
X126227161Y-104710313D01*
X126224263Y-104711090D01*
X126163162Y-104707887D01*
X126128638Y-104685468D01*
X126122665Y-104679495D01*
X126002836Y-104610312D01*
X125869183Y-104574500D01*
X125730817Y-104574500D01*
X125724329Y-104574500D01*
X125724329Y-104573134D01*
X125671168Y-104563276D01*
X125648414Y-104546284D01*
X125581485Y-104479355D01*
X125461656Y-104410172D01*
X125328003Y-104374360D01*
X125189637Y-104374360D01*
X125081049Y-104403456D01*
X125055984Y-104410172D01*
X124936151Y-104479357D01*
X124924338Y-104491170D01*
X124869820Y-104518944D01*
X124809389Y-104509369D01*
X124784338Y-104491168D01*
X124772665Y-104479495D01*
X124652836Y-104410312D01*
X124519183Y-104374500D01*
X124380817Y-104374500D01*
X124260797Y-104406658D01*
X124199696Y-104403456D01*
X124152146Y-104364951D01*
X124139549Y-104336659D01*
X124112984Y-104237515D01*
X124112982Y-104237512D01*
X124112982Y-104237510D01*
X124040512Y-104111989D01*
X124040510Y-104111987D01*
X124040509Y-104111985D01*
X123938015Y-104009491D01*
X123938012Y-104009489D01*
X123938010Y-104009487D01*
X123812488Y-103937017D01*
X123812489Y-103937017D01*
X123772493Y-103926300D01*
X123672475Y-103899500D01*
X123527525Y-103899500D01*
X123499886Y-103906906D01*
X123387510Y-103937017D01*
X123261989Y-104009487D01*
X123159487Y-104111989D01*
X123087017Y-104237510D01*
X123062015Y-104330818D01*
X123049500Y-104377525D01*
X123049500Y-104522475D01*
X123066926Y-104587510D01*
X123087017Y-104662489D01*
X123159486Y-104788008D01*
X123159488Y-104788011D01*
X123159489Y-104788012D01*
X123159491Y-104788015D01*
X123261985Y-104890509D01*
X123261987Y-104890510D01*
X123261989Y-104890512D01*
X123387511Y-104962982D01*
X123387512Y-104962982D01*
X123387515Y-104962984D01*
X123527525Y-105000500D01*
X123527526Y-105000500D01*
X123556859Y-105000500D01*
X123615050Y-105019407D01*
X123651014Y-105068907D01*
X123651014Y-105130093D01*
X123642597Y-105148995D01*
X123620901Y-105186576D01*
X123587031Y-105312984D01*
X123585089Y-105320230D01*
X123585089Y-105462805D01*
X123566182Y-105520996D01*
X123556098Y-105532802D01*
X123463838Y-105625063D01*
X123394655Y-105744892D01*
X123360187Y-105873531D01*
X123358843Y-105878546D01*
X123358843Y-105981979D01*
X123339936Y-106040170D01*
X123329847Y-106051982D01*
X123229497Y-106152332D01*
X123229495Y-106152334D01*
X123229495Y-106152335D01*
X123160312Y-106272164D01*
X123124500Y-106405817D01*
X123124500Y-106544183D01*
X123132293Y-106573269D01*
X123149530Y-106637599D01*
X123146327Y-106698700D01*
X123132454Y-106723477D01*
X123129499Y-106727328D01*
X123129495Y-106727335D01*
X123060312Y-106847164D01*
X123024500Y-106980817D01*
X121763715Y-106980817D01*
X121763715Y-103937201D01*
X121782622Y-103879010D01*
X121813211Y-103851467D01*
X121911230Y-103794876D01*
X122013724Y-103692382D01*
X122050990Y-103627836D01*
X122086197Y-103566856D01*
X122086197Y-103566854D01*
X122086199Y-103566852D01*
X122123715Y-103426842D01*
X122123715Y-103306699D01*
X122142622Y-103248508D01*
X122152711Y-103236695D01*
X122715132Y-102674274D01*
X123322578Y-102066827D01*
X123377093Y-102039052D01*
X123418203Y-102041206D01*
X123527522Y-102070499D01*
X123527524Y-102070500D01*
X123527525Y-102070500D01*
X123672474Y-102070500D01*
X123672475Y-102070500D01*
X123812485Y-102032984D01*
X123812487Y-102032982D01*
X123812489Y-102032982D01*
X123938010Y-101960512D01*
X123938010Y-101960511D01*
X123938015Y-101960509D01*
X124040509Y-101858015D01*
X124044821Y-101850546D01*
X124097099Y-101760000D01*
X124142568Y-101719059D01*
X124182835Y-101710500D01*
X125746610Y-101710500D01*
X125804801Y-101729407D01*
X125840765Y-101778907D01*
X125840765Y-101840093D01*
X125832346Y-101859000D01*
X125810313Y-101897161D01*
X125810312Y-101897163D01*
X125810312Y-101897164D01*
X125774500Y-102030817D01*
X125774500Y-102169183D01*
X125810312Y-102302836D01*
X125879495Y-102422665D01*
X125977335Y-102520505D01*
X126097164Y-102589688D01*
X126230817Y-102625500D01*
X126230819Y-102625500D01*
X126369181Y-102625500D01*
X126369183Y-102625500D01*
X126502836Y-102589688D01*
X126622665Y-102520505D01*
X126629998Y-102513171D01*
X126684513Y-102485396D01*
X126744945Y-102494967D01*
X126770000Y-102513170D01*
X126777335Y-102520505D01*
X126897164Y-102589688D01*
X127030817Y-102625500D01*
X127030819Y-102625500D01*
X127169181Y-102625500D01*
X127169183Y-102625500D01*
X127302836Y-102589688D01*
X127422665Y-102520505D01*
X127520505Y-102422665D01*
X127589688Y-102302836D01*
X127625500Y-102169183D01*
X127625500Y-102030817D01*
X127589688Y-101897164D01*
X127520505Y-101777335D01*
X127422665Y-101679495D01*
X127370987Y-101649658D01*
X127330048Y-101604191D01*
X127323652Y-101543341D01*
X127350483Y-101493922D01*
X128033151Y-100811255D01*
X128087667Y-100783479D01*
X128148099Y-100793050D01*
X128191364Y-100836315D01*
X128200935Y-100896747D01*
X128198781Y-100906883D01*
X128197152Y-100912961D01*
X128197152Y-100912962D01*
X128161340Y-101046615D01*
X128161340Y-101184981D01*
X128197079Y-101318361D01*
X128197153Y-101318637D01*
X128203625Y-101329847D01*
X128216344Y-101389696D01*
X128203624Y-101428843D01*
X128135312Y-101547164D01*
X128099500Y-101680817D01*
X128099500Y-101819183D01*
X128135312Y-101952836D01*
X128204495Y-102072665D01*
X128302335Y-102170505D01*
X128422164Y-102239688D01*
X128555817Y-102275500D01*
X128555819Y-102275500D01*
X128694181Y-102275500D01*
X128694183Y-102275500D01*
X128827836Y-102239688D01*
X128947665Y-102170505D01*
X129045505Y-102072665D01*
X129114688Y-101952836D01*
X129150500Y-101819183D01*
X129150500Y-101680817D01*
X129114688Y-101547164D01*
X129108215Y-101535953D01*
X129103912Y-101515709D01*
X129095494Y-101496802D01*
X129097693Y-101486454D01*
X129095494Y-101476107D01*
X129108213Y-101436958D01*
X129113659Y-101427525D01*
X130649500Y-101427525D01*
X130649500Y-101572475D01*
X130670182Y-101649661D01*
X130687017Y-101712489D01*
X130759487Y-101838010D01*
X130759489Y-101838012D01*
X130759491Y-101838015D01*
X130861985Y-101940509D01*
X130861987Y-101940510D01*
X130861989Y-101940512D01*
X130987511Y-102012982D01*
X130987512Y-102012982D01*
X130987515Y-102012984D01*
X131127525Y-102050500D01*
X131127526Y-102050500D01*
X131272474Y-102050500D01*
X131272475Y-102050500D01*
X131412485Y-102012984D01*
X131412487Y-102012982D01*
X131412489Y-102012982D01*
X131538010Y-101940512D01*
X131538010Y-101940511D01*
X131538015Y-101940509D01*
X131640509Y-101838015D01*
X131712984Y-101712485D01*
X131724515Y-101669450D01*
X132689500Y-101669450D01*
X132689500Y-101850549D01*
X132717828Y-102029406D01*
X132773788Y-102201637D01*
X132825351Y-102302836D01*
X132856004Y-102362994D01*
X132962447Y-102509501D01*
X133090499Y-102637553D01*
X133237006Y-102743996D01*
X133398361Y-102826211D01*
X133570591Y-102882171D01*
X133642136Y-102893502D01*
X133749451Y-102910500D01*
X133749454Y-102910500D01*
X133930549Y-102910500D01*
X134019977Y-102896335D01*
X134109409Y-102882171D01*
X134281639Y-102826211D01*
X134442994Y-102743996D01*
X134589501Y-102637553D01*
X134717553Y-102509501D01*
X134823996Y-102362994D01*
X134906211Y-102201639D01*
X134962171Y-102029409D01*
X134976335Y-101939977D01*
X134990500Y-101850549D01*
X134990500Y-101669450D01*
X134966149Y-101515709D01*
X134962171Y-101490591D01*
X134906211Y-101318361D01*
X134823996Y-101157006D01*
X134717553Y-101010499D01*
X134589501Y-100882447D01*
X134442994Y-100776004D01*
X134442993Y-100776003D01*
X134442991Y-100776002D01*
X134281637Y-100693788D01*
X134109406Y-100637828D01*
X133930549Y-100609500D01*
X133930546Y-100609500D01*
X133749454Y-100609500D01*
X133749451Y-100609500D01*
X133570593Y-100637828D01*
X133398362Y-100693788D01*
X133237008Y-100776002D01*
X133172784Y-100822664D01*
X133090499Y-100882447D01*
X132962447Y-101010499D01*
X132912325Y-101079487D01*
X132856002Y-101157008D01*
X132773788Y-101318362D01*
X132717828Y-101490593D01*
X132689500Y-101669450D01*
X131724515Y-101669450D01*
X131750500Y-101572475D01*
X131750500Y-101427525D01*
X131712984Y-101287515D01*
X131712982Y-101287512D01*
X131712982Y-101287510D01*
X131640512Y-101161989D01*
X131640510Y-101161987D01*
X131640509Y-101161985D01*
X131538015Y-101059491D01*
X131538012Y-101059489D01*
X131538010Y-101059487D01*
X131412488Y-100987017D01*
X131412489Y-100987017D01*
X131347115Y-100969500D01*
X131272475Y-100949500D01*
X131127525Y-100949500D01*
X131065790Y-100966041D01*
X130987510Y-100987017D01*
X130861989Y-101059487D01*
X130759487Y-101161989D01*
X130687017Y-101287510D01*
X130675766Y-101329500D01*
X130649500Y-101427525D01*
X129113659Y-101427525D01*
X129176528Y-101318634D01*
X129212340Y-101184981D01*
X129212340Y-101046615D01*
X129192099Y-100971075D01*
X129195300Y-100909973D01*
X129217724Y-100875445D01*
X129220505Y-100872665D01*
X129289688Y-100752836D01*
X129325500Y-100619183D01*
X129325500Y-100480817D01*
X129289688Y-100347164D01*
X129220505Y-100227335D01*
X129122665Y-100129495D01*
X129002836Y-100060312D01*
X129002835Y-100060311D01*
X129002832Y-100060310D01*
X128995946Y-100058465D01*
X128944634Y-100025139D01*
X128922709Y-99968017D01*
X128938548Y-99908917D01*
X128951565Y-99892841D01*
X130037943Y-98806464D01*
X130092457Y-98778689D01*
X130152889Y-98788260D01*
X130196154Y-98831525D01*
X130205725Y-98891957D01*
X130193682Y-98925968D01*
X130187017Y-98937512D01*
X130187016Y-98937514D01*
X130187016Y-98937515D01*
X130149500Y-99077525D01*
X130149500Y-99222475D01*
X130173752Y-99312982D01*
X130187017Y-99362489D01*
X130259487Y-99488010D01*
X130259489Y-99488012D01*
X130259491Y-99488015D01*
X130361985Y-99590509D01*
X130361987Y-99590510D01*
X130361989Y-99590512D01*
X130487511Y-99662982D01*
X130487512Y-99662982D01*
X130487515Y-99662984D01*
X130627525Y-99700500D01*
X130627526Y-99700500D01*
X130772474Y-99700500D01*
X130772475Y-99700500D01*
X130912485Y-99662984D01*
X130912487Y-99662982D01*
X130912489Y-99662982D01*
X131038010Y-99590512D01*
X131038010Y-99590511D01*
X131038015Y-99590509D01*
X131140509Y-99488015D01*
X131140512Y-99488010D01*
X131212982Y-99362489D01*
X131212982Y-99362487D01*
X131212984Y-99362485D01*
X131250500Y-99222475D01*
X131250500Y-99077525D01*
X131212984Y-98937515D01*
X131212982Y-98937512D01*
X131212982Y-98937510D01*
X131140512Y-98811989D01*
X131140510Y-98811987D01*
X131140509Y-98811985D01*
X131038015Y-98709491D01*
X131038012Y-98709489D01*
X131038010Y-98709487D01*
X130912488Y-98637017D01*
X130912489Y-98637017D01*
X130837815Y-98617008D01*
X130772475Y-98599500D01*
X130627525Y-98599500D01*
X130487515Y-98637016D01*
X130487514Y-98637016D01*
X130487512Y-98637017D01*
X130475968Y-98643682D01*
X130416119Y-98656401D01*
X130360224Y-98631513D01*
X130329633Y-98578525D01*
X130336030Y-98517675D01*
X130356465Y-98487942D01*
X130561498Y-98282910D01*
X130570526Y-98261113D01*
X130610262Y-98214589D01*
X130661990Y-98200000D01*
X132993939Y-98200000D01*
X133052130Y-98218907D01*
X133088094Y-98268407D01*
X133088094Y-98329593D01*
X133063944Y-98369001D01*
X132962447Y-98470499D01*
X132928172Y-98517675D01*
X132856002Y-98617008D01*
X132773788Y-98778362D01*
X132717828Y-98950593D01*
X132689500Y-99129450D01*
X132689500Y-99310549D01*
X132717828Y-99489406D01*
X132770169Y-99650500D01*
X132773789Y-99661639D01*
X132856004Y-99822994D01*
X132962447Y-99969501D01*
X133090499Y-100097553D01*
X133237006Y-100203996D01*
X133398361Y-100286211D01*
X133570591Y-100342171D01*
X133642136Y-100353502D01*
X133749451Y-100370500D01*
X133749454Y-100370500D01*
X133930549Y-100370500D01*
X134019977Y-100356335D01*
X134109409Y-100342171D01*
X134281639Y-100286211D01*
X134442994Y-100203996D01*
X134589501Y-100097553D01*
X134717553Y-99969501D01*
X134823996Y-99822994D01*
X134906211Y-99661639D01*
X134962171Y-99489409D01*
X134985754Y-99340512D01*
X134990500Y-99310549D01*
X134990500Y-99129450D01*
X134962171Y-98950593D01*
X134962171Y-98950591D01*
X134906211Y-98778361D01*
X134823996Y-98617006D01*
X134717553Y-98470499D01*
X134616055Y-98369001D01*
X134588280Y-98314487D01*
X134597851Y-98254055D01*
X134641116Y-98210790D01*
X134686061Y-98200000D01*
X135500500Y-98200000D01*
X135558691Y-98218907D01*
X135594655Y-98268407D01*
X135599500Y-98299000D01*
X135599500Y-126300500D01*
X135580593Y-126358691D01*
X135531093Y-126394655D01*
X135500500Y-126399500D01*
X116899500Y-126399500D01*
X116841309Y-126380593D01*
X116805345Y-126331093D01*
X116800500Y-126300500D01*
X116800500Y-124529450D01*
X117449500Y-124529450D01*
X117449500Y-124710549D01*
X117477828Y-124889406D01*
X117533107Y-125059542D01*
X117533789Y-125061639D01*
X117616004Y-125222994D01*
X117722447Y-125369501D01*
X117850499Y-125497553D01*
X117997006Y-125603996D01*
X118158361Y-125686211D01*
X118330591Y-125742171D01*
X118402136Y-125753502D01*
X118509451Y-125770500D01*
X118509454Y-125770500D01*
X118690549Y-125770500D01*
X118779977Y-125756335D01*
X118869409Y-125742171D01*
X119041639Y-125686211D01*
X119202994Y-125603996D01*
X119349501Y-125497553D01*
X119477553Y-125369501D01*
X119583996Y-125222994D01*
X119666211Y-125061639D01*
X119722171Y-124889409D01*
X119750500Y-124710546D01*
X119750500Y-124529454D01*
X119750500Y-124529450D01*
X119750195Y-124527525D01*
X120149500Y-124527525D01*
X120149500Y-124672474D01*
X120187017Y-124812489D01*
X120259487Y-124938010D01*
X120259489Y-124938012D01*
X120259491Y-124938015D01*
X120361985Y-125040509D01*
X120361987Y-125040510D01*
X120361989Y-125040512D01*
X120487511Y-125112982D01*
X120487512Y-125112982D01*
X120487515Y-125112984D01*
X120627525Y-125150500D01*
X120627526Y-125150500D01*
X120772474Y-125150500D01*
X120772475Y-125150500D01*
X120912485Y-125112984D01*
X120912487Y-125112982D01*
X120912489Y-125112982D01*
X121038010Y-125040512D01*
X121038010Y-125040511D01*
X121038015Y-125040509D01*
X121140509Y-124938015D01*
X121179155Y-124871078D01*
X121212982Y-124812489D01*
X121212982Y-124812487D01*
X121212984Y-124812485D01*
X121250500Y-124672475D01*
X121250500Y-124527525D01*
X121212984Y-124387515D01*
X121212981Y-124387510D01*
X121204926Y-124373557D01*
X121204925Y-124373555D01*
X121179154Y-124328919D01*
X122514500Y-124328919D01*
X122514500Y-124871080D01*
X122551988Y-125059542D01*
X122551988Y-125059544D01*
X122625521Y-125237070D01*
X122625521Y-125237071D01*
X122732279Y-125396844D01*
X122732280Y-125396845D01*
X122868155Y-125532720D01*
X123027927Y-125639477D01*
X123205457Y-125713012D01*
X123393922Y-125750500D01*
X123393923Y-125750500D01*
X123586077Y-125750500D01*
X123586078Y-125750500D01*
X123774543Y-125713012D01*
X123952073Y-125639477D01*
X124111845Y-125532720D01*
X124247720Y-125396845D01*
X124354477Y-125237073D01*
X124428012Y-125059543D01*
X124465500Y-124871078D01*
X124465500Y-124328922D01*
X124465499Y-124328919D01*
X127974500Y-124328919D01*
X127974500Y-124871080D01*
X128011988Y-125059542D01*
X128011988Y-125059544D01*
X128085521Y-125237070D01*
X128085521Y-125237071D01*
X128192279Y-125396844D01*
X128192280Y-125396845D01*
X128328155Y-125532720D01*
X128487927Y-125639477D01*
X128665457Y-125713012D01*
X128853922Y-125750500D01*
X128853923Y-125750500D01*
X129046077Y-125750500D01*
X129046078Y-125750500D01*
X129234543Y-125713012D01*
X129412073Y-125639477D01*
X129571845Y-125532720D01*
X129707720Y-125396845D01*
X129814477Y-125237073D01*
X129888012Y-125059543D01*
X129925500Y-124871078D01*
X129925500Y-124727525D01*
X131149500Y-124727525D01*
X131149500Y-124872474D01*
X131187017Y-125012489D01*
X131259487Y-125138010D01*
X131259489Y-125138012D01*
X131259491Y-125138015D01*
X131361985Y-125240509D01*
X131361987Y-125240510D01*
X131361989Y-125240512D01*
X131487511Y-125312982D01*
X131487512Y-125312982D01*
X131487515Y-125312984D01*
X131627525Y-125350500D01*
X131627526Y-125350500D01*
X131772474Y-125350500D01*
X131772475Y-125350500D01*
X131912485Y-125312984D01*
X131912487Y-125312982D01*
X131912489Y-125312982D01*
X132038010Y-125240512D01*
X132038010Y-125240511D01*
X132038015Y-125240509D01*
X132140509Y-125138015D01*
X132184606Y-125061637D01*
X132212982Y-125012489D01*
X132212982Y-125012487D01*
X132212984Y-125012485D01*
X132250500Y-124872475D01*
X132250500Y-124727525D01*
X132212984Y-124587515D01*
X132205795Y-124575063D01*
X132179460Y-124529450D01*
X132689500Y-124529450D01*
X132689500Y-124710549D01*
X132717828Y-124889406D01*
X132773107Y-125059542D01*
X132773789Y-125061639D01*
X132856004Y-125222994D01*
X132962447Y-125369501D01*
X133090499Y-125497553D01*
X133237006Y-125603996D01*
X133398361Y-125686211D01*
X133570591Y-125742171D01*
X133642136Y-125753502D01*
X133749451Y-125770500D01*
X133749454Y-125770500D01*
X133930549Y-125770500D01*
X134019977Y-125756335D01*
X134109409Y-125742171D01*
X134281639Y-125686211D01*
X134442994Y-125603996D01*
X134589501Y-125497553D01*
X134717553Y-125369501D01*
X134823996Y-125222994D01*
X134906211Y-125061639D01*
X134962171Y-124889409D01*
X134990500Y-124710546D01*
X134990500Y-124529454D01*
X134990500Y-124529450D01*
X134968019Y-124387515D01*
X134962171Y-124350591D01*
X134906211Y-124178361D01*
X134823996Y-124017006D01*
X134717553Y-123870499D01*
X134589501Y-123742447D01*
X134442994Y-123636004D01*
X134442993Y-123636003D01*
X134442991Y-123636002D01*
X134281637Y-123553788D01*
X134109406Y-123497828D01*
X133930549Y-123469500D01*
X133930546Y-123469500D01*
X133749454Y-123469500D01*
X133749451Y-123469500D01*
X133570593Y-123497828D01*
X133398362Y-123553788D01*
X133237008Y-123636002D01*
X133193959Y-123667279D01*
X133090499Y-123742447D01*
X132962447Y-123870499D01*
X132909225Y-123943752D01*
X132856002Y-124017008D01*
X132773788Y-124178362D01*
X132717828Y-124350593D01*
X132689500Y-124529450D01*
X132179460Y-124529450D01*
X132140512Y-124461989D01*
X132140510Y-124461987D01*
X132140509Y-124461985D01*
X132038015Y-124359491D01*
X132038012Y-124359489D01*
X132038010Y-124359487D01*
X131912488Y-124287017D01*
X131912489Y-124287017D01*
X131882896Y-124279087D01*
X131772475Y-124249500D01*
X131627525Y-124249500D01*
X131580931Y-124261985D01*
X131487510Y-124287017D01*
X131361989Y-124359487D01*
X131259487Y-124461989D01*
X131187017Y-124587510D01*
X131149500Y-124727525D01*
X129925500Y-124727525D01*
X129925500Y-124328922D01*
X129888012Y-124140457D01*
X129814478Y-123962929D01*
X129814478Y-123962928D01*
X129707720Y-123803155D01*
X129571844Y-123667279D01*
X129412070Y-123560521D01*
X129234543Y-123486988D01*
X129046080Y-123449500D01*
X129046078Y-123449500D01*
X128853922Y-123449500D01*
X128853919Y-123449500D01*
X128665457Y-123486988D01*
X128665455Y-123486988D01*
X128487929Y-123560521D01*
X128487928Y-123560521D01*
X128328155Y-123667279D01*
X128192279Y-123803155D01*
X128085521Y-123962928D01*
X128085521Y-123962929D01*
X128011988Y-124140455D01*
X128011988Y-124140457D01*
X127974500Y-124328919D01*
X124465499Y-124328919D01*
X124428012Y-124140457D01*
X124354478Y-123962929D01*
X124354478Y-123962928D01*
X124247720Y-123803155D01*
X124111844Y-123667279D01*
X123952070Y-123560521D01*
X123774543Y-123486988D01*
X123586080Y-123449500D01*
X123586078Y-123449500D01*
X123393922Y-123449500D01*
X123393919Y-123449500D01*
X123205457Y-123486988D01*
X123205455Y-123486988D01*
X123027929Y-123560521D01*
X123027928Y-123560521D01*
X122868155Y-123667279D01*
X122732279Y-123803155D01*
X122625521Y-123962928D01*
X122625521Y-123962929D01*
X122551988Y-124140455D01*
X122551988Y-124140457D01*
X122514500Y-124328919D01*
X121179154Y-124328919D01*
X121140512Y-124261989D01*
X121140510Y-124261987D01*
X121140509Y-124261985D01*
X121038015Y-124159491D01*
X121038012Y-124159489D01*
X121038010Y-124159487D01*
X120912488Y-124087017D01*
X120912489Y-124087017D01*
X120882896Y-124079087D01*
X120772475Y-124049500D01*
X120627525Y-124049500D01*
X120565790Y-124066041D01*
X120487510Y-124087017D01*
X120361989Y-124159487D01*
X120259487Y-124261989D01*
X120187017Y-124387510D01*
X120149500Y-124527525D01*
X119750195Y-124527525D01*
X119728019Y-124387515D01*
X119722171Y-124350591D01*
X119666211Y-124178361D01*
X119583996Y-124017006D01*
X119477553Y-123870499D01*
X119349501Y-123742447D01*
X119202994Y-123636004D01*
X119202993Y-123636003D01*
X119202991Y-123636002D01*
X119041637Y-123553788D01*
X118869406Y-123497828D01*
X118690549Y-123469500D01*
X118690546Y-123469500D01*
X118509454Y-123469500D01*
X118509451Y-123469500D01*
X118330593Y-123497828D01*
X118158362Y-123553788D01*
X117997008Y-123636002D01*
X117953959Y-123667279D01*
X117850499Y-123742447D01*
X117722447Y-123870499D01*
X117669225Y-123943752D01*
X117616002Y-124017008D01*
X117533788Y-124178362D01*
X117477828Y-124350593D01*
X117449500Y-124529450D01*
X116800500Y-124529450D01*
X116800500Y-121989450D01*
X117449500Y-121989450D01*
X117449500Y-122170549D01*
X117477828Y-122349406D01*
X117533788Y-122521637D01*
X117599446Y-122650499D01*
X117616004Y-122682994D01*
X117722447Y-122829501D01*
X117850499Y-122957553D01*
X117997006Y-123063996D01*
X118158361Y-123146211D01*
X118330591Y-123202171D01*
X118402136Y-123213502D01*
X118509451Y-123230500D01*
X118509454Y-123230500D01*
X118690549Y-123230500D01*
X118779977Y-123216335D01*
X118869409Y-123202171D01*
X119041639Y-123146211D01*
X119202994Y-123063996D01*
X119349501Y-122957553D01*
X119477553Y-122829501D01*
X119583996Y-122682994D01*
X119666211Y-122521639D01*
X119722171Y-122349409D01*
X119750500Y-122170546D01*
X119750500Y-121989454D01*
X119750500Y-121989450D01*
X119726910Y-121840512D01*
X119722171Y-121810591D01*
X119666211Y-121638361D01*
X119583996Y-121477006D01*
X119508050Y-121372475D01*
X119477555Y-121330502D01*
X119477553Y-121330499D01*
X119474579Y-121327525D01*
X120149500Y-121327525D01*
X120149500Y-121472474D01*
X120187017Y-121612489D01*
X120259487Y-121738010D01*
X120259489Y-121738012D01*
X120259491Y-121738015D01*
X120361985Y-121840509D01*
X120361987Y-121840510D01*
X120361989Y-121840512D01*
X120487511Y-121912982D01*
X120487512Y-121912982D01*
X120487515Y-121912984D01*
X120627525Y-121950500D01*
X120627526Y-121950500D01*
X120772474Y-121950500D01*
X120772475Y-121950500D01*
X120912485Y-121912984D01*
X120912487Y-121912982D01*
X120912489Y-121912982D01*
X121038010Y-121840512D01*
X121038010Y-121840511D01*
X121038015Y-121840509D01*
X121140509Y-121738015D01*
X121198044Y-121638362D01*
X121212982Y-121612489D01*
X121212982Y-121612487D01*
X121212984Y-121612485D01*
X121250500Y-121472475D01*
X121250500Y-121327525D01*
X121212984Y-121187515D01*
X121212982Y-121187512D01*
X121212982Y-121187510D01*
X121140512Y-121061989D01*
X121140510Y-121061987D01*
X121140509Y-121061985D01*
X121038015Y-120959491D01*
X121038012Y-120959489D01*
X121038010Y-120959487D01*
X120912488Y-120887017D01*
X120912489Y-120887017D01*
X120882896Y-120879087D01*
X120772475Y-120849500D01*
X120627525Y-120849500D01*
X120565790Y-120866041D01*
X120487510Y-120887017D01*
X120361989Y-120959487D01*
X120259487Y-121061989D01*
X120187017Y-121187510D01*
X120149500Y-121327525D01*
X119474579Y-121327525D01*
X119349501Y-121202447D01*
X119202994Y-121096004D01*
X119202993Y-121096003D01*
X119202991Y-121096002D01*
X119041637Y-121013788D01*
X118869406Y-120957828D01*
X118690549Y-120929500D01*
X118690546Y-120929500D01*
X118509454Y-120929500D01*
X118509451Y-120929500D01*
X118330593Y-120957828D01*
X118158362Y-121013788D01*
X117997008Y-121096002D01*
X117923752Y-121149225D01*
X117850499Y-121202447D01*
X117722447Y-121330499D01*
X117687044Y-121379227D01*
X117616002Y-121477008D01*
X117533788Y-121638362D01*
X117477828Y-121810593D01*
X117449500Y-121989450D01*
X116800500Y-121989450D01*
X116800500Y-119449450D01*
X117449500Y-119449450D01*
X117449500Y-119630549D01*
X117477828Y-119809406D01*
X117533788Y-119981637D01*
X117567157Y-120047128D01*
X117616004Y-120142994D01*
X117722447Y-120289501D01*
X117850499Y-120417553D01*
X117997006Y-120523996D01*
X118158361Y-120606211D01*
X118330591Y-120662171D01*
X118402136Y-120673502D01*
X118509451Y-120690500D01*
X118509454Y-120690500D01*
X118690549Y-120690500D01*
X118779977Y-120676335D01*
X118869409Y-120662171D01*
X119041639Y-120606211D01*
X119202994Y-120523996D01*
X119349501Y-120417553D01*
X119477553Y-120289501D01*
X119583996Y-120142994D01*
X119666211Y-119981639D01*
X119722171Y-119809409D01*
X119745916Y-119659491D01*
X119750500Y-119630549D01*
X119750500Y-119449450D01*
X119728727Y-119311985D01*
X119722171Y-119270591D01*
X119666211Y-119098361D01*
X119583996Y-118937006D01*
X119477553Y-118790499D01*
X119349501Y-118662447D01*
X119202994Y-118556004D01*
X119202993Y-118556003D01*
X119202991Y-118556002D01*
X119041637Y-118473788D01*
X118869406Y-118417828D01*
X118690549Y-118389500D01*
X118690546Y-118389500D01*
X118509454Y-118389500D01*
X118509451Y-118389500D01*
X118330593Y-118417828D01*
X118158362Y-118473788D01*
X117997008Y-118556002D01*
X117940354Y-118597164D01*
X117850499Y-118662447D01*
X117722447Y-118790499D01*
X117721122Y-118792323D01*
X117616002Y-118937008D01*
X117533788Y-119098362D01*
X117477828Y-119270593D01*
X117449500Y-119449450D01*
X116800500Y-119449450D01*
X116800500Y-116909450D01*
X117449500Y-116909450D01*
X117449500Y-117090549D01*
X117477828Y-117269406D01*
X117533788Y-117441637D01*
X117614223Y-117599500D01*
X117616004Y-117602994D01*
X117722447Y-117749501D01*
X117850499Y-117877553D01*
X117997006Y-117983996D01*
X118158361Y-118066211D01*
X118330591Y-118122171D01*
X118402136Y-118133502D01*
X118509451Y-118150500D01*
X118509454Y-118150500D01*
X118690549Y-118150500D01*
X118779977Y-118136335D01*
X118869409Y-118122171D01*
X119041639Y-118066211D01*
X119111103Y-118030817D01*
X119874500Y-118030817D01*
X119874500Y-118169183D01*
X119910312Y-118302836D01*
X119979495Y-118422665D01*
X120077335Y-118520505D01*
X120197164Y-118589688D01*
X120330817Y-118625500D01*
X120330819Y-118625500D01*
X120475500Y-118625500D01*
X120533691Y-118644407D01*
X120569655Y-118693907D01*
X120574500Y-118724500D01*
X120574500Y-118730817D01*
X120574500Y-118869183D01*
X120610312Y-119002836D01*
X120679495Y-119122665D01*
X120777335Y-119220505D01*
X120897164Y-119289688D01*
X121030817Y-119325500D01*
X121030819Y-119325500D01*
X121169181Y-119325500D01*
X121169183Y-119325500D01*
X121302836Y-119289688D01*
X121422665Y-119220505D01*
X121505498Y-119137671D01*
X121560013Y-119109896D01*
X121620445Y-119119467D01*
X121663710Y-119162732D01*
X121674500Y-119207677D01*
X121674500Y-119269183D01*
X121710312Y-119402836D01*
X121779495Y-119522665D01*
X121877335Y-119620505D01*
X121934826Y-119653697D01*
X121975767Y-119699165D01*
X121982163Y-119760016D01*
X121951570Y-119813004D01*
X121934831Y-119825167D01*
X121927336Y-119829494D01*
X121927335Y-119829495D01*
X121829495Y-119927335D01*
X121760312Y-120047164D01*
X121724500Y-120180817D01*
X121724500Y-120319183D01*
X121760312Y-120452836D01*
X121829495Y-120572665D01*
X121927335Y-120670505D01*
X122047164Y-120739688D01*
X122180817Y-120775500D01*
X122180819Y-120775500D01*
X122319181Y-120775500D01*
X122319183Y-120775500D01*
X122452836Y-120739688D01*
X122500500Y-120712168D01*
X122560347Y-120699447D01*
X122599498Y-120712168D01*
X122647164Y-120739688D01*
X122780817Y-120775500D01*
X122780819Y-120775500D01*
X122919182Y-120775500D01*
X122919183Y-120775500D01*
X123000336Y-120753755D01*
X123061436Y-120756956D01*
X123108986Y-120795461D01*
X123124822Y-120854561D01*
X123108274Y-120904382D01*
X123046296Y-120997138D01*
X122982185Y-121151914D01*
X122982183Y-121151920D01*
X122949500Y-121316230D01*
X122949500Y-121883769D01*
X122982183Y-122048079D01*
X122982185Y-122048085D01*
X123046296Y-122202862D01*
X123046297Y-122202863D01*
X123139374Y-122342162D01*
X123257838Y-122460626D01*
X123397137Y-122553703D01*
X123551918Y-122617816D01*
X123716233Y-122650500D01*
X123716234Y-122650500D01*
X123883766Y-122650500D01*
X123883767Y-122650500D01*
X124048082Y-122617816D01*
X124202863Y-122553703D01*
X124342162Y-122460626D01*
X124460626Y-122342162D01*
X124553703Y-122202863D01*
X124617816Y-122048082D01*
X124650500Y-121883767D01*
X124650500Y-121316233D01*
X124650499Y-121316230D01*
X127789500Y-121316230D01*
X127789500Y-121883769D01*
X127822183Y-122048079D01*
X127822185Y-122048085D01*
X127886296Y-122202862D01*
X127886297Y-122202863D01*
X127979374Y-122342162D01*
X128097838Y-122460626D01*
X128237137Y-122553703D01*
X128391918Y-122617816D01*
X128556233Y-122650500D01*
X128556234Y-122650500D01*
X128723766Y-122650500D01*
X128723767Y-122650500D01*
X128888082Y-122617816D01*
X129042863Y-122553703D01*
X129182162Y-122460626D01*
X129300626Y-122342162D01*
X129393703Y-122202863D01*
X129457816Y-122048082D01*
X129469479Y-121989450D01*
X132689500Y-121989450D01*
X132689500Y-122170549D01*
X132717828Y-122349406D01*
X132773788Y-122521637D01*
X132839446Y-122650499D01*
X132856004Y-122682994D01*
X132962447Y-122829501D01*
X133090499Y-122957553D01*
X133237006Y-123063996D01*
X133398361Y-123146211D01*
X133570591Y-123202171D01*
X133642136Y-123213502D01*
X133749451Y-123230500D01*
X133749454Y-123230500D01*
X133930549Y-123230500D01*
X134019977Y-123216335D01*
X134109409Y-123202171D01*
X134281639Y-123146211D01*
X134442994Y-123063996D01*
X134589501Y-122957553D01*
X134717553Y-122829501D01*
X134823996Y-122682994D01*
X134906211Y-122521639D01*
X134962171Y-122349409D01*
X134990500Y-122170546D01*
X134990500Y-121989454D01*
X134990500Y-121989450D01*
X134966910Y-121840512D01*
X134962171Y-121810591D01*
X134906211Y-121638361D01*
X134823996Y-121477006D01*
X134717553Y-121330499D01*
X134589501Y-121202447D01*
X134442994Y-121096004D01*
X134442993Y-121096003D01*
X134442991Y-121096002D01*
X134281637Y-121013788D01*
X134109406Y-120957828D01*
X133930549Y-120929500D01*
X133930546Y-120929500D01*
X133749454Y-120929500D01*
X133749451Y-120929500D01*
X133570593Y-120957828D01*
X133398362Y-121013788D01*
X133237008Y-121096002D01*
X133163752Y-121149225D01*
X133090499Y-121202447D01*
X132962447Y-121330499D01*
X132927044Y-121379227D01*
X132856002Y-121477008D01*
X132773788Y-121638362D01*
X132717828Y-121810593D01*
X132689500Y-121989450D01*
X129469479Y-121989450D01*
X129490500Y-121883767D01*
X129490500Y-121316233D01*
X129472855Y-121227525D01*
X131149500Y-121227525D01*
X131149500Y-121372475D01*
X131151309Y-121379227D01*
X131187017Y-121512489D01*
X131259487Y-121638010D01*
X131259489Y-121638012D01*
X131259491Y-121638015D01*
X131361985Y-121740509D01*
X131361987Y-121740510D01*
X131361989Y-121740512D01*
X131487511Y-121812982D01*
X131487512Y-121812982D01*
X131487515Y-121812984D01*
X131627525Y-121850500D01*
X131627526Y-121850500D01*
X131772474Y-121850500D01*
X131772475Y-121850500D01*
X131912485Y-121812984D01*
X131912487Y-121812982D01*
X131912489Y-121812982D01*
X132038010Y-121740512D01*
X132038010Y-121740511D01*
X132038015Y-121740509D01*
X132140509Y-121638015D01*
X132140512Y-121638010D01*
X132212982Y-121512489D01*
X132212982Y-121512487D01*
X132212984Y-121512485D01*
X132250500Y-121372475D01*
X132250500Y-121227525D01*
X132212984Y-121087515D01*
X132212982Y-121087512D01*
X132212982Y-121087510D01*
X132140512Y-120961989D01*
X132140510Y-120961987D01*
X132140509Y-120961985D01*
X132038015Y-120859491D01*
X132038012Y-120859489D01*
X132038010Y-120859487D01*
X131912488Y-120787017D01*
X131912489Y-120787017D01*
X131845663Y-120769111D01*
X131772475Y-120749500D01*
X131627525Y-120749500D01*
X131565790Y-120766041D01*
X131487510Y-120787017D01*
X131361989Y-120859487D01*
X131259487Y-120961989D01*
X131187017Y-121087510D01*
X131160222Y-121187510D01*
X131149500Y-121227525D01*
X129472855Y-121227525D01*
X129457816Y-121151918D01*
X129393703Y-120997137D01*
X129300626Y-120857838D01*
X129182162Y-120739374D01*
X129042863Y-120646297D01*
X129042864Y-120646297D01*
X129042862Y-120646296D01*
X128886812Y-120581658D01*
X128840286Y-120541921D01*
X128826003Y-120482426D01*
X128838962Y-120440693D01*
X128840506Y-120438017D01*
X128840509Y-120438015D01*
X128912984Y-120312485D01*
X128950500Y-120172475D01*
X128950500Y-120027525D01*
X128912984Y-119887515D01*
X128912982Y-119887512D01*
X128912982Y-119887510D01*
X128840512Y-119761989D01*
X128840510Y-119761987D01*
X128840509Y-119761985D01*
X128738015Y-119659491D01*
X128738012Y-119659489D01*
X128738010Y-119659487D01*
X128612488Y-119587017D01*
X128612489Y-119587017D01*
X128582896Y-119579087D01*
X128472475Y-119549500D01*
X128327525Y-119549500D01*
X128280685Y-119562051D01*
X128187510Y-119587017D01*
X128061989Y-119659487D01*
X127959487Y-119761989D01*
X127887017Y-119887510D01*
X127887016Y-119887515D01*
X127849500Y-120027525D01*
X127849500Y-120172475D01*
X127879087Y-120282896D01*
X127887017Y-120312489D01*
X127959487Y-120438010D01*
X127959489Y-120438012D01*
X127959491Y-120438015D01*
X128061985Y-120540509D01*
X128103007Y-120564193D01*
X128143947Y-120609662D01*
X128150343Y-120670512D01*
X128119750Y-120723500D01*
X128108512Y-120732242D01*
X128097835Y-120739376D01*
X127979377Y-120857834D01*
X127979374Y-120857838D01*
X127886296Y-120997137D01*
X127822185Y-121151914D01*
X127822183Y-121151920D01*
X127789500Y-121316230D01*
X124650499Y-121316230D01*
X124617816Y-121151918D01*
X124553703Y-120997137D01*
X124501986Y-120919738D01*
X124485378Y-120860852D01*
X124506555Y-120803448D01*
X124557429Y-120769455D01*
X124609923Y-120769111D01*
X124633633Y-120775464D01*
X124633635Y-120775464D01*
X124771997Y-120775464D01*
X124771999Y-120775464D01*
X124905652Y-120739652D01*
X125025481Y-120670469D01*
X125123321Y-120572629D01*
X125192504Y-120452800D01*
X125228316Y-120319147D01*
X125228316Y-120180781D01*
X125192504Y-120047128D01*
X125123321Y-119927299D01*
X125025481Y-119829459D01*
X124905652Y-119760276D01*
X124771999Y-119724464D01*
X124633633Y-119724464D01*
X124499980Y-119760276D01*
X124499978Y-119760276D01*
X124499978Y-119760277D01*
X124457384Y-119784868D01*
X124397536Y-119797587D01*
X124358387Y-119784867D01*
X124328698Y-119767726D01*
X124282151Y-119755254D01*
X124195044Y-119731914D01*
X124056678Y-119731914D01*
X123923025Y-119767726D01*
X123923024Y-119767726D01*
X123923022Y-119767727D01*
X123868850Y-119799003D01*
X123809001Y-119811724D01*
X123769852Y-119799003D01*
X123702837Y-119760312D01*
X123658285Y-119748374D01*
X123569183Y-119724500D01*
X123430817Y-119724500D01*
X123297164Y-119760312D01*
X123224498Y-119802265D01*
X123164651Y-119814986D01*
X123125502Y-119802265D01*
X123052836Y-119760312D01*
X122919183Y-119724500D01*
X122780817Y-119724500D01*
X122735230Y-119736715D01*
X122642997Y-119761428D01*
X122639081Y-119761222D01*
X122635639Y-119763102D01*
X122608859Y-119759638D01*
X122581896Y-119758225D01*
X122578848Y-119755757D01*
X122574959Y-119755254D01*
X122555333Y-119736715D01*
X122534346Y-119719720D01*
X122533330Y-119715930D01*
X122530480Y-119713238D01*
X122525499Y-119686700D01*
X122518511Y-119660619D01*
X122519916Y-119656957D01*
X122519193Y-119653103D01*
X122529237Y-119632676D01*
X122540438Y-119603498D01*
X122545407Y-119597818D01*
X122546345Y-119596824D01*
X122565644Y-119577525D01*
X125499500Y-119577525D01*
X125499500Y-119722475D01*
X125523876Y-119813445D01*
X125537017Y-119862489D01*
X125609487Y-119988010D01*
X125609489Y-119988012D01*
X125609491Y-119988015D01*
X125711985Y-120090509D01*
X125711987Y-120090510D01*
X125711989Y-120090512D01*
X125837511Y-120162982D01*
X125837512Y-120162982D01*
X125837515Y-120162984D01*
X125977525Y-120200500D01*
X125977526Y-120200500D01*
X126122474Y-120200500D01*
X126122475Y-120200500D01*
X126262485Y-120162984D01*
X126262487Y-120162982D01*
X126262489Y-120162982D01*
X126388010Y-120090512D01*
X126388010Y-120090511D01*
X126388015Y-120090509D01*
X126490509Y-119988015D01*
X126562984Y-119862485D01*
X126600500Y-119722475D01*
X126600500Y-119577525D01*
X126562984Y-119437515D01*
X126562982Y-119437512D01*
X126562982Y-119437510D01*
X126490512Y-119311989D01*
X126490510Y-119311987D01*
X126490509Y-119311985D01*
X126388015Y-119209491D01*
X126388012Y-119209489D01*
X126388010Y-119209487D01*
X126262488Y-119137017D01*
X126262489Y-119137017D01*
X126196992Y-119119467D01*
X126122475Y-119099500D01*
X125977525Y-119099500D01*
X125938727Y-119109896D01*
X125837510Y-119137017D01*
X125711989Y-119209487D01*
X125609487Y-119311989D01*
X125537017Y-119437510D01*
X125537016Y-119437515D01*
X125499500Y-119577525D01*
X122565644Y-119577525D01*
X122620505Y-119522665D01*
X122689688Y-119402836D01*
X122725500Y-119269183D01*
X122725500Y-119130817D01*
X122689688Y-118997164D01*
X122620505Y-118877335D01*
X122522665Y-118779495D01*
X122402836Y-118710312D01*
X122269183Y-118674500D01*
X122130817Y-118674500D01*
X121997164Y-118710312D01*
X121877335Y-118779495D01*
X121794501Y-118862328D01*
X121739987Y-118890104D01*
X121679555Y-118880533D01*
X121636290Y-118837268D01*
X121625500Y-118792323D01*
X121625500Y-118730818D01*
X121623807Y-118724500D01*
X121589688Y-118597164D01*
X121534502Y-118501579D01*
X124651342Y-118501579D01*
X124651342Y-118639945D01*
X124687154Y-118773598D01*
X124756337Y-118893427D01*
X124854177Y-118991267D01*
X124974006Y-119060450D01*
X125107659Y-119096262D01*
X125107661Y-119096262D01*
X125246023Y-119096262D01*
X125246025Y-119096262D01*
X125379678Y-119060450D01*
X125499507Y-118991267D01*
X125597347Y-118893427D01*
X125666530Y-118773598D01*
X125702342Y-118639945D01*
X125702342Y-118501579D01*
X125666530Y-118367926D01*
X125597347Y-118248097D01*
X125499507Y-118150257D01*
X125379678Y-118081074D01*
X125246025Y-118045262D01*
X125107659Y-118045262D01*
X124974006Y-118081074D01*
X124854177Y-118150257D01*
X124756337Y-118248097D01*
X124687154Y-118367926D01*
X124651342Y-118501579D01*
X121534502Y-118501579D01*
X121520505Y-118477335D01*
X121422665Y-118379495D01*
X121302836Y-118310312D01*
X121169183Y-118274500D01*
X121030817Y-118274500D01*
X121024500Y-118274500D01*
X120966309Y-118255593D01*
X120930345Y-118206093D01*
X120925500Y-118175500D01*
X120925500Y-118030818D01*
X120925500Y-118030817D01*
X120889688Y-117897164D01*
X120820505Y-117777335D01*
X120722665Y-117679495D01*
X120602836Y-117610312D01*
X120469183Y-117574500D01*
X120330817Y-117574500D01*
X120197164Y-117610312D01*
X120077335Y-117679495D01*
X119979495Y-117777335D01*
X119910312Y-117897164D01*
X119874500Y-118030817D01*
X119111103Y-118030817D01*
X119202994Y-117983996D01*
X119349501Y-117877553D01*
X119477553Y-117749501D01*
X119583996Y-117602994D01*
X119666211Y-117441639D01*
X119722171Y-117269409D01*
X119750500Y-117090546D01*
X119750500Y-116909454D01*
X119750500Y-116909450D01*
X119722171Y-116730593D01*
X119722171Y-116730591D01*
X119666211Y-116558361D01*
X119583996Y-116397006D01*
X119477553Y-116250499D01*
X119349501Y-116122447D01*
X119202994Y-116016004D01*
X119202993Y-116016003D01*
X119202991Y-116016002D01*
X119041637Y-115933788D01*
X118869406Y-115877828D01*
X118690549Y-115849500D01*
X118690546Y-115849500D01*
X118509454Y-115849500D01*
X118509451Y-115849500D01*
X118330593Y-115877828D01*
X118158362Y-115933788D01*
X117997008Y-116016002D01*
X117966717Y-116038010D01*
X117850499Y-116122447D01*
X117722447Y-116250499D01*
X117685425Y-116301456D01*
X117616002Y-116397008D01*
X117533788Y-116558362D01*
X117477828Y-116730593D01*
X117449500Y-116909450D01*
X116800500Y-116909450D01*
X116800500Y-114369450D01*
X117449500Y-114369450D01*
X117449500Y-114550549D01*
X117477828Y-114729406D01*
X117533788Y-114901637D01*
X117597931Y-115027525D01*
X117616004Y-115062994D01*
X117722447Y-115209501D01*
X117850499Y-115337553D01*
X117997006Y-115443996D01*
X118158361Y-115526211D01*
X118330591Y-115582171D01*
X118402136Y-115593502D01*
X118509451Y-115610500D01*
X118509454Y-115610500D01*
X118690549Y-115610500D01*
X118791061Y-115594580D01*
X118869409Y-115582171D01*
X119041639Y-115526211D01*
X119202994Y-115443996D01*
X119349501Y-115337553D01*
X119477553Y-115209501D01*
X119583996Y-115062994D01*
X119666211Y-114901639D01*
X119722171Y-114729409D01*
X119750500Y-114550546D01*
X119750500Y-114369454D01*
X119750500Y-114369450D01*
X119722171Y-114190593D01*
X119722171Y-114190591D01*
X119666211Y-114018361D01*
X119583996Y-113857006D01*
X119477553Y-113710499D01*
X119349501Y-113582447D01*
X119202994Y-113476004D01*
X119202993Y-113476003D01*
X119202991Y-113476002D01*
X119041637Y-113393788D01*
X118869406Y-113337828D01*
X118690549Y-113309500D01*
X118690546Y-113309500D01*
X118509454Y-113309500D01*
X118509451Y-113309500D01*
X118330593Y-113337828D01*
X118158362Y-113393788D01*
X117997008Y-113476002D01*
X117950920Y-113509487D01*
X117850499Y-113582447D01*
X117722447Y-113710499D01*
X117669225Y-113783752D01*
X117616002Y-113857008D01*
X117533788Y-114018362D01*
X117477828Y-114190593D01*
X117449500Y-114369450D01*
X116800500Y-114369450D01*
X116800500Y-111829450D01*
X117449500Y-111829450D01*
X117449500Y-112010549D01*
X117477828Y-112189406D01*
X117477829Y-112189409D01*
X117533789Y-112361639D01*
X117616004Y-112522994D01*
X117722447Y-112669501D01*
X117850499Y-112797553D01*
X117997006Y-112903996D01*
X118158361Y-112986211D01*
X118330591Y-113042171D01*
X118402136Y-113053502D01*
X118509451Y-113070500D01*
X118509454Y-113070500D01*
X118690549Y-113070500D01*
X118779977Y-113056335D01*
X118869409Y-113042171D01*
X119041639Y-112986211D01*
X119202994Y-112903996D01*
X119349501Y-112797553D01*
X119477553Y-112669501D01*
X119583996Y-112522994D01*
X119666211Y-112361639D01*
X119722171Y-112189409D01*
X119748342Y-112024169D01*
X119776119Y-111969654D01*
X119830636Y-111941876D01*
X119891068Y-111951447D01*
X119931859Y-111990156D01*
X119959488Y-112038010D01*
X119959491Y-112038015D01*
X120061985Y-112140509D01*
X120061987Y-112140510D01*
X120061989Y-112140512D01*
X120187511Y-112212982D01*
X120187512Y-112212982D01*
X120187515Y-112212984D01*
X120327525Y-112250500D01*
X120327526Y-112250500D01*
X120472474Y-112250500D01*
X120472475Y-112250500D01*
X120612485Y-112212984D01*
X120612487Y-112212982D01*
X120612489Y-112212982D01*
X120738010Y-112140512D01*
X120738010Y-112140511D01*
X120738015Y-112140509D01*
X120840509Y-112038015D01*
X120840512Y-112038010D01*
X120912982Y-111912489D01*
X120912982Y-111912487D01*
X120912984Y-111912485D01*
X120950500Y-111772475D01*
X120950500Y-111627525D01*
X120912984Y-111487515D01*
X120912982Y-111487511D01*
X120912982Y-111487510D01*
X120840512Y-111361989D01*
X120840510Y-111361987D01*
X120840509Y-111361985D01*
X120738015Y-111259491D01*
X120738012Y-111259489D01*
X120738010Y-111259487D01*
X120612488Y-111187017D01*
X120612489Y-111187017D01*
X120566581Y-111174716D01*
X120472475Y-111149500D01*
X120327525Y-111149500D01*
X120280931Y-111161985D01*
X120187510Y-111187017D01*
X120061989Y-111259487D01*
X119959487Y-111361989D01*
X119887017Y-111487511D01*
X119887015Y-111487515D01*
X119875068Y-111532103D01*
X119841744Y-111583417D01*
X119784622Y-111605343D01*
X119725522Y-111589507D01*
X119687017Y-111541957D01*
X119685287Y-111537071D01*
X119669184Y-111487511D01*
X119666211Y-111478361D01*
X119583996Y-111317006D01*
X119477553Y-111170499D01*
X119349501Y-111042447D01*
X119202994Y-110936004D01*
X119202993Y-110936003D01*
X119202991Y-110936002D01*
X119041637Y-110853788D01*
X118869406Y-110797828D01*
X118690549Y-110769500D01*
X118690546Y-110769500D01*
X118509454Y-110769500D01*
X118509451Y-110769500D01*
X118330593Y-110797828D01*
X118158362Y-110853788D01*
X117997008Y-110936002D01*
X117947625Y-110971881D01*
X117850499Y-111042447D01*
X117722447Y-111170499D01*
X117686116Y-111220505D01*
X117616002Y-111317008D01*
X117533788Y-111478362D01*
X117477828Y-111650593D01*
X117449500Y-111829450D01*
X116800500Y-111829450D01*
X116800500Y-109289450D01*
X117449500Y-109289450D01*
X117449500Y-109470549D01*
X117477828Y-109649406D01*
X117525453Y-109795985D01*
X117533789Y-109821639D01*
X117616004Y-109982994D01*
X117722447Y-110129501D01*
X117850499Y-110257553D01*
X117997006Y-110363996D01*
X118158361Y-110446211D01*
X118330591Y-110502171D01*
X118395711Y-110512485D01*
X118509451Y-110530500D01*
X118509454Y-110530500D01*
X118690549Y-110530500D01*
X118804263Y-110512489D01*
X118869409Y-110502171D01*
X119041639Y-110446211D01*
X119202994Y-110363996D01*
X119349501Y-110257553D01*
X119477553Y-110129501D01*
X119583996Y-109982994D01*
X119666211Y-109821639D01*
X119722171Y-109649409D01*
X119742245Y-109522665D01*
X119750500Y-109470549D01*
X119750500Y-109289450D01*
X119731614Y-109170212D01*
X119722171Y-109110591D01*
X119666211Y-108938361D01*
X119583996Y-108777006D01*
X119477553Y-108630499D01*
X119349501Y-108502447D01*
X119202994Y-108396004D01*
X119202993Y-108396003D01*
X119202991Y-108396002D01*
X119041637Y-108313788D01*
X118869406Y-108257828D01*
X118690549Y-108229500D01*
X118690546Y-108229500D01*
X118509454Y-108229500D01*
X118509451Y-108229500D01*
X118330593Y-108257828D01*
X118158362Y-108313788D01*
X117997008Y-108396002D01*
X117956408Y-108425500D01*
X117850499Y-108502447D01*
X117722447Y-108630499D01*
X117690479Y-108674500D01*
X117616002Y-108777008D01*
X117533788Y-108938362D01*
X117477828Y-109110593D01*
X117449500Y-109289450D01*
X116800500Y-109289450D01*
X116800500Y-104209450D01*
X117449500Y-104209450D01*
X117449500Y-104390549D01*
X117477828Y-104569406D01*
X117533788Y-104741637D01*
X117614555Y-104900152D01*
X117616004Y-104902994D01*
X117722447Y-105049501D01*
X117850499Y-105177553D01*
X117997006Y-105283996D01*
X118158361Y-105366211D01*
X118330591Y-105422171D01*
X118402136Y-105433502D01*
X118509451Y-105450500D01*
X118509454Y-105450500D01*
X118690549Y-105450500D01*
X118779977Y-105436335D01*
X118869409Y-105422171D01*
X119041639Y-105366211D01*
X119202994Y-105283996D01*
X119349501Y-105177553D01*
X119477553Y-105049501D01*
X119583996Y-104902994D01*
X119666211Y-104741639D01*
X119722171Y-104569409D01*
X119738045Y-104469183D01*
X119750500Y-104390549D01*
X119750500Y-104209450D01*
X119722171Y-104030593D01*
X119722171Y-104030591D01*
X119666211Y-103858361D01*
X119583996Y-103697006D01*
X119477553Y-103550499D01*
X119349501Y-103422447D01*
X119202994Y-103316004D01*
X119202993Y-103316003D01*
X119202991Y-103316002D01*
X119041637Y-103233788D01*
X118869406Y-103177828D01*
X118690549Y-103149500D01*
X118690546Y-103149500D01*
X118509454Y-103149500D01*
X118509451Y-103149500D01*
X118330593Y-103177828D01*
X118158362Y-103233788D01*
X117997008Y-103316002D01*
X117942208Y-103355817D01*
X117850499Y-103422447D01*
X117722447Y-103550499D01*
X117710566Y-103566852D01*
X117616002Y-103697008D01*
X117533788Y-103858362D01*
X117477828Y-104030593D01*
X117449500Y-104209450D01*
X116800500Y-104209450D01*
X116800500Y-101669450D01*
X117449500Y-101669450D01*
X117449500Y-101850549D01*
X117477828Y-102029406D01*
X117533788Y-102201637D01*
X117585351Y-102302836D01*
X117616004Y-102362994D01*
X117722447Y-102509501D01*
X117850499Y-102637553D01*
X117997006Y-102743996D01*
X118158361Y-102826211D01*
X118330591Y-102882171D01*
X118402136Y-102893502D01*
X118509451Y-102910500D01*
X118509454Y-102910500D01*
X118690549Y-102910500D01*
X118779977Y-102896335D01*
X118869409Y-102882171D01*
X119041639Y-102826211D01*
X119202994Y-102743996D01*
X119349501Y-102637553D01*
X119477553Y-102509501D01*
X119583996Y-102362994D01*
X119666211Y-102201639D01*
X119722171Y-102029409D01*
X119736335Y-101939977D01*
X119750500Y-101850549D01*
X119750500Y-101669450D01*
X119726149Y-101515709D01*
X119722171Y-101490591D01*
X119666211Y-101318361D01*
X119583996Y-101157006D01*
X119477553Y-101010499D01*
X119349501Y-100882447D01*
X119202994Y-100776004D01*
X119202993Y-100776003D01*
X119202991Y-100776002D01*
X119041637Y-100693788D01*
X118869406Y-100637828D01*
X118690549Y-100609500D01*
X118690546Y-100609500D01*
X118509454Y-100609500D01*
X118509451Y-100609500D01*
X118330593Y-100637828D01*
X118158362Y-100693788D01*
X117997008Y-100776002D01*
X117932784Y-100822664D01*
X117850499Y-100882447D01*
X117722447Y-101010499D01*
X117672325Y-101079487D01*
X117616002Y-101157008D01*
X117533788Y-101318362D01*
X117477828Y-101490593D01*
X117449500Y-101669450D01*
X116800500Y-101669450D01*
X116800500Y-99129450D01*
X117449500Y-99129450D01*
X117449500Y-99310549D01*
X117477828Y-99489406D01*
X117530169Y-99650500D01*
X117533789Y-99661639D01*
X117616004Y-99822994D01*
X117722447Y-99969501D01*
X117850499Y-100097553D01*
X117997006Y-100203996D01*
X118158361Y-100286211D01*
X118330591Y-100342171D01*
X118402136Y-100353502D01*
X118509451Y-100370500D01*
X118509454Y-100370500D01*
X118690549Y-100370500D01*
X118779977Y-100356335D01*
X118869409Y-100342171D01*
X119041639Y-100286211D01*
X119202994Y-100203996D01*
X119349501Y-100097553D01*
X119477553Y-99969501D01*
X119583996Y-99822994D01*
X119666211Y-99661639D01*
X119722171Y-99489409D01*
X119745754Y-99340512D01*
X119750500Y-99310549D01*
X119750500Y-99129450D01*
X119722171Y-98950593D01*
X119722171Y-98950591D01*
X119682185Y-98827525D01*
X120449500Y-98827525D01*
X120449500Y-98972475D01*
X120460221Y-99012485D01*
X120487017Y-99112489D01*
X120559487Y-99238010D01*
X120559489Y-99238012D01*
X120559491Y-99238015D01*
X120661985Y-99340509D01*
X120661987Y-99340510D01*
X120661989Y-99340512D01*
X120787511Y-99412982D01*
X120787512Y-99412982D01*
X120787515Y-99412984D01*
X120927525Y-99450500D01*
X120927526Y-99450500D01*
X121072474Y-99450500D01*
X121072475Y-99450500D01*
X121212485Y-99412984D01*
X121212487Y-99412982D01*
X121212489Y-99412982D01*
X121338010Y-99340512D01*
X121338010Y-99340511D01*
X121338015Y-99340509D01*
X121440509Y-99238015D01*
X121503187Y-99129454D01*
X121512982Y-99112489D01*
X121512982Y-99112487D01*
X121512984Y-99112485D01*
X121535749Y-99027525D01*
X123549500Y-99027525D01*
X123549500Y-99172474D01*
X123587017Y-99312489D01*
X123659487Y-99438010D01*
X123659489Y-99438012D01*
X123659491Y-99438015D01*
X123761985Y-99540509D01*
X123761987Y-99540510D01*
X123761989Y-99540512D01*
X123887511Y-99612982D01*
X123887512Y-99612982D01*
X123887515Y-99612984D01*
X124027525Y-99650500D01*
X124027526Y-99650500D01*
X124172474Y-99650500D01*
X124172475Y-99650500D01*
X124312485Y-99612984D01*
X124312487Y-99612982D01*
X124312489Y-99612982D01*
X124438010Y-99540512D01*
X124438010Y-99540511D01*
X124438015Y-99540509D01*
X124540509Y-99438015D01*
X124584114Y-99362489D01*
X124612982Y-99312489D01*
X124612982Y-99312487D01*
X124612984Y-99312485D01*
X124650500Y-99172475D01*
X124650500Y-99027525D01*
X124612984Y-98887515D01*
X124540509Y-98761985D01*
X124506049Y-98727525D01*
X125749500Y-98727525D01*
X125749500Y-98872475D01*
X125753530Y-98887515D01*
X125787017Y-99012489D01*
X125859487Y-99138010D01*
X125859489Y-99138012D01*
X125859491Y-99138015D01*
X125961985Y-99240509D01*
X125961987Y-99240510D01*
X125961989Y-99240512D01*
X126087511Y-99312982D01*
X126087512Y-99312982D01*
X126087515Y-99312984D01*
X126227525Y-99350500D01*
X126227526Y-99350500D01*
X126372474Y-99350500D01*
X126372475Y-99350500D01*
X126512485Y-99312984D01*
X126512487Y-99312982D01*
X126512489Y-99312982D01*
X126638010Y-99240512D01*
X126638010Y-99240511D01*
X126638015Y-99240509D01*
X126740509Y-99138015D01*
X126745454Y-99129450D01*
X126812982Y-99012489D01*
X126812982Y-99012487D01*
X126812984Y-99012485D01*
X126850500Y-98872475D01*
X126850500Y-98727525D01*
X126812984Y-98587515D01*
X126812982Y-98587512D01*
X126812982Y-98587510D01*
X126740512Y-98461989D01*
X126740510Y-98461987D01*
X126740509Y-98461985D01*
X126638015Y-98359491D01*
X126638012Y-98359489D01*
X126638010Y-98359487D01*
X126512488Y-98287017D01*
X126512489Y-98287017D01*
X126415822Y-98261115D01*
X126372475Y-98249500D01*
X126227525Y-98249500D01*
X126210526Y-98254055D01*
X126087510Y-98287017D01*
X125961989Y-98359487D01*
X125859487Y-98461989D01*
X125787017Y-98587510D01*
X125773752Y-98637016D01*
X125749500Y-98727525D01*
X124506049Y-98727525D01*
X124438015Y-98659491D01*
X124438012Y-98659489D01*
X124438010Y-98659487D01*
X124312488Y-98587017D01*
X124312489Y-98587017D01*
X124280797Y-98578525D01*
X124172475Y-98549500D01*
X124027525Y-98549500D01*
X123980931Y-98561985D01*
X123887510Y-98587017D01*
X123761989Y-98659487D01*
X123659487Y-98761989D01*
X123587017Y-98887510D01*
X123549500Y-99027525D01*
X121535749Y-99027525D01*
X121550500Y-98972475D01*
X121550500Y-98827525D01*
X121512984Y-98687515D01*
X121512982Y-98687512D01*
X121512982Y-98687510D01*
X121440512Y-98561989D01*
X121440510Y-98561987D01*
X121440509Y-98561985D01*
X121338015Y-98459491D01*
X121338012Y-98459489D01*
X121338010Y-98459487D01*
X121212488Y-98387017D01*
X121212489Y-98387017D01*
X121109761Y-98359491D01*
X121072475Y-98349500D01*
X120927525Y-98349500D01*
X120890239Y-98359491D01*
X120787510Y-98387017D01*
X120661989Y-98459487D01*
X120559487Y-98561989D01*
X120487017Y-98687510D01*
X120462673Y-98778362D01*
X120449500Y-98827525D01*
X119682185Y-98827525D01*
X119666211Y-98778361D01*
X119583996Y-98617006D01*
X119477553Y-98470499D01*
X119349501Y-98342447D01*
X119202994Y-98236004D01*
X119202993Y-98236003D01*
X119202991Y-98236002D01*
X119041637Y-98153788D01*
X118869406Y-98097828D01*
X118690549Y-98069500D01*
X118690546Y-98069500D01*
X118509454Y-98069500D01*
X118509451Y-98069500D01*
X118330593Y-98097828D01*
X118158362Y-98153788D01*
X117997008Y-98236002D01*
X117962443Y-98261115D01*
X117850499Y-98342447D01*
X117722447Y-98470499D01*
X117688172Y-98517675D01*
X117616002Y-98617008D01*
X117533788Y-98778362D01*
X117477828Y-98950593D01*
X117449500Y-99129450D01*
X116800500Y-99129450D01*
X116800500Y-96589450D01*
X117449500Y-96589450D01*
X117449500Y-96770549D01*
X117477828Y-96949406D01*
X117514406Y-97061985D01*
X117533789Y-97121639D01*
X117616004Y-97282994D01*
X117722447Y-97429501D01*
X117850499Y-97557553D01*
X117997006Y-97663996D01*
X118158361Y-97746211D01*
X118330591Y-97802171D01*
X118402136Y-97813502D01*
X118509451Y-97830500D01*
X118509454Y-97830500D01*
X118690549Y-97830500D01*
X118779977Y-97816335D01*
X118869409Y-97802171D01*
X119041639Y-97746211D01*
X119202994Y-97663996D01*
X119349501Y-97557553D01*
X119477553Y-97429501D01*
X119583996Y-97282994D01*
X119666211Y-97121639D01*
X119722171Y-96949409D01*
X119750500Y-96770546D01*
X119750500Y-96589454D01*
X119750500Y-96589450D01*
X119730587Y-96463725D01*
X119729162Y-96454727D01*
X121103200Y-96454727D01*
X121103200Y-96585273D01*
X121132997Y-96696477D01*
X121136989Y-96711376D01*
X121202257Y-96824423D01*
X121202259Y-96824425D01*
X121202261Y-96824428D01*
X121294572Y-96916739D01*
X121294574Y-96916740D01*
X121294576Y-96916742D01*
X121407624Y-96982010D01*
X121407622Y-96982010D01*
X121407626Y-96982011D01*
X121407628Y-96982012D01*
X121533727Y-97015800D01*
X121533729Y-97015800D01*
X121664271Y-97015800D01*
X121664273Y-97015800D01*
X121790372Y-96982012D01*
X121790374Y-96982010D01*
X121790376Y-96982010D01*
X121903423Y-96916742D01*
X121903423Y-96916741D01*
X121903428Y-96916739D01*
X121995739Y-96824428D01*
X122061012Y-96711372D01*
X122094800Y-96585273D01*
X122094800Y-96454727D01*
X123135200Y-96454727D01*
X123135200Y-96585273D01*
X123164997Y-96696477D01*
X123168989Y-96711376D01*
X123234257Y-96824423D01*
X123234259Y-96824425D01*
X123234261Y-96824428D01*
X123326572Y-96916739D01*
X123326574Y-96916740D01*
X123326576Y-96916742D01*
X123439624Y-96982010D01*
X123439622Y-96982010D01*
X123439626Y-96982011D01*
X123439628Y-96982012D01*
X123565727Y-97015800D01*
X123565729Y-97015800D01*
X123696271Y-97015800D01*
X123696273Y-97015800D01*
X123822372Y-96982012D01*
X123822374Y-96982010D01*
X123822376Y-96982010D01*
X123935423Y-96916742D01*
X123935423Y-96916741D01*
X123935428Y-96916739D01*
X124027739Y-96824428D01*
X124093012Y-96711372D01*
X124126800Y-96585273D01*
X124126800Y-96454727D01*
X124093012Y-96328628D01*
X124093010Y-96328625D01*
X124093010Y-96328623D01*
X124027742Y-96215576D01*
X124027740Y-96215574D01*
X124027739Y-96215572D01*
X123935428Y-96123261D01*
X123935425Y-96123259D01*
X123935423Y-96123257D01*
X123822375Y-96057989D01*
X123822377Y-96057989D01*
X123773448Y-96044879D01*
X123696273Y-96024200D01*
X123565727Y-96024200D01*
X123488551Y-96044879D01*
X123439623Y-96057989D01*
X123326576Y-96123257D01*
X123234257Y-96215576D01*
X123168989Y-96328623D01*
X123168988Y-96328628D01*
X123135200Y-96454727D01*
X122094800Y-96454727D01*
X122061012Y-96328628D01*
X122061010Y-96328625D01*
X122061010Y-96328623D01*
X121995742Y-96215576D01*
X121995740Y-96215574D01*
X121995739Y-96215572D01*
X121903428Y-96123261D01*
X121903425Y-96123259D01*
X121903423Y-96123257D01*
X121790375Y-96057989D01*
X121790377Y-96057989D01*
X121741448Y-96044879D01*
X121664273Y-96024200D01*
X121533727Y-96024200D01*
X121456551Y-96044879D01*
X121407623Y-96057989D01*
X121294576Y-96123257D01*
X121202257Y-96215576D01*
X121136989Y-96328623D01*
X121136988Y-96328628D01*
X121103200Y-96454727D01*
X119729162Y-96454727D01*
X119722171Y-96410593D01*
X119722171Y-96410591D01*
X119666211Y-96238361D01*
X119583996Y-96077006D01*
X119477553Y-95930499D01*
X119349501Y-95802447D01*
X119202994Y-95696004D01*
X119202993Y-95696003D01*
X119202991Y-95696002D01*
X119041637Y-95613788D01*
X118869406Y-95557828D01*
X118690549Y-95529500D01*
X118690546Y-95529500D01*
X118509454Y-95529500D01*
X118509451Y-95529500D01*
X118330593Y-95557828D01*
X118158362Y-95613788D01*
X117997008Y-95696002D01*
X117923752Y-95749225D01*
X117850499Y-95802447D01*
X117722447Y-95930499D01*
X117701601Y-95959191D01*
X117616002Y-96077008D01*
X117533788Y-96238362D01*
X117477828Y-96410593D01*
X117449500Y-96589450D01*
X116800500Y-96589450D01*
X116800500Y-94049450D01*
X117449500Y-94049450D01*
X117449500Y-94230549D01*
X117477828Y-94409406D01*
X117533788Y-94581637D01*
X117605645Y-94722665D01*
X117616004Y-94742994D01*
X117722447Y-94889501D01*
X117850499Y-95017553D01*
X117997006Y-95123996D01*
X118158361Y-95206211D01*
X118330591Y-95262171D01*
X118402136Y-95273502D01*
X118509451Y-95290500D01*
X118509454Y-95290500D01*
X118690549Y-95290500D01*
X118779977Y-95276335D01*
X118869409Y-95262171D01*
X119041639Y-95206211D01*
X119202994Y-95123996D01*
X119349501Y-95017553D01*
X119477553Y-94889501D01*
X119583996Y-94742994D01*
X119666211Y-94581639D01*
X119716285Y-94427525D01*
X120149500Y-94427525D01*
X120149500Y-94572475D01*
X120157635Y-94602835D01*
X120187017Y-94712489D01*
X120259487Y-94838010D01*
X120259489Y-94838012D01*
X120259491Y-94838015D01*
X120361985Y-94940509D01*
X120361987Y-94940510D01*
X120361989Y-94940512D01*
X120487511Y-95012982D01*
X120487512Y-95012982D01*
X120487515Y-95012984D01*
X120627525Y-95050500D01*
X120627526Y-95050500D01*
X120772474Y-95050500D01*
X120772475Y-95050500D01*
X120912485Y-95012984D01*
X120912487Y-95012982D01*
X120912489Y-95012982D01*
X121038010Y-94940512D01*
X121038010Y-94940511D01*
X121038015Y-94940509D01*
X121140509Y-94838015D01*
X121140512Y-94838010D01*
X121212982Y-94712489D01*
X121212982Y-94712487D01*
X121212984Y-94712485D01*
X121250500Y-94572475D01*
X121250500Y-94427525D01*
X121224587Y-94330817D01*
X124974500Y-94330817D01*
X124974500Y-94469183D01*
X125010312Y-94602836D01*
X125079495Y-94722665D01*
X125177335Y-94820505D01*
X125297164Y-94889688D01*
X125430817Y-94925500D01*
X125430819Y-94925500D01*
X125569181Y-94925500D01*
X125569183Y-94925500D01*
X125702836Y-94889688D01*
X125822665Y-94820505D01*
X125875168Y-94768001D01*
X125929682Y-94740225D01*
X125990114Y-94749796D01*
X126030906Y-94788506D01*
X126059487Y-94838010D01*
X126059489Y-94838012D01*
X126059491Y-94838015D01*
X126161985Y-94940509D01*
X126161987Y-94940510D01*
X126161989Y-94940512D01*
X126287511Y-95012982D01*
X126287512Y-95012982D01*
X126287515Y-95012984D01*
X126427525Y-95050500D01*
X126427526Y-95050500D01*
X126572474Y-95050500D01*
X126572475Y-95050500D01*
X126712485Y-95012984D01*
X126712487Y-95012982D01*
X126712489Y-95012982D01*
X126838010Y-94940512D01*
X126838010Y-94940511D01*
X126838015Y-94940509D01*
X126940509Y-94838015D01*
X126940512Y-94838010D01*
X127012982Y-94712489D01*
X127012982Y-94712487D01*
X127012984Y-94712485D01*
X127050500Y-94572475D01*
X127050500Y-94427525D01*
X127012984Y-94287515D01*
X127012982Y-94287512D01*
X127012982Y-94287510D01*
X126940512Y-94161989D01*
X126940510Y-94161987D01*
X126940509Y-94161985D01*
X126838015Y-94059491D01*
X126838012Y-94059489D01*
X126838010Y-94059487D01*
X126712488Y-93987017D01*
X126712489Y-93987017D01*
X126682896Y-93979087D01*
X126572475Y-93949500D01*
X126427525Y-93949500D01*
X126365790Y-93966041D01*
X126287510Y-93987017D01*
X126161989Y-94059487D01*
X126161984Y-94059491D01*
X126093591Y-94127884D01*
X126039074Y-94155661D01*
X125978642Y-94146089D01*
X125937852Y-94107381D01*
X125937545Y-94106849D01*
X125920505Y-94077335D01*
X125822665Y-93979495D01*
X125702836Y-93910312D01*
X125569183Y-93874500D01*
X125430817Y-93874500D01*
X125297164Y-93910312D01*
X125177335Y-93979495D01*
X125079495Y-94077335D01*
X125010312Y-94197164D01*
X124974500Y-94330817D01*
X121224587Y-94330817D01*
X121212984Y-94287515D01*
X121212982Y-94287512D01*
X121212982Y-94287510D01*
X121140512Y-94161989D01*
X121140510Y-94161987D01*
X121140509Y-94161985D01*
X121038015Y-94059491D01*
X121038012Y-94059489D01*
X121038010Y-94059487D01*
X120912488Y-93987017D01*
X120912489Y-93987017D01*
X120882896Y-93979087D01*
X120772475Y-93949500D01*
X120627525Y-93949500D01*
X120565790Y-93966041D01*
X120487510Y-93987017D01*
X120361989Y-94059487D01*
X120259487Y-94161989D01*
X120187017Y-94287510D01*
X120187016Y-94287515D01*
X120149500Y-94427525D01*
X119716285Y-94427525D01*
X119722171Y-94409409D01*
X119750500Y-94230546D01*
X119750500Y-94049454D01*
X119750500Y-94049450D01*
X119722171Y-93870593D01*
X119722171Y-93870591D01*
X119666211Y-93698361D01*
X119583996Y-93537006D01*
X119477553Y-93390499D01*
X119349501Y-93262447D01*
X119202994Y-93156004D01*
X119202990Y-93156001D01*
X119202983Y-93155997D01*
X119117691Y-93112538D01*
X119117688Y-93112538D01*
X119041637Y-93073788D01*
X118909383Y-93030817D01*
X124374500Y-93030817D01*
X124374500Y-93169183D01*
X124410312Y-93302836D01*
X124479495Y-93422665D01*
X124577335Y-93520505D01*
X124697164Y-93589688D01*
X124830817Y-93625500D01*
X124830819Y-93625500D01*
X124969181Y-93625500D01*
X124969183Y-93625500D01*
X125102836Y-93589688D01*
X125222665Y-93520505D01*
X125320505Y-93422665D01*
X125389688Y-93302836D01*
X125425500Y-93169183D01*
X125425500Y-93030817D01*
X125389688Y-92897164D01*
X125320505Y-92777335D01*
X125222665Y-92679495D01*
X125102836Y-92610312D01*
X124969183Y-92574500D01*
X124830817Y-92574500D01*
X124697164Y-92610312D01*
X124577335Y-92679495D01*
X124479495Y-92777335D01*
X124410312Y-92897164D01*
X124374500Y-93030817D01*
X118909383Y-93030817D01*
X118869406Y-93017828D01*
X118690549Y-92989500D01*
X118690546Y-92989500D01*
X118509454Y-92989500D01*
X118509451Y-92989500D01*
X118330593Y-93017828D01*
X118158362Y-93073788D01*
X117997008Y-93156002D01*
X117923752Y-93209225D01*
X117850499Y-93262447D01*
X117722447Y-93390499D01*
X117699078Y-93422664D01*
X117616002Y-93537008D01*
X117533788Y-93698362D01*
X117477828Y-93870593D01*
X117449500Y-94049450D01*
X116800500Y-94049450D01*
X116800500Y-90705130D01*
X117449500Y-90705130D01*
X117449500Y-92494860D01*
X117449501Y-92494863D01*
X117452414Y-92519990D01*
X117476483Y-92574500D01*
X117497794Y-92622765D01*
X117577235Y-92702206D01*
X117680009Y-92747585D01*
X117705135Y-92750500D01*
X119494864Y-92750499D01*
X119519991Y-92747585D01*
X119622765Y-92702206D01*
X119702206Y-92622765D01*
X119747585Y-92519991D01*
X119750500Y-92494865D01*
X119750499Y-90927525D01*
X120149500Y-90927525D01*
X120149500Y-91072474D01*
X120187017Y-91212489D01*
X120259487Y-91338010D01*
X120259489Y-91338012D01*
X120259491Y-91338015D01*
X120361985Y-91440509D01*
X120361987Y-91440510D01*
X120361989Y-91440512D01*
X120487511Y-91512982D01*
X120487512Y-91512982D01*
X120487515Y-91512984D01*
X120627525Y-91550500D01*
X120627526Y-91550500D01*
X120772474Y-91550500D01*
X120772475Y-91550500D01*
X120912485Y-91512984D01*
X120912487Y-91512982D01*
X120912489Y-91512982D01*
X121038010Y-91440512D01*
X121038010Y-91440511D01*
X121038015Y-91440509D01*
X121103797Y-91374727D01*
X122119200Y-91374727D01*
X122119200Y-91505273D01*
X122148997Y-91616477D01*
X122152989Y-91631376D01*
X122218257Y-91744423D01*
X122218259Y-91744425D01*
X122218261Y-91744428D01*
X122310572Y-91836739D01*
X122310574Y-91836740D01*
X122310576Y-91836742D01*
X122423624Y-91902010D01*
X122423622Y-91902010D01*
X122423626Y-91902011D01*
X122423628Y-91902012D01*
X122549727Y-91935800D01*
X122549729Y-91935800D01*
X122680271Y-91935800D01*
X122680273Y-91935800D01*
X122806372Y-91902012D01*
X122806374Y-91902010D01*
X122806376Y-91902010D01*
X122919423Y-91836742D01*
X122919423Y-91836741D01*
X122919428Y-91836739D01*
X123011739Y-91744428D01*
X123077012Y-91631372D01*
X123110800Y-91505273D01*
X123110800Y-91374727D01*
X123077012Y-91248628D01*
X123077010Y-91248625D01*
X123077010Y-91248623D01*
X123011742Y-91135576D01*
X123011740Y-91135574D01*
X123011739Y-91135572D01*
X122919428Y-91043261D01*
X122919425Y-91043259D01*
X122919423Y-91043257D01*
X122806375Y-90977989D01*
X122806377Y-90977989D01*
X122757448Y-90964879D01*
X122680273Y-90944200D01*
X122549727Y-90944200D01*
X122472551Y-90964879D01*
X122423623Y-90977989D01*
X122310576Y-91043257D01*
X122218257Y-91135576D01*
X122152989Y-91248623D01*
X122152988Y-91248628D01*
X122119200Y-91374727D01*
X121103797Y-91374727D01*
X121140509Y-91338015D01*
X121212984Y-91212485D01*
X121250500Y-91072475D01*
X121250500Y-90927525D01*
X121212984Y-90787515D01*
X121212982Y-90787512D01*
X121212982Y-90787510D01*
X121140512Y-90661989D01*
X121140510Y-90661987D01*
X121140509Y-90661985D01*
X121038015Y-90559491D01*
X121038012Y-90559489D01*
X121038010Y-90559487D01*
X120912488Y-90487017D01*
X120912489Y-90487017D01*
X120882896Y-90479087D01*
X120772475Y-90449500D01*
X120627525Y-90449500D01*
X120565790Y-90466041D01*
X120487510Y-90487017D01*
X120361989Y-90559487D01*
X120259487Y-90661989D01*
X120187017Y-90787510D01*
X120149500Y-90927525D01*
X119750499Y-90927525D01*
X119750499Y-90705136D01*
X119747585Y-90680009D01*
X119702206Y-90577235D01*
X119622765Y-90497794D01*
X119519991Y-90452415D01*
X119519990Y-90452414D01*
X119519988Y-90452414D01*
X119494868Y-90449500D01*
X117705139Y-90449500D01*
X117705136Y-90449501D01*
X117680009Y-90452414D01*
X117577235Y-90497794D01*
X117497794Y-90577235D01*
X117452414Y-90680011D01*
X117449500Y-90705130D01*
X116800500Y-90705130D01*
X116800500Y-89899500D01*
X116819407Y-89841309D01*
X116868907Y-89805345D01*
X116899500Y-89800500D01*
X130101000Y-89800500D01*
X130159191Y-89819407D01*
G37*
%TD.AperFunction*%
%TD*%
%TA.AperFunction,Conductor*%
%TO.N,{slash}VBAT*%
G36*
X135515408Y-89805343D02*
G01*
X135528097Y-89809466D01*
X135564057Y-89835591D01*
X135571926Y-89841309D01*
X135577596Y-89845428D01*
X135580591Y-89849550D01*
X135599500Y-89907740D01*
X135599500Y-97795500D01*
X135580593Y-97853691D01*
X135531093Y-97889655D01*
X135500500Y-97894500D01*
X134686056Y-97894500D01*
X134614744Y-97902940D01*
X134569788Y-97913733D01*
X134517720Y-97931318D01*
X134517715Y-97931321D01*
X134442750Y-97982674D01*
X134386801Y-98000000D01*
X134133962Y-98000000D01*
X134119543Y-97995315D01*
X134103359Y-97995151D01*
X134098578Y-97993597D01*
X134085900Y-97984384D01*
X134075771Y-97981093D01*
X134061914Y-97966953D01*
X134049082Y-97957628D01*
X134030181Y-97899436D01*
X134049094Y-97841247D01*
X134063521Y-97829881D01*
X134062399Y-97828759D01*
X134062400Y-97828758D01*
X134069609Y-97825084D01*
X134091343Y-97807962D01*
X134092021Y-97807682D01*
X134102080Y-97804847D01*
X134101993Y-97804580D01*
X134103688Y-97804029D01*
X134103717Y-97804009D01*
X134103748Y-97804009D01*
X134109215Y-97802233D01*
X134109408Y-97802171D01*
X134109409Y-97802171D01*
X134109528Y-97802132D01*
X134109585Y-97802114D01*
X134116119Y-97800018D01*
X134116444Y-97799884D01*
X134281639Y-97746211D01*
X134442994Y-97663996D01*
X134589501Y-97557553D01*
X134717553Y-97429501D01*
X134823996Y-97282994D01*
X134906211Y-97121639D01*
X134962171Y-96949409D01*
X134976335Y-96859977D01*
X134990500Y-96770549D01*
X134990500Y-96589447D01*
X134962918Y-96415312D01*
X134962171Y-96410593D01*
X134962171Y-96410591D01*
X134906211Y-96238361D01*
X134823996Y-96077006D01*
X134717553Y-95930499D01*
X134589501Y-95802447D01*
X134589497Y-95802444D01*
X134451445Y-95702142D01*
X134451419Y-95702125D01*
X134442994Y-95696004D01*
X134442993Y-95696003D01*
X134442991Y-95696002D01*
X134438169Y-95693545D01*
X134438166Y-95693543D01*
X134281635Y-95613787D01*
X134109403Y-95557827D01*
X133930552Y-95529500D01*
X133930549Y-95529500D01*
X133930546Y-95529500D01*
X133749454Y-95529500D01*
X133749451Y-95529500D01*
X133749448Y-95529500D01*
X133570595Y-95557827D01*
X133398363Y-95613787D01*
X133237008Y-95696001D01*
X133237004Y-95696004D01*
X133163752Y-95749223D01*
X133163753Y-95749224D01*
X133090501Y-95802445D01*
X132962445Y-95930501D01*
X132909224Y-96003753D01*
X132856004Y-96077004D01*
X132856001Y-96077008D01*
X132773787Y-96238363D01*
X132717827Y-96410595D01*
X132689500Y-96589446D01*
X132689500Y-96770552D01*
X132717827Y-96949404D01*
X132717833Y-96949428D01*
X132717955Y-96949798D01*
X132773789Y-97121639D01*
X132856004Y-97282994D01*
X132962447Y-97429501D01*
X133090499Y-97557553D01*
X133237006Y-97663996D01*
X133398361Y-97746211D01*
X133558171Y-97798135D01*
X133570594Y-97802172D01*
X133570987Y-97802234D01*
X133574877Y-97803479D01*
X133576684Y-97804779D01*
X133589641Y-97809555D01*
X133595654Y-97812619D01*
X133616404Y-97833368D01*
X133624537Y-97839222D01*
X133625658Y-97842622D01*
X133638918Y-97855881D01*
X133648492Y-97916313D01*
X133620716Y-97970831D01*
X133573953Y-97997062D01*
X133573589Y-97997149D01*
X133573240Y-97997233D01*
X133550002Y-98000000D01*
X133302085Y-98000000D01*
X133252928Y-97984028D01*
X133251958Y-97985809D01*
X133146537Y-97928360D01*
X133146535Y-97928359D01*
X133088342Y-97909451D01*
X133088345Y-97909451D01*
X132993942Y-97894500D01*
X132993939Y-97894500D01*
X130661990Y-97894500D01*
X130661979Y-97894500D01*
X130579065Y-97905969D01*
X130579060Y-97905970D01*
X130527336Y-97920558D01*
X130527335Y-97920558D01*
X130465321Y-97945660D01*
X130465317Y-97945662D01*
X130425217Y-97978033D01*
X130422767Y-97978969D01*
X130421224Y-97981093D01*
X130394395Y-97989809D01*
X130368062Y-97999872D01*
X130363033Y-98000000D01*
X130174730Y-98000000D01*
X130125573Y-97984028D01*
X130124603Y-97985809D01*
X130019182Y-97928360D01*
X130019180Y-97928359D01*
X129960987Y-97909451D01*
X129960990Y-97909451D01*
X129866587Y-97894500D01*
X129866584Y-97894500D01*
X129604500Y-97894500D01*
X129546309Y-97875593D01*
X129510345Y-97826093D01*
X129505500Y-97795500D01*
X129505500Y-96404500D01*
X129524407Y-96346309D01*
X129573907Y-96310345D01*
X129604500Y-96305500D01*
X130100993Y-96305500D01*
X130101000Y-96305500D01*
X130148786Y-96301739D01*
X130179379Y-96296894D01*
X130179384Y-96296893D01*
X130179385Y-96296893D01*
X130191116Y-96294418D01*
X130209754Y-96290487D01*
X130311162Y-96242309D01*
X130360662Y-96206345D01*
X130367369Y-96200000D01*
X130399999Y-96200000D01*
X130400000Y-96200000D01*
X130400000Y-96169129D01*
X130417919Y-96152177D01*
X130471641Y-96053594D01*
X130487835Y-96003753D01*
X130490548Y-95995404D01*
X130505500Y-95901003D01*
X130505500Y-95030817D01*
X130774500Y-95030817D01*
X130774500Y-95169183D01*
X130810312Y-95302836D01*
X130879495Y-95422665D01*
X130977335Y-95520505D01*
X131097164Y-95589688D01*
X131230817Y-95625500D01*
X131230819Y-95625500D01*
X131369181Y-95625500D01*
X131369183Y-95625500D01*
X131502836Y-95589688D01*
X131622665Y-95520505D01*
X131701574Y-95441595D01*
X131726628Y-95423391D01*
X131738515Y-95417334D01*
X131798932Y-95407762D01*
X131800709Y-95408044D01*
X131848538Y-95429715D01*
X131854038Y-95434290D01*
X131860828Y-95439938D01*
X131867508Y-95446032D01*
X131961985Y-95540509D01*
X131961987Y-95540510D01*
X131961989Y-95540512D01*
X131962536Y-95540907D01*
X131964538Y-95541984D01*
X132087511Y-95612982D01*
X132087512Y-95612982D01*
X132087515Y-95612984D01*
X132227525Y-95650500D01*
X132227526Y-95650500D01*
X132372474Y-95650500D01*
X132372475Y-95650500D01*
X132512485Y-95612984D01*
X132512486Y-95612983D01*
X132512488Y-95612982D01*
X132512489Y-95612982D01*
X132631880Y-95544051D01*
X132634768Y-95542648D01*
X132635554Y-95542131D01*
X132640563Y-95539037D01*
X132641861Y-95538287D01*
X132647219Y-95531304D01*
X132740509Y-95438015D01*
X132742660Y-95434290D01*
X132812982Y-95312489D01*
X132812982Y-95312487D01*
X132812984Y-95312485D01*
X132850500Y-95172475D01*
X132850500Y-95038820D01*
X132851302Y-95036350D01*
X132850625Y-95033843D01*
X132852156Y-95020789D01*
X132855118Y-95004798D01*
X132884307Y-94951024D01*
X132939529Y-94924677D01*
X132990590Y-94933792D01*
X132994723Y-94934000D01*
X132995566Y-94934680D01*
X132998553Y-94935213D01*
X133005533Y-94938885D01*
X133029439Y-94956494D01*
X133077744Y-95004798D01*
X133090499Y-95017553D01*
X133237006Y-95123996D01*
X133398361Y-95206211D01*
X133487956Y-95235321D01*
X133570587Y-95262170D01*
X133570588Y-95262170D01*
X133570591Y-95262171D01*
X133642136Y-95273502D01*
X133660016Y-95276334D01*
X133749448Y-95290500D01*
X133930549Y-95290500D01*
X133930551Y-95290500D01*
X133990167Y-95281056D01*
X134019977Y-95276335D01*
X134070554Y-95268324D01*
X134109406Y-95262172D01*
X134109406Y-95262171D01*
X134109409Y-95262171D01*
X134281639Y-95206211D01*
X134442994Y-95123996D01*
X134589501Y-95017553D01*
X134717553Y-94889501D01*
X134823996Y-94742994D01*
X134906211Y-94581639D01*
X134962171Y-94409409D01*
X134976335Y-94319977D01*
X134990500Y-94230549D01*
X134990500Y-94049447D01*
X134962171Y-93870594D01*
X134962171Y-93870592D01*
X134906212Y-93698363D01*
X134906211Y-93698361D01*
X134823996Y-93537006D01*
X134717553Y-93390499D01*
X134589501Y-93262447D01*
X134589497Y-93262444D01*
X134451445Y-93162142D01*
X134451419Y-93162125D01*
X134442994Y-93156004D01*
X134442993Y-93156003D01*
X134442991Y-93156002D01*
X134438169Y-93153545D01*
X134438166Y-93153543D01*
X134281635Y-93073787D01*
X134109403Y-93017827D01*
X133930552Y-92989500D01*
X133930549Y-92989500D01*
X133930546Y-92989500D01*
X133749454Y-92989500D01*
X133749451Y-92989500D01*
X133749448Y-92989500D01*
X133570595Y-93017827D01*
X133398363Y-93073787D01*
X133237008Y-93156001D01*
X133237004Y-93156004D01*
X133163752Y-93209223D01*
X133163753Y-93209224D01*
X133090501Y-93262445D01*
X132962445Y-93390501D01*
X132909224Y-93463753D01*
X132856004Y-93537004D01*
X132856001Y-93537008D01*
X132773787Y-93698363D01*
X132717827Y-93870595D01*
X132689500Y-94049446D01*
X132689500Y-94230552D01*
X132717827Y-94409405D01*
X132751734Y-94513764D01*
X132756579Y-94544355D01*
X132756579Y-94554477D01*
X132737672Y-94612668D01*
X132688172Y-94648632D01*
X132631951Y-94650102D01*
X132625507Y-94648375D01*
X132601635Y-94638486D01*
X132512491Y-94587018D01*
X132512488Y-94587017D01*
X132512486Y-94587016D01*
X132442480Y-94568258D01*
X132442479Y-94568257D01*
X132391049Y-94554477D01*
X132372475Y-94549500D01*
X132372474Y-94549500D01*
X132227523Y-94549500D01*
X132165788Y-94566041D01*
X132165787Y-94566040D01*
X132087512Y-94587015D01*
X132087506Y-94587018D01*
X131964721Y-94657908D01*
X131964716Y-94657912D01*
X131961989Y-94659487D01*
X131961988Y-94659488D01*
X131961985Y-94659490D01*
X131961985Y-94659491D01*
X131950211Y-94671264D01*
X131950186Y-94671288D01*
X131869293Y-94752182D01*
X131855361Y-94763768D01*
X131837286Y-94776190D01*
X131778623Y-94793566D01*
X131776828Y-94793519D01*
X131726586Y-94778277D01*
X131722011Y-94775390D01*
X131704841Y-94761670D01*
X131622667Y-94679497D01*
X131622665Y-94679495D01*
X131502836Y-94610312D01*
X131369183Y-94574500D01*
X131369181Y-94574500D01*
X131230819Y-94574500D01*
X131230817Y-94574500D01*
X131097164Y-94610312D01*
X130977335Y-94679495D01*
X130879495Y-94777335D01*
X130810312Y-94897164D01*
X130774500Y-95030817D01*
X130505500Y-95030817D01*
X130505500Y-89899500D01*
X130524407Y-89841309D01*
X130573907Y-89805345D01*
X130604500Y-89800500D01*
X135484820Y-89800500D01*
X135515408Y-89805343D01*
G37*
%TD.AperFunction*%
%TD*%
M02*
