%TF.GenerationSoftware,KiCad,Pcbnew,10.0.3*%
%TF.CreationDate,2026-05-28T08:34:56-07:00*%
%TF.ProjectId,RXProg,52585072-6f67-42e6-9b69-6361645f7063,rev?*%
%TF.SameCoordinates,Original*%
%TF.FileFunction,Legend,Top*%
%TF.FilePolarity,Positive*%
%FSLAX46Y46*%
G04 Gerber Fmt 4.6, Leading zero omitted, Abs format (unit mm)*
G04 Created by KiCad (PCBNEW 10.0.3) date 2026-05-28 08:34:56*
%MOMM*%
%LPD*%
G01*
G04 APERTURE LIST*
G04 Aperture macros list*
%AMRoundRect*
0 Rectangle with rounded corners*
0 $1 Rounding radius*
0 $2 $3 $4 $5 $6 $7 $8 $9 X,Y pos of 4 corners*
0 Add a 4 corners polygon primitive as box body*
4,1,4,$2,$3,$4,$5,$6,$7,$8,$9,$2,$3,0*
0 Add four circle primitives for the rounded corners*
1,1,$1+$1,$2,$3*
1,1,$1+$1,$4,$5*
1,1,$1+$1,$6,$7*
1,1,$1+$1,$8,$9*
0 Add four rect primitives between the rounded corners*
20,1,$1+$1,$2,$3,$4,$5,0*
20,1,$1+$1,$4,$5,$6,$7,0*
20,1,$1+$1,$6,$7,$8,$9,0*
20,1,$1+$1,$8,$9,$2,$3,0*%
%AMFreePoly0*
4,1,7,0.127000,-0.127008,0.254000,-0.127008,0.254000,-0.279408,-0.127000,-0.279400,-0.127000,0.279400,0.127000,0.279400,0.127000,-0.127008,0.127000,-0.127008,$1*%
%AMFreePoly1*
4,1,23,0.500000,-0.750000,0.000000,-0.750000,0.000000,-0.745722,-0.065263,-0.745722,-0.191342,-0.711940,-0.304381,-0.646677,-0.396677,-0.554381,-0.461940,-0.441342,-0.495722,-0.315263,-0.495722,-0.250000,-0.500000,-0.250000,-0.500000,0.250000,-0.495722,0.250000,-0.495722,0.315263,-0.461940,0.441342,-0.396677,0.554381,-0.304381,0.646677,-0.191342,0.711940,-0.065263,0.745722,0.000000,0.745722,
0.000000,0.750000,0.500000,0.750000,0.500000,-0.750000,0.500000,-0.750000,$1*%
%AMFreePoly2*
4,1,23,0.000000,0.745722,0.065263,0.745722,0.191342,0.711940,0.304381,0.646677,0.396677,0.554381,0.461940,0.441342,0.495722,0.315263,0.495722,0.250000,0.500000,0.250000,0.500000,-0.250000,0.495722,-0.250000,0.495722,-0.315263,0.461940,-0.441342,0.396677,-0.554381,0.304381,-0.646677,0.191342,-0.711940,0.065263,-0.745722,0.000000,-0.745722,0.000000,-0.750000,-0.500000,-0.750000,
-0.500000,0.750000,0.000000,0.750000,0.000000,0.745722,0.000000,0.745722,$1*%
G04 Aperture macros list end*
%ADD10C,0.150000*%
%ADD11C,0.100000*%
%ADD12C,0.120000*%
%ADD13C,0.152400*%
%ADD14C,0.000000*%
%ADD15C,1.400000*%
%ADD16RoundRect,0.100000X0.130000X0.100000X-0.130000X0.100000X-0.130000X-0.100000X0.130000X-0.100000X0*%
%ADD17R,0.400000X1.650000*%
%ADD18R,1.430000X2.500000*%
%ADD19R,1.825000X0.700000*%
%ADD20R,2.000000X1.500000*%
%ADD21R,1.350000X2.000000*%
%ADD22O,1.350000X1.700000*%
%ADD23O,1.100000X1.500000*%
%ADD24RoundRect,0.150000X-0.200000X0.150000X-0.200000X-0.150000X0.200000X-0.150000X0.200000X0.150000X0*%
%ADD25RoundRect,0.100000X0.100000X-0.130000X0.100000X0.130000X-0.100000X0.130000X-0.100000X-0.130000X0*%
%ADD26RoundRect,0.075000X-0.075000X0.662500X-0.075000X-0.662500X0.075000X-0.662500X0.075000X0.662500X0*%
%ADD27RoundRect,0.075000X-0.662500X0.075000X-0.662500X-0.075000X0.662500X-0.075000X0.662500X0.075000X0*%
%ADD28RoundRect,0.150000X0.512500X0.150000X-0.512500X0.150000X-0.512500X-0.150000X0.512500X-0.150000X0*%
%ADD29FreePoly0,270.000000*%
%ADD30R,0.558800X0.254000*%
%ADD31R,0.254000X0.558800*%
%ADD32R,1.700000X1.700000*%
%ADD33C,1.700000*%
%ADD34RoundRect,0.100000X-0.100000X0.130000X-0.100000X-0.130000X0.100000X-0.130000X0.100000X0.130000X0*%
%ADD35C,0.990600*%
%ADD36C,0.787400*%
%ADD37FreePoly1,0.000000*%
%ADD38FreePoly2,0.000000*%
%ADD39R,0.900000X0.240000*%
%ADD40R,0.240000X0.900000*%
%ADD41R,2.900000X1.000000*%
G04 APERTURE END LIST*
D10*
X128058207Y-115424580D02*
X128010588Y-115472200D01*
X128010588Y-115472200D02*
X127867731Y-115519819D01*
X127867731Y-115519819D02*
X127772493Y-115519819D01*
X127772493Y-115519819D02*
X127629636Y-115472200D01*
X127629636Y-115472200D02*
X127534398Y-115376961D01*
X127534398Y-115376961D02*
X127486779Y-115281723D01*
X127486779Y-115281723D02*
X127439160Y-115091247D01*
X127439160Y-115091247D02*
X127439160Y-114948390D01*
X127439160Y-114948390D02*
X127486779Y-114757914D01*
X127486779Y-114757914D02*
X127534398Y-114662676D01*
X127534398Y-114662676D02*
X127629636Y-114567438D01*
X127629636Y-114567438D02*
X127772493Y-114519819D01*
X127772493Y-114519819D02*
X127867731Y-114519819D01*
X127867731Y-114519819D02*
X128010588Y-114567438D01*
X128010588Y-114567438D02*
X128058207Y-114615057D01*
X128439160Y-115472200D02*
X128582017Y-115519819D01*
X128582017Y-115519819D02*
X128820112Y-115519819D01*
X128820112Y-115519819D02*
X128915350Y-115472200D01*
X128915350Y-115472200D02*
X128962969Y-115424580D01*
X128962969Y-115424580D02*
X129010588Y-115329342D01*
X129010588Y-115329342D02*
X129010588Y-115234104D01*
X129010588Y-115234104D02*
X128962969Y-115138866D01*
X128962969Y-115138866D02*
X128915350Y-115091247D01*
X128915350Y-115091247D02*
X128820112Y-115043628D01*
X128820112Y-115043628D02*
X128629636Y-114996009D01*
X128629636Y-114996009D02*
X128534398Y-114948390D01*
X128534398Y-114948390D02*
X128486779Y-114900771D01*
X128486779Y-114900771D02*
X128439160Y-114805533D01*
X128439160Y-114805533D02*
X128439160Y-114710295D01*
X128439160Y-114710295D02*
X128486779Y-114615057D01*
X128486779Y-114615057D02*
X128534398Y-114567438D01*
X128534398Y-114567438D02*
X128629636Y-114519819D01*
X128629636Y-114519819D02*
X128867731Y-114519819D01*
X128867731Y-114519819D02*
X129010588Y-114567438D01*
X129391541Y-114615057D02*
X129439160Y-114567438D01*
X129439160Y-114567438D02*
X129534398Y-114519819D01*
X129534398Y-114519819D02*
X129772493Y-114519819D01*
X129772493Y-114519819D02*
X129867731Y-114567438D01*
X129867731Y-114567438D02*
X129915350Y-114615057D01*
X129915350Y-114615057D02*
X129962969Y-114710295D01*
X129962969Y-114710295D02*
X129962969Y-114805533D01*
X129962969Y-114805533D02*
X129915350Y-114948390D01*
X129915350Y-114948390D02*
X129343922Y-115519819D01*
X129343922Y-115519819D02*
X129962969Y-115519819D01*
X128058207Y-120224580D02*
X128010588Y-120272200D01*
X128010588Y-120272200D02*
X127867731Y-120319819D01*
X127867731Y-120319819D02*
X127772493Y-120319819D01*
X127772493Y-120319819D02*
X127629636Y-120272200D01*
X127629636Y-120272200D02*
X127534398Y-120176961D01*
X127534398Y-120176961D02*
X127486779Y-120081723D01*
X127486779Y-120081723D02*
X127439160Y-119891247D01*
X127439160Y-119891247D02*
X127439160Y-119748390D01*
X127439160Y-119748390D02*
X127486779Y-119557914D01*
X127486779Y-119557914D02*
X127534398Y-119462676D01*
X127534398Y-119462676D02*
X127629636Y-119367438D01*
X127629636Y-119367438D02*
X127772493Y-119319819D01*
X127772493Y-119319819D02*
X127867731Y-119319819D01*
X127867731Y-119319819D02*
X128010588Y-119367438D01*
X128010588Y-119367438D02*
X128058207Y-119415057D01*
X128439160Y-120272200D02*
X128582017Y-120319819D01*
X128582017Y-120319819D02*
X128820112Y-120319819D01*
X128820112Y-120319819D02*
X128915350Y-120272200D01*
X128915350Y-120272200D02*
X128962969Y-120224580D01*
X128962969Y-120224580D02*
X129010588Y-120129342D01*
X129010588Y-120129342D02*
X129010588Y-120034104D01*
X129010588Y-120034104D02*
X128962969Y-119938866D01*
X128962969Y-119938866D02*
X128915350Y-119891247D01*
X128915350Y-119891247D02*
X128820112Y-119843628D01*
X128820112Y-119843628D02*
X128629636Y-119796009D01*
X128629636Y-119796009D02*
X128534398Y-119748390D01*
X128534398Y-119748390D02*
X128486779Y-119700771D01*
X128486779Y-119700771D02*
X128439160Y-119605533D01*
X128439160Y-119605533D02*
X128439160Y-119510295D01*
X128439160Y-119510295D02*
X128486779Y-119415057D01*
X128486779Y-119415057D02*
X128534398Y-119367438D01*
X128534398Y-119367438D02*
X128629636Y-119319819D01*
X128629636Y-119319819D02*
X128867731Y-119319819D01*
X128867731Y-119319819D02*
X129010588Y-119367438D01*
X129343922Y-119319819D02*
X129962969Y-119319819D01*
X129962969Y-119319819D02*
X129629636Y-119700771D01*
X129629636Y-119700771D02*
X129772493Y-119700771D01*
X129772493Y-119700771D02*
X129867731Y-119748390D01*
X129867731Y-119748390D02*
X129915350Y-119796009D01*
X129915350Y-119796009D02*
X129962969Y-119891247D01*
X129962969Y-119891247D02*
X129962969Y-120129342D01*
X129962969Y-120129342D02*
X129915350Y-120224580D01*
X129915350Y-120224580D02*
X129867731Y-120272200D01*
X129867731Y-120272200D02*
X129772493Y-120319819D01*
X129772493Y-120319819D02*
X129486779Y-120319819D01*
X129486779Y-120319819D02*
X129391541Y-120272200D01*
X129391541Y-120272200D02*
X129343922Y-120224580D01*
%TO.C,J4*%
D11*
X131719239Y-118600000D02*
G75*
G02*
X129880761Y-118600000I-919239J0D01*
G01*
X129880761Y-118600000D02*
G75*
G02*
X131719239Y-118600000I919239J0D01*
G01*
%TO.C,J5*%
D12*
X122070000Y-123420000D02*
X122070000Y-121870000D01*
X122070000Y-123420000D02*
X122370000Y-123420000D01*
X122370000Y-126220000D02*
X122370000Y-123420000D01*
X124520000Y-120170000D02*
X125320000Y-120170000D01*
X124920000Y-120620000D02*
X124520000Y-120170000D01*
X125320000Y-120170000D02*
X124920000Y-120620000D01*
X130070000Y-123420000D02*
X130370000Y-123420000D01*
X130070000Y-126220000D02*
X130070000Y-123420000D01*
X130370000Y-123420000D02*
X130370000Y-121870000D01*
%TO.C,D1*%
X130555000Y-95800000D02*
X130555000Y-97760000D01*
X130555000Y-97760000D02*
X131755000Y-97760000D01*
X131755000Y-95800000D02*
X131755000Y-97760000D01*
%TO.C,U1*%
X122590000Y-103790000D02*
X123040000Y-103790000D01*
X122590000Y-104240000D02*
X122590000Y-103790000D01*
X122590000Y-111010000D02*
X122590000Y-110560000D01*
X123040000Y-111010000D02*
X122590000Y-111010000D01*
X129360000Y-103790000D02*
X129810000Y-103790000D01*
X129810000Y-103790000D02*
X129810000Y-104240000D01*
X129810000Y-110560000D02*
X129810000Y-111010000D01*
X129810000Y-111010000D02*
X129360000Y-111010000D01*
X129360000Y-103150000D02*
X129830000Y-102810000D01*
X129830000Y-103490000D01*
X129360000Y-103150000D01*
G36*
X129830000Y-103490000D02*
G01*
X129360000Y-103150000D01*
X129830000Y-102810000D01*
X129830000Y-103490000D01*
G37*
%TO.C,U4*%
X128890000Y-90240000D02*
X130710000Y-90240000D01*
X128890000Y-90290000D02*
X128890000Y-90240000D01*
X128890000Y-92190000D02*
X128890000Y-91410000D01*
X128890000Y-93360000D02*
X128890000Y-93310000D01*
X130710000Y-90240000D02*
X130710000Y-90290000D01*
X130710000Y-93310000D02*
X130710000Y-93360000D01*
X130710000Y-93360000D02*
X128890000Y-93360000D01*
X131250000Y-93310000D02*
X131490000Y-93640000D01*
X131010000Y-93640000D01*
X131250000Y-93310000D01*
G36*
X131490000Y-93640000D02*
G01*
X131010000Y-93640000D01*
X131250000Y-93310000D01*
X131490000Y-93640000D01*
G37*
%TO.C,U3*%
D13*
X127697300Y-93964900D02*
X127697300Y-96835100D01*
X127697300Y-96835100D02*
X130262700Y-96835100D01*
X130262700Y-93964900D02*
X127697300Y-93964900D01*
X130262700Y-96835100D02*
X130262700Y-93964900D01*
D14*
G36*
X127821600Y-95990550D02*
G01*
X127567600Y-95990550D01*
X127567600Y-95609550D01*
X127821600Y-95609550D01*
X127821600Y-95990550D01*
G37*
%TO.C,J2*%
D12*
X132460000Y-90220000D02*
X133840000Y-90220000D01*
X132460000Y-91600000D02*
X132460000Y-90220000D01*
X132460000Y-92870000D02*
X132460000Y-126000000D01*
X132460000Y-92870000D02*
X135220000Y-92870000D01*
X132460000Y-126000000D02*
X135220000Y-126000000D01*
X135220000Y-92870000D02*
X135220000Y-126000000D01*
%TO.C,J3*%
D11*
X131719239Y-116400000D02*
G75*
G02*
X129880761Y-116400000I-919239J0D01*
G01*
X129880761Y-116400000D02*
G75*
G02*
X131719239Y-116400000I919239J0D01*
G01*
%TO.C,J1*%
D12*
X117220000Y-90220000D02*
X118600000Y-90220000D01*
X117220000Y-91600000D02*
X117220000Y-90220000D01*
X117220000Y-92870000D02*
X117220000Y-126000000D01*
X117220000Y-92870000D02*
X119980000Y-92870000D01*
X117220000Y-126000000D02*
X119980000Y-126000000D01*
X119980000Y-92870000D02*
X119980000Y-126000000D01*
%TO.C,J6*%
X121345000Y-92075000D02*
X121980000Y-92075000D01*
X121345000Y-92710000D02*
X121345000Y-92075000D01*
%TO.C,JP1*%
X124650000Y-100800000D02*
X124650000Y-100200000D01*
X125350000Y-99500000D02*
X126750000Y-99500000D01*
X126750000Y-101500000D02*
X125350000Y-101500000D01*
X127450000Y-100200000D02*
X127450000Y-100800000D01*
X124650000Y-100200000D02*
G75*
G02*
X125350000Y-99500000I699999J1D01*
G01*
X125350000Y-101500000D02*
G75*
G02*
X124650000Y-100800000I-1J699999D01*
G01*
X126750000Y-99500000D02*
G75*
G02*
X127450000Y-100200000I0J-700000D01*
G01*
X127450000Y-100800000D02*
G75*
G02*
X126750000Y-101500000I-700000J0D01*
G01*
%TO.C,U5*%
X121090000Y-116540000D02*
X121320000Y-116540000D01*
X121090000Y-117270000D02*
X121090000Y-116540000D01*
X121090000Y-118530000D02*
X121090000Y-119260000D01*
X121090000Y-119260000D02*
X121320000Y-119260000D01*
X125810000Y-117270000D02*
X125810000Y-116840000D01*
X125810000Y-118530000D02*
X125810000Y-119260000D01*
X125810000Y-119260000D02*
X125580000Y-119260000D01*
X125810000Y-116540000D02*
X126140000Y-116300000D01*
X126140000Y-116780000D01*
X125810000Y-116540000D01*
G36*
X126140000Y-116780000D02*
G01*
X125810000Y-116540000D01*
X126140000Y-116300000D01*
X126140000Y-116780000D01*
G37*
%TD*%
%LPC*%
%TO.C,JP1*%
G36*
X125900000Y-99750000D02*
G01*
X126200000Y-99750000D01*
X126200000Y-101250000D01*
X125900000Y-101250000D01*
X125900000Y-99750000D01*
G37*
%TD*%
D15*
%TO.C,J4*%
X130800000Y-118600000D03*
%TD*%
D16*
%TO.C,C4*%
X121920000Y-111100000D03*
X121280000Y-111100000D03*
%TD*%
D17*
%TO.C,J5*%
X124920000Y-121720000D03*
X125570000Y-121720000D03*
X126220000Y-121720000D03*
X126870000Y-121720000D03*
X127520000Y-121720000D03*
D18*
X125260000Y-124870000D03*
X127180000Y-124870000D03*
D19*
X123270000Y-122920000D03*
D20*
X123370000Y-121620000D03*
D21*
X123490000Y-123670000D03*
D22*
X123490000Y-124600000D03*
D23*
X123800000Y-121600000D03*
X128640000Y-121600000D03*
D22*
X128950000Y-124600000D03*
D21*
X128970000Y-123670000D03*
D20*
X129120000Y-121600000D03*
D19*
X129220000Y-122920000D03*
%TD*%
D24*
%TO.C,D1*%
X131155000Y-97200000D03*
X131155000Y-95800000D03*
%TD*%
D25*
%TO.C,C12*%
X127000000Y-117100000D03*
X127000000Y-116460000D03*
%TD*%
D26*
%TO.C,U1*%
X128950000Y-103237500D03*
X128450000Y-103237500D03*
X127950000Y-103237500D03*
X127450000Y-103237500D03*
X126950000Y-103237500D03*
X126450000Y-103237500D03*
X125950000Y-103237500D03*
X125450000Y-103237500D03*
X124950000Y-103237500D03*
X124450000Y-103237500D03*
X123950000Y-103237500D03*
X123450000Y-103237500D03*
D27*
X122037500Y-104650000D03*
X122037500Y-105150000D03*
X122037500Y-105650000D03*
X122037500Y-106150000D03*
X122037500Y-106650000D03*
X122037500Y-107150000D03*
X122037500Y-107650000D03*
X122037500Y-108150000D03*
X122037500Y-108650000D03*
X122037500Y-109150000D03*
X122037500Y-109650000D03*
X122037500Y-110150000D03*
D26*
X123450000Y-111562500D03*
X123950000Y-111562500D03*
X124450000Y-111562500D03*
X124950000Y-111562500D03*
X125450000Y-111562500D03*
X125950000Y-111562500D03*
X126450000Y-111562500D03*
X126950000Y-111562500D03*
X127450000Y-111562500D03*
X127950000Y-111562500D03*
X128450000Y-111562500D03*
X128950000Y-111562500D03*
D27*
X130362500Y-110150000D03*
X130362500Y-109650000D03*
X130362500Y-109150000D03*
X130362500Y-108650000D03*
X130362500Y-108150000D03*
X130362500Y-107650000D03*
X130362500Y-107150000D03*
X130362500Y-106650000D03*
X130362500Y-106150000D03*
X130362500Y-105650000D03*
X130362500Y-105150000D03*
X130362500Y-104650000D03*
%TD*%
D28*
%TO.C,U4*%
X130937500Y-92750000D03*
X130937500Y-91800000D03*
X130937500Y-90850000D03*
X128662500Y-90850000D03*
X128662500Y-92750000D03*
%TD*%
D16*
%TO.C,C6*%
X129645000Y-97400000D03*
X129005000Y-97400000D03*
%TD*%
D25*
%TO.C,C2*%
X130250000Y-102990000D03*
X130250000Y-102350000D03*
%TD*%
D16*
%TO.C,C9*%
X128120000Y-97400000D03*
X127480000Y-97400000D03*
%TD*%
D29*
%TO.C,U3*%
X129605000Y-96200100D03*
D30*
X129605000Y-95800050D03*
X129605000Y-95400000D03*
X129605000Y-94999950D03*
X129605000Y-94599900D03*
D31*
X128980000Y-94625000D03*
D30*
X128355000Y-94599900D03*
X128355000Y-94999950D03*
X128355000Y-95400000D03*
X128355000Y-95800050D03*
X128355000Y-96200100D03*
D31*
X128980000Y-96175000D03*
%TD*%
D32*
%TO.C,J2*%
X133840000Y-91600000D03*
D33*
X133840000Y-94140000D03*
X133840000Y-96680000D03*
X133840000Y-99220000D03*
X133840000Y-101760000D03*
X133840000Y-104300000D03*
X133840000Y-106840000D03*
X133840000Y-109380000D03*
X133840000Y-111920000D03*
X133840000Y-114460000D03*
X133840000Y-117000000D03*
X133840000Y-119540000D03*
X133840000Y-122080000D03*
X133840000Y-124620000D03*
%TD*%
D15*
%TO.C,J3*%
X130800000Y-116400000D03*
%TD*%
D16*
%TO.C,C7*%
X131600000Y-94100000D03*
X130960000Y-94100000D03*
%TD*%
D34*
%TO.C,C5*%
X127000000Y-118180000D03*
X127000000Y-118820000D03*
%TD*%
D32*
%TO.C,J1*%
X118600000Y-91600000D03*
D33*
X118600000Y-94140000D03*
X118600000Y-96680000D03*
X118600000Y-99220000D03*
X118600000Y-101760000D03*
X118600000Y-104300000D03*
X118600000Y-106840000D03*
X118600000Y-109380000D03*
X118600000Y-111920000D03*
X118600000Y-114460000D03*
X118600000Y-117000000D03*
X118600000Y-119540000D03*
X118600000Y-122080000D03*
X118600000Y-124620000D03*
%TD*%
D35*
%TO.C,J6*%
X122615000Y-91440000D03*
X123631000Y-96520000D03*
X121599000Y-96520000D03*
D36*
X121980000Y-92710000D03*
X123250000Y-92710000D03*
X121980000Y-93980000D03*
X123250000Y-93980000D03*
X121980000Y-95250000D03*
X123250000Y-95250000D03*
%TD*%
D37*
%TO.C,JP1*%
X125400000Y-100500000D03*
D38*
X126700000Y-100500000D03*
%TD*%
D25*
%TO.C,C10*%
X123600000Y-101520000D03*
X123600000Y-100880000D03*
%TD*%
D34*
%TO.C,C3*%
X129900000Y-111780000D03*
X129900000Y-112420000D03*
%TD*%
D25*
%TO.C,C1*%
X131100000Y-102800000D03*
X131100000Y-102160000D03*
%TD*%
D39*
%TO.C,U5*%
X125750000Y-117650000D03*
D40*
X125200000Y-116600000D03*
X124700000Y-116600000D03*
X124200000Y-116600000D03*
X123700000Y-116600000D03*
X123200000Y-116600000D03*
X122700000Y-116600000D03*
X122200000Y-116600000D03*
X121700000Y-116600000D03*
D39*
X121150000Y-117650000D03*
X121150000Y-118150000D03*
D40*
X121700000Y-119200000D03*
X122200000Y-119200000D03*
X122700000Y-119200000D03*
X123200000Y-119200000D03*
X123700000Y-119200000D03*
X124200000Y-119200000D03*
X124700000Y-119200000D03*
X125200000Y-119200000D03*
D39*
X125750000Y-118150000D03*
D41*
X123450000Y-117900000D03*
%TD*%
D25*
%TO.C,C8*%
X127200000Y-92720000D03*
X127200000Y-92080000D03*
%TD*%
%LPD*%
M02*
