%TF.GenerationSoftware,KiCad,Pcbnew,10.0.3*%
%TF.CreationDate,2026-05-28T08:34:56-07:00*%
%TF.ProjectId,RXProg,52585072-6f67-42e6-9b69-6361645f7063,rev?*%
%TF.SameCoordinates,Original*%
%TF.FileFunction,Copper,L6,Bot*%
%TF.FilePolarity,Positive*%
%FSLAX46Y46*%
G04 Gerber Fmt 4.6, Leading zero omitted, Abs format (unit mm)*
G04 Created by KiCad (PCBNEW 10.0.3) date 2026-05-28 08:34:56*
%MOMM*%
%LPD*%
G01*
G04 APERTURE LIST*
G04 Aperture macros list*
%AMRoundRect*
0 Rectangle with rounded corners*
0 $1 Rounding radius*
0 $2 $3 $4 $5 $6 $7 $8 $9 X,Y pos of 4 corners*
0 Add a 4 corners polygon primitive as box body*
4,1,4,$2,$3,$4,$5,$6,$7,$8,$9,$2,$3,0*
0 Add four circle primitives for the rounded corners*
1,1,$1+$1,$2,$3*
1,1,$1+$1,$4,$5*
1,1,$1+$1,$6,$7*
1,1,$1+$1,$8,$9*
0 Add four rect primitives between the rounded corners*
20,1,$1+$1,$2,$3,$4,$5,0*
20,1,$1+$1,$4,$5,$6,$7,0*
20,1,$1+$1,$6,$7,$8,$9,0*
20,1,$1+$1,$8,$9,$2,$3,0*%
G04 Aperture macros list end*
%TA.AperFunction,ComponentPad*%
%ADD10C,1.400000*%
%TD*%
%TA.AperFunction,ComponentPad*%
%ADD11O,1.350000X1.700000*%
%TD*%
%TA.AperFunction,ComponentPad*%
%ADD12O,1.100000X1.500000*%
%TD*%
%TA.AperFunction,ComponentPad*%
%ADD13R,1.700000X1.700000*%
%TD*%
%TA.AperFunction,ComponentPad*%
%ADD14C,1.700000*%
%TD*%
%TA.AperFunction,SMDPad,CuDef*%
%ADD15RoundRect,0.075000X-0.662500X-0.075000X0.662500X-0.075000X0.662500X0.075000X-0.662500X0.075000X0*%
%TD*%
%TA.AperFunction,SMDPad,CuDef*%
%ADD16RoundRect,0.100000X0.100000X-0.130000X0.100000X0.130000X-0.100000X0.130000X-0.100000X-0.130000X0*%
%TD*%
%TA.AperFunction,ViaPad*%
%ADD17C,0.450000*%
%TD*%
%TA.AperFunction,ViaPad*%
%ADD18C,0.500000*%
%TD*%
%TA.AperFunction,Conductor*%
%ADD19C,0.100000*%
%TD*%
%TA.AperFunction,Conductor*%
%ADD20C,0.200000*%
%TD*%
G04 APERTURE END LIST*
D10*
%TO.P,J4,1,Pin_1_1*%
%TO.N,~{CS3}*%
X130800000Y-118600000D03*
%TD*%
D11*
%TO.P,J5,SH,Shield_SH*%
%TO.N,GND*%
X123490000Y-124600000D03*
D12*
X123800000Y-121600000D03*
X128640000Y-121600000D03*
D11*
X128950000Y-124600000D03*
%TD*%
D13*
%TO.P,J2,1,Pin_1_1*%
%TO.N,{slash}VBAT*%
X133840000Y-91600000D03*
D14*
%TO.P,J2,2,Pin_2_2*%
%TO.N,{slash}~{WE}*%
X133840000Y-94140000D03*
%TO.P,J2,3,Pin_3_3*%
%TO.N,VBAT{slash}~{RES}*%
X133840000Y-96680000D03*
%TO.P,J2,4,Pin_4_4*%
%TO.N,A8*%
X133840000Y-99220000D03*
%TO.P,J2,5,Pin_5_5*%
%TO.N,A9*%
X133840000Y-101760000D03*
%TO.P,J2,6,Pin_6_6*%
%TO.N,~{WE}{slash}A11*%
X133840000Y-104300000D03*
%TO.P,J2,7,Pin_7_7*%
%TO.N,RES{slash}~{OE}*%
X133840000Y-106840000D03*
%TO.P,J2,8,Pin_8_8*%
%TO.N,A10*%
X133840000Y-109380000D03*
%TO.P,J2,9,Pin_9_9*%
%TO.N,~{CS1}*%
X133840000Y-111920000D03*
%TO.P,J2,10,Pin_10_10*%
%TO.N,D8*%
X133840000Y-114460000D03*
%TO.P,J2,11,Pin_11_11*%
%TO.N,D7*%
X133840000Y-117000000D03*
%TO.P,J2,12,Pin_12_12*%
%TO.N,D6*%
X133840000Y-119540000D03*
%TO.P,J2,13,Pin_13_13*%
%TO.N,D5*%
X133840000Y-122080000D03*
%TO.P,J2,14,Pin_14_14*%
%TO.N,D4*%
X133840000Y-124620000D03*
%TD*%
D10*
%TO.P,J3,1,Pin_1_1*%
%TO.N,~{CS2}*%
X130800000Y-116400000D03*
%TD*%
D13*
%TO.P,J1,1,Pin_1_1*%
%TO.N,unconnected-(J1-Pin_1-Pad1)*%
X118600000Y-91600000D03*
D14*
%TO.P,J1,2,Pin_2_2*%
%TO.N,{slash}A12*%
X118600000Y-94140000D03*
%TO.P,J1,3,Pin_3_3*%
%TO.N,A7*%
X118600000Y-96680000D03*
%TO.P,J1,4,Pin_4_4*%
%TO.N,A6*%
X118600000Y-99220000D03*
%TO.P,J1,5,Pin_5_5*%
%TO.N,A5*%
X118600000Y-101760000D03*
%TO.P,J1,6,Pin_6_6*%
%TO.N,A4*%
X118600000Y-104300000D03*
%TO.P,J1,7,Pin_7_7*%
%TO.N,A3*%
X118600000Y-106840000D03*
%TO.P,J1,8,Pin_8_8*%
%TO.N,A2*%
X118600000Y-109380000D03*
%TO.P,J1,9,Pin_9_9*%
%TO.N,A1*%
X118600000Y-111920000D03*
%TO.P,J1,10,Pin_10_10*%
%TO.N,A0*%
X118600000Y-114460000D03*
%TO.P,J1,11,Pin_11_11*%
%TO.N,D1*%
X118600000Y-117000000D03*
%TO.P,J1,12,Pin_12_12*%
%TO.N,D2*%
X118600000Y-119540000D03*
%TO.P,J1,13,Pin_13_13*%
%TO.N,D3*%
X118600000Y-122080000D03*
%TO.P,J1,14,Pin_14_14*%
%TO.N,GND*%
X118600000Y-124620000D03*
%TD*%
D15*
%TO.P,U2,1,1DIR_1*%
%TO.N,GND*%
X122500000Y-111800000D03*
%TO.P,U2,2,1B0_2*%
%TO.N,A0*%
X122500000Y-111300000D03*
%TO.P,U2,3,1B1_3*%
%TO.N,A1*%
X122500000Y-110800000D03*
%TO.P,U2,4,GND_4*%
%TO.N,GND*%
X122500000Y-110300000D03*
%TO.P,U2,5,1B2_5*%
%TO.N,A2*%
X122500000Y-109800000D03*
%TO.P,U2,6,1B3_6*%
%TO.N,A3*%
X122500000Y-109300000D03*
%TO.P,U2,7,V_{CC(B)}_7*%
%TO.N,{slash}VBAT*%
X122500000Y-108800000D03*
%TO.P,U2,8,1B4_8*%
%TO.N,A4*%
X122500000Y-108300000D03*
%TO.P,U2,9,1B5_9*%
%TO.N,A5*%
X122500000Y-107800000D03*
%TO.P,U2,10,GND_10*%
%TO.N,GND*%
X122500000Y-107300000D03*
%TO.P,U2,11,1B6_11*%
%TO.N,A6*%
X122500000Y-106800000D03*
%TO.P,U2,12,1B7_12*%
%TO.N,A7*%
X122500000Y-106300000D03*
%TO.P,U2,13,2B0_13*%
%TO.N,A8*%
X122500000Y-105800000D03*
%TO.P,U2,14,2B1_14*%
%TO.N,A9*%
X122500000Y-105300000D03*
%TO.P,U2,15,GND_15*%
%TO.N,GND*%
X122500000Y-104800000D03*
%TO.P,U2,16,2B2_16*%
%TO.N,A10*%
X122500000Y-104300000D03*
%TO.P,U2,17,2B3_17*%
%TO.N,~{WE}{slash}A11*%
X122500000Y-103800000D03*
%TO.P,U2,18,V_{CC(B)}_18*%
%TO.N,{slash}VBAT*%
X122500000Y-103300000D03*
%TO.P,U2,19,2B4_19*%
%TO.N,{slash}A12*%
X122500000Y-102800000D03*
%TO.P,U2,20,2B5_20*%
%TO.N,~{CS1}*%
X122500000Y-102300000D03*
%TO.P,U2,21,GND_21*%
%TO.N,GND*%
X122500000Y-101800000D03*
%TO.P,U2,22,2B6_22*%
%TO.N,~{CS2}*%
X122500000Y-101300000D03*
%TO.P,U2,23,2B7_23*%
%TO.N,~{CS3}*%
X122500000Y-100800000D03*
%TO.P,U2,24,2DIR_24*%
%TO.N,GND*%
X122500000Y-100300000D03*
%TO.P,U2,25,2~{OE}_25*%
%TO.N,~{ADDR_OE}*%
X129925000Y-100300000D03*
%TO.P,U2,26,2A7_26*%
%TO.N,Net-(U1-PB15)*%
X129925000Y-100800000D03*
%TO.P,U2,27,2A6_27*%
%TO.N,Net-(U1-PB14)*%
X129925000Y-101300000D03*
%TO.P,U2,28,GND_28*%
%TO.N,GND*%
X129925000Y-101800000D03*
%TO.P,U2,29,2A5_29*%
%TO.N,Net-(U1-PB13)*%
X129925000Y-102300000D03*
%TO.P,U2,30,2A4_30*%
%TO.N,Net-(U1-PB12)*%
X129925000Y-102800000D03*
%TO.P,U2,31,V_{CC(A)}_31*%
%TO.N,+3V3*%
X129925000Y-103300000D03*
%TO.P,U2,32,2A3_32*%
%TO.N,Net-(U1-PB11)*%
X129925000Y-103800000D03*
%TO.P,U2,33,2A2_33*%
%TO.N,Net-(U1-PB10)*%
X129925000Y-104300000D03*
%TO.P,U2,34,GND_34*%
%TO.N,GND*%
X129925000Y-104800000D03*
%TO.P,U2,35,2A1_35*%
%TO.N,Net-(U1-PB9)*%
X129925000Y-105300000D03*
%TO.P,U2,36,2A0_36*%
%TO.N,Net-(U1-PB8)*%
X129925000Y-105800000D03*
%TO.P,U2,37,1A7_37*%
%TO.N,Net-(U1-PB7)*%
X129925000Y-106300000D03*
%TO.P,U2,38,1A6_38*%
%TO.N,Net-(U1-PB6)*%
X129925000Y-106800000D03*
%TO.P,U2,39,GND_39*%
%TO.N,GND*%
X129925000Y-107300000D03*
%TO.P,U2,40,1A5_40*%
%TO.N,Net-(U1-PB5)*%
X129925000Y-107800000D03*
%TO.P,U2,41,1A4_41*%
%TO.N,Net-(U1-PB4)*%
X129925000Y-108300000D03*
%TO.P,U2,42,V_{CC(A)}_42*%
%TO.N,+3V3*%
X129925000Y-108800000D03*
%TO.P,U2,43,1A3_43*%
%TO.N,Net-(U1-PB3)*%
X129925000Y-109300000D03*
%TO.P,U2,44,1A2_44*%
%TO.N,Net-(U1-PB2)*%
X129925000Y-109800000D03*
%TO.P,U2,45,GND_45*%
%TO.N,GND*%
X129925000Y-110300000D03*
%TO.P,U2,46,1A1_46*%
%TO.N,Net-(U1-PB1)*%
X129925000Y-110800000D03*
%TO.P,U2,47,1A0_47*%
%TO.N,Net-(U1-PB0)*%
X129925000Y-111300000D03*
%TO.P,U2,48,1~{OE}_48*%
%TO.N,~{ADDR_OE}*%
X129925000Y-111800000D03*
%TD*%
D16*
%TO.P,C11,1*%
%TO.N,+3V3*%
X131300000Y-102820000D03*
%TO.P,C11,2*%
%TO.N,GND*%
X131300000Y-102180000D03*
%TD*%
D17*
%TO.N,~{CS3}*%
X121000000Y-100800000D03*
D18*
%TO.N,+3V3*%
X129000000Y-112800000D03*
X121900000Y-112300000D03*
X131100000Y-103500000D03*
D17*
X125800000Y-117300000D03*
D18*
X128200000Y-98100000D03*
X126600000Y-92700000D03*
X121200000Y-92400000D03*
%TO.N,GND*%
X131100000Y-113950000D03*
X120400000Y-110300000D03*
X126300000Y-98800000D03*
X131500000Y-107245000D03*
X131700000Y-121300000D03*
X120700000Y-91000000D03*
X120700000Y-115100000D03*
X126500000Y-94500000D03*
X120400000Y-111700000D03*
X131500000Y-104800000D03*
X128900000Y-115700000D03*
X126900000Y-110300000D03*
X121000000Y-98900000D03*
X127000000Y-108700000D03*
X128400000Y-120100000D03*
X124100000Y-99100000D03*
X125333880Y-105535521D03*
X130700000Y-99150000D03*
X131200000Y-101500000D03*
X120700000Y-121400000D03*
X131700000Y-124800000D03*
X120700000Y-124600000D03*
X131700000Y-111500000D03*
X127300000Y-114300000D03*
X123600000Y-104450000D03*
X126050000Y-119650000D03*
X120700000Y-94500000D03*
X132300000Y-95100000D03*
%TO.N,{slash}VBAT*%
X127000000Y-118180000D03*
X120926752Y-108803700D03*
X121573215Y-103354367D03*
X123600000Y-101520000D03*
X130400000Y-97400000D03*
D17*
%TO.N,Net-(U1-PA0)*%
X125975000Y-115800000D03*
X126430000Y-105200000D03*
%TO.N,Net-(U1-PA1)*%
X125325000Y-115800000D03*
X125800000Y-105100000D03*
%TO.N,Net-(U1-PA2)*%
X125258820Y-104899860D03*
X124475000Y-115775000D03*
%TO.N,Net-(U1-PA3)*%
X123777003Y-115800000D03*
X124450000Y-104900000D03*
%TO.N,Net-(U1-PA4)*%
X123200000Y-115800000D03*
X124110589Y-105389412D03*
%TO.N,Net-(U1-PA5)*%
X122623047Y-115807500D03*
X123884343Y-105947728D03*
%TO.N,Net-(U1-PA6)*%
X123650000Y-106475000D03*
X122000000Y-115800000D03*
%TO.N,Net-(U1-PA7)*%
X123550000Y-107050000D03*
X121300000Y-115800000D03*
%TO.N,Net-(U1-PB0)*%
X130980261Y-110649216D03*
X121000000Y-104300000D03*
%TO.N,Net-(U1-PB1)*%
X129925000Y-110800000D03*
X119900000Y-107200000D03*
%TO.N,Net-(U1-PB2)*%
X127800000Y-109800000D03*
X120400000Y-107700000D03*
%TO.N,Net-(U1-PB10)*%
X130950000Y-104150000D03*
X120400000Y-108300000D03*
%TO.N,Net-(U1-PB11)*%
X127800000Y-104300000D03*
X126500000Y-106000000D03*
%TO.N,Net-(U1-PB12)*%
X125700000Y-106800000D03*
X127100000Y-102100000D03*
%TO.N,Net-(U1-PB13)*%
X125791998Y-107491998D03*
X128625000Y-101750000D03*
%TO.N,Net-(U1-PB14)*%
X128686840Y-101115798D03*
X126200000Y-107900000D03*
%TO.N,Net-(U1-PB15)*%
X128800000Y-100550000D03*
X127000000Y-108000000D03*
%TO.N,Net-(U1-PA8)*%
X125900000Y-112900000D03*
X120400000Y-118100000D03*
%TO.N,~{ADDR_OE}*%
X126450000Y-111562500D03*
%TO.N,Net-(J6-SWDIO)*%
X128100000Y-108200000D03*
X124900000Y-93100000D03*
%TO.N,Net-(J6-SWCLK)*%
X128548542Y-107774937D03*
X125500000Y-94400000D03*
%TO.N,Net-(JP1-B)*%
X126700000Y-100500000D03*
X131500000Y-108900000D03*
%TO.N,Net-(U1-PB3)*%
X129000000Y-109200000D03*
%TO.N,Net-(U1-PB4)*%
X130936692Y-108175000D03*
%TO.N,Net-(U1-PB5)*%
X129125000Y-107800000D03*
%TO.N,Net-(U1-PB6)*%
X129312143Y-106825001D03*
%TO.N,Net-(U1-PB7)*%
X131028587Y-106625000D03*
%TO.N,Net-(U1-PB8)*%
X129073086Y-105871549D03*
%TO.N,Net-(U1-PB9)*%
X130984693Y-105674994D03*
%TO.N,RES{slash}~{OE}*%
X131300000Y-95100000D03*
%TO.N,A8*%
X128500000Y-106500000D03*
%TO.N,A9*%
X120775000Y-103425000D03*
%TO.N,~{WE}{slash}A11*%
X126300000Y-102100000D03*
%TO.N,A10*%
X127200000Y-104400000D03*
%TO.N,~{CS1}*%
X121100000Y-102300000D03*
%TO.N,D8*%
X121100000Y-118800000D03*
%TO.N,D7*%
X122200000Y-119200000D03*
%TO.N,D6*%
X122250000Y-120250000D03*
%TO.N,D5*%
X122850000Y-120250000D03*
%TO.N,D4*%
X123500000Y-120250000D03*
%TO.N,~{CS2}*%
X121100000Y-101500000D03*
%TO.N,D1*%
X125176842Y-118570762D03*
%TO.N,D2*%
X124702816Y-120249964D03*
%TO.N,D3*%
X124125861Y-120257414D03*
%TD*%
%TO.N,~{CS3}*%
D19*
X121000000Y-100800000D02*
X122500000Y-100800000D01*
%TO.N,+3V3*%
D20*
X130960000Y-103160000D02*
X131100000Y-103300000D01*
X127805822Y-108680000D02*
X125800000Y-110685822D01*
X130960000Y-103160000D02*
X131300000Y-102820000D01*
X125800000Y-110685822D02*
X125800000Y-111800000D01*
X129925000Y-103300000D02*
X130820000Y-103300000D01*
X129805000Y-108680000D02*
X127805822Y-108680000D01*
X129925000Y-108800000D02*
X129805000Y-108680000D01*
X130820000Y-103300000D02*
X130960000Y-103160000D01*
X131100000Y-103300000D02*
X131100000Y-103500000D01*
X125800000Y-111800000D02*
X126800000Y-112800000D01*
X126800000Y-112800000D02*
X129000000Y-112800000D01*
%TO.N,GND*%
X122500000Y-107300000D02*
X122650000Y-107450000D01*
X122650000Y-107450000D02*
X123278488Y-107450000D01*
X123600000Y-104600000D02*
X123400000Y-104800000D01*
X123600000Y-104450000D02*
X123600000Y-104600000D01*
X129980000Y-107245000D02*
X129925000Y-107300000D01*
X123400000Y-104800000D02*
X122500000Y-104800000D01*
X122500000Y-101800000D02*
X123165822Y-101800000D01*
X123165822Y-101800000D02*
X123390822Y-102025000D01*
X129925000Y-101800000D02*
X130900000Y-101800000D01*
X130900000Y-101800000D02*
X131200000Y-101500000D01*
X131500000Y-104800000D02*
X129925000Y-104800000D01*
X123278488Y-107450000D02*
X124528488Y-108700000D01*
X123809178Y-102025000D02*
X124105000Y-101729178D01*
X124528488Y-108700000D02*
X127000000Y-108700000D01*
X124105000Y-101729178D02*
X124105000Y-99105000D01*
X131500000Y-107245000D02*
X129980000Y-107245000D01*
X129925000Y-110300000D02*
X126900000Y-110300000D01*
X124105000Y-99105000D02*
X124100000Y-99100000D01*
X122500000Y-110300000D02*
X120400000Y-110300000D01*
X123390822Y-102025000D02*
X123809178Y-102025000D01*
%TO.N,{slash}VBAT*%
X121627582Y-103300000D02*
X122500000Y-103300000D01*
X120926752Y-108803700D02*
X122496300Y-108803700D01*
X122496300Y-108803700D02*
X122500000Y-108800000D01*
X121573215Y-103354367D02*
X121627582Y-103300000D01*
%TO.N,Net-(U1-PB0)*%
D19*
X130937048Y-111025451D02*
X130662499Y-111300000D01*
X130662499Y-111300000D02*
X129925000Y-111300000D01*
X130937048Y-110692429D02*
X130937048Y-111025451D01*
X130980261Y-110649216D02*
X130937048Y-110692429D01*
%TO.N,Net-(U1-PB2)*%
X127800000Y-109800000D02*
X129925000Y-109800000D01*
%TO.N,Net-(U1-PB10)*%
X129925000Y-104300000D02*
X130800000Y-104300000D01*
X130800000Y-104300000D02*
X130950000Y-104150000D01*
%TO.N,Net-(U1-PB11)*%
X128300000Y-103800000D02*
X127800000Y-104300000D01*
X129925000Y-103800000D02*
X128300000Y-103800000D01*
%TO.N,Net-(U1-PB12)*%
X128100000Y-102178823D02*
X128721177Y-102800000D01*
X127100000Y-102100000D02*
X127178823Y-102178823D01*
X128721177Y-102800000D02*
X129925000Y-102800000D01*
X127178823Y-102178823D02*
X128100000Y-102178823D01*
%TO.N,Net-(U1-PB13)*%
X128650000Y-101750000D02*
X129200000Y-102300000D01*
X129200000Y-102300000D02*
X129925000Y-102300000D01*
X128625000Y-101750000D02*
X128650000Y-101750000D01*
%TO.N,Net-(U1-PB14)*%
X128900000Y-101300000D02*
X129925000Y-101300000D01*
X128686840Y-101115798D02*
X128715798Y-101115798D01*
X128715798Y-101115798D02*
X128900000Y-101300000D01*
%TO.N,Net-(U1-PB15)*%
X128850000Y-100550000D02*
X129100000Y-100800000D01*
X128800000Y-100550000D02*
X128850000Y-100550000D01*
X129100000Y-100800000D02*
X129925000Y-100800000D01*
%TO.N,Net-(U1-PA8)*%
X120400000Y-118100000D02*
X120400000Y-116050000D01*
X123550000Y-112900000D02*
X125900000Y-112900000D01*
X120400000Y-116050000D02*
X123550000Y-112900000D01*
%TO.N,~{ADDR_OE}*%
X126687500Y-111800000D02*
X126450000Y-111562500D01*
X132000000Y-110462499D02*
X130662499Y-111800000D01*
X129925000Y-111800000D02*
X126687500Y-111800000D01*
X132000000Y-101637501D02*
X132000000Y-110462499D01*
X130662499Y-100300000D02*
X132000000Y-101637501D01*
X129925000Y-100300000D02*
X130662499Y-100300000D01*
X130662499Y-111800000D02*
X129925000Y-111800000D01*
%TO.N,Net-(U1-PB3)*%
X129100000Y-109300000D02*
X129925000Y-109300000D01*
X129000000Y-109200000D02*
X129100000Y-109300000D01*
%TO.N,Net-(U1-PB4)*%
X130936692Y-108235966D02*
X130872658Y-108300000D01*
X130872658Y-108300000D02*
X129925000Y-108300000D01*
X130936692Y-108175000D02*
X130936692Y-108235966D01*
%TO.N,Net-(U1-PB5)*%
X129125000Y-107800000D02*
X129925000Y-107800000D01*
%TO.N,Net-(U1-PB7)*%
X130977766Y-106574179D02*
X130936678Y-106574179D01*
X130936678Y-106574179D02*
X130662499Y-106300000D01*
X130662499Y-106300000D02*
X129925000Y-106300000D01*
X131028587Y-106625000D02*
X130977766Y-106574179D01*
%TO.N,Net-(U1-PB8)*%
X129073086Y-105871549D02*
X129119442Y-105871549D01*
X129119442Y-105871549D02*
X129190991Y-105800000D01*
X129190991Y-105800000D02*
X129925000Y-105800000D01*
%TO.N,Net-(U1-PB9)*%
X130662499Y-105300000D02*
X129925000Y-105300000D01*
X130984693Y-105674994D02*
X130936678Y-105626979D01*
X130936678Y-105626979D02*
X130936678Y-105574179D01*
X130936678Y-105574179D02*
X130662499Y-105300000D01*
%TO.N,A8*%
X123680589Y-105040355D02*
X124370944Y-104350000D01*
X123300000Y-105800000D02*
X123680589Y-105419411D01*
X123680589Y-105419411D02*
X123680589Y-105040355D01*
X126350000Y-104350000D02*
X128500000Y-106500000D01*
X124370944Y-104350000D02*
X126350000Y-104350000D01*
X122500000Y-105800000D02*
X123300000Y-105800000D01*
%TO.N,A9*%
X120500000Y-104768799D02*
X121031201Y-105300000D01*
X120775000Y-103450000D02*
X120500000Y-103725000D01*
X121031201Y-105300000D02*
X122500000Y-105300000D01*
X120775000Y-103425000D02*
X120775000Y-103450000D01*
X120500000Y-103725000D02*
X120500000Y-104768799D01*
%TO.N,~{WE}{slash}A11*%
X125800000Y-103800000D02*
X122500000Y-103800000D01*
X126300000Y-102100000D02*
X126300000Y-103300000D01*
X126300000Y-103300000D02*
X125800000Y-103800000D01*
%TO.N,A10*%
X123057778Y-104300000D02*
X122500000Y-104300000D01*
X123367778Y-103990000D02*
X123057778Y-104300000D01*
X127200000Y-104400000D02*
X126790000Y-103990000D01*
X126790000Y-103990000D02*
X123367778Y-103990000D01*
%TO.N,~{CS1}*%
X121100000Y-102300000D02*
X122500000Y-102300000D01*
%TO.N,~{CS2}*%
X121100000Y-101500000D02*
X121500000Y-101500000D01*
X121500000Y-101500000D02*
X121700000Y-101300000D01*
X121700000Y-101300000D02*
X122500000Y-101300000D01*
%TO.N,{slash}A12*%
X118600000Y-94140000D02*
X119700000Y-95240000D01*
X120950000Y-102800000D02*
X122500000Y-102800000D01*
X119700000Y-97458974D02*
X120481000Y-98239974D01*
X120480999Y-102330999D02*
X120950000Y-102800000D01*
X119700000Y-95240000D02*
X119700000Y-97458974D01*
X120481000Y-98239974D02*
X120480999Y-98428027D01*
X120480999Y-98428027D02*
X120480999Y-102330999D01*
%TO.N,A7*%
X121762501Y-106300000D02*
X120254000Y-104791499D01*
X120254000Y-98334000D02*
X118600000Y-96680000D01*
X120254000Y-104791499D02*
X120254000Y-98334000D01*
X122500000Y-106300000D02*
X121762501Y-106300000D01*
%TO.N,A6*%
X122500000Y-106800000D02*
X121400000Y-106800000D01*
X120027000Y-105427000D02*
X120027000Y-100647000D01*
X120027000Y-100647000D02*
X118600000Y-99220000D01*
X121400000Y-106800000D02*
X120027000Y-105427000D01*
%TO.N,A5*%
X119800000Y-106016473D02*
X119800000Y-102960000D01*
X119800000Y-102960000D02*
X118600000Y-101760000D01*
X121583527Y-107800000D02*
X119800000Y-106016473D01*
X122500000Y-107800000D02*
X121583527Y-107800000D01*
%TO.N,A4*%
X121762501Y-108300000D02*
X122500000Y-108300000D01*
X118600000Y-104300000D02*
X118600000Y-105137499D01*
X118600000Y-105137499D02*
X121762501Y-108300000D01*
%TO.N,A3*%
X118600000Y-107191126D02*
X120717574Y-109308700D01*
X118600000Y-106840000D02*
X118600000Y-107191126D01*
X120717574Y-109308700D02*
X122491300Y-109308700D01*
X122491300Y-109308700D02*
X122500000Y-109300000D01*
%TO.N,A2*%
X118600000Y-109380000D02*
X119020000Y-109800000D01*
X119020000Y-109800000D02*
X122500000Y-109800000D01*
%TO.N,A1*%
X119720000Y-110800000D02*
X122500000Y-110800000D01*
X118600000Y-111920000D02*
X119720000Y-110800000D01*
%TO.N,A0*%
X118600000Y-114460000D02*
X121760000Y-111300000D01*
X121760000Y-111300000D02*
X122500000Y-111300000D01*
%TD*%
%TA.AperFunction,Conductor*%
%TO.N,GND*%
G36*
X127275407Y-109584473D02*
G01*
X127297081Y-109636799D01*
X127294560Y-109655951D01*
X127274500Y-109730817D01*
X127274500Y-109869185D01*
X127310310Y-110002831D01*
X127310312Y-110002836D01*
X127379495Y-110122665D01*
X127477335Y-110220505D01*
X127597164Y-110289688D01*
X127730814Y-110325499D01*
X127730815Y-110325500D01*
X127730817Y-110325500D01*
X127869185Y-110325500D01*
X127869185Y-110325499D01*
X128002836Y-110289688D01*
X128122665Y-110220505D01*
X128220505Y-110122665D01*
X128289688Y-110002836D01*
X128291695Y-109995345D01*
X128326173Y-109950414D01*
X128363173Y-109940500D01*
X128830359Y-109940500D01*
X128882685Y-109962174D01*
X128896840Y-109982000D01*
X128897633Y-109983623D01*
X128897634Y-109983625D01*
X128897635Y-109983627D01*
X128952673Y-110096210D01*
X129041289Y-110184826D01*
X129140892Y-110233519D01*
X129178382Y-110275972D01*
X129174873Y-110332500D01*
X129140892Y-110366481D01*
X129041289Y-110415173D01*
X128952673Y-110503789D01*
X128897634Y-110616373D01*
X128897634Y-110616374D01*
X128887000Y-110689359D01*
X128887000Y-110910640D01*
X128897634Y-110983626D01*
X128914194Y-111017500D01*
X128917703Y-111074029D01*
X128914194Y-111082500D01*
X128897634Y-111116373D01*
X128887000Y-111189359D01*
X128887000Y-111410640D01*
X128897634Y-111483626D01*
X128914194Y-111517500D01*
X128914494Y-111522337D01*
X128917703Y-111525971D01*
X128916211Y-111550003D01*
X128917703Y-111574029D01*
X128914197Y-111582493D01*
X128897634Y-111616375D01*
X128897633Y-111616377D01*
X128896841Y-111617999D01*
X128854388Y-111655490D01*
X128830359Y-111659500D01*
X127049500Y-111659500D01*
X126997174Y-111637826D01*
X126975500Y-111585500D01*
X126975500Y-111493315D01*
X126975499Y-111493314D01*
X126971492Y-111478361D01*
X126939688Y-111359664D01*
X126870505Y-111239835D01*
X126772665Y-111141995D01*
X126652836Y-111072812D01*
X126652831Y-111072810D01*
X126519185Y-111037000D01*
X126519183Y-111037000D01*
X126380817Y-111037000D01*
X126380815Y-111037000D01*
X126247168Y-111072810D01*
X126247163Y-111072812D01*
X126127334Y-111141995D01*
X126116826Y-111152504D01*
X126064500Y-111174178D01*
X126012174Y-111152504D01*
X125990500Y-111100178D01*
X125990500Y-110795381D01*
X126012174Y-110743055D01*
X126570403Y-110184826D01*
X127170756Y-109584472D01*
X127223081Y-109562799D01*
X127275407Y-109584473D01*
G37*
%TD.AperFunction*%
%TA.AperFunction,Conductor*%
G36*
X131806611Y-103169922D02*
G01*
X131828989Y-103175292D01*
X131832139Y-103180431D01*
X131837712Y-103182726D01*
X131846562Y-103203960D01*
X131858588Y-103223580D01*
X131859484Y-103234966D01*
X131859500Y-103235004D01*
X131859489Y-103235029D01*
X131859500Y-103235165D01*
X131859500Y-108372590D01*
X131837826Y-108424916D01*
X131785500Y-108446590D01*
X131748501Y-108436676D01*
X131702840Y-108410314D01*
X131702831Y-108410310D01*
X131569185Y-108374500D01*
X131569183Y-108374500D01*
X131523712Y-108374500D01*
X131471386Y-108352826D01*
X131449712Y-108300500D01*
X131452234Y-108281346D01*
X131462192Y-108244184D01*
X131462192Y-108105815D01*
X131462191Y-108105814D01*
X131433838Y-108000000D01*
X131426380Y-107972164D01*
X131357197Y-107852335D01*
X131259357Y-107754495D01*
X131139528Y-107685312D01*
X131139523Y-107685310D01*
X131005873Y-107649499D01*
X131005365Y-107649432D01*
X131005141Y-107649302D01*
X131001190Y-107648244D01*
X131001473Y-107647185D01*
X130956318Y-107621110D01*
X130948548Y-107608566D01*
X130946934Y-107605265D01*
X130897326Y-107503789D01*
X130808711Y-107415174D01*
X130808710Y-107415173D01*
X130746396Y-107384710D01*
X130709106Y-107366480D01*
X130671617Y-107324028D01*
X130675126Y-107267500D01*
X130709106Y-107233519D01*
X130808711Y-107184826D01*
X130837418Y-107156117D01*
X130889742Y-107134444D01*
X130908894Y-107136965D01*
X130935893Y-107144200D01*
X130959403Y-107150500D01*
X130959404Y-107150500D01*
X131097772Y-107150500D01*
X131097772Y-107150499D01*
X131231423Y-107114688D01*
X131351252Y-107045505D01*
X131449092Y-106947665D01*
X131518275Y-106827836D01*
X131554086Y-106694185D01*
X131554087Y-106694185D01*
X131554087Y-106555815D01*
X131554086Y-106555814D01*
X131545963Y-106525500D01*
X131518275Y-106422164D01*
X131449092Y-106302335D01*
X131351252Y-106204495D01*
X131351249Y-106204493D01*
X131351247Y-106204491D01*
X131337841Y-106196751D01*
X131303363Y-106151818D01*
X131310757Y-106095665D01*
X131322512Y-106080344D01*
X131405198Y-105997659D01*
X131474381Y-105877830D01*
X131510192Y-105744179D01*
X131510193Y-105744179D01*
X131510193Y-105605809D01*
X131510192Y-105605808D01*
X131505872Y-105589687D01*
X131474381Y-105472158D01*
X131405198Y-105352329D01*
X131307358Y-105254489D01*
X131187529Y-105185306D01*
X131187524Y-105185304D01*
X131053878Y-105149494D01*
X131053876Y-105149494D01*
X131014750Y-105149494D01*
X130962424Y-105127820D01*
X130948269Y-105107995D01*
X130928865Y-105068303D01*
X130897326Y-105003789D01*
X130808711Y-104915174D01*
X130808710Y-104915173D01*
X130709108Y-104866481D01*
X130693386Y-104848678D01*
X130675435Y-104833122D01*
X130675063Y-104827929D01*
X130671618Y-104824028D01*
X130673089Y-104800323D01*
X130671395Y-104776629D01*
X130674802Y-104772734D01*
X130675127Y-104767500D01*
X130708486Y-104733827D01*
X130708822Y-104733658D01*
X130808711Y-104684826D01*
X130811043Y-104682493D01*
X130819341Y-104678340D01*
X130842251Y-104676701D01*
X130864632Y-104671520D01*
X130871603Y-104673031D01*
X130880817Y-104675500D01*
X130880819Y-104675500D01*
X131019185Y-104675500D01*
X131019185Y-104675499D01*
X131152836Y-104639688D01*
X131272665Y-104570505D01*
X131370505Y-104472665D01*
X131439688Y-104352836D01*
X131475499Y-104219185D01*
X131475500Y-104219185D01*
X131475500Y-104080815D01*
X131475499Y-104080814D01*
X131448986Y-103981864D01*
X131456378Y-103925711D01*
X131468134Y-103910389D01*
X131540509Y-103838015D01*
X131612984Y-103712485D01*
X131650499Y-103572477D01*
X131650500Y-103572477D01*
X131650500Y-103427523D01*
X131631923Y-103358197D01*
X131627400Y-103341317D01*
X131628694Y-103331482D01*
X131624878Y-103322325D01*
X131632250Y-103304472D01*
X131634792Y-103285165D01*
X131646435Y-103269956D01*
X131728050Y-103188342D01*
X131728421Y-103187612D01*
X131733061Y-103182953D01*
X131754295Y-103174102D01*
X131773915Y-103162077D01*
X131779776Y-103163483D01*
X131785339Y-103161165D01*
X131806611Y-103169922D01*
G37*
%TD.AperFunction*%
%TA.AperFunction,Conductor*%
G36*
X124265420Y-104152174D02*
G01*
X124287094Y-104204500D01*
X124265420Y-104256826D01*
X123561476Y-104960769D01*
X123558630Y-104965029D01*
X123511536Y-104996493D01*
X123455988Y-104985441D01*
X123444777Y-104976240D01*
X123383710Y-104915173D01*
X123331577Y-104889687D01*
X123284106Y-104866480D01*
X123246617Y-104824028D01*
X123250126Y-104767500D01*
X123284106Y-104733519D01*
X123383711Y-104684826D01*
X123472326Y-104596211D01*
X123527366Y-104483625D01*
X123538000Y-104410636D01*
X123538000Y-104204500D01*
X123559674Y-104152174D01*
X123612000Y-104130500D01*
X124213094Y-104130500D01*
X124265420Y-104152174D01*
G37*
%TD.AperFunction*%
%TA.AperFunction,Conductor*%
G36*
X131046739Y-100900237D02*
G01*
X131052674Y-100899828D01*
X131061852Y-100907820D01*
X131081460Y-100917658D01*
X131837826Y-101674024D01*
X131859500Y-101726350D01*
X131859500Y-102404834D01*
X131837826Y-102457160D01*
X131785500Y-102478834D01*
X131733174Y-102457160D01*
X131730958Y-102454566D01*
X131638343Y-102361951D01*
X131638342Y-102361950D01*
X131525304Y-102304354D01*
X131525302Y-102304353D01*
X131525301Y-102304353D01*
X131431519Y-102289500D01*
X131168480Y-102289500D01*
X131074695Y-102304353D01*
X131074694Y-102304354D01*
X131070593Y-102306444D01*
X131014130Y-102310885D01*
X130971064Y-102274101D01*
X130963000Y-102240508D01*
X130963000Y-102189370D01*
X130963000Y-102189364D01*
X130952366Y-102116375D01*
X130897326Y-102003789D01*
X130808711Y-101915174D01*
X130808710Y-101915173D01*
X130712634Y-101868205D01*
X130709106Y-101866480D01*
X130671617Y-101824028D01*
X130675126Y-101767500D01*
X130709106Y-101733519D01*
X130808711Y-101684826D01*
X130897326Y-101596211D01*
X130952366Y-101483625D01*
X130963000Y-101410636D01*
X130963000Y-101189364D01*
X130952366Y-101116375D01*
X130935805Y-101082501D01*
X130932130Y-101026460D01*
X130933672Y-101021862D01*
X130952366Y-100983625D01*
X130956865Y-100952738D01*
X130958978Y-100946444D01*
X130973543Y-100929716D01*
X130984898Y-100910661D01*
X130991618Y-100908959D01*
X130996171Y-100903731D01*
X131018298Y-100902202D01*
X131039802Y-100896757D01*
X131046739Y-100900237D01*
G37*
%TD.AperFunction*%
%TA.AperFunction,Conductor*%
G36*
X135577826Y-89822174D02*
G01*
X135599500Y-89874500D01*
X135599500Y-126325500D01*
X135577826Y-126377826D01*
X135525500Y-126399500D01*
X116874500Y-126399500D01*
X116822174Y-126377826D01*
X116800500Y-126325500D01*
X116800500Y-124529453D01*
X132689500Y-124529453D01*
X132689500Y-124710546D01*
X132717828Y-124889406D01*
X132717831Y-124889419D01*
X132773787Y-125061635D01*
X132773788Y-125061638D01*
X132773789Y-125061639D01*
X132856004Y-125222994D01*
X132962447Y-125369501D01*
X133090499Y-125497553D01*
X133237006Y-125603996D01*
X133398361Y-125686211D01*
X133398364Y-125686212D01*
X133398363Y-125686212D01*
X133570580Y-125742168D01*
X133570586Y-125742169D01*
X133570591Y-125742171D01*
X133689833Y-125761057D01*
X133749453Y-125770500D01*
X133749454Y-125770500D01*
X133930547Y-125770500D01*
X133975261Y-125763417D01*
X134109409Y-125742171D01*
X134109416Y-125742168D01*
X134109419Y-125742168D01*
X134187601Y-125716765D01*
X134281639Y-125686211D01*
X134442994Y-125603996D01*
X134589501Y-125497553D01*
X134717553Y-125369501D01*
X134823996Y-125222994D01*
X134906211Y-125061639D01*
X134962171Y-124889409D01*
X134990500Y-124710546D01*
X134990500Y-124529454D01*
X134962171Y-124350591D01*
X134962169Y-124350586D01*
X134962168Y-124350580D01*
X134906212Y-124178364D01*
X134906211Y-124178363D01*
X134906211Y-124178361D01*
X134823996Y-124017006D01*
X134717553Y-123870499D01*
X134589501Y-123742447D01*
X134504128Y-123680420D01*
X134442996Y-123636005D01*
X134281635Y-123553787D01*
X134281636Y-123553787D01*
X134109419Y-123497831D01*
X134109406Y-123497828D01*
X133930547Y-123469500D01*
X133930546Y-123469500D01*
X133749454Y-123469500D01*
X133749453Y-123469500D01*
X133570593Y-123497828D01*
X133570580Y-123497831D01*
X133398364Y-123553787D01*
X133237004Y-123636005D01*
X133237003Y-123636005D01*
X133090503Y-123742444D01*
X133090499Y-123742447D01*
X132962447Y-123870499D01*
X132962444Y-123870502D01*
X132962444Y-123870503D01*
X132856005Y-124017003D01*
X132856005Y-124017004D01*
X132773787Y-124178364D01*
X132717831Y-124350580D01*
X132717828Y-124350593D01*
X132689500Y-124529453D01*
X116800500Y-124529453D01*
X116800500Y-121989453D01*
X117449500Y-121989453D01*
X117449500Y-122170546D01*
X117477828Y-122349406D01*
X117477831Y-122349419D01*
X117533787Y-122521635D01*
X117533788Y-122521638D01*
X117533789Y-122521639D01*
X117616004Y-122682994D01*
X117722447Y-122829501D01*
X117850499Y-122957553D01*
X117997006Y-123063996D01*
X118158361Y-123146211D01*
X118158364Y-123146212D01*
X118158363Y-123146212D01*
X118330580Y-123202168D01*
X118330586Y-123202169D01*
X118330591Y-123202171D01*
X118449833Y-123221057D01*
X118509453Y-123230500D01*
X118509454Y-123230500D01*
X118690547Y-123230500D01*
X118735261Y-123223417D01*
X118869409Y-123202171D01*
X118869416Y-123202168D01*
X118869419Y-123202168D01*
X118947601Y-123176765D01*
X119041639Y-123146211D01*
X119202994Y-123063996D01*
X119349501Y-122957553D01*
X119477553Y-122829501D01*
X119583996Y-122682994D01*
X119666211Y-122521639D01*
X119722171Y-122349409D01*
X119750500Y-122170546D01*
X119750500Y-121989454D01*
X119750500Y-121989453D01*
X132689500Y-121989453D01*
X132689500Y-122170546D01*
X132717828Y-122349406D01*
X132717831Y-122349419D01*
X132773787Y-122521635D01*
X132773788Y-122521638D01*
X132773789Y-122521639D01*
X132856004Y-122682994D01*
X132962447Y-122829501D01*
X133090499Y-122957553D01*
X133237006Y-123063996D01*
X133398361Y-123146211D01*
X133398364Y-123146212D01*
X133398363Y-123146212D01*
X133570580Y-123202168D01*
X133570586Y-123202169D01*
X133570591Y-123202171D01*
X133689833Y-123221057D01*
X133749453Y-123230500D01*
X133749454Y-123230500D01*
X133930547Y-123230500D01*
X133975261Y-123223417D01*
X134109409Y-123202171D01*
X134109416Y-123202168D01*
X134109419Y-123202168D01*
X134187601Y-123176765D01*
X134281639Y-123146211D01*
X134442994Y-123063996D01*
X134589501Y-122957553D01*
X134717553Y-122829501D01*
X134823996Y-122682994D01*
X134906211Y-122521639D01*
X134962171Y-122349409D01*
X134990500Y-122170546D01*
X134990500Y-121989454D01*
X134962171Y-121810591D01*
X134962169Y-121810586D01*
X134962168Y-121810580D01*
X134906212Y-121638364D01*
X134906211Y-121638363D01*
X134906211Y-121638361D01*
X134823996Y-121477006D01*
X134717553Y-121330499D01*
X134589501Y-121202447D01*
X134504128Y-121140420D01*
X134442996Y-121096005D01*
X134281635Y-121013787D01*
X134281636Y-121013787D01*
X134109419Y-120957831D01*
X134109406Y-120957828D01*
X133930547Y-120929500D01*
X133930546Y-120929500D01*
X133749454Y-120929500D01*
X133749453Y-120929500D01*
X133570593Y-120957828D01*
X133570580Y-120957831D01*
X133398364Y-121013787D01*
X133237004Y-121096005D01*
X133237003Y-121096005D01*
X133090503Y-121202444D01*
X133090499Y-121202447D01*
X132962447Y-121330499D01*
X132962444Y-121330502D01*
X132962444Y-121330503D01*
X132856005Y-121477003D01*
X132856005Y-121477004D01*
X132773787Y-121638364D01*
X132717831Y-121810580D01*
X132717828Y-121810593D01*
X132689500Y-121989453D01*
X119750500Y-121989453D01*
X119722171Y-121810591D01*
X119722169Y-121810586D01*
X119722168Y-121810580D01*
X119666212Y-121638364D01*
X119666211Y-121638363D01*
X119666211Y-121638361D01*
X119583996Y-121477006D01*
X119477553Y-121330499D01*
X119349501Y-121202447D01*
X119264128Y-121140420D01*
X119202996Y-121096005D01*
X119041635Y-121013787D01*
X119041636Y-121013787D01*
X118869419Y-120957831D01*
X118869406Y-120957828D01*
X118690547Y-120929500D01*
X118690546Y-120929500D01*
X118509454Y-120929500D01*
X118509453Y-120929500D01*
X118330593Y-120957828D01*
X118330580Y-120957831D01*
X118158364Y-121013787D01*
X117997004Y-121096005D01*
X117997003Y-121096005D01*
X117850503Y-121202444D01*
X117850499Y-121202447D01*
X117722447Y-121330499D01*
X117722444Y-121330502D01*
X117722444Y-121330503D01*
X117616005Y-121477003D01*
X117616005Y-121477004D01*
X117533787Y-121638364D01*
X117477831Y-121810580D01*
X117477828Y-121810593D01*
X117449500Y-121989453D01*
X116800500Y-121989453D01*
X116800500Y-119449453D01*
X117449500Y-119449453D01*
X117449500Y-119630546D01*
X117477828Y-119809406D01*
X117477831Y-119809419D01*
X117533787Y-119981635D01*
X117533788Y-119981638D01*
X117533789Y-119981639D01*
X117567175Y-120047163D01*
X117616005Y-120142995D01*
X117616005Y-120142996D01*
X117643456Y-120180779D01*
X117722447Y-120289501D01*
X117850499Y-120417553D01*
X117997006Y-120523996D01*
X118158361Y-120606211D01*
X118158364Y-120606212D01*
X118158363Y-120606212D01*
X118330580Y-120662168D01*
X118330586Y-120662169D01*
X118330591Y-120662171D01*
X118442099Y-120679832D01*
X118509453Y-120690500D01*
X118509454Y-120690500D01*
X118690547Y-120690500D01*
X118757901Y-120679832D01*
X118869409Y-120662171D01*
X118869416Y-120662168D01*
X118869419Y-120662168D01*
X118947601Y-120636765D01*
X119041639Y-120606211D01*
X119202994Y-120523996D01*
X119349501Y-120417553D01*
X119477553Y-120289501D01*
X119583996Y-120142994D01*
X119666211Y-119981639D01*
X119714886Y-119831830D01*
X119722168Y-119809419D01*
X119722168Y-119809416D01*
X119722171Y-119809409D01*
X119750500Y-119630546D01*
X119750500Y-119449454D01*
X119722171Y-119270591D01*
X119722169Y-119270586D01*
X119722168Y-119270580D01*
X119666212Y-119098364D01*
X119666211Y-119098363D01*
X119666211Y-119098361D01*
X119583996Y-118937006D01*
X119477553Y-118790499D01*
X119349501Y-118662447D01*
X119249355Y-118589687D01*
X119202996Y-118556005D01*
X119041635Y-118473787D01*
X119041636Y-118473787D01*
X118869419Y-118417831D01*
X118869406Y-118417828D01*
X118690547Y-118389500D01*
X118690546Y-118389500D01*
X118509454Y-118389500D01*
X118509453Y-118389500D01*
X118330593Y-118417828D01*
X118330580Y-118417831D01*
X118158364Y-118473787D01*
X117997004Y-118556005D01*
X117997003Y-118556005D01*
X117850503Y-118662444D01*
X117850499Y-118662447D01*
X117722447Y-118790499D01*
X117722444Y-118790502D01*
X117722444Y-118790503D01*
X117616005Y-118937003D01*
X117616005Y-118937004D01*
X117533787Y-119098364D01*
X117477831Y-119270580D01*
X117477828Y-119270593D01*
X117449500Y-119449453D01*
X116800500Y-119449453D01*
X116800500Y-116909453D01*
X117449500Y-116909453D01*
X117449500Y-117090546D01*
X117477828Y-117269406D01*
X117477831Y-117269419D01*
X117533787Y-117441635D01*
X117533788Y-117441638D01*
X117533789Y-117441639D01*
X117611222Y-117593609D01*
X117616005Y-117602995D01*
X117616005Y-117602996D01*
X117641399Y-117637947D01*
X117722447Y-117749501D01*
X117850499Y-117877553D01*
X117997006Y-117983996D01*
X118158361Y-118066211D01*
X118158364Y-118066212D01*
X118158363Y-118066212D01*
X118330580Y-118122168D01*
X118330586Y-118122169D01*
X118330591Y-118122171D01*
X118449833Y-118141057D01*
X118509453Y-118150500D01*
X118509454Y-118150500D01*
X118690547Y-118150500D01*
X118735261Y-118143417D01*
X118869409Y-118122171D01*
X118869416Y-118122168D01*
X118869419Y-118122168D01*
X118947601Y-118096765D01*
X119041639Y-118066211D01*
X119202994Y-117983996D01*
X119349501Y-117877553D01*
X119477553Y-117749501D01*
X119583996Y-117602994D01*
X119666211Y-117441639D01*
X119722171Y-117269409D01*
X119750500Y-117090546D01*
X119750500Y-116909454D01*
X119722171Y-116730591D01*
X119722169Y-116730586D01*
X119722168Y-116730580D01*
X119666212Y-116558364D01*
X119666211Y-116558363D01*
X119666211Y-116558361D01*
X119583996Y-116397006D01*
X119477553Y-116250499D01*
X119349501Y-116122447D01*
X119264128Y-116060420D01*
X119202996Y-116016005D01*
X119041635Y-115933787D01*
X119041636Y-115933787D01*
X118869419Y-115877831D01*
X118869406Y-115877828D01*
X118690547Y-115849500D01*
X118690546Y-115849500D01*
X118509454Y-115849500D01*
X118509453Y-115849500D01*
X118330593Y-115877828D01*
X118330580Y-115877831D01*
X118158364Y-115933787D01*
X117997004Y-116016005D01*
X117997003Y-116016005D01*
X117850503Y-116122444D01*
X117850499Y-116122447D01*
X117722447Y-116250499D01*
X117722444Y-116250502D01*
X117722444Y-116250503D01*
X117616005Y-116397003D01*
X117616005Y-116397004D01*
X117533787Y-116558364D01*
X117477831Y-116730580D01*
X117477828Y-116730593D01*
X117449500Y-116909453D01*
X116800500Y-116909453D01*
X116800500Y-94049453D01*
X117449500Y-94049453D01*
X117449500Y-94230546D01*
X117477828Y-94409406D01*
X117477831Y-94409419D01*
X117533787Y-94581635D01*
X117533788Y-94581638D01*
X117533789Y-94581639D01*
X117583649Y-94679495D01*
X117616005Y-94742995D01*
X117616005Y-94742996D01*
X117640953Y-94777334D01*
X117722447Y-94889501D01*
X117850499Y-95017553D01*
X117924348Y-95071207D01*
X117992729Y-95120889D01*
X117997006Y-95123996D01*
X118158361Y-95206211D01*
X118158364Y-95206212D01*
X118158363Y-95206212D01*
X118330580Y-95262168D01*
X118330586Y-95262169D01*
X118330591Y-95262171D01*
X118449833Y-95281057D01*
X118509453Y-95290500D01*
X118509454Y-95290500D01*
X118690547Y-95290500D01*
X118738531Y-95282900D01*
X118869409Y-95262171D01*
X118869416Y-95262168D01*
X118869419Y-95262168D01*
X118947601Y-95236765D01*
X119041639Y-95206211D01*
X119202994Y-95123996D01*
X119257451Y-95084429D01*
X119312522Y-95071207D01*
X119353273Y-95091970D01*
X119537826Y-95276523D01*
X119559500Y-95328849D01*
X119559500Y-95833794D01*
X119537826Y-95886120D01*
X119485500Y-95907794D01*
X119433174Y-95886120D01*
X119349506Y-95802452D01*
X119349501Y-95802447D01*
X119264128Y-95740420D01*
X119202996Y-95696005D01*
X119041635Y-95613787D01*
X119041636Y-95613787D01*
X118869419Y-95557831D01*
X118869406Y-95557828D01*
X118690547Y-95529500D01*
X118690546Y-95529500D01*
X118509454Y-95529500D01*
X118509453Y-95529500D01*
X118330593Y-95557828D01*
X118330580Y-95557831D01*
X118158364Y-95613787D01*
X117997004Y-95696005D01*
X117997003Y-95696005D01*
X117850503Y-95802444D01*
X117850499Y-95802447D01*
X117722447Y-95930499D01*
X117722444Y-95930502D01*
X117722444Y-95930503D01*
X117616005Y-96077003D01*
X117616005Y-96077004D01*
X117533787Y-96238364D01*
X117477831Y-96410580D01*
X117477828Y-96410593D01*
X117449500Y-96589453D01*
X117449500Y-96770546D01*
X117477828Y-96949406D01*
X117477831Y-96949419D01*
X117533787Y-97121635D01*
X117533788Y-97121638D01*
X117533789Y-97121639D01*
X117616004Y-97282994D01*
X117722447Y-97429501D01*
X117850499Y-97557553D01*
X117997006Y-97663996D01*
X118158361Y-97746211D01*
X118158364Y-97746212D01*
X118158363Y-97746212D01*
X118330580Y-97802168D01*
X118330586Y-97802169D01*
X118330591Y-97802171D01*
X118449833Y-97821057D01*
X118509453Y-97830500D01*
X118509454Y-97830500D01*
X118690547Y-97830500D01*
X118735261Y-97823417D01*
X118869409Y-97802171D01*
X118869416Y-97802168D01*
X118869419Y-97802168D01*
X118947601Y-97776765D01*
X119041639Y-97746211D01*
X119202994Y-97663996D01*
X119257451Y-97624429D01*
X119312522Y-97611207D01*
X119353273Y-97631970D01*
X120091826Y-98370523D01*
X120113500Y-98422849D01*
X120113500Y-100356151D01*
X120091826Y-100408477D01*
X120039500Y-100430151D01*
X119987174Y-100408477D01*
X119551970Y-99973273D01*
X119530296Y-99920947D01*
X119544429Y-99877452D01*
X119583996Y-99822994D01*
X119666211Y-99661639D01*
X119722171Y-99489409D01*
X119750500Y-99310546D01*
X119750500Y-99129454D01*
X119722171Y-98950591D01*
X119722169Y-98950586D01*
X119722168Y-98950580D01*
X119666212Y-98778364D01*
X119666211Y-98778363D01*
X119666211Y-98778361D01*
X119583996Y-98617006D01*
X119477553Y-98470499D01*
X119349501Y-98342447D01*
X119264128Y-98280420D01*
X119202996Y-98236005D01*
X119041635Y-98153787D01*
X119041636Y-98153787D01*
X118869419Y-98097831D01*
X118869406Y-98097828D01*
X118690547Y-98069500D01*
X118690546Y-98069500D01*
X118509454Y-98069500D01*
X118509453Y-98069500D01*
X118330593Y-98097828D01*
X118330580Y-98097831D01*
X118158364Y-98153787D01*
X117997004Y-98236005D01*
X117997003Y-98236005D01*
X117850503Y-98342444D01*
X117850499Y-98342447D01*
X117722447Y-98470499D01*
X117722444Y-98470502D01*
X117722444Y-98470503D01*
X117616005Y-98617003D01*
X117616005Y-98617004D01*
X117533787Y-98778364D01*
X117477831Y-98950580D01*
X117477828Y-98950593D01*
X117449500Y-99129453D01*
X117449500Y-99310546D01*
X117477828Y-99489406D01*
X117477831Y-99489419D01*
X117533787Y-99661635D01*
X117616005Y-99822995D01*
X117616005Y-99822996D01*
X117655568Y-99877450D01*
X117722447Y-99969501D01*
X117850499Y-100097553D01*
X117997006Y-100203996D01*
X118158361Y-100286211D01*
X118158364Y-100286212D01*
X118158363Y-100286212D01*
X118330580Y-100342168D01*
X118330586Y-100342169D01*
X118330591Y-100342171D01*
X118418858Y-100356151D01*
X118509453Y-100370500D01*
X118509454Y-100370500D01*
X118690547Y-100370500D01*
X118735261Y-100363417D01*
X118869409Y-100342171D01*
X118869416Y-100342168D01*
X118869419Y-100342168D01*
X118967456Y-100310314D01*
X119041639Y-100286211D01*
X119202994Y-100203996D01*
X119257451Y-100164429D01*
X119312522Y-100151207D01*
X119353273Y-100171970D01*
X119864826Y-100683523D01*
X119886500Y-100735849D01*
X119886500Y-101587864D01*
X119864826Y-101640190D01*
X119812500Y-101661864D01*
X119760174Y-101640190D01*
X119739411Y-101599440D01*
X119722171Y-101490593D01*
X119722168Y-101490580D01*
X119666212Y-101318364D01*
X119666211Y-101318363D01*
X119666211Y-101318361D01*
X119583996Y-101157006D01*
X119477553Y-101010499D01*
X119349501Y-100882447D01*
X119234918Y-100799198D01*
X119202996Y-100776005D01*
X119041635Y-100693787D01*
X119041636Y-100693787D01*
X118869419Y-100637831D01*
X118869406Y-100637828D01*
X118690547Y-100609500D01*
X118690546Y-100609500D01*
X118509454Y-100609500D01*
X118509453Y-100609500D01*
X118330593Y-100637828D01*
X118330580Y-100637831D01*
X118158364Y-100693787D01*
X117997004Y-100776005D01*
X117997003Y-100776005D01*
X117850503Y-100882444D01*
X117850499Y-100882447D01*
X117722447Y-101010499D01*
X117722444Y-101010502D01*
X117722444Y-101010503D01*
X117616005Y-101157003D01*
X117616005Y-101157004D01*
X117533787Y-101318364D01*
X117477831Y-101490580D01*
X117477828Y-101490593D01*
X117449500Y-101669453D01*
X117449500Y-101850546D01*
X117477828Y-102029406D01*
X117477831Y-102029419D01*
X117533787Y-102201635D01*
X117533788Y-102201638D01*
X117533789Y-102201639D01*
X117615472Y-102361950D01*
X117616005Y-102362995D01*
X117616005Y-102362996D01*
X117644217Y-102401826D01*
X117722447Y-102509501D01*
X117850499Y-102637553D01*
X117997006Y-102743996D01*
X118158361Y-102826211D01*
X118158364Y-102826212D01*
X118158363Y-102826212D01*
X118330580Y-102882168D01*
X118330586Y-102882169D01*
X118330591Y-102882171D01*
X118449833Y-102901057D01*
X118509453Y-102910500D01*
X118509454Y-102910500D01*
X118690547Y-102910500D01*
X118744005Y-102902033D01*
X118869409Y-102882171D01*
X118869416Y-102882168D01*
X118869419Y-102882168D01*
X118947601Y-102856765D01*
X119041639Y-102826211D01*
X119202994Y-102743996D01*
X119257451Y-102704429D01*
X119312522Y-102691207D01*
X119353273Y-102711970D01*
X119637826Y-102996523D01*
X119659500Y-103048849D01*
X119659500Y-103573179D01*
X119637826Y-103625505D01*
X119585500Y-103647179D01*
X119533174Y-103625505D01*
X119525633Y-103616675D01*
X119477556Y-103550503D01*
X119477555Y-103550502D01*
X119477553Y-103550499D01*
X119349501Y-103422447D01*
X119219434Y-103327948D01*
X119202996Y-103316005D01*
X119057367Y-103241803D01*
X119041639Y-103233789D01*
X119041638Y-103233788D01*
X119041635Y-103233787D01*
X119041636Y-103233787D01*
X118869419Y-103177831D01*
X118869406Y-103177828D01*
X118690547Y-103149500D01*
X118690546Y-103149500D01*
X118509454Y-103149500D01*
X118509453Y-103149500D01*
X118330593Y-103177828D01*
X118330580Y-103177831D01*
X118158364Y-103233787D01*
X117997004Y-103316005D01*
X117997003Y-103316005D01*
X117850503Y-103422444D01*
X117850499Y-103422447D01*
X117722447Y-103550499D01*
X117722444Y-103550502D01*
X117722444Y-103550503D01*
X117616005Y-103697003D01*
X117616005Y-103697004D01*
X117533787Y-103858364D01*
X117477831Y-104030580D01*
X117477828Y-104030593D01*
X117449500Y-104209453D01*
X117449500Y-104390546D01*
X117477828Y-104569406D01*
X117477831Y-104569419D01*
X117533787Y-104741635D01*
X117533788Y-104741638D01*
X117533789Y-104741639D01*
X117609224Y-104889688D01*
X117616005Y-104902995D01*
X117616005Y-104902996D01*
X117630594Y-104923076D01*
X117722447Y-105049501D01*
X117850499Y-105177553D01*
X117997006Y-105283996D01*
X118158361Y-105366211D01*
X118158364Y-105366212D01*
X118158363Y-105366212D01*
X118330580Y-105422168D01*
X118330586Y-105422169D01*
X118330591Y-105422171D01*
X118446316Y-105440500D01*
X118509453Y-105450500D01*
X118683652Y-105450500D01*
X118735978Y-105472174D01*
X118841709Y-105577905D01*
X118863383Y-105630231D01*
X118841709Y-105682557D01*
X118789383Y-105704231D01*
X118777807Y-105703320D01*
X118690547Y-105689500D01*
X118690546Y-105689500D01*
X118509454Y-105689500D01*
X118509453Y-105689500D01*
X118330593Y-105717828D01*
X118330580Y-105717831D01*
X118158364Y-105773787D01*
X117997004Y-105856005D01*
X117997003Y-105856005D01*
X117894034Y-105930817D01*
X117850499Y-105962447D01*
X117722447Y-106090499D01*
X117722444Y-106090502D01*
X117722444Y-106090503D01*
X117616005Y-106237003D01*
X117616005Y-106237004D01*
X117533787Y-106398364D01*
X117477831Y-106570580D01*
X117477828Y-106570593D01*
X117449500Y-106749453D01*
X117449500Y-106930546D01*
X117477828Y-107109406D01*
X117477831Y-107109419D01*
X117533787Y-107281635D01*
X117533788Y-107281638D01*
X117533789Y-107281639D01*
X117605722Y-107422815D01*
X117616005Y-107442995D01*
X117616005Y-107442996D01*
X117635991Y-107470504D01*
X117722447Y-107589501D01*
X117850499Y-107717553D01*
X117997006Y-107823996D01*
X118158361Y-107906211D01*
X118158364Y-107906212D01*
X118158363Y-107906212D01*
X118330580Y-107962168D01*
X118330586Y-107962169D01*
X118330591Y-107962171D01*
X118448513Y-107980848D01*
X118509453Y-107990500D01*
X118509454Y-107990500D01*
X118690547Y-107990500D01*
X118735261Y-107983417D01*
X118869409Y-107962171D01*
X118869416Y-107962168D01*
X118869419Y-107962168D01*
X119041630Y-107906214D01*
X119041630Y-107906213D01*
X119041639Y-107906211D01*
X119043237Y-107905396D01*
X119043691Y-107905360D01*
X119044321Y-107905100D01*
X119044405Y-107905304D01*
X119099695Y-107900937D01*
X119129173Y-107918996D01*
X120598462Y-109388285D01*
X120598463Y-109388287D01*
X120637987Y-109427811D01*
X120659376Y-109436670D01*
X120689626Y-109449201D01*
X120754134Y-109449201D01*
X120754142Y-109449200D01*
X121409612Y-109449200D01*
X121421162Y-109453984D01*
X121433641Y-109453210D01*
X121446315Y-109464402D01*
X121461938Y-109470874D01*
X121476091Y-109490697D01*
X121489195Y-109517501D01*
X121492703Y-109574029D01*
X121489197Y-109582493D01*
X121472634Y-109616375D01*
X121472633Y-109616377D01*
X121471841Y-109617999D01*
X121429388Y-109655490D01*
X121405359Y-109659500D01*
X119807216Y-109659500D01*
X119754890Y-109637826D01*
X119733216Y-109585500D01*
X119734127Y-109573924D01*
X119750500Y-109470546D01*
X119750500Y-109289453D01*
X119734647Y-109189364D01*
X119722171Y-109110591D01*
X119722169Y-109110586D01*
X119722168Y-109110580D01*
X119666212Y-108938364D01*
X119666211Y-108938363D01*
X119666211Y-108938361D01*
X119583996Y-108777006D01*
X119477553Y-108630499D01*
X119349501Y-108502447D01*
X119229828Y-108415500D01*
X119202996Y-108396005D01*
X119096770Y-108341880D01*
X119041639Y-108313789D01*
X119041638Y-108313788D01*
X119041635Y-108313787D01*
X119041636Y-108313787D01*
X118869419Y-108257831D01*
X118869406Y-108257828D01*
X118690547Y-108229500D01*
X118690546Y-108229500D01*
X118509454Y-108229500D01*
X118509453Y-108229500D01*
X118330593Y-108257828D01*
X118330580Y-108257831D01*
X118158364Y-108313787D01*
X117997004Y-108396005D01*
X117997003Y-108396005D01*
X117868060Y-108489688D01*
X117850499Y-108502447D01*
X117722447Y-108630499D01*
X117722444Y-108630502D01*
X117722444Y-108630503D01*
X117616005Y-108777003D01*
X117616005Y-108777004D01*
X117533787Y-108938364D01*
X117477831Y-109110580D01*
X117477828Y-109110593D01*
X117449500Y-109289453D01*
X117449500Y-109470546D01*
X117477828Y-109649406D01*
X117477831Y-109649419D01*
X117533787Y-109821635D01*
X117533788Y-109821638D01*
X117533789Y-109821639D01*
X117616003Y-109982993D01*
X117616005Y-109982995D01*
X117616005Y-109982996D01*
X117660420Y-110044128D01*
X117722447Y-110129501D01*
X117850499Y-110257553D01*
X117997006Y-110363996D01*
X118158361Y-110446211D01*
X118158364Y-110446212D01*
X118158363Y-110446212D01*
X118330580Y-110502168D01*
X118330586Y-110502169D01*
X118330591Y-110502171D01*
X118430917Y-110518061D01*
X118509453Y-110530500D01*
X118509454Y-110530500D01*
X118690547Y-110530500D01*
X118735261Y-110523417D01*
X118869409Y-110502171D01*
X118869416Y-110502168D01*
X118869419Y-110502168D01*
X118947601Y-110476765D01*
X119041639Y-110446211D01*
X119202994Y-110363996D01*
X119349501Y-110257553D01*
X119477553Y-110129501D01*
X119583996Y-109982994D01*
X119585063Y-109980900D01*
X119628133Y-109944120D01*
X119650995Y-109940500D01*
X121405359Y-109940500D01*
X121457685Y-109962174D01*
X121471840Y-109982000D01*
X121472633Y-109983623D01*
X121472634Y-109983625D01*
X121472635Y-109983627D01*
X121527673Y-110096210D01*
X121616289Y-110184826D01*
X121715892Y-110233519D01*
X121753382Y-110275972D01*
X121749873Y-110332500D01*
X121715892Y-110366481D01*
X121616289Y-110415173D01*
X121527673Y-110503789D01*
X121489630Y-110581610D01*
X121472635Y-110616374D01*
X121471840Y-110618000D01*
X121429387Y-110655490D01*
X121405359Y-110659500D01*
X119756568Y-110659500D01*
X119756560Y-110659499D01*
X119747948Y-110659499D01*
X119692052Y-110659499D01*
X119661801Y-110672028D01*
X119661802Y-110672029D01*
X119640416Y-110680887D01*
X119640411Y-110680890D01*
X119600888Y-110720412D01*
X119600889Y-110720413D01*
X119600888Y-110720414D01*
X119353273Y-110968028D01*
X119300947Y-110989702D01*
X119257451Y-110975569D01*
X119202996Y-110936005D01*
X119041635Y-110853787D01*
X119041636Y-110853787D01*
X118869419Y-110797831D01*
X118869406Y-110797828D01*
X118690547Y-110769500D01*
X118690546Y-110769500D01*
X118509454Y-110769500D01*
X118509453Y-110769500D01*
X118330593Y-110797828D01*
X118330580Y-110797831D01*
X118158364Y-110853787D01*
X117997004Y-110936005D01*
X117997003Y-110936005D01*
X117884834Y-111017501D01*
X117850499Y-111042447D01*
X117722447Y-111170499D01*
X117722444Y-111170502D01*
X117722444Y-111170503D01*
X117616005Y-111317003D01*
X117616005Y-111317004D01*
X117533787Y-111478364D01*
X117477831Y-111650580D01*
X117477828Y-111650593D01*
X117449500Y-111829453D01*
X117449500Y-112010546D01*
X117477828Y-112189406D01*
X117477831Y-112189419D01*
X117533787Y-112361635D01*
X117533788Y-112361638D01*
X117533789Y-112361639D01*
X117616004Y-112522994D01*
X117722447Y-112669501D01*
X117850499Y-112797553D01*
X117997006Y-112903996D01*
X118158361Y-112986211D01*
X118158364Y-112986212D01*
X118158363Y-112986212D01*
X118330580Y-113042168D01*
X118330586Y-113042169D01*
X118330591Y-113042171D01*
X118449833Y-113061057D01*
X118509453Y-113070500D01*
X118509454Y-113070500D01*
X118690547Y-113070500D01*
X118735261Y-113063417D01*
X118869409Y-113042171D01*
X118869416Y-113042168D01*
X118869419Y-113042168D01*
X118947601Y-113016765D01*
X119041639Y-112986211D01*
X119202994Y-112903996D01*
X119349501Y-112797553D01*
X119477553Y-112669501D01*
X119583996Y-112522994D01*
X119666211Y-112361639D01*
X119722171Y-112189409D01*
X119750500Y-112010546D01*
X119750500Y-111829454D01*
X119749715Y-111824500D01*
X119736311Y-111739866D01*
X119722171Y-111650591D01*
X119722169Y-111650586D01*
X119722168Y-111650580D01*
X119666212Y-111478364D01*
X119666211Y-111478363D01*
X119666211Y-111478361D01*
X119583996Y-111317006D01*
X119576999Y-111307376D01*
X119544429Y-111262547D01*
X119531207Y-111207475D01*
X119551968Y-111166727D01*
X119756523Y-110962174D01*
X119808849Y-110940500D01*
X121405359Y-110940500D01*
X121416909Y-110945284D01*
X121429388Y-110944510D01*
X121442062Y-110955702D01*
X121457685Y-110962174D01*
X121471841Y-110982001D01*
X121472633Y-110983622D01*
X121472634Y-110983625D01*
X121489195Y-111017501D01*
X121492703Y-111074029D01*
X121489194Y-111082500D01*
X121472634Y-111116373D01*
X121462000Y-111189359D01*
X121462000Y-111368650D01*
X121440326Y-111420976D01*
X119353273Y-113508028D01*
X119300947Y-113529702D01*
X119257451Y-113515569D01*
X119202996Y-113476005D01*
X119041635Y-113393787D01*
X119041636Y-113393787D01*
X118869419Y-113337831D01*
X118869406Y-113337828D01*
X118690547Y-113309500D01*
X118690546Y-113309500D01*
X118509454Y-113309500D01*
X118509453Y-113309500D01*
X118330593Y-113337828D01*
X118330580Y-113337831D01*
X118158364Y-113393787D01*
X117997004Y-113476005D01*
X117997003Y-113476005D01*
X117891416Y-113552719D01*
X117850499Y-113582447D01*
X117722447Y-113710499D01*
X117722444Y-113710502D01*
X117722444Y-113710503D01*
X117616005Y-113857003D01*
X117616005Y-113857004D01*
X117533787Y-114018364D01*
X117477831Y-114190580D01*
X117477828Y-114190593D01*
X117449500Y-114369453D01*
X117449500Y-114550546D01*
X117477828Y-114729406D01*
X117477831Y-114729419D01*
X117533787Y-114901635D01*
X117533788Y-114901638D01*
X117533789Y-114901639D01*
X117616004Y-115062994D01*
X117722447Y-115209501D01*
X117850499Y-115337553D01*
X117997006Y-115443996D01*
X118158361Y-115526211D01*
X118158364Y-115526212D01*
X118158363Y-115526212D01*
X118330580Y-115582168D01*
X118330586Y-115582169D01*
X118330591Y-115582171D01*
X118425279Y-115597168D01*
X118509453Y-115610500D01*
X118509454Y-115610500D01*
X118690547Y-115610500D01*
X118735261Y-115603417D01*
X118869409Y-115582171D01*
X118869416Y-115582168D01*
X118869419Y-115582168D01*
X118947601Y-115556765D01*
X119041639Y-115526211D01*
X119202994Y-115443996D01*
X119349501Y-115337553D01*
X119477553Y-115209501D01*
X119583996Y-115062994D01*
X119666211Y-114901639D01*
X119722171Y-114729409D01*
X119750500Y-114550546D01*
X119750500Y-114369454D01*
X119722171Y-114190591D01*
X119722169Y-114190586D01*
X119722168Y-114190580D01*
X119666212Y-114018364D01*
X119666211Y-114018363D01*
X119666211Y-114018361D01*
X119583996Y-113857006D01*
X119544428Y-113802546D01*
X119531207Y-113747475D01*
X119551968Y-113706727D01*
X121284396Y-111974300D01*
X121336721Y-111952627D01*
X121389047Y-111974301D01*
X121410721Y-112026627D01*
X121400807Y-112063626D01*
X121387018Y-112087509D01*
X121387014Y-112087518D01*
X121349500Y-112227522D01*
X121349500Y-112372477D01*
X121387014Y-112512481D01*
X121387016Y-112512486D01*
X121430336Y-112587518D01*
X121459491Y-112638015D01*
X121561985Y-112740509D01*
X121687515Y-112812984D01*
X121687516Y-112812984D01*
X121687518Y-112812985D01*
X121718300Y-112821233D01*
X121827522Y-112850499D01*
X121827523Y-112850500D01*
X121827525Y-112850500D01*
X121972477Y-112850500D01*
X121972477Y-112850499D01*
X122112485Y-112812984D01*
X122238015Y-112740509D01*
X122340509Y-112638015D01*
X122412984Y-112512485D01*
X122450499Y-112372477D01*
X122450500Y-112372477D01*
X122450500Y-112227523D01*
X122450499Y-112227522D01*
X122412985Y-112087518D01*
X122412983Y-112087513D01*
X122352644Y-111983004D01*
X122340509Y-111961985D01*
X122255350Y-111876826D01*
X122233676Y-111824500D01*
X122255350Y-111772174D01*
X122307676Y-111750500D01*
X123198130Y-111750500D01*
X123198136Y-111750500D01*
X123271125Y-111739866D01*
X123383711Y-111684826D01*
X123472326Y-111596211D01*
X123527366Y-111483625D01*
X123538000Y-111410636D01*
X123538000Y-111189364D01*
X123527366Y-111116375D01*
X123510805Y-111082501D01*
X123507295Y-111025974D01*
X123510806Y-111017498D01*
X123513143Y-111012719D01*
X123527366Y-110983625D01*
X123538000Y-110910636D01*
X123538000Y-110689364D01*
X123527366Y-110616375D01*
X123472326Y-110503789D01*
X123383711Y-110415174D01*
X123383710Y-110415173D01*
X123298770Y-110373649D01*
X123284106Y-110366480D01*
X123246617Y-110324028D01*
X123250126Y-110267500D01*
X123284106Y-110233519D01*
X123383711Y-110184826D01*
X123472326Y-110096211D01*
X123527366Y-109983625D01*
X123538000Y-109910636D01*
X123538000Y-109689364D01*
X123527366Y-109616375D01*
X123521635Y-109604653D01*
X123510806Y-109582502D01*
X123507295Y-109525974D01*
X123510806Y-109517498D01*
X123527365Y-109483627D01*
X123527364Y-109483627D01*
X123527366Y-109483625D01*
X123538000Y-109410636D01*
X123538000Y-109189364D01*
X123527366Y-109116375D01*
X123524539Y-109110593D01*
X123510806Y-109082502D01*
X123507295Y-109025974D01*
X123510806Y-109017498D01*
X123520748Y-108997163D01*
X123527366Y-108983625D01*
X123538000Y-108910636D01*
X123538000Y-108689364D01*
X123527366Y-108616375D01*
X123510805Y-108582501D01*
X123507295Y-108525974D01*
X123510806Y-108517498D01*
X123518577Y-108501604D01*
X123527366Y-108483625D01*
X123538000Y-108410636D01*
X123538000Y-108189364D01*
X123527366Y-108116375D01*
X123522204Y-108105817D01*
X123510806Y-108082502D01*
X123507295Y-108025974D01*
X123510806Y-108017498D01*
X123519361Y-108000000D01*
X123527366Y-107983625D01*
X123538000Y-107910636D01*
X123538000Y-107689364D01*
X123533746Y-107660168D01*
X123547649Y-107605265D01*
X123596303Y-107576273D01*
X123606973Y-107575500D01*
X123619185Y-107575500D01*
X123619185Y-107575499D01*
X123752836Y-107539688D01*
X123872665Y-107470505D01*
X123970505Y-107372665D01*
X124039688Y-107252836D01*
X124075499Y-107119185D01*
X124075500Y-107119185D01*
X124075500Y-106980815D01*
X124075499Y-106980814D01*
X124073081Y-106971791D01*
X124063637Y-106936546D01*
X124046798Y-106873698D01*
X124054190Y-106817545D01*
X124065950Y-106802219D01*
X124070505Y-106797665D01*
X124139688Y-106677836D01*
X124175499Y-106544185D01*
X124175500Y-106544185D01*
X124175500Y-106428902D01*
X124197174Y-106376576D01*
X124204457Y-106370190D01*
X124207002Y-106368236D01*
X124207008Y-106368233D01*
X124304848Y-106270393D01*
X124374031Y-106150564D01*
X124409842Y-106016913D01*
X124409843Y-106016913D01*
X124409843Y-105878547D01*
X124409346Y-105874775D01*
X124424000Y-105820067D01*
X124430386Y-105812784D01*
X124433251Y-105809918D01*
X124433254Y-105809917D01*
X124531094Y-105712077D01*
X124600277Y-105592248D01*
X124636088Y-105458597D01*
X124636089Y-105458597D01*
X124636089Y-105442080D01*
X124657763Y-105389754D01*
X124673087Y-105377995D01*
X124772665Y-105320505D01*
X124802154Y-105291016D01*
X124854480Y-105269342D01*
X124906806Y-105291016D01*
X124936155Y-105320365D01*
X125055984Y-105389548D01*
X125189634Y-105425359D01*
X125189635Y-105425360D01*
X125189637Y-105425360D01*
X125328002Y-105425360D01*
X125328003Y-105425360D01*
X125329465Y-105424968D01*
X125330223Y-105425067D01*
X125332814Y-105424727D01*
X125332905Y-105425420D01*
X125385617Y-105432356D01*
X125400949Y-105444119D01*
X125477335Y-105520505D01*
X125597164Y-105589688D01*
X125730814Y-105625499D01*
X125730815Y-105625500D01*
X125730817Y-105625500D01*
X125869185Y-105625500D01*
X125869185Y-105625499D01*
X125980824Y-105595586D01*
X126036977Y-105602978D01*
X126071455Y-105647911D01*
X126064063Y-105704064D01*
X126010313Y-105797162D01*
X126010310Y-105797168D01*
X125974500Y-105930814D01*
X125974500Y-106069185D01*
X126010310Y-106202831D01*
X126010314Y-106202840D01*
X126019041Y-106217956D01*
X126026433Y-106274109D01*
X125991954Y-106319041D01*
X125935801Y-106326433D01*
X125917956Y-106319041D01*
X125902840Y-106310314D01*
X125902831Y-106310310D01*
X125769185Y-106274500D01*
X125769183Y-106274500D01*
X125630817Y-106274500D01*
X125630815Y-106274500D01*
X125497168Y-106310310D01*
X125497163Y-106310312D01*
X125377334Y-106379495D01*
X125279495Y-106477334D01*
X125210312Y-106597163D01*
X125210310Y-106597168D01*
X125174500Y-106730814D01*
X125174500Y-106869185D01*
X125210310Y-107002831D01*
X125210312Y-107002836D01*
X125279495Y-107122665D01*
X125314750Y-107157920D01*
X125336424Y-107210246D01*
X125326510Y-107247245D01*
X125302312Y-107289157D01*
X125302308Y-107289166D01*
X125266498Y-107422812D01*
X125266498Y-107561183D01*
X125302308Y-107694829D01*
X125302310Y-107694834D01*
X125371493Y-107814663D01*
X125469333Y-107912503D01*
X125589162Y-107981686D01*
X125643441Y-107996229D01*
X125688375Y-108030708D01*
X125695767Y-108048555D01*
X125710310Y-108102831D01*
X125710312Y-108102836D01*
X125779495Y-108222665D01*
X125877335Y-108320505D01*
X125997164Y-108389688D01*
X126130814Y-108425499D01*
X126130815Y-108425500D01*
X126130817Y-108425500D01*
X126269185Y-108425500D01*
X126269185Y-108425499D01*
X126402836Y-108389688D01*
X126508150Y-108328884D01*
X126564302Y-108321492D01*
X126597475Y-108340645D01*
X126677335Y-108420505D01*
X126797164Y-108489688D01*
X126930814Y-108525499D01*
X126930815Y-108525500D01*
X126930817Y-108525500D01*
X127069185Y-108525500D01*
X127069185Y-108525499D01*
X127202836Y-108489688D01*
X127322665Y-108420505D01*
X127420505Y-108322665D01*
X127446147Y-108278250D01*
X127491079Y-108243772D01*
X127547232Y-108251164D01*
X127581711Y-108296096D01*
X127581711Y-108296097D01*
X127610310Y-108402831D01*
X127610312Y-108402836D01*
X127640874Y-108455772D01*
X127656321Y-108482526D01*
X127658832Y-108501604D01*
X127666235Y-108519370D01*
X127662397Y-108528689D01*
X127663713Y-108538679D01*
X127644671Y-108571742D01*
X127644434Y-108571980D01*
X125638500Y-110577914D01*
X125609500Y-110647927D01*
X125609500Y-111837894D01*
X125638500Y-111907907D01*
X125638503Y-111907911D01*
X125702497Y-111971905D01*
X125702499Y-111971906D01*
X125978767Y-112248174D01*
X126000441Y-112300500D01*
X125978767Y-112352826D01*
X125926441Y-112374500D01*
X125830815Y-112374500D01*
X125697168Y-112410310D01*
X125697163Y-112410312D01*
X125577334Y-112479495D01*
X125479495Y-112577334D01*
X125410313Y-112697161D01*
X125410312Y-112697163D01*
X125410312Y-112697164D01*
X125408304Y-112704654D01*
X125373827Y-112749586D01*
X125336827Y-112759500D01*
X123586568Y-112759500D01*
X123586560Y-112759499D01*
X123577948Y-112759499D01*
X123522053Y-112759499D01*
X123496232Y-112770193D01*
X123496233Y-112770194D01*
X123470413Y-112780888D01*
X123470412Y-112780890D01*
X120280889Y-115970412D01*
X120280887Y-115970415D01*
X120274709Y-115985329D01*
X120274710Y-115985330D01*
X120259499Y-116022051D01*
X120259499Y-116086559D01*
X120259500Y-116086568D01*
X120259500Y-117536827D01*
X120237826Y-117589153D01*
X120204655Y-117608304D01*
X120197164Y-117610312D01*
X120197163Y-117610312D01*
X120197161Y-117610313D01*
X120077334Y-117679495D01*
X119979495Y-117777334D01*
X119910312Y-117897163D01*
X119910310Y-117897168D01*
X119874500Y-118030814D01*
X119874500Y-118169185D01*
X119910310Y-118302831D01*
X119910312Y-118302836D01*
X119979495Y-118422665D01*
X120077335Y-118520505D01*
X120197164Y-118589688D01*
X120330814Y-118625499D01*
X120330815Y-118625500D01*
X120330817Y-118625500D01*
X120469184Y-118625500D01*
X120479781Y-118622660D01*
X120489242Y-118620125D01*
X120545395Y-118627516D01*
X120579874Y-118672449D01*
X120579875Y-118710754D01*
X120574500Y-118730815D01*
X120574500Y-118869185D01*
X120610310Y-119002831D01*
X120610312Y-119002836D01*
X120679495Y-119122665D01*
X120777335Y-119220505D01*
X120897164Y-119289688D01*
X121030814Y-119325499D01*
X121030815Y-119325500D01*
X121030817Y-119325500D01*
X121169185Y-119325500D01*
X121169185Y-119325499D01*
X121302836Y-119289688D01*
X121422665Y-119220505D01*
X121520505Y-119122665D01*
X121536414Y-119095110D01*
X121581347Y-119060631D01*
X121637499Y-119068023D01*
X121671978Y-119112956D01*
X121674500Y-119132109D01*
X121674500Y-119269185D01*
X121710310Y-119402831D01*
X121710312Y-119402836D01*
X121779495Y-119522665D01*
X121877335Y-119620505D01*
X121972327Y-119675348D01*
X122006804Y-119720280D01*
X121999412Y-119776433D01*
X121972327Y-119803519D01*
X121927333Y-119829496D01*
X121829495Y-119927334D01*
X121760312Y-120047163D01*
X121760310Y-120047168D01*
X121724500Y-120180814D01*
X121724500Y-120319185D01*
X121760310Y-120452831D01*
X121760312Y-120452836D01*
X121829495Y-120572665D01*
X121927335Y-120670505D01*
X122047164Y-120739688D01*
X122180814Y-120775499D01*
X122180815Y-120775500D01*
X122180817Y-120775500D01*
X122319185Y-120775500D01*
X122319185Y-120775499D01*
X122452836Y-120739688D01*
X122513000Y-120704951D01*
X122569152Y-120697559D01*
X122587000Y-120704952D01*
X122647160Y-120739686D01*
X122647164Y-120739688D01*
X122647165Y-120739688D01*
X122647167Y-120739689D01*
X122674837Y-120747103D01*
X122780814Y-120775499D01*
X122780815Y-120775500D01*
X122780817Y-120775500D01*
X122919185Y-120775500D01*
X122919185Y-120775499D01*
X123052836Y-120739688D01*
X123138001Y-120690517D01*
X123194153Y-120683125D01*
X123211995Y-120690516D01*
X123297164Y-120739688D01*
X123430814Y-120775499D01*
X123430815Y-120775500D01*
X123430817Y-120775500D01*
X123569185Y-120775500D01*
X123569185Y-120775499D01*
X123702836Y-120739688D01*
X123769509Y-120701193D01*
X123825661Y-120693800D01*
X123843504Y-120701191D01*
X123923025Y-120747102D01*
X124056675Y-120782913D01*
X124056676Y-120782914D01*
X124056678Y-120782914D01*
X124195046Y-120782914D01*
X124195046Y-120782913D01*
X124328697Y-120747102D01*
X124383790Y-120715293D01*
X124439942Y-120707900D01*
X124457785Y-120715290D01*
X124499980Y-120739652D01*
X124633630Y-120775463D01*
X124633631Y-120775464D01*
X124633633Y-120775464D01*
X124772001Y-120775464D01*
X124772001Y-120775463D01*
X124905652Y-120739652D01*
X125025481Y-120670469D01*
X125123321Y-120572629D01*
X125192504Y-120452800D01*
X125228315Y-120319149D01*
X125228316Y-120319149D01*
X125228316Y-120180779D01*
X125228315Y-120180778D01*
X125218191Y-120142996D01*
X125192504Y-120047128D01*
X125123321Y-119927299D01*
X125025481Y-119829459D01*
X124905652Y-119760276D01*
X124905647Y-119760274D01*
X124772001Y-119724464D01*
X124771999Y-119724464D01*
X124633633Y-119724464D01*
X124633631Y-119724464D01*
X124499984Y-119760274D01*
X124499977Y-119760277D01*
X124444884Y-119792084D01*
X124388732Y-119799475D01*
X124370887Y-119792084D01*
X124328697Y-119767726D01*
X124328693Y-119767725D01*
X124328692Y-119767724D01*
X124195046Y-119731914D01*
X124195044Y-119731914D01*
X124056678Y-119731914D01*
X124056676Y-119731914D01*
X123923029Y-119767724D01*
X123923026Y-119767725D01*
X123923025Y-119767726D01*
X123862899Y-119802439D01*
X123856350Y-119806220D01*
X123800197Y-119813611D01*
X123782352Y-119806219D01*
X123702840Y-119760314D01*
X123702831Y-119760310D01*
X123569185Y-119724500D01*
X123569183Y-119724500D01*
X123430817Y-119724500D01*
X123430815Y-119724500D01*
X123297168Y-119760310D01*
X123297162Y-119760313D01*
X123212000Y-119809481D01*
X123155847Y-119816873D01*
X123138000Y-119809481D01*
X123107051Y-119791613D01*
X123052836Y-119760312D01*
X123052833Y-119760311D01*
X123052831Y-119760310D01*
X122919185Y-119724500D01*
X122919183Y-119724500D01*
X122780817Y-119724500D01*
X122780815Y-119724500D01*
X122647168Y-119760310D01*
X122647159Y-119760314D01*
X122586999Y-119795047D01*
X122577086Y-119796351D01*
X122569154Y-119802439D01*
X122549998Y-119799917D01*
X122530846Y-119802439D01*
X122513001Y-119795048D01*
X122507867Y-119792084D01*
X122477672Y-119774651D01*
X122443195Y-119729720D01*
X122450586Y-119673567D01*
X122477672Y-119646481D01*
X122522665Y-119620505D01*
X122620505Y-119522665D01*
X122689688Y-119402836D01*
X122725499Y-119269185D01*
X122725500Y-119269185D01*
X122725500Y-119130815D01*
X122725499Y-119130814D01*
X122706645Y-119060451D01*
X122689688Y-118997164D01*
X122620505Y-118877335D01*
X122522665Y-118779495D01*
X122402836Y-118710312D01*
X122402831Y-118710310D01*
X122269185Y-118674500D01*
X122269183Y-118674500D01*
X122130817Y-118674500D01*
X122130815Y-118674500D01*
X121997168Y-118710310D01*
X121997163Y-118710312D01*
X121877334Y-118779495D01*
X121779495Y-118877334D01*
X121763586Y-118904890D01*
X121718652Y-118939369D01*
X121662500Y-118931976D01*
X121628021Y-118887042D01*
X121625500Y-118867890D01*
X121625500Y-118730815D01*
X121625499Y-118730814D01*
X121607179Y-118662444D01*
X121589688Y-118597164D01*
X121534500Y-118501576D01*
X124651342Y-118501576D01*
X124651342Y-118639947D01*
X124687152Y-118773593D01*
X124687154Y-118773598D01*
X124756337Y-118893427D01*
X124854177Y-118991267D01*
X124974006Y-119060450D01*
X125107656Y-119096261D01*
X125107657Y-119096262D01*
X125107659Y-119096262D01*
X125246027Y-119096262D01*
X125246027Y-119096261D01*
X125379678Y-119060450D01*
X125499507Y-118991267D01*
X125597347Y-118893427D01*
X125666530Y-118773598D01*
X125702341Y-118639947D01*
X125702342Y-118639947D01*
X125702342Y-118501577D01*
X125702341Y-118501576D01*
X125695845Y-118477334D01*
X125666530Y-118367926D01*
X125597347Y-118248097D01*
X125499507Y-118150257D01*
X125425487Y-118107522D01*
X126449500Y-118107522D01*
X126449500Y-118252477D01*
X126487014Y-118392481D01*
X126487016Y-118392486D01*
X126533956Y-118473787D01*
X126559491Y-118518015D01*
X126661985Y-118620509D01*
X126787515Y-118692984D01*
X126787516Y-118692984D01*
X126787518Y-118692985D01*
X126852176Y-118710310D01*
X126927522Y-118730499D01*
X126927523Y-118730500D01*
X126927525Y-118730500D01*
X127072477Y-118730500D01*
X127072477Y-118730499D01*
X127212485Y-118692984D01*
X127338015Y-118620509D01*
X127440509Y-118518015D01*
X127450068Y-118501459D01*
X129799500Y-118501459D01*
X129799500Y-118698541D01*
X129805857Y-118730499D01*
X129837947Y-118891829D01*
X129837950Y-118891839D01*
X129913367Y-119073913D01*
X129952253Y-119132109D01*
X130022861Y-119237782D01*
X130162218Y-119377139D01*
X130326086Y-119486632D01*
X130508165Y-119562051D01*
X130701459Y-119600500D01*
X130701461Y-119600500D01*
X130898539Y-119600500D01*
X130898541Y-119600500D01*
X131091835Y-119562051D01*
X131273914Y-119486632D01*
X131329556Y-119449453D01*
X132689500Y-119449453D01*
X132689500Y-119630546D01*
X132717828Y-119809406D01*
X132717831Y-119809419D01*
X132773787Y-119981635D01*
X132773788Y-119981638D01*
X132773789Y-119981639D01*
X132807175Y-120047163D01*
X132856005Y-120142995D01*
X132856005Y-120142996D01*
X132883456Y-120180779D01*
X132962447Y-120289501D01*
X133090499Y-120417553D01*
X133237006Y-120523996D01*
X133398361Y-120606211D01*
X133398364Y-120606212D01*
X133398363Y-120606212D01*
X133570580Y-120662168D01*
X133570586Y-120662169D01*
X133570591Y-120662171D01*
X133682099Y-120679832D01*
X133749453Y-120690500D01*
X133749454Y-120690500D01*
X133930547Y-120690500D01*
X133997901Y-120679832D01*
X134109409Y-120662171D01*
X134109416Y-120662168D01*
X134109419Y-120662168D01*
X134187601Y-120636765D01*
X134281639Y-120606211D01*
X134442994Y-120523996D01*
X134589501Y-120417553D01*
X134717553Y-120289501D01*
X134823996Y-120142994D01*
X134906211Y-119981639D01*
X134954886Y-119831830D01*
X134962168Y-119809419D01*
X134962168Y-119809416D01*
X134962171Y-119809409D01*
X134990500Y-119630546D01*
X134990500Y-119449454D01*
X134962171Y-119270591D01*
X134962169Y-119270586D01*
X134962168Y-119270580D01*
X134906212Y-119098364D01*
X134906211Y-119098363D01*
X134906211Y-119098361D01*
X134823996Y-118937006D01*
X134717553Y-118790499D01*
X134589501Y-118662447D01*
X134489355Y-118589687D01*
X134442996Y-118556005D01*
X134281635Y-118473787D01*
X134281636Y-118473787D01*
X134109419Y-118417831D01*
X134109406Y-118417828D01*
X133930547Y-118389500D01*
X133930546Y-118389500D01*
X133749454Y-118389500D01*
X133749453Y-118389500D01*
X133570593Y-118417828D01*
X133570580Y-118417831D01*
X133398364Y-118473787D01*
X133237004Y-118556005D01*
X133237003Y-118556005D01*
X133090503Y-118662444D01*
X133090499Y-118662447D01*
X132962447Y-118790499D01*
X132962444Y-118790502D01*
X132962444Y-118790503D01*
X132856005Y-118937003D01*
X132856005Y-118937004D01*
X132773787Y-119098364D01*
X132717831Y-119270580D01*
X132717828Y-119270593D01*
X132689500Y-119449453D01*
X131329556Y-119449453D01*
X131437782Y-119377139D01*
X131577139Y-119237782D01*
X131686632Y-119073914D01*
X131762051Y-118891835D01*
X131800500Y-118698541D01*
X131800500Y-118501459D01*
X131762051Y-118308165D01*
X131738984Y-118252477D01*
X131686632Y-118126086D01*
X131577139Y-117962218D01*
X131437781Y-117822860D01*
X131273913Y-117713367D01*
X131091839Y-117637950D01*
X131091829Y-117637947D01*
X130942811Y-117608306D01*
X130898541Y-117599500D01*
X130701459Y-117599500D01*
X130657189Y-117608306D01*
X130508170Y-117637947D01*
X130508160Y-117637950D01*
X130326086Y-117713367D01*
X130162218Y-117822860D01*
X130162217Y-117822862D01*
X130022862Y-117962217D01*
X130022860Y-117962218D01*
X129913367Y-118126086D01*
X129837950Y-118308160D01*
X129837947Y-118308170D01*
X129821176Y-118392486D01*
X129799500Y-118501459D01*
X127450068Y-118501459D01*
X127512984Y-118392485D01*
X127550499Y-118252477D01*
X127550500Y-118252477D01*
X127550500Y-118107523D01*
X127550499Y-118107522D01*
X127512985Y-117967518D01*
X127512983Y-117967513D01*
X127440508Y-117841984D01*
X127338015Y-117739491D01*
X127212486Y-117667016D01*
X127212481Y-117667014D01*
X127072477Y-117629500D01*
X127072475Y-117629500D01*
X126927525Y-117629500D01*
X126927523Y-117629500D01*
X126787518Y-117667014D01*
X126787513Y-117667016D01*
X126661984Y-117739491D01*
X126559491Y-117841984D01*
X126487016Y-117967513D01*
X126487014Y-117967518D01*
X126449500Y-118107522D01*
X125425487Y-118107522D01*
X125379678Y-118081074D01*
X125379673Y-118081072D01*
X125246027Y-118045262D01*
X125246025Y-118045262D01*
X125107659Y-118045262D01*
X125107657Y-118045262D01*
X124974010Y-118081072D01*
X124974005Y-118081074D01*
X124854176Y-118150257D01*
X124756337Y-118248096D01*
X124687154Y-118367925D01*
X124687152Y-118367930D01*
X124651342Y-118501576D01*
X121534500Y-118501576D01*
X121520505Y-118477335D01*
X121422665Y-118379495D01*
X121302836Y-118310312D01*
X121302831Y-118310310D01*
X121169185Y-118274500D01*
X121169183Y-118274500D01*
X121030817Y-118274500D01*
X121030816Y-118274500D01*
X121010754Y-118279875D01*
X120954601Y-118272481D01*
X120920124Y-118227547D01*
X120920125Y-118189242D01*
X120925500Y-118169184D01*
X120925500Y-118030815D01*
X120925499Y-118030814D01*
X120889689Y-117897168D01*
X120889688Y-117897164D01*
X120820505Y-117777335D01*
X120722665Y-117679495D01*
X120650705Y-117637949D01*
X120602838Y-117610313D01*
X120602837Y-117610312D01*
X120602836Y-117610312D01*
X120595345Y-117608304D01*
X120550414Y-117573827D01*
X120540500Y-117536827D01*
X120540500Y-117230814D01*
X125274500Y-117230814D01*
X125274500Y-117369185D01*
X125310310Y-117502831D01*
X125310312Y-117502836D01*
X125379495Y-117622665D01*
X125477335Y-117720505D01*
X125597164Y-117789688D01*
X125730814Y-117825499D01*
X125730815Y-117825500D01*
X125730817Y-117825500D01*
X125869185Y-117825500D01*
X125869185Y-117825499D01*
X126002836Y-117789688D01*
X126122665Y-117720505D01*
X126220505Y-117622665D01*
X126289688Y-117502836D01*
X126325499Y-117369185D01*
X126325500Y-117369185D01*
X126325500Y-117230815D01*
X126325499Y-117230814D01*
X126289689Y-117097168D01*
X126289688Y-117097164D01*
X126220505Y-116977335D01*
X126122665Y-116879495D01*
X126002836Y-116810312D01*
X126002831Y-116810310D01*
X125869185Y-116774500D01*
X125869183Y-116774500D01*
X125730817Y-116774500D01*
X125730815Y-116774500D01*
X125597168Y-116810310D01*
X125597163Y-116810312D01*
X125477334Y-116879495D01*
X125379495Y-116977334D01*
X125310312Y-117097163D01*
X125310310Y-117097168D01*
X125274500Y-117230814D01*
X120540500Y-117230814D01*
X120540500Y-116138848D01*
X120562173Y-116086523D01*
X120684928Y-115963767D01*
X120737254Y-115942094D01*
X120789580Y-115963768D01*
X120808732Y-115996941D01*
X120810310Y-116002832D01*
X120810312Y-116002837D01*
X120821406Y-116022052D01*
X120879495Y-116122665D01*
X120977335Y-116220505D01*
X121097164Y-116289688D01*
X121230814Y-116325499D01*
X121230815Y-116325500D01*
X121230817Y-116325500D01*
X121369185Y-116325500D01*
X121369185Y-116325499D01*
X121502836Y-116289688D01*
X121613002Y-116226083D01*
X121669152Y-116218691D01*
X121686993Y-116226081D01*
X121797164Y-116289688D01*
X121930814Y-116325499D01*
X121930815Y-116325500D01*
X121930817Y-116325500D01*
X122069185Y-116325500D01*
X122069185Y-116325499D01*
X122202836Y-116289688D01*
X122268028Y-116252048D01*
X122324180Y-116244656D01*
X122342028Y-116252049D01*
X122420211Y-116297188D01*
X122553861Y-116332999D01*
X122553862Y-116333000D01*
X122553864Y-116333000D01*
X122692232Y-116333000D01*
X122692232Y-116332999D01*
X122825883Y-116297188D01*
X122825885Y-116297186D01*
X122825887Y-116297186D01*
X122881017Y-116265356D01*
X122937170Y-116257962D01*
X122955018Y-116265355D01*
X122997164Y-116289688D01*
X123130814Y-116325499D01*
X123130815Y-116325500D01*
X123130817Y-116325500D01*
X123269185Y-116325500D01*
X123269185Y-116325499D01*
X123402836Y-116289688D01*
X123451501Y-116261590D01*
X123507652Y-116254197D01*
X123525495Y-116261587D01*
X123574167Y-116289688D01*
X123707817Y-116325499D01*
X123707818Y-116325500D01*
X123707820Y-116325500D01*
X123846188Y-116325500D01*
X123846188Y-116325499D01*
X123979839Y-116289688D01*
X124099668Y-116220505D01*
X124099674Y-116220498D01*
X124101637Y-116218993D01*
X124102851Y-116218667D01*
X124103869Y-116218080D01*
X124104026Y-116218352D01*
X124156342Y-116204327D01*
X124183689Y-116213607D01*
X124272164Y-116264688D01*
X124405814Y-116300499D01*
X124405815Y-116300500D01*
X124405817Y-116300500D01*
X124544185Y-116300500D01*
X124544185Y-116300499D01*
X124677836Y-116264688D01*
X124797665Y-116195505D01*
X124835174Y-116157994D01*
X124887498Y-116136321D01*
X124939824Y-116157994D01*
X125002335Y-116220505D01*
X125122164Y-116289688D01*
X125255814Y-116325499D01*
X125255815Y-116325500D01*
X125255817Y-116325500D01*
X125394185Y-116325500D01*
X125394185Y-116325499D01*
X125527836Y-116289688D01*
X125613001Y-116240517D01*
X125669153Y-116233125D01*
X125686995Y-116240516D01*
X125772164Y-116289688D01*
X125905814Y-116325499D01*
X125905815Y-116325500D01*
X125905817Y-116325500D01*
X126044185Y-116325500D01*
X126044185Y-116325499D01*
X126133901Y-116301460D01*
X129799500Y-116301460D01*
X129799500Y-116498539D01*
X129837947Y-116691829D01*
X129837950Y-116691839D01*
X129913367Y-116873913D01*
X129982472Y-116977335D01*
X130022861Y-117037782D01*
X130162218Y-117177139D01*
X130326086Y-117286632D01*
X130508165Y-117362051D01*
X130701459Y-117400500D01*
X130701461Y-117400500D01*
X130898539Y-117400500D01*
X130898541Y-117400500D01*
X131091835Y-117362051D01*
X131273914Y-117286632D01*
X131437782Y-117177139D01*
X131577139Y-117037782D01*
X131662886Y-116909453D01*
X132689500Y-116909453D01*
X132689500Y-117090546D01*
X132717828Y-117269406D01*
X132717831Y-117269419D01*
X132773787Y-117441635D01*
X132773788Y-117441638D01*
X132773789Y-117441639D01*
X132851222Y-117593609D01*
X132856005Y-117602995D01*
X132856005Y-117602996D01*
X132881399Y-117637947D01*
X132962447Y-117749501D01*
X133090499Y-117877553D01*
X133237006Y-117983996D01*
X133398361Y-118066211D01*
X133398364Y-118066212D01*
X133398363Y-118066212D01*
X133570580Y-118122168D01*
X133570586Y-118122169D01*
X133570591Y-118122171D01*
X133689833Y-118141057D01*
X133749453Y-118150500D01*
X133749454Y-118150500D01*
X133930547Y-118150500D01*
X133975261Y-118143417D01*
X134109409Y-118122171D01*
X134109416Y-118122168D01*
X134109419Y-118122168D01*
X134187601Y-118096765D01*
X134281639Y-118066211D01*
X134442994Y-117983996D01*
X134589501Y-117877553D01*
X134717553Y-117749501D01*
X134823996Y-117602994D01*
X134906211Y-117441639D01*
X134962171Y-117269409D01*
X134990500Y-117090546D01*
X134990500Y-116909454D01*
X134962171Y-116730591D01*
X134962169Y-116730586D01*
X134962168Y-116730580D01*
X134906212Y-116558364D01*
X134906211Y-116558363D01*
X134906211Y-116558361D01*
X134823996Y-116397006D01*
X134717553Y-116250499D01*
X134589501Y-116122447D01*
X134504128Y-116060420D01*
X134442996Y-116016005D01*
X134281635Y-115933787D01*
X134281636Y-115933787D01*
X134109419Y-115877831D01*
X134109406Y-115877828D01*
X133930547Y-115849500D01*
X133930546Y-115849500D01*
X133749454Y-115849500D01*
X133749453Y-115849500D01*
X133570593Y-115877828D01*
X133570580Y-115877831D01*
X133398364Y-115933787D01*
X133237004Y-116016005D01*
X133237003Y-116016005D01*
X133090503Y-116122444D01*
X133090499Y-116122447D01*
X132962447Y-116250499D01*
X132962444Y-116250502D01*
X132962444Y-116250503D01*
X132856005Y-116397003D01*
X132856005Y-116397004D01*
X132773787Y-116558364D01*
X132717831Y-116730580D01*
X132717828Y-116730593D01*
X132689500Y-116909453D01*
X131662886Y-116909453D01*
X131686632Y-116873914D01*
X131762051Y-116691835D01*
X131800500Y-116498541D01*
X131800500Y-116301459D01*
X131762051Y-116108165D01*
X131686632Y-115926086D01*
X131577139Y-115762218D01*
X131437782Y-115622861D01*
X131419283Y-115610500D01*
X131273913Y-115513367D01*
X131091839Y-115437950D01*
X131091829Y-115437947D01*
X130962388Y-115412200D01*
X130898541Y-115399500D01*
X130701459Y-115399500D01*
X130646662Y-115410399D01*
X130508170Y-115437947D01*
X130508160Y-115437950D01*
X130326086Y-115513367D01*
X130162218Y-115622860D01*
X130162217Y-115622862D01*
X130022862Y-115762217D01*
X130022860Y-115762218D01*
X129913367Y-115926086D01*
X129837950Y-116108160D01*
X129837947Y-116108170D01*
X129807430Y-116261591D01*
X129800350Y-116297189D01*
X129799500Y-116301460D01*
X126133901Y-116301460D01*
X126177836Y-116289688D01*
X126297665Y-116220505D01*
X126395505Y-116122665D01*
X126464688Y-116002836D01*
X126500499Y-115869185D01*
X126500500Y-115869185D01*
X126500500Y-115730815D01*
X126500499Y-115730814D01*
X126464689Y-115597168D01*
X126464688Y-115597164D01*
X126395505Y-115477335D01*
X126297665Y-115379495D01*
X126177836Y-115310312D01*
X126177831Y-115310310D01*
X126044185Y-115274500D01*
X126044183Y-115274500D01*
X125905817Y-115274500D01*
X125905815Y-115274500D01*
X125772168Y-115310310D01*
X125772162Y-115310313D01*
X125687000Y-115359481D01*
X125630847Y-115366873D01*
X125613000Y-115359481D01*
X125575010Y-115337548D01*
X125527836Y-115310312D01*
X125527833Y-115310311D01*
X125527831Y-115310310D01*
X125394185Y-115274500D01*
X125394183Y-115274500D01*
X125255817Y-115274500D01*
X125255815Y-115274500D01*
X125122168Y-115310310D01*
X125122163Y-115310312D01*
X125002334Y-115379495D01*
X124964824Y-115417005D01*
X124912498Y-115438678D01*
X124860174Y-115417004D01*
X124797665Y-115354495D01*
X124677836Y-115285312D01*
X124677831Y-115285310D01*
X124544185Y-115249500D01*
X124544183Y-115249500D01*
X124405817Y-115249500D01*
X124405815Y-115249500D01*
X124272168Y-115285310D01*
X124272163Y-115285312D01*
X124152333Y-115354496D01*
X124150355Y-115356014D01*
X124149140Y-115356339D01*
X124148135Y-115356920D01*
X124147979Y-115356650D01*
X124095647Y-115370670D01*
X124068309Y-115361390D01*
X124065503Y-115359770D01*
X123979839Y-115310312D01*
X123979836Y-115310311D01*
X123979834Y-115310310D01*
X123846188Y-115274500D01*
X123846186Y-115274500D01*
X123707820Y-115274500D01*
X123707818Y-115274500D01*
X123574171Y-115310310D01*
X123574164Y-115310313D01*
X123525499Y-115338409D01*
X123469347Y-115345800D01*
X123451502Y-115338409D01*
X123450011Y-115337548D01*
X123402836Y-115310312D01*
X123402832Y-115310311D01*
X123402831Y-115310310D01*
X123269185Y-115274500D01*
X123269183Y-115274500D01*
X123130817Y-115274500D01*
X123130815Y-115274500D01*
X122997168Y-115310310D01*
X122997159Y-115310314D01*
X122942027Y-115342144D01*
X122885874Y-115349536D01*
X122868029Y-115342144D01*
X122825887Y-115317814D01*
X122825878Y-115317810D01*
X122692232Y-115282000D01*
X122692230Y-115282000D01*
X122553864Y-115282000D01*
X122553862Y-115282000D01*
X122420215Y-115317810D01*
X122420212Y-115317811D01*
X122420211Y-115317812D01*
X122365262Y-115349536D01*
X122355017Y-115355451D01*
X122298864Y-115362842D01*
X122281018Y-115355450D01*
X122251502Y-115338409D01*
X122202836Y-115310312D01*
X122202833Y-115310311D01*
X122202831Y-115310310D01*
X122069185Y-115274500D01*
X122069183Y-115274500D01*
X121930817Y-115274500D01*
X121930815Y-115274500D01*
X121797168Y-115310310D01*
X121797163Y-115310312D01*
X121687000Y-115373915D01*
X121630847Y-115381307D01*
X121613000Y-115373915D01*
X121502837Y-115310312D01*
X121500956Y-115309808D01*
X121496939Y-115308732D01*
X121452008Y-115274255D01*
X121444614Y-115218102D01*
X121463765Y-115184930D01*
X122279243Y-114369453D01*
X132689500Y-114369453D01*
X132689500Y-114550546D01*
X132717828Y-114729406D01*
X132717831Y-114729419D01*
X132773787Y-114901635D01*
X132773788Y-114901638D01*
X132773789Y-114901639D01*
X132856004Y-115062994D01*
X132962447Y-115209501D01*
X133090499Y-115337553D01*
X133237006Y-115443996D01*
X133398361Y-115526211D01*
X133398364Y-115526212D01*
X133398363Y-115526212D01*
X133570580Y-115582168D01*
X133570586Y-115582169D01*
X133570591Y-115582171D01*
X133665279Y-115597168D01*
X133749453Y-115610500D01*
X133749454Y-115610500D01*
X133930547Y-115610500D01*
X133975261Y-115603417D01*
X134109409Y-115582171D01*
X134109416Y-115582168D01*
X134109419Y-115582168D01*
X134187601Y-115556765D01*
X134281639Y-115526211D01*
X134442994Y-115443996D01*
X134589501Y-115337553D01*
X134717553Y-115209501D01*
X134823996Y-115062994D01*
X134906211Y-114901639D01*
X134962171Y-114729409D01*
X134990500Y-114550546D01*
X134990500Y-114369454D01*
X134962171Y-114190591D01*
X134962169Y-114190586D01*
X134962168Y-114190580D01*
X134906212Y-114018364D01*
X134906211Y-114018363D01*
X134906211Y-114018361D01*
X134823996Y-113857006D01*
X134717553Y-113710499D01*
X134589501Y-113582447D01*
X134497451Y-113515569D01*
X134442996Y-113476005D01*
X134281635Y-113393787D01*
X134281636Y-113393787D01*
X134109419Y-113337831D01*
X134109406Y-113337828D01*
X133930547Y-113309500D01*
X133930546Y-113309500D01*
X133749454Y-113309500D01*
X133749453Y-113309500D01*
X133570593Y-113337828D01*
X133570580Y-113337831D01*
X133398364Y-113393787D01*
X133237004Y-113476005D01*
X133237003Y-113476005D01*
X133131416Y-113552719D01*
X133090499Y-113582447D01*
X132962447Y-113710499D01*
X132962444Y-113710502D01*
X132962444Y-113710503D01*
X132856005Y-113857003D01*
X132856005Y-113857004D01*
X132773787Y-114018364D01*
X132717831Y-114190580D01*
X132717828Y-114190593D01*
X132689500Y-114369453D01*
X122279243Y-114369453D01*
X123586523Y-113062174D01*
X123638849Y-113040500D01*
X125336827Y-113040500D01*
X125389153Y-113062174D01*
X125408304Y-113095344D01*
X125410311Y-113102831D01*
X125410313Y-113102838D01*
X125479495Y-113222665D01*
X125577335Y-113320505D01*
X125697164Y-113389688D01*
X125830814Y-113425499D01*
X125830815Y-113425500D01*
X125830817Y-113425500D01*
X125969185Y-113425500D01*
X125969185Y-113425499D01*
X126102836Y-113389688D01*
X126222665Y-113320505D01*
X126320505Y-113222665D01*
X126389688Y-113102836D01*
X126425499Y-112969185D01*
X126425500Y-112969185D01*
X126425500Y-112873559D01*
X126447174Y-112821233D01*
X126499500Y-112799559D01*
X126551824Y-112821232D01*
X126634586Y-112903994D01*
X126692090Y-112961498D01*
X126692093Y-112961500D01*
X126727099Y-112976000D01*
X126762108Y-112990501D01*
X126762109Y-112990501D01*
X126846505Y-112990501D01*
X126846513Y-112990500D01*
X128431599Y-112990500D01*
X128483925Y-113012174D01*
X128495684Y-113027499D01*
X128559491Y-113138015D01*
X128661985Y-113240509D01*
X128753876Y-113293563D01*
X128781480Y-113309500D01*
X128787515Y-113312984D01*
X128787516Y-113312984D01*
X128787518Y-113312985D01*
X128815583Y-113320505D01*
X128927522Y-113350499D01*
X128927523Y-113350500D01*
X128927525Y-113350500D01*
X129072477Y-113350500D01*
X129072477Y-113350499D01*
X129212485Y-113312984D01*
X129338015Y-113240509D01*
X129440509Y-113138015D01*
X129512984Y-113012485D01*
X129550499Y-112872477D01*
X129550500Y-112872477D01*
X129550500Y-112727523D01*
X129550499Y-112727522D01*
X129512985Y-112587518D01*
X129512983Y-112587513D01*
X129440508Y-112461984D01*
X129355350Y-112376826D01*
X129333676Y-112324500D01*
X129355350Y-112272174D01*
X129407676Y-112250500D01*
X130623130Y-112250500D01*
X130623136Y-112250500D01*
X130696125Y-112239866D01*
X130808711Y-112184826D01*
X130897326Y-112096211D01*
X130952366Y-111983625D01*
X130963000Y-111910636D01*
X130963000Y-111829453D01*
X132689500Y-111829453D01*
X132689500Y-112010546D01*
X132717828Y-112189406D01*
X132717831Y-112189419D01*
X132773787Y-112361635D01*
X132773788Y-112361638D01*
X132773789Y-112361639D01*
X132856004Y-112522994D01*
X132962447Y-112669501D01*
X133090499Y-112797553D01*
X133237006Y-112903996D01*
X133398361Y-112986211D01*
X133398364Y-112986212D01*
X133398363Y-112986212D01*
X133570580Y-113042168D01*
X133570586Y-113042169D01*
X133570591Y-113042171D01*
X133689833Y-113061057D01*
X133749453Y-113070500D01*
X133749454Y-113070500D01*
X133930547Y-113070500D01*
X133975261Y-113063417D01*
X134109409Y-113042171D01*
X134109416Y-113042168D01*
X134109419Y-113042168D01*
X134187601Y-113016765D01*
X134281639Y-112986211D01*
X134442994Y-112903996D01*
X134589501Y-112797553D01*
X134717553Y-112669501D01*
X134823996Y-112522994D01*
X134906211Y-112361639D01*
X134962171Y-112189409D01*
X134990500Y-112010546D01*
X134990500Y-111829454D01*
X134989715Y-111824500D01*
X134976311Y-111739866D01*
X134962171Y-111650591D01*
X134962169Y-111650586D01*
X134962168Y-111650580D01*
X134906212Y-111478364D01*
X134906211Y-111478363D01*
X134906211Y-111478361D01*
X134823996Y-111317006D01*
X134816999Y-111307376D01*
X134767928Y-111239835D01*
X134717553Y-111170499D01*
X134589501Y-111042447D01*
X134497451Y-110975569D01*
X134442996Y-110936005D01*
X134281635Y-110853787D01*
X134281636Y-110853787D01*
X134109419Y-110797831D01*
X134109406Y-110797828D01*
X133930547Y-110769500D01*
X133930546Y-110769500D01*
X133749454Y-110769500D01*
X133749453Y-110769500D01*
X133570593Y-110797828D01*
X133570580Y-110797831D01*
X133398364Y-110853787D01*
X133237004Y-110936005D01*
X133237003Y-110936005D01*
X133124834Y-111017501D01*
X133090499Y-111042447D01*
X132962447Y-111170499D01*
X132962444Y-111170502D01*
X132962444Y-111170503D01*
X132856005Y-111317003D01*
X132856005Y-111317004D01*
X132773787Y-111478364D01*
X132717831Y-111650580D01*
X132717828Y-111650593D01*
X132689500Y-111829453D01*
X130963000Y-111829453D01*
X130963000Y-111728847D01*
X130984673Y-111676522D01*
X132069178Y-110592016D01*
X132069181Y-110592015D01*
X132079586Y-110581610D01*
X132079587Y-110581610D01*
X132119111Y-110542086D01*
X132132933Y-110508716D01*
X132140501Y-110490447D01*
X132140501Y-110434551D01*
X132140500Y-110434548D01*
X132140500Y-109289453D01*
X132689500Y-109289453D01*
X132689500Y-109470546D01*
X132717828Y-109649406D01*
X132717831Y-109649419D01*
X132773787Y-109821635D01*
X132773788Y-109821638D01*
X132773789Y-109821639D01*
X132856003Y-109982993D01*
X132856005Y-109982995D01*
X132856005Y-109982996D01*
X132900420Y-110044128D01*
X132962447Y-110129501D01*
X133090499Y-110257553D01*
X133237006Y-110363996D01*
X133398361Y-110446211D01*
X133398364Y-110446212D01*
X133398363Y-110446212D01*
X133570580Y-110502168D01*
X133570586Y-110502169D01*
X133570591Y-110502171D01*
X133670917Y-110518061D01*
X133749453Y-110530500D01*
X133749454Y-110530500D01*
X133930547Y-110530500D01*
X133975261Y-110523417D01*
X134109409Y-110502171D01*
X134109416Y-110502168D01*
X134109419Y-110502168D01*
X134187601Y-110476765D01*
X134281639Y-110446211D01*
X134442994Y-110363996D01*
X134589501Y-110257553D01*
X134717553Y-110129501D01*
X134823996Y-109982994D01*
X134906211Y-109821639D01*
X134949191Y-109689359D01*
X134962168Y-109649419D01*
X134962168Y-109649416D01*
X134962171Y-109649409D01*
X134990500Y-109470546D01*
X134990500Y-109289454D01*
X134989766Y-109284822D01*
X134974647Y-109189364D01*
X134962171Y-109110591D01*
X134962169Y-109110586D01*
X134962168Y-109110580D01*
X134906212Y-108938364D01*
X134906211Y-108938363D01*
X134906211Y-108938361D01*
X134823996Y-108777006D01*
X134717553Y-108630499D01*
X134589501Y-108502447D01*
X134469828Y-108415500D01*
X134442996Y-108396005D01*
X134336770Y-108341880D01*
X134281639Y-108313789D01*
X134281638Y-108313788D01*
X134281635Y-108313787D01*
X134281636Y-108313787D01*
X134109419Y-108257831D01*
X134109406Y-108257828D01*
X133930547Y-108229500D01*
X133930546Y-108229500D01*
X133749454Y-108229500D01*
X133749453Y-108229500D01*
X133570593Y-108257828D01*
X133570580Y-108257831D01*
X133398364Y-108313787D01*
X133237004Y-108396005D01*
X133237003Y-108396005D01*
X133108060Y-108489688D01*
X133090499Y-108502447D01*
X132962447Y-108630499D01*
X132962444Y-108630502D01*
X132962444Y-108630503D01*
X132856005Y-108777003D01*
X132856005Y-108777004D01*
X132773787Y-108938364D01*
X132717831Y-109110580D01*
X132717828Y-109110593D01*
X132689500Y-109289453D01*
X132140500Y-109289453D01*
X132140500Y-106749453D01*
X132689500Y-106749453D01*
X132689500Y-106930546D01*
X132717828Y-107109406D01*
X132717831Y-107109419D01*
X132773787Y-107281635D01*
X132773788Y-107281638D01*
X132773789Y-107281639D01*
X132845722Y-107422815D01*
X132856005Y-107442995D01*
X132856005Y-107442996D01*
X132875991Y-107470504D01*
X132962447Y-107589501D01*
X133090499Y-107717553D01*
X133237006Y-107823996D01*
X133398361Y-107906211D01*
X133398364Y-107906212D01*
X133398363Y-107906212D01*
X133570580Y-107962168D01*
X133570586Y-107962169D01*
X133570591Y-107962171D01*
X133688513Y-107980848D01*
X133749453Y-107990500D01*
X133749454Y-107990500D01*
X133930547Y-107990500D01*
X133975261Y-107983417D01*
X134109409Y-107962171D01*
X134109416Y-107962168D01*
X134109419Y-107962168D01*
X134242290Y-107918996D01*
X134281639Y-107906211D01*
X134442994Y-107823996D01*
X134589501Y-107717553D01*
X134717553Y-107589501D01*
X134823996Y-107442994D01*
X134906211Y-107281639D01*
X134958995Y-107119185D01*
X134962168Y-107109419D01*
X134962168Y-107109416D01*
X134962171Y-107109409D01*
X134990500Y-106930546D01*
X134990500Y-106749454D01*
X134962171Y-106570591D01*
X134962169Y-106570586D01*
X134962168Y-106570580D01*
X134906212Y-106398364D01*
X134906211Y-106398363D01*
X134906211Y-106398361D01*
X134823996Y-106237006D01*
X134717553Y-106090499D01*
X134589501Y-105962447D01*
X134473035Y-105877830D01*
X134442996Y-105856005D01*
X134371646Y-105819650D01*
X134281639Y-105773789D01*
X134281638Y-105773788D01*
X134281635Y-105773787D01*
X134281636Y-105773787D01*
X134109419Y-105717831D01*
X134109406Y-105717828D01*
X133930547Y-105689500D01*
X133930546Y-105689500D01*
X133749454Y-105689500D01*
X133749453Y-105689500D01*
X133570593Y-105717828D01*
X133570580Y-105717831D01*
X133398364Y-105773787D01*
X133237004Y-105856005D01*
X133237003Y-105856005D01*
X133134034Y-105930817D01*
X133090499Y-105962447D01*
X132962447Y-106090499D01*
X132962444Y-106090502D01*
X132962444Y-106090503D01*
X132856005Y-106237003D01*
X132856005Y-106237004D01*
X132773787Y-106398364D01*
X132717831Y-106570580D01*
X132717828Y-106570593D01*
X132689500Y-106749453D01*
X132140500Y-106749453D01*
X132140500Y-104209453D01*
X132689500Y-104209453D01*
X132689500Y-104390546D01*
X132717828Y-104569406D01*
X132717831Y-104569419D01*
X132773787Y-104741635D01*
X132773788Y-104741638D01*
X132773789Y-104741639D01*
X132849224Y-104889688D01*
X132856005Y-104902995D01*
X132856005Y-104902996D01*
X132870594Y-104923076D01*
X132962447Y-105049501D01*
X133090499Y-105177553D01*
X133237006Y-105283996D01*
X133398361Y-105366211D01*
X133398364Y-105366212D01*
X133398363Y-105366212D01*
X133570580Y-105422168D01*
X133570586Y-105422169D01*
X133570591Y-105422171D01*
X133686316Y-105440500D01*
X133749453Y-105450500D01*
X133749454Y-105450500D01*
X133930547Y-105450500D01*
X133983708Y-105442080D01*
X134109409Y-105422171D01*
X134109416Y-105422168D01*
X134109419Y-105422168D01*
X134233472Y-105381861D01*
X134281639Y-105366211D01*
X134442994Y-105283996D01*
X134589501Y-105177553D01*
X134717553Y-105049501D01*
X134823996Y-104902994D01*
X134906211Y-104741639D01*
X134954059Y-104594376D01*
X134962168Y-104569419D01*
X134962168Y-104569416D01*
X134962171Y-104569409D01*
X134990500Y-104390546D01*
X134990500Y-104209454D01*
X134989715Y-104204500D01*
X134972715Y-104097164D01*
X134962171Y-104030591D01*
X134962169Y-104030586D01*
X134962168Y-104030580D01*
X134906212Y-103858364D01*
X134906211Y-103858363D01*
X134906211Y-103858361D01*
X134823996Y-103697006D01*
X134717553Y-103550499D01*
X134589501Y-103422447D01*
X134459434Y-103327948D01*
X134442996Y-103316005D01*
X134297367Y-103241803D01*
X134281639Y-103233789D01*
X134281638Y-103233788D01*
X134281635Y-103233787D01*
X134281636Y-103233787D01*
X134109419Y-103177831D01*
X134109406Y-103177828D01*
X133930547Y-103149500D01*
X133930546Y-103149500D01*
X133749454Y-103149500D01*
X133749453Y-103149500D01*
X133570593Y-103177828D01*
X133570580Y-103177831D01*
X133398364Y-103233787D01*
X133237004Y-103316005D01*
X133237003Y-103316005D01*
X133090503Y-103422444D01*
X133090499Y-103422447D01*
X132962447Y-103550499D01*
X132962444Y-103550502D01*
X132962444Y-103550503D01*
X132856005Y-103697003D01*
X132856005Y-103697004D01*
X132773787Y-103858364D01*
X132717831Y-104030580D01*
X132717828Y-104030593D01*
X132689500Y-104209453D01*
X132140500Y-104209453D01*
X132140500Y-101674024D01*
X132140501Y-101669453D01*
X132689500Y-101669453D01*
X132689500Y-101850546D01*
X132717828Y-102029406D01*
X132717831Y-102029419D01*
X132773787Y-102201635D01*
X132773788Y-102201638D01*
X132773789Y-102201639D01*
X132855472Y-102361950D01*
X132856005Y-102362995D01*
X132856005Y-102362996D01*
X132884217Y-102401826D01*
X132962447Y-102509501D01*
X133090499Y-102637553D01*
X133237006Y-102743996D01*
X133398361Y-102826211D01*
X133398364Y-102826212D01*
X133398363Y-102826212D01*
X133570580Y-102882168D01*
X133570586Y-102882169D01*
X133570591Y-102882171D01*
X133689833Y-102901057D01*
X133749453Y-102910500D01*
X133749454Y-102910500D01*
X133930547Y-102910500D01*
X133984005Y-102902033D01*
X134109409Y-102882171D01*
X134109416Y-102882168D01*
X134109419Y-102882168D01*
X134187601Y-102856765D01*
X134281639Y-102826211D01*
X134442994Y-102743996D01*
X134589501Y-102637553D01*
X134717553Y-102509501D01*
X134823996Y-102362994D01*
X134906211Y-102201639D01*
X134961009Y-102032985D01*
X134962168Y-102029419D01*
X134962168Y-102029416D01*
X134962171Y-102029409D01*
X134990500Y-101850546D01*
X134990500Y-101669454D01*
X134962171Y-101490591D01*
X134962169Y-101490586D01*
X134962168Y-101490580D01*
X134906212Y-101318364D01*
X134906211Y-101318363D01*
X134906211Y-101318361D01*
X134823996Y-101157006D01*
X134717553Y-101010499D01*
X134589501Y-100882447D01*
X134474918Y-100799198D01*
X134442996Y-100776005D01*
X134281635Y-100693787D01*
X134281636Y-100693787D01*
X134109419Y-100637831D01*
X134109406Y-100637828D01*
X133930547Y-100609500D01*
X133930546Y-100609500D01*
X133749454Y-100609500D01*
X133749453Y-100609500D01*
X133570593Y-100637828D01*
X133570580Y-100637831D01*
X133398364Y-100693787D01*
X133237004Y-100776005D01*
X133237003Y-100776005D01*
X133090503Y-100882444D01*
X133090499Y-100882447D01*
X132962447Y-101010499D01*
X132962444Y-101010502D01*
X132962444Y-101010503D01*
X132856005Y-101157003D01*
X132856005Y-101157004D01*
X132773787Y-101318364D01*
X132717831Y-101490580D01*
X132717828Y-101490593D01*
X132689500Y-101669453D01*
X132140501Y-101669453D01*
X132140501Y-101666537D01*
X132140501Y-101609552D01*
X132131723Y-101588363D01*
X132127970Y-101579303D01*
X132119111Y-101557914D01*
X132079587Y-101518390D01*
X132079585Y-101518389D01*
X130984674Y-100423478D01*
X130963000Y-100371152D01*
X130963000Y-100189370D01*
X130963000Y-100189364D01*
X130952366Y-100116375D01*
X130897326Y-100003789D01*
X130808711Y-99915174D01*
X130808710Y-99915173D01*
X130696126Y-99860134D01*
X130623140Y-99849500D01*
X130623136Y-99849500D01*
X129226864Y-99849500D01*
X129226859Y-99849500D01*
X129153874Y-99860134D01*
X129153873Y-99860134D01*
X129041289Y-99915173D01*
X128948907Y-100007556D01*
X128896581Y-100029230D01*
X128877433Y-100026710D01*
X128869183Y-100024500D01*
X128730817Y-100024500D01*
X128730815Y-100024500D01*
X128597168Y-100060310D01*
X128597163Y-100060312D01*
X128477334Y-100129495D01*
X128379495Y-100227334D01*
X128310312Y-100347163D01*
X128310310Y-100347168D01*
X128274500Y-100480814D01*
X128274500Y-100619182D01*
X128298476Y-100708665D01*
X128291083Y-100764817D01*
X128279326Y-100780140D01*
X128266335Y-100793131D01*
X128197152Y-100912961D01*
X128197150Y-100912966D01*
X128161340Y-101046612D01*
X128161340Y-101184983D01*
X128197150Y-101318629D01*
X128197153Y-101318636D01*
X128211395Y-101343305D01*
X128218786Y-101399458D01*
X128206021Y-101425345D01*
X128204497Y-101427330D01*
X128135312Y-101547163D01*
X128135310Y-101547168D01*
X128099500Y-101680814D01*
X128099500Y-101819185D01*
X128133258Y-101945170D01*
X128125866Y-102001323D01*
X128080933Y-102035801D01*
X128061780Y-102038323D01*
X127684294Y-102038323D01*
X127631968Y-102016649D01*
X127612816Y-101983476D01*
X127589689Y-101897168D01*
X127589688Y-101897164D01*
X127520505Y-101777335D01*
X127422665Y-101679495D01*
X127302836Y-101610312D01*
X127302831Y-101610310D01*
X127169185Y-101574500D01*
X127169183Y-101574500D01*
X127030817Y-101574500D01*
X127030815Y-101574500D01*
X126897168Y-101610310D01*
X126897163Y-101610312D01*
X126777334Y-101679495D01*
X126752326Y-101704504D01*
X126700000Y-101726178D01*
X126647674Y-101704504D01*
X126622665Y-101679495D01*
X126502836Y-101610312D01*
X126502831Y-101610310D01*
X126369185Y-101574500D01*
X126369183Y-101574500D01*
X126230817Y-101574500D01*
X126230815Y-101574500D01*
X126097168Y-101610310D01*
X126097163Y-101610312D01*
X125977334Y-101679495D01*
X125879495Y-101777334D01*
X125810312Y-101897163D01*
X125810310Y-101897168D01*
X125774500Y-102030814D01*
X125774500Y-102169185D01*
X125810310Y-102302831D01*
X125810312Y-102302836D01*
X125879495Y-102422665D01*
X125977335Y-102520505D01*
X126097164Y-102589688D01*
X126104651Y-102591694D01*
X126149584Y-102626168D01*
X126159500Y-102663172D01*
X126159500Y-103211151D01*
X126137826Y-103263477D01*
X125763477Y-103637826D01*
X125711151Y-103659500D01*
X123594642Y-103659500D01*
X123583092Y-103654716D01*
X123570616Y-103655491D01*
X123557940Y-103644297D01*
X123542316Y-103637826D01*
X123528162Y-103618002D01*
X123510806Y-103582502D01*
X123507295Y-103525974D01*
X123510806Y-103517498D01*
X123527365Y-103483627D01*
X123527364Y-103483627D01*
X123527366Y-103483625D01*
X123538000Y-103410636D01*
X123538000Y-103189364D01*
X123527366Y-103116375D01*
X123510805Y-103082501D01*
X123507295Y-103025974D01*
X123510806Y-103017498D01*
X123511367Y-103016352D01*
X123527366Y-102983625D01*
X123538000Y-102910636D01*
X123538000Y-102689364D01*
X123527366Y-102616375D01*
X123510805Y-102582501D01*
X123507295Y-102525974D01*
X123510806Y-102517498D01*
X123521563Y-102495496D01*
X123527366Y-102483625D01*
X123538000Y-102410636D01*
X123538000Y-102189364D01*
X123533018Y-102155168D01*
X123546922Y-102100265D01*
X123595576Y-102071273D01*
X123606245Y-102070500D01*
X123672477Y-102070500D01*
X123672477Y-102070499D01*
X123812485Y-102032984D01*
X123938015Y-101960509D01*
X124040509Y-101858015D01*
X124112984Y-101732485D01*
X124150499Y-101592477D01*
X124150500Y-101592477D01*
X124150500Y-101447523D01*
X124150499Y-101447522D01*
X124140616Y-101410640D01*
X124115964Y-101318636D01*
X124112985Y-101307518D01*
X124112983Y-101307513D01*
X124054416Y-101206073D01*
X124040509Y-101181985D01*
X123938015Y-101079491D01*
X123812486Y-101007016D01*
X123812481Y-101007014D01*
X123672477Y-100969500D01*
X123672475Y-100969500D01*
X123612000Y-100969500D01*
X123559674Y-100947826D01*
X123538000Y-100895500D01*
X123538000Y-100689370D01*
X123538000Y-100689364D01*
X123527366Y-100616375D01*
X123472326Y-100503789D01*
X123399351Y-100430814D01*
X126174500Y-100430814D01*
X126174500Y-100569185D01*
X126210310Y-100702831D01*
X126210312Y-100702836D01*
X126279495Y-100822665D01*
X126377335Y-100920505D01*
X126497164Y-100989688D01*
X126630814Y-101025499D01*
X126630815Y-101025500D01*
X126630817Y-101025500D01*
X126769185Y-101025500D01*
X126769185Y-101025499D01*
X126902836Y-100989688D01*
X127022665Y-100920505D01*
X127120505Y-100822665D01*
X127189688Y-100702836D01*
X127225499Y-100569185D01*
X127225500Y-100569185D01*
X127225500Y-100430815D01*
X127225499Y-100430814D01*
X127225321Y-100430151D01*
X127189688Y-100297164D01*
X127120505Y-100177335D01*
X127022665Y-100079495D01*
X126902836Y-100010312D01*
X126902831Y-100010310D01*
X126769185Y-99974500D01*
X126769183Y-99974500D01*
X126630817Y-99974500D01*
X126630815Y-99974500D01*
X126497168Y-100010310D01*
X126497163Y-100010312D01*
X126377334Y-100079495D01*
X126279495Y-100177334D01*
X126210312Y-100297163D01*
X126210310Y-100297168D01*
X126174500Y-100430814D01*
X123399351Y-100430814D01*
X123383711Y-100415174D01*
X123383710Y-100415173D01*
X123271126Y-100360134D01*
X123198140Y-100349500D01*
X123198136Y-100349500D01*
X121801864Y-100349500D01*
X121801859Y-100349500D01*
X121728874Y-100360134D01*
X121728873Y-100360134D01*
X121616289Y-100415173D01*
X121537606Y-100493856D01*
X121485280Y-100515530D01*
X121432954Y-100493856D01*
X121421193Y-100478527D01*
X121420505Y-100477335D01*
X121322665Y-100379495D01*
X121202836Y-100310312D01*
X121202831Y-100310310D01*
X121069185Y-100274500D01*
X121069183Y-100274500D01*
X120930817Y-100274500D01*
X120930815Y-100274500D01*
X120797168Y-100310310D01*
X120797159Y-100310314D01*
X120732498Y-100347646D01*
X120676346Y-100355038D01*
X120631413Y-100320559D01*
X120621499Y-100283560D01*
X120621499Y-99129453D01*
X132689500Y-99129453D01*
X132689500Y-99310546D01*
X132717828Y-99489406D01*
X132717831Y-99489419D01*
X132773787Y-99661635D01*
X132856005Y-99822995D01*
X132856005Y-99822996D01*
X132895568Y-99877450D01*
X132962447Y-99969501D01*
X133090499Y-100097553D01*
X133237006Y-100203996D01*
X133398361Y-100286211D01*
X133398364Y-100286212D01*
X133398363Y-100286212D01*
X133570580Y-100342168D01*
X133570586Y-100342169D01*
X133570591Y-100342171D01*
X133658858Y-100356151D01*
X133749453Y-100370500D01*
X133749454Y-100370500D01*
X133930547Y-100370500D01*
X133975261Y-100363417D01*
X134109409Y-100342171D01*
X134109416Y-100342168D01*
X134109419Y-100342168D01*
X134207456Y-100310314D01*
X134281639Y-100286211D01*
X134442994Y-100203996D01*
X134589501Y-100097553D01*
X134717553Y-99969501D01*
X134823996Y-99822994D01*
X134906211Y-99661639D01*
X134962171Y-99489409D01*
X134990500Y-99310546D01*
X134990500Y-99129454D01*
X134962171Y-98950591D01*
X134962169Y-98950586D01*
X134962168Y-98950580D01*
X134906212Y-98778364D01*
X134906211Y-98778363D01*
X134906211Y-98778361D01*
X134823996Y-98617006D01*
X134717553Y-98470499D01*
X134589501Y-98342447D01*
X134504128Y-98280420D01*
X134442996Y-98236005D01*
X134281635Y-98153787D01*
X134281636Y-98153787D01*
X134109419Y-98097831D01*
X134109406Y-98097828D01*
X133930547Y-98069500D01*
X133930546Y-98069500D01*
X133749454Y-98069500D01*
X133749453Y-98069500D01*
X133570593Y-98097828D01*
X133570580Y-98097831D01*
X133398364Y-98153787D01*
X133237004Y-98236005D01*
X133237003Y-98236005D01*
X133090503Y-98342444D01*
X133090499Y-98342447D01*
X132962447Y-98470499D01*
X132962444Y-98470502D01*
X132962444Y-98470503D01*
X132856005Y-98617003D01*
X132856005Y-98617004D01*
X132773787Y-98778364D01*
X132717831Y-98950580D01*
X132717828Y-98950593D01*
X132689500Y-99129453D01*
X120621499Y-99129453D01*
X120621499Y-98288489D01*
X120621499Y-98267924D01*
X120621501Y-98267922D01*
X120621501Y-98212026D01*
X120605117Y-98172475D01*
X120600111Y-98160388D01*
X120560588Y-98120863D01*
X120560587Y-98120862D01*
X120556378Y-98116653D01*
X120556363Y-98116640D01*
X120467245Y-98027522D01*
X127649500Y-98027522D01*
X127649500Y-98172477D01*
X127687014Y-98312481D01*
X127687016Y-98312486D01*
X127720524Y-98370523D01*
X127759491Y-98438015D01*
X127861985Y-98540509D01*
X127987515Y-98612984D01*
X127987516Y-98612984D01*
X127987518Y-98612985D01*
X128002525Y-98617006D01*
X128127522Y-98650499D01*
X128127523Y-98650500D01*
X128127525Y-98650500D01*
X128272477Y-98650500D01*
X128272477Y-98650499D01*
X128412485Y-98612984D01*
X128538015Y-98540509D01*
X128640509Y-98438015D01*
X128712984Y-98312485D01*
X128750500Y-98172475D01*
X128750500Y-98027525D01*
X128750500Y-98027523D01*
X128750499Y-98027522D01*
X128712985Y-97887518D01*
X128712983Y-97887513D01*
X128663710Y-97802171D01*
X128640509Y-97761985D01*
X128538015Y-97659491D01*
X128412486Y-97587016D01*
X128412481Y-97587014D01*
X128272477Y-97549500D01*
X128272475Y-97549500D01*
X128127525Y-97549500D01*
X128127523Y-97549500D01*
X127987518Y-97587014D01*
X127987513Y-97587016D01*
X127861984Y-97659491D01*
X127759491Y-97761984D01*
X127687016Y-97887513D01*
X127687014Y-97887518D01*
X127649500Y-98027522D01*
X120467245Y-98027522D01*
X119862174Y-97422451D01*
X119840500Y-97370125D01*
X119840500Y-97327522D01*
X129849500Y-97327522D01*
X129849500Y-97472477D01*
X129887014Y-97612481D01*
X129887016Y-97612486D01*
X129916756Y-97663996D01*
X129959491Y-97738015D01*
X130061985Y-97840509D01*
X130187515Y-97912984D01*
X130187516Y-97912984D01*
X130187518Y-97912985D01*
X130257520Y-97931742D01*
X130327522Y-97950499D01*
X130327523Y-97950500D01*
X130327525Y-97950500D01*
X130472477Y-97950500D01*
X130472477Y-97950499D01*
X130612485Y-97912984D01*
X130738015Y-97840509D01*
X130840509Y-97738015D01*
X130912984Y-97612485D01*
X130950499Y-97472477D01*
X130950500Y-97472477D01*
X130950500Y-97327523D01*
X130950499Y-97327522D01*
X130912985Y-97187518D01*
X130912983Y-97187513D01*
X130840508Y-97061984D01*
X130738015Y-96959491D01*
X130612486Y-96887016D01*
X130612481Y-96887014D01*
X130472477Y-96849500D01*
X130472475Y-96849500D01*
X130327525Y-96849500D01*
X130327523Y-96849500D01*
X130187518Y-96887014D01*
X130187513Y-96887016D01*
X130061984Y-96959491D01*
X129959491Y-97061984D01*
X129887016Y-97187513D01*
X129887014Y-97187518D01*
X129849500Y-97327522D01*
X119840500Y-97327522D01*
X119840500Y-96454724D01*
X121103200Y-96454724D01*
X121103200Y-96585275D01*
X121136986Y-96711368D01*
X121136988Y-96711373D01*
X121171152Y-96770546D01*
X121202261Y-96824428D01*
X121294572Y-96916739D01*
X121407628Y-96982012D01*
X121407629Y-96982012D01*
X121407631Y-96982013D01*
X121470677Y-96998906D01*
X121533724Y-97015799D01*
X121533725Y-97015800D01*
X121533727Y-97015800D01*
X121664275Y-97015800D01*
X121664275Y-97015799D01*
X121790372Y-96982012D01*
X121903428Y-96916739D01*
X121995739Y-96824428D01*
X122061012Y-96711372D01*
X122094799Y-96585275D01*
X122094800Y-96585275D01*
X122094800Y-96454725D01*
X122094799Y-96454724D01*
X123135200Y-96454724D01*
X123135200Y-96585275D01*
X123168986Y-96711368D01*
X123168988Y-96711373D01*
X123203152Y-96770546D01*
X123234261Y-96824428D01*
X123326572Y-96916739D01*
X123439628Y-96982012D01*
X123439629Y-96982012D01*
X123439631Y-96982013D01*
X123502677Y-96998906D01*
X123565724Y-97015799D01*
X123565725Y-97015800D01*
X123565727Y-97015800D01*
X123696275Y-97015800D01*
X123696275Y-97015799D01*
X123822372Y-96982012D01*
X123935428Y-96916739D01*
X124027739Y-96824428D01*
X124093012Y-96711372D01*
X124125680Y-96589453D01*
X132689500Y-96589453D01*
X132689500Y-96770546D01*
X132717828Y-96949406D01*
X132717831Y-96949419D01*
X132773787Y-97121635D01*
X132773788Y-97121638D01*
X132773789Y-97121639D01*
X132856004Y-97282994D01*
X132962447Y-97429501D01*
X133090499Y-97557553D01*
X133237006Y-97663996D01*
X133398361Y-97746211D01*
X133398364Y-97746212D01*
X133398363Y-97746212D01*
X133570580Y-97802168D01*
X133570586Y-97802169D01*
X133570591Y-97802171D01*
X133689833Y-97821057D01*
X133749453Y-97830500D01*
X133749454Y-97830500D01*
X133930547Y-97830500D01*
X133975261Y-97823417D01*
X134109409Y-97802171D01*
X134109416Y-97802168D01*
X134109419Y-97802168D01*
X134187601Y-97776765D01*
X134281639Y-97746211D01*
X134442994Y-97663996D01*
X134589501Y-97557553D01*
X134717553Y-97429501D01*
X134823996Y-97282994D01*
X134906211Y-97121639D01*
X134940600Y-97015799D01*
X134962168Y-96949419D01*
X134962168Y-96949416D01*
X134962171Y-96949409D01*
X134990500Y-96770546D01*
X134990500Y-96589454D01*
X134962171Y-96410591D01*
X134962169Y-96410586D01*
X134962168Y-96410580D01*
X134906212Y-96238364D01*
X134906211Y-96238363D01*
X134906211Y-96238361D01*
X134823996Y-96077006D01*
X134717553Y-95930499D01*
X134589501Y-95802447D01*
X134504128Y-95740420D01*
X134442996Y-95696005D01*
X134281635Y-95613787D01*
X134281636Y-95613787D01*
X134109419Y-95557831D01*
X134109406Y-95557828D01*
X133930547Y-95529500D01*
X133930546Y-95529500D01*
X133749454Y-95529500D01*
X133749453Y-95529500D01*
X133570593Y-95557828D01*
X133570580Y-95557831D01*
X133398364Y-95613787D01*
X133237004Y-95696005D01*
X133237003Y-95696005D01*
X133090503Y-95802444D01*
X133090499Y-95802447D01*
X132962447Y-95930499D01*
X132962444Y-95930502D01*
X132962444Y-95930503D01*
X132856005Y-96077003D01*
X132856005Y-96077004D01*
X132773787Y-96238364D01*
X132717831Y-96410580D01*
X132717828Y-96410593D01*
X132689500Y-96589453D01*
X124125680Y-96589453D01*
X124126799Y-96585275D01*
X124126800Y-96585275D01*
X124126800Y-96454725D01*
X124126799Y-96454724D01*
X124093013Y-96328631D01*
X124093011Y-96328626D01*
X124027738Y-96215571D01*
X123935428Y-96123261D01*
X123822373Y-96057988D01*
X123822368Y-96057986D01*
X123696275Y-96024200D01*
X123696273Y-96024200D01*
X123565727Y-96024200D01*
X123565725Y-96024200D01*
X123439631Y-96057986D01*
X123439626Y-96057988D01*
X123326571Y-96123261D01*
X123234261Y-96215571D01*
X123168988Y-96328626D01*
X123168986Y-96328631D01*
X123135200Y-96454724D01*
X122094799Y-96454724D01*
X122061013Y-96328631D01*
X122061011Y-96328626D01*
X121995738Y-96215571D01*
X121903428Y-96123261D01*
X121790373Y-96057988D01*
X121790368Y-96057986D01*
X121664275Y-96024200D01*
X121664273Y-96024200D01*
X121533727Y-96024200D01*
X121533725Y-96024200D01*
X121407631Y-96057986D01*
X121407626Y-96057988D01*
X121294571Y-96123261D01*
X121202261Y-96215571D01*
X121136988Y-96328626D01*
X121136986Y-96328631D01*
X121103200Y-96454724D01*
X119840500Y-96454724D01*
X119840500Y-95282900D01*
X119840500Y-95267950D01*
X119840501Y-95267948D01*
X119840501Y-95212052D01*
X119822743Y-95169183D01*
X119819111Y-95160413D01*
X119819110Y-95160412D01*
X119775380Y-95116681D01*
X119775365Y-95116668D01*
X119689511Y-95030814D01*
X130774500Y-95030814D01*
X130774500Y-95169185D01*
X130810310Y-95302831D01*
X130810312Y-95302836D01*
X130879495Y-95422665D01*
X130977335Y-95520505D01*
X131097164Y-95589688D01*
X131230814Y-95625499D01*
X131230815Y-95625500D01*
X131230817Y-95625500D01*
X131369185Y-95625500D01*
X131369185Y-95625499D01*
X131502836Y-95589688D01*
X131622665Y-95520505D01*
X131720505Y-95422665D01*
X131789688Y-95302836D01*
X131825500Y-95169183D01*
X131825500Y-95030817D01*
X131825500Y-95030815D01*
X131825499Y-95030814D01*
X131821944Y-95017548D01*
X131789688Y-94897164D01*
X131720505Y-94777335D01*
X131622665Y-94679495D01*
X131502836Y-94610312D01*
X131502831Y-94610310D01*
X131369185Y-94574500D01*
X131369183Y-94574500D01*
X131230817Y-94574500D01*
X131230815Y-94574500D01*
X131097168Y-94610310D01*
X131097163Y-94610312D01*
X130977334Y-94679495D01*
X130879495Y-94777334D01*
X130810312Y-94897163D01*
X130810310Y-94897168D01*
X130774500Y-95030814D01*
X119689511Y-95030814D01*
X119551970Y-94893273D01*
X119530296Y-94840947D01*
X119544429Y-94797452D01*
X119583996Y-94742994D01*
X119666211Y-94581639D01*
X119722171Y-94409409D01*
X119734619Y-94330814D01*
X124974500Y-94330814D01*
X124974500Y-94469185D01*
X125010310Y-94602831D01*
X125010312Y-94602836D01*
X125079495Y-94722665D01*
X125177335Y-94820505D01*
X125297164Y-94889688D01*
X125430814Y-94925499D01*
X125430815Y-94925500D01*
X125430817Y-94925500D01*
X125569185Y-94925500D01*
X125569185Y-94925499D01*
X125702836Y-94889688D01*
X125822665Y-94820505D01*
X125920505Y-94722665D01*
X125989688Y-94602836D01*
X126025499Y-94469185D01*
X126025500Y-94469185D01*
X126025500Y-94330815D01*
X126025499Y-94330814D01*
X125989689Y-94197168D01*
X125989688Y-94197164D01*
X125920505Y-94077335D01*
X125892623Y-94049453D01*
X132689500Y-94049453D01*
X132689500Y-94230546D01*
X132717828Y-94409406D01*
X132717831Y-94409419D01*
X132773787Y-94581635D01*
X132773788Y-94581638D01*
X132773789Y-94581639D01*
X132823649Y-94679495D01*
X132856005Y-94742995D01*
X132856005Y-94742996D01*
X132880953Y-94777334D01*
X132962447Y-94889501D01*
X133090499Y-95017553D01*
X133164348Y-95071207D01*
X133232729Y-95120889D01*
X133237006Y-95123996D01*
X133398361Y-95206211D01*
X133398364Y-95206212D01*
X133398363Y-95206212D01*
X133570580Y-95262168D01*
X133570586Y-95262169D01*
X133570591Y-95262171D01*
X133689833Y-95281057D01*
X133749453Y-95290500D01*
X133749454Y-95290500D01*
X133930547Y-95290500D01*
X133978531Y-95282900D01*
X134109409Y-95262171D01*
X134109416Y-95262168D01*
X134109419Y-95262168D01*
X134187601Y-95236765D01*
X134281639Y-95206211D01*
X134442994Y-95123996D01*
X134589501Y-95017553D01*
X134717553Y-94889501D01*
X134823996Y-94742994D01*
X134906211Y-94581639D01*
X134962171Y-94409409D01*
X134990500Y-94230546D01*
X134990500Y-94049454D01*
X134962171Y-93870591D01*
X134962169Y-93870586D01*
X134962168Y-93870580D01*
X134906212Y-93698364D01*
X134906211Y-93698363D01*
X134906211Y-93698361D01*
X134823996Y-93537006D01*
X134717553Y-93390499D01*
X134589501Y-93262447D01*
X134504128Y-93200420D01*
X134442996Y-93156005D01*
X134281635Y-93073787D01*
X134281636Y-93073787D01*
X134109419Y-93017831D01*
X134109406Y-93017828D01*
X133930547Y-92989500D01*
X133930546Y-92989500D01*
X133749454Y-92989500D01*
X133749453Y-92989500D01*
X133570593Y-93017828D01*
X133570580Y-93017831D01*
X133398364Y-93073787D01*
X133237004Y-93156005D01*
X133237003Y-93156005D01*
X133090503Y-93262444D01*
X133090499Y-93262447D01*
X132962447Y-93390499D01*
X132962444Y-93390502D01*
X132962444Y-93390503D01*
X132856005Y-93537003D01*
X132856005Y-93537004D01*
X132773787Y-93698364D01*
X132717831Y-93870580D01*
X132717828Y-93870593D01*
X132689500Y-94049453D01*
X125892623Y-94049453D01*
X125822665Y-93979495D01*
X125702836Y-93910312D01*
X125702831Y-93910310D01*
X125569185Y-93874500D01*
X125569183Y-93874500D01*
X125430817Y-93874500D01*
X125430815Y-93874500D01*
X125297168Y-93910310D01*
X125297163Y-93910312D01*
X125177334Y-93979495D01*
X125079495Y-94077334D01*
X125010312Y-94197163D01*
X125010310Y-94197168D01*
X124974500Y-94330814D01*
X119734619Y-94330814D01*
X119750500Y-94230546D01*
X119750500Y-94049454D01*
X119722171Y-93870591D01*
X119722169Y-93870586D01*
X119722168Y-93870580D01*
X119666212Y-93698364D01*
X119666211Y-93698363D01*
X119666211Y-93698361D01*
X119583996Y-93537006D01*
X119477553Y-93390499D01*
X119349501Y-93262447D01*
X119264128Y-93200420D01*
X119202996Y-93156005D01*
X119202990Y-93156002D01*
X119077186Y-93091901D01*
X119041639Y-93073789D01*
X119041638Y-93073788D01*
X119041635Y-93073787D01*
X119041636Y-93073787D01*
X118909377Y-93030814D01*
X124374500Y-93030814D01*
X124374500Y-93169185D01*
X124410310Y-93302831D01*
X124410312Y-93302836D01*
X124479495Y-93422665D01*
X124577335Y-93520505D01*
X124697164Y-93589688D01*
X124830814Y-93625499D01*
X124830815Y-93625500D01*
X124830817Y-93625500D01*
X124969185Y-93625500D01*
X124969185Y-93625499D01*
X125102836Y-93589688D01*
X125222665Y-93520505D01*
X125320505Y-93422665D01*
X125389688Y-93302836D01*
X125425499Y-93169185D01*
X125425500Y-93169185D01*
X125425500Y-93030815D01*
X125425499Y-93030814D01*
X125422019Y-93017828D01*
X125389688Y-92897164D01*
X125320505Y-92777335D01*
X125222665Y-92679495D01*
X125132645Y-92627522D01*
X126049500Y-92627522D01*
X126049500Y-92772477D01*
X126087014Y-92912481D01*
X126087016Y-92912486D01*
X126147838Y-93017831D01*
X126159491Y-93038015D01*
X126261985Y-93140509D01*
X126387515Y-93212984D01*
X126387516Y-93212984D01*
X126387518Y-93212985D01*
X126457520Y-93231742D01*
X126527522Y-93250499D01*
X126527523Y-93250500D01*
X126527525Y-93250500D01*
X126672477Y-93250500D01*
X126672477Y-93250499D01*
X126812485Y-93212984D01*
X126938015Y-93140509D01*
X127040509Y-93038015D01*
X127112984Y-92912485D01*
X127150499Y-92772477D01*
X127150500Y-92772477D01*
X127150500Y-92627523D01*
X127150499Y-92627522D01*
X127149224Y-92622765D01*
X127121685Y-92519986D01*
X127112985Y-92487518D01*
X127112983Y-92487513D01*
X127040508Y-92361984D01*
X126938015Y-92259491D01*
X126812486Y-92187016D01*
X126812481Y-92187014D01*
X126672477Y-92149500D01*
X126672475Y-92149500D01*
X126527525Y-92149500D01*
X126527523Y-92149500D01*
X126387518Y-92187014D01*
X126387513Y-92187016D01*
X126261984Y-92259491D01*
X126159491Y-92361984D01*
X126087016Y-92487513D01*
X126087014Y-92487518D01*
X126049500Y-92627522D01*
X125132645Y-92627522D01*
X125102836Y-92610312D01*
X125102831Y-92610310D01*
X124969185Y-92574500D01*
X124969183Y-92574500D01*
X124830817Y-92574500D01*
X124830815Y-92574500D01*
X124697168Y-92610310D01*
X124697163Y-92610312D01*
X124577334Y-92679495D01*
X124479495Y-92777334D01*
X124410312Y-92897163D01*
X124410310Y-92897168D01*
X124374500Y-93030814D01*
X118909377Y-93030814D01*
X118869419Y-93017831D01*
X118869406Y-93017828D01*
X118690547Y-92989500D01*
X118690546Y-92989500D01*
X118509454Y-92989500D01*
X118509453Y-92989500D01*
X118330593Y-93017828D01*
X118330580Y-93017831D01*
X118158364Y-93073787D01*
X117997004Y-93156005D01*
X117997003Y-93156005D01*
X117850503Y-93262444D01*
X117850499Y-93262447D01*
X117722447Y-93390499D01*
X117722444Y-93390502D01*
X117722444Y-93390503D01*
X117616005Y-93537003D01*
X117616005Y-93537004D01*
X117533787Y-93698364D01*
X117477831Y-93870580D01*
X117477828Y-93870593D01*
X117449500Y-94049453D01*
X116800500Y-94049453D01*
X116800500Y-90705135D01*
X117449500Y-90705135D01*
X117449500Y-92494863D01*
X117452414Y-92519986D01*
X117452415Y-92519991D01*
X117497794Y-92622765D01*
X117577235Y-92702206D01*
X117680009Y-92747585D01*
X117705135Y-92750500D01*
X119494864Y-92750499D01*
X119519991Y-92747585D01*
X119622765Y-92702206D01*
X119702206Y-92622765D01*
X119747585Y-92519991D01*
X119750500Y-92494865D01*
X119750500Y-92327522D01*
X120649500Y-92327522D01*
X120649500Y-92472477D01*
X120687014Y-92612481D01*
X120687016Y-92612486D01*
X120759491Y-92738015D01*
X120861985Y-92840509D01*
X120953876Y-92893563D01*
X120986650Y-92912485D01*
X120987515Y-92912984D01*
X120987516Y-92912984D01*
X120987518Y-92912985D01*
X121057520Y-92931742D01*
X121127522Y-92950499D01*
X121127523Y-92950500D01*
X121127525Y-92950500D01*
X121272477Y-92950500D01*
X121272477Y-92950499D01*
X121412485Y-92912984D01*
X121538015Y-92840509D01*
X121640509Y-92738015D01*
X121712984Y-92612485D01*
X121750499Y-92472477D01*
X121750500Y-92472477D01*
X121750500Y-92327523D01*
X121750499Y-92327522D01*
X121712985Y-92187518D01*
X121712983Y-92187513D01*
X121640508Y-92061984D01*
X121538015Y-91959491D01*
X121412486Y-91887016D01*
X121412481Y-91887014D01*
X121272477Y-91849500D01*
X121272475Y-91849500D01*
X121127525Y-91849500D01*
X121127523Y-91849500D01*
X120987518Y-91887014D01*
X120987513Y-91887016D01*
X120861984Y-91959491D01*
X120759491Y-92061984D01*
X120687016Y-92187513D01*
X120687014Y-92187518D01*
X120649500Y-92327522D01*
X119750500Y-92327522D01*
X119750499Y-91374724D01*
X122119200Y-91374724D01*
X122119200Y-91505275D01*
X122152986Y-91631368D01*
X122152988Y-91631373D01*
X122218261Y-91744428D01*
X122310572Y-91836739D01*
X122423628Y-91902012D01*
X122423629Y-91902012D01*
X122423631Y-91902013D01*
X122486677Y-91918906D01*
X122549724Y-91935799D01*
X122549725Y-91935800D01*
X122549727Y-91935800D01*
X122680275Y-91935800D01*
X122680275Y-91935799D01*
X122806372Y-91902012D01*
X122919428Y-91836739D01*
X123011739Y-91744428D01*
X123077012Y-91631372D01*
X123110799Y-91505275D01*
X123110800Y-91505275D01*
X123110800Y-91374725D01*
X123110799Y-91374724D01*
X123077013Y-91248631D01*
X123077011Y-91248626D01*
X123011738Y-91135571D01*
X122919428Y-91043261D01*
X122806373Y-90977988D01*
X122806368Y-90977986D01*
X122680275Y-90944200D01*
X122680273Y-90944200D01*
X122549727Y-90944200D01*
X122549725Y-90944200D01*
X122423631Y-90977986D01*
X122423626Y-90977988D01*
X122310571Y-91043261D01*
X122218261Y-91135571D01*
X122152988Y-91248626D01*
X122152986Y-91248631D01*
X122119200Y-91374724D01*
X119750499Y-91374724D01*
X119750499Y-90705136D01*
X119750499Y-90705135D01*
X132689500Y-90705135D01*
X132689500Y-92494863D01*
X132692414Y-92519986D01*
X132692415Y-92519991D01*
X132737794Y-92622765D01*
X132817235Y-92702206D01*
X132920009Y-92747585D01*
X132945135Y-92750500D01*
X134734864Y-92750499D01*
X134759991Y-92747585D01*
X134862765Y-92702206D01*
X134942206Y-92622765D01*
X134987585Y-92519991D01*
X134990500Y-92494865D01*
X134990499Y-90705136D01*
X134987585Y-90680009D01*
X134942206Y-90577235D01*
X134862765Y-90497794D01*
X134759991Y-90452415D01*
X134759990Y-90452414D01*
X134759988Y-90452414D01*
X134738659Y-90449940D01*
X134734865Y-90449500D01*
X134734864Y-90449500D01*
X132945136Y-90449500D01*
X132920013Y-90452414D01*
X132920007Y-90452415D01*
X132817234Y-90497794D01*
X132737794Y-90577234D01*
X132692414Y-90680011D01*
X132689500Y-90705135D01*
X119750499Y-90705135D01*
X119747585Y-90680009D01*
X119702206Y-90577235D01*
X119622765Y-90497794D01*
X119519991Y-90452415D01*
X119519990Y-90452414D01*
X119519988Y-90452414D01*
X119498659Y-90449940D01*
X119494865Y-90449500D01*
X119494864Y-90449500D01*
X117705136Y-90449500D01*
X117680013Y-90452414D01*
X117680007Y-90452415D01*
X117577234Y-90497794D01*
X117497794Y-90577234D01*
X117452414Y-90680011D01*
X117449500Y-90705135D01*
X116800500Y-90705135D01*
X116800500Y-89874500D01*
X116822174Y-89822174D01*
X116874500Y-89800500D01*
X135525500Y-89800500D01*
X135577826Y-89822174D01*
G37*
%TD.AperFunction*%
%TD*%
M02*
