%TF.GenerationSoftware,KiCad,Pcbnew,10.0.3*%
%TF.CreationDate,2026-05-28T08:34:56-07:00*%
%TF.ProjectId,RXProg,52585072-6f67-42e6-9b69-6361645f7063,rev?*%
%TF.SameCoordinates,Original*%
%TF.FileFunction,Legend,Bot*%
%TF.FilePolarity,Positive*%
%FSLAX46Y46*%
G04 Gerber Fmt 4.6, Leading zero omitted, Abs format (unit mm)*
G04 Created by KiCad (PCBNEW 10.0.3) date 2026-05-28 08:34:56*
%MOMM*%
%LPD*%
G01*
G04 APERTURE LIST*
G04 Aperture macros list*
%AMRoundRect*
0 Rectangle with rounded corners*
0 $1 Rounding radius*
0 $2 $3 $4 $5 $6 $7 $8 $9 X,Y pos of 4 corners*
0 Add a 4 corners polygon primitive as box body*
4,1,4,$2,$3,$4,$5,$6,$7,$8,$9,$2,$3,0*
0 Add four circle primitives for the rounded corners*
1,1,$1+$1,$2,$3*
1,1,$1+$1,$4,$5*
1,1,$1+$1,$6,$7*
1,1,$1+$1,$8,$9*
0 Add four rect primitives between the rounded corners*
20,1,$1+$1,$2,$3,$4,$5,0*
20,1,$1+$1,$4,$5,$6,$7,0*
20,1,$1+$1,$6,$7,$8,$9,0*
20,1,$1+$1,$8,$9,$2,$3,0*%
G04 Aperture macros list end*
%ADD10C,0.150000*%
%ADD11C,0.120000*%
%ADD12C,1.400000*%
%ADD13O,1.350000X1.700000*%
%ADD14O,1.100000X1.500000*%
%ADD15R,1.700000X1.700000*%
%ADD16C,1.700000*%
%ADD17C,0.990600*%
%ADD18RoundRect,0.075000X-0.662500X-0.075000X0.662500X-0.075000X0.662500X0.075000X-0.662500X0.075000X0*%
%ADD19RoundRect,0.100000X0.100000X-0.130000X0.100000X0.130000X-0.100000X0.130000X-0.100000X-0.130000X0*%
G04 APERTURE END LIST*
D10*
X131072744Y-92833684D02*
X131072744Y-93309875D01*
X131406077Y-92309875D02*
X131072744Y-92833684D01*
X131072744Y-92833684D02*
X130739411Y-92309875D01*
X129977506Y-93309875D02*
X129977506Y-92786065D01*
X129977506Y-92786065D02*
X130025125Y-92690827D01*
X130025125Y-92690827D02*
X130120363Y-92643208D01*
X130120363Y-92643208D02*
X130310839Y-92643208D01*
X130310839Y-92643208D02*
X130406077Y-92690827D01*
X129977506Y-93262256D02*
X130072744Y-93309875D01*
X130072744Y-93309875D02*
X130310839Y-93309875D01*
X130310839Y-93309875D02*
X130406077Y-93262256D01*
X130406077Y-93262256D02*
X130453696Y-93167017D01*
X130453696Y-93167017D02*
X130453696Y-93071779D01*
X130453696Y-93071779D02*
X130406077Y-92976541D01*
X130406077Y-92976541D02*
X130310839Y-92928922D01*
X130310839Y-92928922D02*
X130072744Y-92928922D01*
X130072744Y-92928922D02*
X129977506Y-92881303D01*
X129501315Y-93309875D02*
X129501315Y-92643208D01*
X129501315Y-92738446D02*
X129453696Y-92690827D01*
X129453696Y-92690827D02*
X129358458Y-92643208D01*
X129358458Y-92643208D02*
X129215601Y-92643208D01*
X129215601Y-92643208D02*
X129120363Y-92690827D01*
X129120363Y-92690827D02*
X129072744Y-92786065D01*
X129072744Y-92786065D02*
X129072744Y-93309875D01*
X129072744Y-92786065D02*
X129025125Y-92690827D01*
X129025125Y-92690827D02*
X128929887Y-92643208D01*
X128929887Y-92643208D02*
X128787030Y-92643208D01*
X128787030Y-92643208D02*
X128691791Y-92690827D01*
X128691791Y-92690827D02*
X128644172Y-92786065D01*
X128644172Y-92786065D02*
X128644172Y-93309875D01*
X127739411Y-93309875D02*
X127739411Y-92786065D01*
X127739411Y-92786065D02*
X127787030Y-92690827D01*
X127787030Y-92690827D02*
X127882268Y-92643208D01*
X127882268Y-92643208D02*
X128072744Y-92643208D01*
X128072744Y-92643208D02*
X128167982Y-92690827D01*
X127739411Y-93262256D02*
X127834649Y-93309875D01*
X127834649Y-93309875D02*
X128072744Y-93309875D01*
X128072744Y-93309875D02*
X128167982Y-93262256D01*
X128167982Y-93262256D02*
X128215601Y-93167017D01*
X128215601Y-93167017D02*
X128215601Y-93071779D01*
X128215601Y-93071779D02*
X128167982Y-92976541D01*
X128167982Y-92976541D02*
X128072744Y-92928922D01*
X128072744Y-92928922D02*
X127834649Y-92928922D01*
X127834649Y-92928922D02*
X127739411Y-92881303D01*
X127263220Y-93309875D02*
X127263220Y-92309875D01*
X126834649Y-93309875D02*
X126834649Y-92786065D01*
X126834649Y-92786065D02*
X126882268Y-92690827D01*
X126882268Y-92690827D02*
X126977506Y-92643208D01*
X126977506Y-92643208D02*
X127120363Y-92643208D01*
X127120363Y-92643208D02*
X127215601Y-92690827D01*
X127215601Y-92690827D02*
X127263220Y-92738446D01*
X125929887Y-93309875D02*
X125929887Y-92786065D01*
X125929887Y-92786065D02*
X125977506Y-92690827D01*
X125977506Y-92690827D02*
X126072744Y-92643208D01*
X126072744Y-92643208D02*
X126263220Y-92643208D01*
X126263220Y-92643208D02*
X126358458Y-92690827D01*
X125929887Y-93262256D02*
X126025125Y-93309875D01*
X126025125Y-93309875D02*
X126263220Y-93309875D01*
X126263220Y-93309875D02*
X126358458Y-93262256D01*
X126358458Y-93262256D02*
X126406077Y-93167017D01*
X126406077Y-93167017D02*
X126406077Y-93071779D01*
X126406077Y-93071779D02*
X126358458Y-92976541D01*
X126358458Y-92976541D02*
X126263220Y-92928922D01*
X126263220Y-92928922D02*
X126025125Y-92928922D01*
X126025125Y-92928922D02*
X125929887Y-92881303D01*
X124120363Y-93309875D02*
X124453696Y-92833684D01*
X124691791Y-93309875D02*
X124691791Y-92309875D01*
X124691791Y-92309875D02*
X124310839Y-92309875D01*
X124310839Y-92309875D02*
X124215601Y-92357494D01*
X124215601Y-92357494D02*
X124167982Y-92405113D01*
X124167982Y-92405113D02*
X124120363Y-92500351D01*
X124120363Y-92500351D02*
X124120363Y-92643208D01*
X124120363Y-92643208D02*
X124167982Y-92738446D01*
X124167982Y-92738446D02*
X124215601Y-92786065D01*
X124215601Y-92786065D02*
X124310839Y-92833684D01*
X124310839Y-92833684D02*
X124691791Y-92833684D01*
X123787029Y-92309875D02*
X123120363Y-93309875D01*
X123120363Y-92309875D02*
X123787029Y-93309875D01*
X131263220Y-93919819D02*
X131263220Y-94729342D01*
X131263220Y-94729342D02*
X131215601Y-94824580D01*
X131215601Y-94824580D02*
X131167982Y-94872200D01*
X131167982Y-94872200D02*
X131072744Y-94919819D01*
X131072744Y-94919819D02*
X130882268Y-94919819D01*
X130882268Y-94919819D02*
X130787030Y-94872200D01*
X130787030Y-94872200D02*
X130739411Y-94824580D01*
X130739411Y-94824580D02*
X130691792Y-94729342D01*
X130691792Y-94729342D02*
X130691792Y-93919819D01*
X130263220Y-94872200D02*
X130120363Y-94919819D01*
X130120363Y-94919819D02*
X129882268Y-94919819D01*
X129882268Y-94919819D02*
X129787030Y-94872200D01*
X129787030Y-94872200D02*
X129739411Y-94824580D01*
X129739411Y-94824580D02*
X129691792Y-94729342D01*
X129691792Y-94729342D02*
X129691792Y-94634104D01*
X129691792Y-94634104D02*
X129739411Y-94538866D01*
X129739411Y-94538866D02*
X129787030Y-94491247D01*
X129787030Y-94491247D02*
X129882268Y-94443628D01*
X129882268Y-94443628D02*
X130072744Y-94396009D01*
X130072744Y-94396009D02*
X130167982Y-94348390D01*
X130167982Y-94348390D02*
X130215601Y-94300771D01*
X130215601Y-94300771D02*
X130263220Y-94205533D01*
X130263220Y-94205533D02*
X130263220Y-94110295D01*
X130263220Y-94110295D02*
X130215601Y-94015057D01*
X130215601Y-94015057D02*
X130167982Y-93967438D01*
X130167982Y-93967438D02*
X130072744Y-93919819D01*
X130072744Y-93919819D02*
X129834649Y-93919819D01*
X129834649Y-93919819D02*
X129691792Y-93967438D01*
X128929887Y-94396009D02*
X128787030Y-94443628D01*
X128787030Y-94443628D02*
X128739411Y-94491247D01*
X128739411Y-94491247D02*
X128691792Y-94586485D01*
X128691792Y-94586485D02*
X128691792Y-94729342D01*
X128691792Y-94729342D02*
X128739411Y-94824580D01*
X128739411Y-94824580D02*
X128787030Y-94872200D01*
X128787030Y-94872200D02*
X128882268Y-94919819D01*
X128882268Y-94919819D02*
X129263220Y-94919819D01*
X129263220Y-94919819D02*
X129263220Y-93919819D01*
X129263220Y-93919819D02*
X128929887Y-93919819D01*
X128929887Y-93919819D02*
X128834649Y-93967438D01*
X128834649Y-93967438D02*
X128787030Y-94015057D01*
X128787030Y-94015057D02*
X128739411Y-94110295D01*
X128739411Y-94110295D02*
X128739411Y-94205533D01*
X128739411Y-94205533D02*
X128787030Y-94300771D01*
X128787030Y-94300771D02*
X128834649Y-94348390D01*
X128834649Y-94348390D02*
X128929887Y-94396009D01*
X128929887Y-94396009D02*
X129263220Y-94396009D01*
X127501315Y-94919819D02*
X127501315Y-93919819D01*
X127025125Y-94253152D02*
X127025125Y-94919819D01*
X127025125Y-94348390D02*
X126977506Y-94300771D01*
X126977506Y-94300771D02*
X126882268Y-94253152D01*
X126882268Y-94253152D02*
X126739411Y-94253152D01*
X126739411Y-94253152D02*
X126644173Y-94300771D01*
X126644173Y-94300771D02*
X126596554Y-94396009D01*
X126596554Y-94396009D02*
X126596554Y-94919819D01*
X126263220Y-94253152D02*
X125882268Y-94253152D01*
X126120363Y-93919819D02*
X126120363Y-94776961D01*
X126120363Y-94776961D02*
X126072744Y-94872200D01*
X126072744Y-94872200D02*
X125977506Y-94919819D01*
X125977506Y-94919819D02*
X125882268Y-94919819D01*
X125167982Y-94872200D02*
X125263220Y-94919819D01*
X125263220Y-94919819D02*
X125453696Y-94919819D01*
X125453696Y-94919819D02*
X125548934Y-94872200D01*
X125548934Y-94872200D02*
X125596553Y-94776961D01*
X125596553Y-94776961D02*
X125596553Y-94396009D01*
X125596553Y-94396009D02*
X125548934Y-94300771D01*
X125548934Y-94300771D02*
X125453696Y-94253152D01*
X125453696Y-94253152D02*
X125263220Y-94253152D01*
X125263220Y-94253152D02*
X125167982Y-94300771D01*
X125167982Y-94300771D02*
X125120363Y-94396009D01*
X125120363Y-94396009D02*
X125120363Y-94491247D01*
X125120363Y-94491247D02*
X125596553Y-94586485D01*
X124691791Y-94919819D02*
X124691791Y-94253152D01*
X124691791Y-94443628D02*
X124644172Y-94348390D01*
X124644172Y-94348390D02*
X124596553Y-94300771D01*
X124596553Y-94300771D02*
X124501315Y-94253152D01*
X124501315Y-94253152D02*
X124406077Y-94253152D01*
X124215600Y-94253152D02*
X123834648Y-94253152D01*
X124072743Y-94919819D02*
X124072743Y-94062676D01*
X124072743Y-94062676D02*
X124025124Y-93967438D01*
X124025124Y-93967438D02*
X123929886Y-93919819D01*
X123929886Y-93919819D02*
X123834648Y-93919819D01*
X123072743Y-94919819D02*
X123072743Y-94396009D01*
X123072743Y-94396009D02*
X123120362Y-94300771D01*
X123120362Y-94300771D02*
X123215600Y-94253152D01*
X123215600Y-94253152D02*
X123406076Y-94253152D01*
X123406076Y-94253152D02*
X123501314Y-94300771D01*
X123072743Y-94872200D02*
X123167981Y-94919819D01*
X123167981Y-94919819D02*
X123406076Y-94919819D01*
X123406076Y-94919819D02*
X123501314Y-94872200D01*
X123501314Y-94872200D02*
X123548933Y-94776961D01*
X123548933Y-94776961D02*
X123548933Y-94681723D01*
X123548933Y-94681723D02*
X123501314Y-94586485D01*
X123501314Y-94586485D02*
X123406076Y-94538866D01*
X123406076Y-94538866D02*
X123167981Y-94538866D01*
X123167981Y-94538866D02*
X123072743Y-94491247D01*
X122167981Y-94872200D02*
X122263219Y-94919819D01*
X122263219Y-94919819D02*
X122453695Y-94919819D01*
X122453695Y-94919819D02*
X122548933Y-94872200D01*
X122548933Y-94872200D02*
X122596552Y-94824580D01*
X122596552Y-94824580D02*
X122644171Y-94729342D01*
X122644171Y-94729342D02*
X122644171Y-94443628D01*
X122644171Y-94443628D02*
X122596552Y-94348390D01*
X122596552Y-94348390D02*
X122548933Y-94300771D01*
X122548933Y-94300771D02*
X122453695Y-94253152D01*
X122453695Y-94253152D02*
X122263219Y-94253152D01*
X122263219Y-94253152D02*
X122167981Y-94300771D01*
X121358457Y-94872200D02*
X121453695Y-94919819D01*
X121453695Y-94919819D02*
X121644171Y-94919819D01*
X121644171Y-94919819D02*
X121739409Y-94872200D01*
X121739409Y-94872200D02*
X121787028Y-94776961D01*
X121787028Y-94776961D02*
X121787028Y-94396009D01*
X121787028Y-94396009D02*
X121739409Y-94300771D01*
X121739409Y-94300771D02*
X121644171Y-94253152D01*
X121644171Y-94253152D02*
X121453695Y-94253152D01*
X121453695Y-94253152D02*
X121358457Y-94300771D01*
X121358457Y-94300771D02*
X121310838Y-94396009D01*
X121310838Y-94396009D02*
X121310838Y-94491247D01*
X121310838Y-94491247D02*
X121787028Y-94586485D01*
X131960590Y-113959875D02*
X131960590Y-112959875D01*
X131960590Y-112959875D02*
X131627257Y-113674160D01*
X131627257Y-113674160D02*
X131293924Y-112959875D01*
X131293924Y-112959875D02*
X131293924Y-113959875D01*
X130389162Y-113959875D02*
X130389162Y-113436065D01*
X130389162Y-113436065D02*
X130436781Y-113340827D01*
X130436781Y-113340827D02*
X130532019Y-113293208D01*
X130532019Y-113293208D02*
X130722495Y-113293208D01*
X130722495Y-113293208D02*
X130817733Y-113340827D01*
X130389162Y-113912256D02*
X130484400Y-113959875D01*
X130484400Y-113959875D02*
X130722495Y-113959875D01*
X130722495Y-113959875D02*
X130817733Y-113912256D01*
X130817733Y-113912256D02*
X130865352Y-113817017D01*
X130865352Y-113817017D02*
X130865352Y-113721779D01*
X130865352Y-113721779D02*
X130817733Y-113626541D01*
X130817733Y-113626541D02*
X130722495Y-113578922D01*
X130722495Y-113578922D02*
X130484400Y-113578922D01*
X130484400Y-113578922D02*
X130389162Y-113531303D01*
X130008209Y-113959875D02*
X129484400Y-113293208D01*
X130008209Y-113293208D02*
X129484400Y-113959875D01*
X128341542Y-113959875D02*
X128341542Y-112959875D01*
X128341542Y-112959875D02*
X127960590Y-112959875D01*
X127960590Y-112959875D02*
X127865352Y-113007494D01*
X127865352Y-113007494D02*
X127817733Y-113055113D01*
X127817733Y-113055113D02*
X127770114Y-113150351D01*
X127770114Y-113150351D02*
X127770114Y-113293208D01*
X127770114Y-113293208D02*
X127817733Y-113388446D01*
X127817733Y-113388446D02*
X127865352Y-113436065D01*
X127865352Y-113436065D02*
X127960590Y-113483684D01*
X127960590Y-113483684D02*
X128341542Y-113483684D01*
X126912971Y-113959875D02*
X126912971Y-113436065D01*
X126912971Y-113436065D02*
X126960590Y-113340827D01*
X126960590Y-113340827D02*
X127055828Y-113293208D01*
X127055828Y-113293208D02*
X127246304Y-113293208D01*
X127246304Y-113293208D02*
X127341542Y-113340827D01*
X126912971Y-113912256D02*
X127008209Y-113959875D01*
X127008209Y-113959875D02*
X127246304Y-113959875D01*
X127246304Y-113959875D02*
X127341542Y-113912256D01*
X127341542Y-113912256D02*
X127389161Y-113817017D01*
X127389161Y-113817017D02*
X127389161Y-113721779D01*
X127389161Y-113721779D02*
X127341542Y-113626541D01*
X127341542Y-113626541D02*
X127246304Y-113578922D01*
X127246304Y-113578922D02*
X127008209Y-113578922D01*
X127008209Y-113578922D02*
X126912971Y-113531303D01*
X126484399Y-113912256D02*
X126389161Y-113959875D01*
X126389161Y-113959875D02*
X126198685Y-113959875D01*
X126198685Y-113959875D02*
X126103447Y-113912256D01*
X126103447Y-113912256D02*
X126055828Y-113817017D01*
X126055828Y-113817017D02*
X126055828Y-113769398D01*
X126055828Y-113769398D02*
X126103447Y-113674160D01*
X126103447Y-113674160D02*
X126198685Y-113626541D01*
X126198685Y-113626541D02*
X126341542Y-113626541D01*
X126341542Y-113626541D02*
X126436780Y-113578922D01*
X126436780Y-113578922D02*
X126484399Y-113483684D01*
X126484399Y-113483684D02*
X126484399Y-113436065D01*
X126484399Y-113436065D02*
X126436780Y-113340827D01*
X126436780Y-113340827D02*
X126341542Y-113293208D01*
X126341542Y-113293208D02*
X126198685Y-113293208D01*
X126198685Y-113293208D02*
X126103447Y-113340827D01*
X125770113Y-113293208D02*
X125389161Y-113293208D01*
X125627256Y-112959875D02*
X125627256Y-113817017D01*
X125627256Y-113817017D02*
X125579637Y-113912256D01*
X125579637Y-113912256D02*
X125484399Y-113959875D01*
X125484399Y-113959875D02*
X125389161Y-113959875D01*
X124627256Y-113293208D02*
X124627256Y-113959875D01*
X125055827Y-113293208D02*
X125055827Y-113817017D01*
X125055827Y-113817017D02*
X125008208Y-113912256D01*
X125008208Y-113912256D02*
X124912970Y-113959875D01*
X124912970Y-113959875D02*
X124770113Y-113959875D01*
X124770113Y-113959875D02*
X124674875Y-113912256D01*
X124674875Y-113912256D02*
X124627256Y-113864636D01*
X124198684Y-113912256D02*
X124103446Y-113959875D01*
X124103446Y-113959875D02*
X123912970Y-113959875D01*
X123912970Y-113959875D02*
X123817732Y-113912256D01*
X123817732Y-113912256D02*
X123770113Y-113817017D01*
X123770113Y-113817017D02*
X123770113Y-113769398D01*
X123770113Y-113769398D02*
X123817732Y-113674160D01*
X123817732Y-113674160D02*
X123912970Y-113626541D01*
X123912970Y-113626541D02*
X124055827Y-113626541D01*
X124055827Y-113626541D02*
X124151065Y-113578922D01*
X124151065Y-113578922D02*
X124198684Y-113483684D01*
X124198684Y-113483684D02*
X124198684Y-113436065D01*
X124198684Y-113436065D02*
X124151065Y-113340827D01*
X124151065Y-113340827D02*
X124055827Y-113293208D01*
X124055827Y-113293208D02*
X123912970Y-113293208D01*
X123912970Y-113293208D02*
X123817732Y-113340827D01*
X123341541Y-113959875D02*
X123341541Y-112959875D01*
X122912970Y-113959875D02*
X122912970Y-113436065D01*
X122912970Y-113436065D02*
X122960589Y-113340827D01*
X122960589Y-113340827D02*
X123055827Y-113293208D01*
X123055827Y-113293208D02*
X123198684Y-113293208D01*
X123198684Y-113293208D02*
X123293922Y-113340827D01*
X123293922Y-113340827D02*
X123341541Y-113388446D01*
X122436779Y-113959875D02*
X122436779Y-112959875D01*
X122341541Y-113578922D02*
X122055827Y-113959875D01*
X122055827Y-113293208D02*
X122436779Y-113674160D01*
X121484398Y-113959875D02*
X121579636Y-113912256D01*
X121579636Y-113912256D02*
X121627255Y-113864636D01*
X121627255Y-113864636D02*
X121674874Y-113769398D01*
X121674874Y-113769398D02*
X121674874Y-113483684D01*
X121674874Y-113483684D02*
X121627255Y-113388446D01*
X121627255Y-113388446D02*
X121579636Y-113340827D01*
X121579636Y-113340827D02*
X121484398Y-113293208D01*
X121484398Y-113293208D02*
X121341541Y-113293208D01*
X121341541Y-113293208D02*
X121246303Y-113340827D01*
X121246303Y-113340827D02*
X121198684Y-113388446D01*
X121198684Y-113388446D02*
X121151065Y-113483684D01*
X121151065Y-113483684D02*
X121151065Y-113769398D01*
X121151065Y-113769398D02*
X121198684Y-113864636D01*
X121198684Y-113864636D02*
X121246303Y-113912256D01*
X121246303Y-113912256D02*
X121341541Y-113959875D01*
X121341541Y-113959875D02*
X121484398Y-113959875D01*
X120817731Y-113293208D02*
X120579636Y-113959875D01*
X120579636Y-113959875D02*
X120341541Y-113293208D01*
X123817731Y-114665057D02*
X123770112Y-114617438D01*
X123770112Y-114617438D02*
X123674874Y-114569819D01*
X123674874Y-114569819D02*
X123436779Y-114569819D01*
X123436779Y-114569819D02*
X123341541Y-114617438D01*
X123341541Y-114617438D02*
X123293922Y-114665057D01*
X123293922Y-114665057D02*
X123246303Y-114760295D01*
X123246303Y-114760295D02*
X123246303Y-114855533D01*
X123246303Y-114855533D02*
X123293922Y-114998390D01*
X123293922Y-114998390D02*
X123865350Y-115569819D01*
X123865350Y-115569819D02*
X123246303Y-115569819D01*
X122627255Y-114569819D02*
X122532017Y-114569819D01*
X122532017Y-114569819D02*
X122436779Y-114617438D01*
X122436779Y-114617438D02*
X122389160Y-114665057D01*
X122389160Y-114665057D02*
X122341541Y-114760295D01*
X122341541Y-114760295D02*
X122293922Y-114950771D01*
X122293922Y-114950771D02*
X122293922Y-115188866D01*
X122293922Y-115188866D02*
X122341541Y-115379342D01*
X122341541Y-115379342D02*
X122389160Y-115474580D01*
X122389160Y-115474580D02*
X122436779Y-115522200D01*
X122436779Y-115522200D02*
X122532017Y-115569819D01*
X122532017Y-115569819D02*
X122627255Y-115569819D01*
X122627255Y-115569819D02*
X122722493Y-115522200D01*
X122722493Y-115522200D02*
X122770112Y-115474580D01*
X122770112Y-115474580D02*
X122817731Y-115379342D01*
X122817731Y-115379342D02*
X122865350Y-115188866D01*
X122865350Y-115188866D02*
X122865350Y-114950771D01*
X122865350Y-114950771D02*
X122817731Y-114760295D01*
X122817731Y-114760295D02*
X122770112Y-114665057D01*
X122770112Y-114665057D02*
X122722493Y-114617438D01*
X122722493Y-114617438D02*
X122627255Y-114569819D01*
X121912969Y-114665057D02*
X121865350Y-114617438D01*
X121865350Y-114617438D02*
X121770112Y-114569819D01*
X121770112Y-114569819D02*
X121532017Y-114569819D01*
X121532017Y-114569819D02*
X121436779Y-114617438D01*
X121436779Y-114617438D02*
X121389160Y-114665057D01*
X121389160Y-114665057D02*
X121341541Y-114760295D01*
X121341541Y-114760295D02*
X121341541Y-114855533D01*
X121341541Y-114855533D02*
X121389160Y-114998390D01*
X121389160Y-114998390D02*
X121960588Y-115569819D01*
X121960588Y-115569819D02*
X121341541Y-115569819D01*
X120484398Y-114569819D02*
X120674874Y-114569819D01*
X120674874Y-114569819D02*
X120770112Y-114617438D01*
X120770112Y-114617438D02*
X120817731Y-114665057D01*
X120817731Y-114665057D02*
X120912969Y-114807914D01*
X120912969Y-114807914D02*
X120960588Y-114998390D01*
X120960588Y-114998390D02*
X120960588Y-115379342D01*
X120960588Y-115379342D02*
X120912969Y-115474580D01*
X120912969Y-115474580D02*
X120865350Y-115522200D01*
X120865350Y-115522200D02*
X120770112Y-115569819D01*
X120770112Y-115569819D02*
X120579636Y-115569819D01*
X120579636Y-115569819D02*
X120484398Y-115522200D01*
X120484398Y-115522200D02*
X120436779Y-115474580D01*
X120436779Y-115474580D02*
X120389160Y-115379342D01*
X120389160Y-115379342D02*
X120389160Y-115141247D01*
X120389160Y-115141247D02*
X120436779Y-115046009D01*
X120436779Y-115046009D02*
X120484398Y-114998390D01*
X120484398Y-114998390D02*
X120579636Y-114950771D01*
X120579636Y-114950771D02*
X120770112Y-114950771D01*
X120770112Y-114950771D02*
X120865350Y-114998390D01*
X120865350Y-114998390D02*
X120912969Y-115046009D01*
X120912969Y-115046009D02*
X120960588Y-115141247D01*
%TO.C,U2*%
D11*
X123052500Y-99690000D02*
X123052500Y-99890000D01*
X123052500Y-112210000D02*
X123052500Y-112410000D01*
X123052500Y-112410000D02*
X129372500Y-112410000D01*
X129372500Y-99690000D02*
X123052500Y-99690000D01*
X129372500Y-99890000D02*
X129372500Y-99690000D01*
X129372500Y-112410000D02*
X129372500Y-112210000D01*
X122412500Y-112210000D02*
X122072500Y-112680000D01*
X122752500Y-112680000D01*
X122412500Y-112210000D01*
G36*
X122752500Y-112680000D02*
G01*
X122072500Y-112680000D01*
X122412500Y-112210000D01*
X122752500Y-112680000D01*
G37*
%TD*%
%LPC*%
D12*
%TO.C,J4*%
X130800000Y-118600000D03*
%TD*%
D13*
%TO.C,J5*%
X123490000Y-124600000D03*
D14*
X123800000Y-121600000D03*
X128640000Y-121600000D03*
D13*
X128950000Y-124600000D03*
%TD*%
D15*
%TO.C,J2*%
X133840000Y-91600000D03*
D16*
X133840000Y-94140000D03*
X133840000Y-96680000D03*
X133840000Y-99220000D03*
X133840000Y-101760000D03*
X133840000Y-104300000D03*
X133840000Y-106840000D03*
X133840000Y-109380000D03*
X133840000Y-111920000D03*
X133840000Y-114460000D03*
X133840000Y-117000000D03*
X133840000Y-119540000D03*
X133840000Y-122080000D03*
X133840000Y-124620000D03*
%TD*%
D12*
%TO.C,J3*%
X130800000Y-116400000D03*
%TD*%
D15*
%TO.C,J1*%
X118600000Y-91600000D03*
D16*
X118600000Y-94140000D03*
X118600000Y-96680000D03*
X118600000Y-99220000D03*
X118600000Y-101760000D03*
X118600000Y-104300000D03*
X118600000Y-106840000D03*
X118600000Y-109380000D03*
X118600000Y-111920000D03*
X118600000Y-114460000D03*
X118600000Y-117000000D03*
X118600000Y-119540000D03*
X118600000Y-122080000D03*
X118600000Y-124620000D03*
%TD*%
D17*
%TO.C,J6*%
X122615000Y-91440000D03*
X123631000Y-96520000D03*
X121599000Y-96520000D03*
%TD*%
D18*
%TO.C,U2*%
X122500000Y-111800000D03*
X122500000Y-111300000D03*
X122500000Y-110800000D03*
X122500000Y-110300000D03*
X122500000Y-109800000D03*
X122500000Y-109300000D03*
X122500000Y-108800000D03*
X122500000Y-108300000D03*
X122500000Y-107800000D03*
X122500000Y-107300000D03*
X122500000Y-106800000D03*
X122500000Y-106300000D03*
X122500000Y-105800000D03*
X122500000Y-105300000D03*
X122500000Y-104800000D03*
X122500000Y-104300000D03*
X122500000Y-103800000D03*
X122500000Y-103300000D03*
X122500000Y-102800000D03*
X122500000Y-102300000D03*
X122500000Y-101800000D03*
X122500000Y-101300000D03*
X122500000Y-100800000D03*
X122500000Y-100300000D03*
X129925000Y-100300000D03*
X129925000Y-100800000D03*
X129925000Y-101300000D03*
X129925000Y-101800000D03*
X129925000Y-102300000D03*
X129925000Y-102800000D03*
X129925000Y-103300000D03*
X129925000Y-103800000D03*
X129925000Y-104300000D03*
X129925000Y-104800000D03*
X129925000Y-105300000D03*
X129925000Y-105800000D03*
X129925000Y-106300000D03*
X129925000Y-106800000D03*
X129925000Y-107300000D03*
X129925000Y-107800000D03*
X129925000Y-108300000D03*
X129925000Y-108800000D03*
X129925000Y-109300000D03*
X129925000Y-109800000D03*
X129925000Y-110300000D03*
X129925000Y-110800000D03*
X129925000Y-111300000D03*
X129925000Y-111800000D03*
%TD*%
D19*
%TO.C,C11*%
X131300000Y-102820000D03*
X131300000Y-102180000D03*
%TD*%
%LPD*%
M02*
