%TF.GenerationSoftware,KiCad,Pcbnew,10.0.3*%
%TF.CreationDate,2026-05-27T13:41:06-07:00*%
%TF.ProjectId,RXProg,52585072-6f67-42e6-9b69-6361645f7063,rev?*%
%TF.SameCoordinates,Original*%
%TF.FileFunction,Paste,Bot*%
%TF.FilePolarity,Positive*%
%FSLAX46Y46*%
G04 Gerber Fmt 4.6, Leading zero omitted, Abs format (unit mm)*
G04 Created by KiCad (PCBNEW 10.0.3) date 2026-05-27 13:41:06*
%MOMM*%
%LPD*%
G01*
G04 APERTURE LIST*
G04 Aperture macros list*
%AMRoundRect*
0 Rectangle with rounded corners*
0 $1 Rounding radius*
0 $2 $3 $4 $5 $6 $7 $8 $9 X,Y pos of 4 corners*
0 Add a 4 corners polygon primitive as box body*
4,1,4,$2,$3,$4,$5,$6,$7,$8,$9,$2,$3,0*
0 Add four circle primitives for the rounded corners*
1,1,$1+$1,$2,$3*
1,1,$1+$1,$4,$5*
1,1,$1+$1,$6,$7*
1,1,$1+$1,$8,$9*
0 Add four rect primitives between the rounded corners*
20,1,$1+$1,$2,$3,$4,$5,0*
20,1,$1+$1,$4,$5,$6,$7,0*
20,1,$1+$1,$6,$7,$8,$9,0*
20,1,$1+$1,$8,$9,$2,$3,0*%
G04 Aperture macros list end*
%ADD10RoundRect,0.075000X-0.662500X-0.075000X0.662500X-0.075000X0.662500X0.075000X-0.662500X0.075000X0*%
%ADD11RoundRect,0.079500X0.100500X-0.079500X0.100500X0.079500X-0.100500X0.079500X-0.100500X-0.079500X0*%
G04 APERTURE END LIST*
D10*
%TO.C,U2*%
X122500000Y-111800000D03*
X122500000Y-111300000D03*
X122500000Y-110800000D03*
X122500000Y-110300000D03*
X122500000Y-109800000D03*
X122500000Y-109300000D03*
X122500000Y-108800000D03*
X122500000Y-108300000D03*
X122500000Y-107800000D03*
X122500000Y-107300000D03*
X122500000Y-106800000D03*
X122500000Y-106300000D03*
X122500000Y-105800000D03*
X122500000Y-105300000D03*
X122500000Y-104800000D03*
X122500000Y-104300000D03*
X122500000Y-103800000D03*
X122500000Y-103300000D03*
X122500000Y-102800000D03*
X122500000Y-102300000D03*
X122500000Y-101800000D03*
X122500000Y-101300000D03*
X122500000Y-100800000D03*
X122500000Y-100300000D03*
X129925000Y-100300000D03*
X129925000Y-100800000D03*
X129925000Y-101300000D03*
X129925000Y-101800000D03*
X129925000Y-102300000D03*
X129925000Y-102800000D03*
X129925000Y-103300000D03*
X129925000Y-103800000D03*
X129925000Y-104300000D03*
X129925000Y-104800000D03*
X129925000Y-105300000D03*
X129925000Y-105800000D03*
X129925000Y-106300000D03*
X129925000Y-106800000D03*
X129925000Y-107300000D03*
X129925000Y-107800000D03*
X129925000Y-108300000D03*
X129925000Y-108800000D03*
X129925000Y-109300000D03*
X129925000Y-109800000D03*
X129925000Y-110300000D03*
X129925000Y-110800000D03*
X129925000Y-111300000D03*
X129925000Y-111800000D03*
%TD*%
D11*
%TO.C,C11*%
X131300000Y-102845000D03*
X131300000Y-102155000D03*
%TD*%
M02*
