%TF.GenerationSoftware,KiCad,Pcbnew,10.0.3*%
%TF.CreationDate,2026-05-27T13:41:06-07:00*%
%TF.ProjectId,RXProg,52585072-6f67-42e6-9b69-6361645f7063,rev?*%
%TF.SameCoordinates,Original*%
%TF.FileFunction,Soldermask,Top*%
%TF.FilePolarity,Negative*%
%FSLAX46Y46*%
G04 Gerber Fmt 4.6, Leading zero omitted, Abs format (unit mm)*
G04 Created by KiCad (PCBNEW 10.0.3) date 2026-05-27 13:41:06*
%MOMM*%
%LPD*%
G01*
G04 APERTURE LIST*
G04 Aperture macros list*
%AMRoundRect*
0 Rectangle with rounded corners*
0 $1 Rounding radius*
0 $2 $3 $4 $5 $6 $7 $8 $9 X,Y pos of 4 corners*
0 Add a 4 corners polygon primitive as box body*
4,1,4,$2,$3,$4,$5,$6,$7,$8,$9,$2,$3,0*
0 Add four circle primitives for the rounded corners*
1,1,$1+$1,$2,$3*
1,1,$1+$1,$4,$5*
1,1,$1+$1,$6,$7*
1,1,$1+$1,$8,$9*
0 Add four rect primitives between the rounded corners*
20,1,$1+$1,$2,$3,$4,$5,0*
20,1,$1+$1,$4,$5,$6,$7,0*
20,1,$1+$1,$6,$7,$8,$9,0*
20,1,$1+$1,$8,$9,$2,$3,0*%
%AMFreePoly0*
4,1,7,0.127000,-0.127008,0.254000,-0.127008,0.254000,-0.279408,-0.127000,-0.279400,-0.127000,0.279400,0.127000,0.279400,0.127000,-0.127008,0.127000,-0.127008,$1*%
%AMFreePoly1*
4,1,23,0.500000,-0.750000,0.000000,-0.750000,0.000000,-0.745722,-0.065263,-0.745722,-0.191342,-0.711940,-0.304381,-0.646677,-0.396677,-0.554381,-0.461940,-0.441342,-0.495722,-0.315263,-0.495722,-0.250000,-0.500000,-0.250000,-0.500000,0.250000,-0.495722,0.250000,-0.495722,0.315263,-0.461940,0.441342,-0.396677,0.554381,-0.304381,0.646677,-0.191342,0.711940,-0.065263,0.745722,0.000000,0.745722,
0.000000,0.750000,0.500000,0.750000,0.500000,-0.750000,0.500000,-0.750000,$1*%
%AMFreePoly2*
4,1,23,0.000000,0.745722,0.065263,0.745722,0.191342,0.711940,0.304381,0.646677,0.396677,0.554381,0.461940,0.441342,0.495722,0.315263,0.495722,0.250000,0.500000,0.250000,0.500000,-0.250000,0.495722,-0.250000,0.495722,-0.315263,0.461940,-0.441342,0.396677,-0.554381,0.304381,-0.646677,0.191342,-0.711940,0.065263,-0.745722,0.000000,-0.745722,0.000000,-0.750000,-0.500000,-0.750000,
-0.500000,0.750000,0.000000,0.750000,0.000000,0.745722,0.000000,0.745722,$1*%
G04 Aperture macros list end*
%ADD10C,1.400000*%
%ADD11RoundRect,0.100000X0.130000X0.100000X-0.130000X0.100000X-0.130000X-0.100000X0.130000X-0.100000X0*%
%ADD12R,0.400000X1.650000*%
%ADD13R,1.430000X2.500000*%
%ADD14R,1.825000X0.700000*%
%ADD15R,2.000000X1.500000*%
%ADD16R,1.350000X2.000000*%
%ADD17O,1.350000X1.700000*%
%ADD18O,1.100000X1.500000*%
%ADD19RoundRect,0.150000X-0.200000X0.150000X-0.200000X-0.150000X0.200000X-0.150000X0.200000X0.150000X0*%
%ADD20RoundRect,0.100000X0.100000X-0.130000X0.100000X0.130000X-0.100000X0.130000X-0.100000X-0.130000X0*%
%ADD21RoundRect,0.075000X-0.075000X0.662500X-0.075000X-0.662500X0.075000X-0.662500X0.075000X0.662500X0*%
%ADD22RoundRect,0.075000X-0.662500X0.075000X-0.662500X-0.075000X0.662500X-0.075000X0.662500X0.075000X0*%
%ADD23RoundRect,0.150000X0.512500X0.150000X-0.512500X0.150000X-0.512500X-0.150000X0.512500X-0.150000X0*%
%ADD24FreePoly0,270.000000*%
%ADD25R,0.558800X0.254000*%
%ADD26R,0.254000X0.558800*%
%ADD27R,1.700000X1.700000*%
%ADD28C,1.700000*%
%ADD29RoundRect,0.100000X-0.100000X0.130000X-0.100000X-0.130000X0.100000X-0.130000X0.100000X0.130000X0*%
%ADD30C,0.787400*%
%ADD31FreePoly1,0.000000*%
%ADD32FreePoly2,0.000000*%
%ADD33R,0.900000X0.240000*%
%ADD34R,0.240000X0.900000*%
%ADD35R,2.900000X1.000000*%
G04 APERTURE END LIST*
%TO.C,JP1*%
G36*
X125900000Y-99750000D02*
G01*
X126200000Y-99750000D01*
X126200000Y-101250000D01*
X125900000Y-101250000D01*
X125900000Y-99750000D01*
G37*
%TD*%
D10*
%TO.C,J4*%
X130800000Y-118600000D03*
%TD*%
D11*
%TO.C,C4*%
X121920000Y-111100000D03*
X121280000Y-111100000D03*
%TD*%
D12*
%TO.C,J5*%
X124920000Y-121720000D03*
X125570000Y-121720000D03*
X126220000Y-121720000D03*
X126870000Y-121720000D03*
X127520000Y-121720000D03*
D13*
X125260000Y-124870000D03*
X127180000Y-124870000D03*
D14*
X123270000Y-122920000D03*
D15*
X123370000Y-121620000D03*
D16*
X123490000Y-123670000D03*
D17*
X123490000Y-124600000D03*
D18*
X123800000Y-121600000D03*
X128640000Y-121600000D03*
D17*
X128950000Y-124600000D03*
D16*
X128970000Y-123670000D03*
D15*
X129120000Y-121600000D03*
D14*
X129220000Y-122920000D03*
%TD*%
D19*
%TO.C,D1*%
X131155000Y-97200000D03*
X131155000Y-95800000D03*
%TD*%
D20*
%TO.C,C12*%
X127000000Y-117100000D03*
X127000000Y-116460000D03*
%TD*%
D21*
%TO.C,U1*%
X128950000Y-103237500D03*
X128450000Y-103237500D03*
X127950000Y-103237500D03*
X127450000Y-103237500D03*
X126950000Y-103237500D03*
X126450000Y-103237500D03*
X125950000Y-103237500D03*
X125450000Y-103237500D03*
X124950000Y-103237500D03*
X124450000Y-103237500D03*
X123950000Y-103237500D03*
X123450000Y-103237500D03*
D22*
X122037500Y-104650000D03*
X122037500Y-105150000D03*
X122037500Y-105650000D03*
X122037500Y-106150000D03*
X122037500Y-106650000D03*
X122037500Y-107150000D03*
X122037500Y-107650000D03*
X122037500Y-108150000D03*
X122037500Y-108650000D03*
X122037500Y-109150000D03*
X122037500Y-109650000D03*
X122037500Y-110150000D03*
D21*
X123450000Y-111562500D03*
X123950000Y-111562500D03*
X124450000Y-111562500D03*
X124950000Y-111562500D03*
X125450000Y-111562500D03*
X125950000Y-111562500D03*
X126450000Y-111562500D03*
X126950000Y-111562500D03*
X127450000Y-111562500D03*
X127950000Y-111562500D03*
X128450000Y-111562500D03*
X128950000Y-111562500D03*
D22*
X130362500Y-110150000D03*
X130362500Y-109650000D03*
X130362500Y-109150000D03*
X130362500Y-108650000D03*
X130362500Y-108150000D03*
X130362500Y-107650000D03*
X130362500Y-107150000D03*
X130362500Y-106650000D03*
X130362500Y-106150000D03*
X130362500Y-105650000D03*
X130362500Y-105150000D03*
X130362500Y-104650000D03*
%TD*%
D23*
%TO.C,U4*%
X130937500Y-92750000D03*
X130937500Y-91800000D03*
X130937500Y-90850000D03*
X128662500Y-90850000D03*
X128662500Y-92750000D03*
%TD*%
D11*
%TO.C,C6*%
X129645000Y-97400000D03*
X129005000Y-97400000D03*
%TD*%
D20*
%TO.C,C2*%
X130250000Y-102990000D03*
X130250000Y-102350000D03*
%TD*%
D11*
%TO.C,C9*%
X128120000Y-97400000D03*
X127480000Y-97400000D03*
%TD*%
D24*
%TO.C,U3*%
X129605000Y-96200100D03*
D25*
X129605000Y-95800050D03*
X129605000Y-95400000D03*
X129605000Y-94999950D03*
X129605000Y-94599900D03*
D26*
X128980000Y-94625000D03*
D25*
X128355000Y-94599900D03*
X128355000Y-94999950D03*
X128355000Y-95400000D03*
X128355000Y-95800050D03*
X128355000Y-96200100D03*
D26*
X128980000Y-96175000D03*
%TD*%
D27*
%TO.C,J2*%
X133840000Y-91600000D03*
D28*
X133840000Y-94140000D03*
X133840000Y-96680000D03*
X133840000Y-99220000D03*
X133840000Y-101760000D03*
X133840000Y-104300000D03*
X133840000Y-106840000D03*
X133840000Y-109380000D03*
X133840000Y-111920000D03*
X133840000Y-114460000D03*
X133840000Y-117000000D03*
X133840000Y-119540000D03*
X133840000Y-122080000D03*
X133840000Y-124620000D03*
%TD*%
D10*
%TO.C,J3*%
X130800000Y-116400000D03*
%TD*%
D11*
%TO.C,C7*%
X131600000Y-94100000D03*
X130960000Y-94100000D03*
%TD*%
D29*
%TO.C,C5*%
X127000000Y-118180000D03*
X127000000Y-118820000D03*
%TD*%
D27*
%TO.C,J1*%
X118600000Y-91600000D03*
D28*
X118600000Y-94140000D03*
X118600000Y-96680000D03*
X118600000Y-99220000D03*
X118600000Y-101760000D03*
X118600000Y-104300000D03*
X118600000Y-106840000D03*
X118600000Y-109380000D03*
X118600000Y-111920000D03*
X118600000Y-114460000D03*
X118600000Y-117000000D03*
X118600000Y-119540000D03*
X118600000Y-122080000D03*
X118600000Y-124620000D03*
%TD*%
D30*
%TO.C,J6*%
X121980000Y-92710000D03*
X123250000Y-92710000D03*
X121980000Y-93980000D03*
X123250000Y-93980000D03*
X121980000Y-95250000D03*
X123250000Y-95250000D03*
%TD*%
D31*
%TO.C,JP1*%
X125400000Y-100500000D03*
D32*
X126700000Y-100500000D03*
%TD*%
D20*
%TO.C,C10*%
X123600000Y-101520000D03*
X123600000Y-100880000D03*
%TD*%
D29*
%TO.C,C3*%
X129900000Y-111780000D03*
X129900000Y-112420000D03*
%TD*%
D20*
%TO.C,C1*%
X131100000Y-102800000D03*
X131100000Y-102160000D03*
%TD*%
D33*
%TO.C,U5*%
X125750000Y-117650000D03*
D34*
X125200000Y-116600000D03*
X124700000Y-116600000D03*
X124200000Y-116600000D03*
X123700000Y-116600000D03*
X123200000Y-116600000D03*
X122700000Y-116600000D03*
X122200000Y-116600000D03*
X121700000Y-116600000D03*
D33*
X121150000Y-117650000D03*
X121150000Y-118150000D03*
D34*
X121700000Y-119200000D03*
X122200000Y-119200000D03*
X122700000Y-119200000D03*
X123200000Y-119200000D03*
X123700000Y-119200000D03*
X124200000Y-119200000D03*
X124700000Y-119200000D03*
X125200000Y-119200000D03*
D33*
X125750000Y-118150000D03*
D35*
X123450000Y-117900000D03*
%TD*%
D20*
%TO.C,C8*%
X127200000Y-92720000D03*
X127200000Y-92080000D03*
%TD*%
M02*
