%TF.GenerationSoftware,KiCad,Pcbnew,10.0.3*%
%TF.CreationDate,2026-05-28T08:34:56-07:00*%
%TF.ProjectId,RXProg,52585072-6f67-42e6-9b69-6361645f7063,rev?*%
%TF.SameCoordinates,Original*%
%TF.FileFunction,Paste,Top*%
%TF.FilePolarity,Positive*%
%FSLAX46Y46*%
G04 Gerber Fmt 4.6, Leading zero omitted, Abs format (unit mm)*
G04 Created by KiCad (PCBNEW 10.0.3) date 2026-05-28 08:34:56*
%MOMM*%
%LPD*%
G01*
G04 APERTURE LIST*
G04 Aperture macros list*
%AMRoundRect*
0 Rectangle with rounded corners*
0 $1 Rounding radius*
0 $2 $3 $4 $5 $6 $7 $8 $9 X,Y pos of 4 corners*
0 Add a 4 corners polygon primitive as box body*
4,1,4,$2,$3,$4,$5,$6,$7,$8,$9,$2,$3,0*
0 Add four circle primitives for the rounded corners*
1,1,$1+$1,$2,$3*
1,1,$1+$1,$4,$5*
1,1,$1+$1,$6,$7*
1,1,$1+$1,$8,$9*
0 Add four rect primitives between the rounded corners*
20,1,$1+$1,$2,$3,$4,$5,0*
20,1,$1+$1,$4,$5,$6,$7,0*
20,1,$1+$1,$6,$7,$8,$9,0*
20,1,$1+$1,$8,$9,$2,$3,0*%
%AMFreePoly0*
4,1,7,0.127000,-0.127008,0.254000,-0.127008,0.254000,-0.279408,-0.127000,-0.279400,-0.127000,0.279400,0.127000,0.279400,0.127000,-0.127008,0.127000,-0.127008,$1*%
G04 Aperture macros list end*
%ADD10RoundRect,0.079500X0.079500X0.100500X-0.079500X0.100500X-0.079500X-0.100500X0.079500X-0.100500X0*%
%ADD11R,0.400000X1.650000*%
%ADD12R,1.430000X2.500000*%
%ADD13R,1.825000X0.700000*%
%ADD14R,2.000000X1.500000*%
%ADD15R,1.350000X2.000000*%
%ADD16RoundRect,0.150000X-0.200000X0.150000X-0.200000X-0.150000X0.200000X-0.150000X0.200000X0.150000X0*%
%ADD17RoundRect,0.079500X0.100500X-0.079500X0.100500X0.079500X-0.100500X0.079500X-0.100500X-0.079500X0*%
%ADD18RoundRect,0.075000X-0.075000X0.662500X-0.075000X-0.662500X0.075000X-0.662500X0.075000X0.662500X0*%
%ADD19RoundRect,0.075000X-0.662500X0.075000X-0.662500X-0.075000X0.662500X-0.075000X0.662500X0.075000X0*%
%ADD20RoundRect,0.150000X0.512500X0.150000X-0.512500X0.150000X-0.512500X-0.150000X0.512500X-0.150000X0*%
%ADD21FreePoly0,270.000000*%
%ADD22R,0.558800X0.254000*%
%ADD23R,0.254000X0.558800*%
%ADD24RoundRect,0.079500X-0.100500X0.079500X-0.100500X-0.079500X0.100500X-0.079500X0.100500X0.079500X0*%
%ADD25R,0.800000X0.800000*%
%ADD26R,0.900000X0.240000*%
%ADD27R,0.240000X0.900000*%
G04 APERTURE END LIST*
D10*
%TO.C,C4*%
X121945000Y-111100000D03*
X121255000Y-111100000D03*
%TD*%
D11*
%TO.C,J5*%
X124920000Y-121720000D03*
X125570000Y-121720000D03*
X126220000Y-121720000D03*
X126870000Y-121720000D03*
X127520000Y-121720000D03*
D12*
X125260000Y-124870000D03*
X127180000Y-124870000D03*
D13*
X123270000Y-122920000D03*
D14*
X123370000Y-121620000D03*
D15*
X123490000Y-123670000D03*
X128970000Y-123670000D03*
D14*
X129120000Y-121600000D03*
D13*
X129220000Y-122920000D03*
%TD*%
D16*
%TO.C,D1*%
X131155000Y-97200000D03*
X131155000Y-95800000D03*
%TD*%
D17*
%TO.C,C12*%
X127000000Y-117125000D03*
X127000000Y-116435000D03*
%TD*%
D18*
%TO.C,U1*%
X128950000Y-103237500D03*
X128450000Y-103237500D03*
X127950000Y-103237500D03*
X127450000Y-103237500D03*
X126950000Y-103237500D03*
X126450000Y-103237500D03*
X125950000Y-103237500D03*
X125450000Y-103237500D03*
X124950000Y-103237500D03*
X124450000Y-103237500D03*
X123950000Y-103237500D03*
X123450000Y-103237500D03*
D19*
X122037500Y-104650000D03*
X122037500Y-105150000D03*
X122037500Y-105650000D03*
X122037500Y-106150000D03*
X122037500Y-106650000D03*
X122037500Y-107150000D03*
X122037500Y-107650000D03*
X122037500Y-108150000D03*
X122037500Y-108650000D03*
X122037500Y-109150000D03*
X122037500Y-109650000D03*
X122037500Y-110150000D03*
D18*
X123450000Y-111562500D03*
X123950000Y-111562500D03*
X124450000Y-111562500D03*
X124950000Y-111562500D03*
X125450000Y-111562500D03*
X125950000Y-111562500D03*
X126450000Y-111562500D03*
X126950000Y-111562500D03*
X127450000Y-111562500D03*
X127950000Y-111562500D03*
X128450000Y-111562500D03*
X128950000Y-111562500D03*
D19*
X130362500Y-110150000D03*
X130362500Y-109650000D03*
X130362500Y-109150000D03*
X130362500Y-108650000D03*
X130362500Y-108150000D03*
X130362500Y-107650000D03*
X130362500Y-107150000D03*
X130362500Y-106650000D03*
X130362500Y-106150000D03*
X130362500Y-105650000D03*
X130362500Y-105150000D03*
X130362500Y-104650000D03*
%TD*%
D20*
%TO.C,U4*%
X130937500Y-92750000D03*
X130937500Y-91800000D03*
X130937500Y-90850000D03*
X128662500Y-90850000D03*
X128662500Y-92750000D03*
%TD*%
D10*
%TO.C,C6*%
X129670000Y-97400000D03*
X128980000Y-97400000D03*
%TD*%
D17*
%TO.C,C2*%
X130250000Y-103015000D03*
X130250000Y-102325000D03*
%TD*%
D10*
%TO.C,C9*%
X128145000Y-97400000D03*
X127455000Y-97400000D03*
%TD*%
D21*
%TO.C,U3*%
X129605000Y-96200100D03*
D22*
X129605000Y-95800050D03*
X129605000Y-95400000D03*
X129605000Y-94999950D03*
X129605000Y-94599900D03*
D23*
X128980000Y-94625000D03*
D22*
X128355000Y-94599900D03*
X128355000Y-94999950D03*
X128355000Y-95400000D03*
X128355000Y-95800050D03*
X128355000Y-96200100D03*
D23*
X128980000Y-96175000D03*
%TD*%
D10*
%TO.C,C7*%
X131625000Y-94100000D03*
X130935000Y-94100000D03*
%TD*%
D24*
%TO.C,C5*%
X127000000Y-118155000D03*
X127000000Y-118845000D03*
%TD*%
D17*
%TO.C,C10*%
X123600000Y-101545000D03*
X123600000Y-100855000D03*
%TD*%
D24*
%TO.C,C3*%
X129900000Y-111755000D03*
X129900000Y-112445000D03*
%TD*%
D17*
%TO.C,C1*%
X131100000Y-102825000D03*
X131100000Y-102135000D03*
%TD*%
D25*
%TO.C,U5*%
X124400000Y-117900000D03*
X123450000Y-117900000D03*
X122500000Y-117900000D03*
D26*
X125750000Y-117650000D03*
D27*
X125200000Y-116600000D03*
X124700000Y-116600000D03*
X124200000Y-116600000D03*
X123700000Y-116600000D03*
X123200000Y-116600000D03*
X122700000Y-116600000D03*
X122200000Y-116600000D03*
X121700000Y-116600000D03*
D26*
X121150000Y-117650000D03*
X121150000Y-118150000D03*
D27*
X121700000Y-119200000D03*
X122200000Y-119200000D03*
X122700000Y-119200000D03*
X123200000Y-119200000D03*
X123700000Y-119200000D03*
X124200000Y-119200000D03*
X124700000Y-119200000D03*
X125200000Y-119200000D03*
D26*
X125750000Y-118150000D03*
%TD*%
D17*
%TO.C,C8*%
X127200000Y-92745000D03*
X127200000Y-92055000D03*
%TD*%
M02*
