%TF.GenerationSoftware,KiCad,Pcbnew,10.0.3*%
%TF.CreationDate,2026-05-28T08:34:56-07:00*%
%TF.ProjectId,RXProg,52585072-6f67-42e6-9b69-6361645f7063,rev?*%
%TF.SameCoordinates,Original*%
%TF.FileFunction,Copper,L2,Inr*%
%TF.FilePolarity,Positive*%
%FSLAX46Y46*%
G04 Gerber Fmt 4.6, Leading zero omitted, Abs format (unit mm)*
G04 Created by KiCad (PCBNEW 10.0.3) date 2026-05-28 08:34:56*
%MOMM*%
%LPD*%
G01*
G04 APERTURE LIST*
%TA.AperFunction,ComponentPad*%
%ADD10C,1.400000*%
%TD*%
%TA.AperFunction,ComponentPad*%
%ADD11O,1.350000X1.700000*%
%TD*%
%TA.AperFunction,ComponentPad*%
%ADD12O,1.100000X1.500000*%
%TD*%
%TA.AperFunction,ComponentPad*%
%ADD13R,1.700000X1.700000*%
%TD*%
%TA.AperFunction,ComponentPad*%
%ADD14C,1.700000*%
%TD*%
%TA.AperFunction,ViaPad*%
%ADD15C,0.450000*%
%TD*%
%TA.AperFunction,ViaPad*%
%ADD16C,0.500000*%
%TD*%
%TA.AperFunction,Conductor*%
%ADD17C,0.100000*%
%TD*%
G04 APERTURE END LIST*
D10*
%TO.N,~{CS3}*%
%TO.C,J4*%
X130800000Y-118600000D03*
%TD*%
D11*
%TO.N,GND*%
%TO.C,J5*%
X123490000Y-124600000D03*
D12*
X123800000Y-121600000D03*
X128640000Y-121600000D03*
D11*
X128950000Y-124600000D03*
%TD*%
D13*
%TO.N,{slash}VBAT*%
%TO.C,J2*%
X133840000Y-91600000D03*
D14*
%TO.N,{slash}~{WE}*%
X133840000Y-94140000D03*
%TO.N,VBAT{slash}~{RES}*%
X133840000Y-96680000D03*
%TO.N,A8*%
X133840000Y-99220000D03*
%TO.N,A9*%
X133840000Y-101760000D03*
%TO.N,~{WE}{slash}A11*%
X133840000Y-104300000D03*
%TO.N,RES{slash}~{OE}*%
X133840000Y-106840000D03*
%TO.N,A10*%
X133840000Y-109380000D03*
%TO.N,~{CS1}*%
X133840000Y-111920000D03*
%TO.N,D8*%
X133840000Y-114460000D03*
%TO.N,D7*%
X133840000Y-117000000D03*
%TO.N,D6*%
X133840000Y-119540000D03*
%TO.N,D5*%
X133840000Y-122080000D03*
%TO.N,D4*%
X133840000Y-124620000D03*
%TD*%
D10*
%TO.N,~{CS2}*%
%TO.C,J3*%
X130800000Y-116400000D03*
%TD*%
D13*
%TO.N,unconnected-(J1-Pin_1-Pad1)*%
%TO.C,J1*%
X118600000Y-91600000D03*
D14*
%TO.N,{slash}A12*%
X118600000Y-94140000D03*
%TO.N,A7*%
X118600000Y-96680000D03*
%TO.N,A6*%
X118600000Y-99220000D03*
%TO.N,A5*%
X118600000Y-101760000D03*
%TO.N,A4*%
X118600000Y-104300000D03*
%TO.N,A3*%
X118600000Y-106840000D03*
%TO.N,A2*%
X118600000Y-109380000D03*
%TO.N,A1*%
X118600000Y-111920000D03*
%TO.N,A0*%
X118600000Y-114460000D03*
%TO.N,D1*%
X118600000Y-117000000D03*
%TO.N,D2*%
X118600000Y-119540000D03*
%TO.N,D3*%
X118600000Y-122080000D03*
%TO.N,GND*%
X118600000Y-124620000D03*
%TD*%
D15*
%TO.N,~{CS3}*%
X121000000Y-100800000D03*
D16*
%TO.N,+3V3*%
X129000000Y-112800000D03*
X121900000Y-112300000D03*
X131100000Y-103500000D03*
D15*
X125800000Y-117300000D03*
D16*
X128200000Y-98100000D03*
X126600000Y-92700000D03*
X121200000Y-92400000D03*
%TO.N,GND*%
X131100000Y-113950000D03*
X120400000Y-110300000D03*
X126300000Y-98800000D03*
X131500000Y-107245000D03*
X131700000Y-121300000D03*
X120700000Y-91000000D03*
X120700000Y-115100000D03*
X126500000Y-94500000D03*
X120400000Y-111700000D03*
X131500000Y-104800000D03*
X128900000Y-115700000D03*
X126900000Y-110300000D03*
X121000000Y-98900000D03*
X127000000Y-108700000D03*
X128400000Y-120100000D03*
X124100000Y-99100000D03*
X125333880Y-105535521D03*
X130700000Y-99150000D03*
X131200000Y-101500000D03*
X120700000Y-121400000D03*
X131700000Y-124800000D03*
X120700000Y-124600000D03*
X131700000Y-111500000D03*
X127300000Y-114300000D03*
X123600000Y-104450000D03*
X126050000Y-119650000D03*
X120700000Y-94500000D03*
X132300000Y-95100000D03*
%TO.N,{slash}VBAT*%
X127000000Y-118180000D03*
X120926752Y-108803700D03*
X121573215Y-103354367D03*
X123600000Y-101520000D03*
X130400000Y-97400000D03*
D15*
%TO.N,Net-(U1-PA0)*%
X125975000Y-115800000D03*
X126430000Y-105200000D03*
%TO.N,Net-(U1-PA1)*%
X125325000Y-115800000D03*
X125800000Y-105100000D03*
%TO.N,Net-(U1-PA2)*%
X125258820Y-104899860D03*
X124475000Y-115775000D03*
%TO.N,Net-(U1-PA3)*%
X123777003Y-115800000D03*
X124450000Y-104900000D03*
%TO.N,Net-(U1-PA4)*%
X123200000Y-115800000D03*
X124110589Y-105389412D03*
%TO.N,Net-(U1-PA5)*%
X122623047Y-115807500D03*
X123884343Y-105947728D03*
%TO.N,Net-(U1-PA6)*%
X123650000Y-106475000D03*
X122000000Y-115800000D03*
%TO.N,Net-(U1-PA7)*%
X123550000Y-107050000D03*
X121300000Y-115800000D03*
%TO.N,Net-(U1-PB0)*%
X130980261Y-110649216D03*
X121000000Y-104300000D03*
%TO.N,Net-(U1-PB1)*%
X129925000Y-110800000D03*
X119900000Y-107200000D03*
%TO.N,Net-(U1-PB2)*%
X127800000Y-109800000D03*
X120400000Y-107700000D03*
%TO.N,Net-(U1-PB10)*%
X130950000Y-104150000D03*
X120400000Y-108300000D03*
%TO.N,Net-(U1-PB11)*%
X127800000Y-104300000D03*
X126500000Y-106000000D03*
%TO.N,Net-(U1-PB12)*%
X125700000Y-106800000D03*
X127100000Y-102100000D03*
%TO.N,Net-(U1-PB13)*%
X125791998Y-107491998D03*
X128625000Y-101750000D03*
%TO.N,Net-(U1-PB14)*%
X128686840Y-101115798D03*
X126200000Y-107900000D03*
%TO.N,Net-(U1-PB15)*%
X128800000Y-100550000D03*
X127000000Y-108000000D03*
%TO.N,Net-(U1-PA8)*%
X125900000Y-112900000D03*
X120400000Y-118100000D03*
%TO.N,~{ADDR_OE}*%
X126450000Y-111562500D03*
%TO.N,Net-(J6-SWDIO)*%
X128100000Y-108200000D03*
X124900000Y-93100000D03*
%TO.N,Net-(J6-SWCLK)*%
X128548542Y-107774937D03*
X125500000Y-94400000D03*
%TO.N,Net-(JP1-B)*%
X126700000Y-100500000D03*
X131500000Y-108900000D03*
%TO.N,Net-(U1-PB3)*%
X129000000Y-109200000D03*
%TO.N,Net-(U1-PB4)*%
X130936692Y-108175000D03*
%TO.N,Net-(U1-PB5)*%
X129125000Y-107800000D03*
%TO.N,Net-(U1-PB6)*%
X129312143Y-106825001D03*
%TO.N,Net-(U1-PB7)*%
X131028587Y-106625000D03*
%TO.N,Net-(U1-PB8)*%
X129073086Y-105871549D03*
%TO.N,Net-(U1-PB9)*%
X130984693Y-105674994D03*
%TO.N,RES{slash}~{OE}*%
X131300000Y-95100000D03*
%TO.N,A8*%
X128500000Y-106500000D03*
%TO.N,A9*%
X120775000Y-103425000D03*
%TO.N,~{WE}{slash}A11*%
X126300000Y-102100000D03*
%TO.N,A10*%
X127200000Y-104400000D03*
%TO.N,~{CS1}*%
X121100000Y-102300000D03*
%TO.N,D8*%
X121100000Y-118800000D03*
%TO.N,D7*%
X122200000Y-119200000D03*
%TO.N,D6*%
X122250000Y-120250000D03*
%TO.N,D5*%
X122850000Y-120250000D03*
%TO.N,D4*%
X123500000Y-120250000D03*
%TO.N,~{CS2}*%
X121100000Y-101500000D03*
%TO.N,D1*%
X125176842Y-118570762D03*
%TO.N,D2*%
X124702816Y-120249964D03*
%TO.N,D3*%
X124125861Y-120257414D03*
%TD*%
%TO.N,Net-(U1-PB0)*%
D17*
X120800000Y-104500000D02*
X121000000Y-104300000D01*
X120800000Y-104915420D02*
X120800000Y-104500000D01*
X127998823Y-109320000D02*
X125204580Y-109320000D01*
X128998823Y-110320000D02*
X127998823Y-109320000D01*
X130555185Y-110320000D02*
X128998823Y-110320000D01*
X130884401Y-110649216D02*
X130555185Y-110320000D01*
X130980261Y-110649216D02*
X130884401Y-110649216D01*
X125204580Y-109320000D02*
X120800000Y-104915420D01*
%TO.N,Net-(U1-PB1)*%
X119900000Y-107200000D02*
X119900000Y-108491126D01*
X122208874Y-110800000D02*
X129925000Y-110800000D01*
X119900000Y-108491126D02*
X122208874Y-110800000D01*
%TO.N,Net-(U1-PB2)*%
X123025000Y-107700000D02*
X120400000Y-107700000D01*
X125125000Y-109800000D02*
X123025000Y-107700000D01*
X127800000Y-109800000D02*
X125125000Y-109800000D01*
%TO.N,Net-(U1-PB11)*%
X127800000Y-105393900D02*
X127193900Y-106000000D01*
X127800000Y-104300000D02*
X127800000Y-105393900D01*
X127193900Y-106000000D02*
X126500000Y-106000000D01*
%TO.N,Net-(U1-PB12)*%
X125963050Y-106536950D02*
X126925650Y-106536950D01*
X128700000Y-102800000D02*
X128100000Y-102200000D01*
X127200000Y-102200000D02*
X127100000Y-102100000D01*
X125700000Y-106800000D02*
X125963050Y-106536950D01*
X128100000Y-102200000D02*
X127200000Y-102200000D01*
X126925650Y-106536950D02*
X128700000Y-104762600D01*
X128700000Y-104762600D02*
X128700000Y-102800000D01*
%TO.N,Net-(U1-PB13)*%
X126831300Y-106900000D02*
X128890000Y-104841300D01*
X128625000Y-101750000D02*
X128650000Y-101750000D01*
X128890000Y-102015000D02*
X128625000Y-101750000D01*
X128890000Y-104841300D02*
X128890000Y-102015000D01*
X126300000Y-106900000D02*
X126831300Y-106900000D01*
X125791998Y-107408002D02*
X126300000Y-106900000D01*
X125791998Y-107491998D02*
X125791998Y-107408002D01*
%TO.N,Net-(U1-PB14)*%
X129080000Y-104920000D02*
X126700000Y-107300000D01*
X129080000Y-101480000D02*
X129080000Y-104920000D01*
X126621177Y-107300000D02*
X126200000Y-107721177D01*
X126700000Y-107300000D02*
X126621177Y-107300000D01*
X128715798Y-101115798D02*
X129080000Y-101480000D01*
X128686840Y-101115798D02*
X128715798Y-101115798D01*
X126200000Y-107721177D02*
X126200000Y-107900000D01*
%TO.N,Net-(U1-PB15)*%
X128850000Y-100550000D02*
X129280000Y-100980000D01*
X129280000Y-105020000D02*
X127000000Y-107300000D01*
X128800000Y-100550000D02*
X128850000Y-100550000D01*
X129280000Y-100980000D02*
X129280000Y-105020000D01*
X127000000Y-107300000D02*
X127000000Y-108000000D01*
%TO.N,RES{slash}~{OE}*%
X132200000Y-105200000D02*
X133840000Y-106840000D01*
X132200000Y-96000000D02*
X132200000Y-105200000D01*
X131300000Y-95100000D02*
X132200000Y-96000000D01*
%TO.N,D1*%
X123622984Y-117000000D02*
X118600000Y-117000000D01*
X125176842Y-118553858D02*
X123622984Y-117000000D01*
X125176842Y-118570762D02*
X125176842Y-118553858D01*
%TO.N,D2*%
X121038823Y-119540000D02*
X118600000Y-119540000D01*
X124700000Y-120021177D02*
X123398823Y-118720000D01*
X123398823Y-118720000D02*
X121858823Y-118720000D01*
X121858823Y-118720000D02*
X121038823Y-119540000D01*
X124700000Y-120247148D02*
X124700000Y-120021177D01*
X124702816Y-120249964D02*
X124700000Y-120247148D01*
%TO.N,D3*%
X124155893Y-120257414D02*
X124200000Y-120301521D01*
X124800000Y-120978823D02*
X124800000Y-122300000D01*
X124125861Y-120257414D02*
X124155893Y-120257414D01*
X124200000Y-120378823D02*
X124800000Y-120978823D01*
X119120000Y-122600000D02*
X118600000Y-122080000D01*
X124200000Y-120301521D02*
X124200000Y-120378823D01*
X124500000Y-122600000D02*
X119120000Y-122600000D01*
X124800000Y-122300000D02*
X124500000Y-122600000D01*
%TD*%
%TA.AperFunction,Conductor*%
%TO.N,GND*%
G36*
X122988477Y-107862174D02*
G01*
X125005888Y-109879585D01*
X125005889Y-109879587D01*
X125045413Y-109919111D01*
X125081927Y-109934235D01*
X125097052Y-109940500D01*
X125097053Y-109940500D01*
X127236827Y-109940500D01*
X127289153Y-109962174D01*
X127308304Y-109995344D01*
X127310312Y-110002836D01*
X127379495Y-110122665D01*
X127477335Y-110220505D01*
X127597164Y-110289688D01*
X127730814Y-110325499D01*
X127730815Y-110325500D01*
X127730817Y-110325500D01*
X127869185Y-110325500D01*
X127869185Y-110325499D01*
X128002836Y-110289688D01*
X128122665Y-110220505D01*
X128220505Y-110122665D01*
X128289688Y-110002836D01*
X128297358Y-109974208D01*
X128331835Y-109929277D01*
X128387987Y-109921883D01*
X128421162Y-109941036D01*
X128879711Y-110399585D01*
X128879712Y-110399587D01*
X128919236Y-110439111D01*
X128945056Y-110449805D01*
X128970876Y-110460501D01*
X129035383Y-110460501D01*
X129035391Y-110460500D01*
X129386043Y-110460500D01*
X129401295Y-110466817D01*
X129417784Y-110467653D01*
X129426440Y-110477232D01*
X129438369Y-110482174D01*
X129444686Y-110497426D01*
X129455755Y-110509676D01*
X129454675Y-110521541D01*
X129460043Y-110534500D01*
X129452890Y-110566241D01*
X129451614Y-110568926D01*
X129435312Y-110597164D01*
X129431562Y-110611158D01*
X129428674Y-110617241D01*
X129412279Y-110632054D01*
X129398827Y-110649586D01*
X129390369Y-110651852D01*
X129386651Y-110655212D01*
X129379232Y-110654836D01*
X129361827Y-110659500D01*
X122297723Y-110659500D01*
X122245397Y-110637826D01*
X121060317Y-109452746D01*
X121038643Y-109400420D01*
X121060317Y-109348094D01*
X121093488Y-109328942D01*
X121139237Y-109316684D01*
X121264767Y-109244209D01*
X121367261Y-109141715D01*
X121439736Y-109016185D01*
X121477251Y-108876177D01*
X121477252Y-108876177D01*
X121477252Y-108731223D01*
X121477251Y-108731222D01*
X121439737Y-108591218D01*
X121439735Y-108591213D01*
X121401795Y-108525499D01*
X121367261Y-108465685D01*
X121264767Y-108363191D01*
X121227854Y-108341879D01*
X121139238Y-108290716D01*
X121139233Y-108290714D01*
X120999229Y-108253200D01*
X120999227Y-108253200D01*
X120988280Y-108253200D01*
X120935954Y-108231526D01*
X120916802Y-108198353D01*
X120889689Y-108097167D01*
X120889687Y-108097162D01*
X120854952Y-108037000D01*
X120853873Y-108028806D01*
X120848540Y-108022495D01*
X120850566Y-108003691D01*
X120847559Y-107980848D01*
X120853282Y-107966057D01*
X120854082Y-107964505D01*
X120889688Y-107902836D01*
X120893758Y-107887643D01*
X120897417Y-107880557D01*
X120913417Y-107867036D01*
X120926173Y-107850414D01*
X120936301Y-107847700D01*
X120940678Y-107844002D01*
X120947853Y-107844604D01*
X120963173Y-107840500D01*
X122936151Y-107840500D01*
X122988477Y-107862174D01*
G37*
%TD.AperFunction*%
%TA.AperFunction,Conductor*%
G36*
X135577826Y-89822174D02*
G01*
X135599500Y-89874500D01*
X135599500Y-126325500D01*
X135577826Y-126377826D01*
X135525500Y-126399500D01*
X116874500Y-126399500D01*
X116822174Y-126377826D01*
X116800500Y-126325500D01*
X116800500Y-124529453D01*
X132689500Y-124529453D01*
X132689500Y-124710546D01*
X132717828Y-124889406D01*
X132717831Y-124889419D01*
X132773787Y-125061635D01*
X132773788Y-125061638D01*
X132773789Y-125061639D01*
X132856004Y-125222994D01*
X132962447Y-125369501D01*
X133090499Y-125497553D01*
X133237006Y-125603996D01*
X133398361Y-125686211D01*
X133398364Y-125686212D01*
X133398363Y-125686212D01*
X133570580Y-125742168D01*
X133570586Y-125742169D01*
X133570591Y-125742171D01*
X133689833Y-125761057D01*
X133749453Y-125770500D01*
X133749454Y-125770500D01*
X133930547Y-125770500D01*
X133975261Y-125763417D01*
X134109409Y-125742171D01*
X134109416Y-125742168D01*
X134109419Y-125742168D01*
X134187601Y-125716765D01*
X134281639Y-125686211D01*
X134442994Y-125603996D01*
X134589501Y-125497553D01*
X134717553Y-125369501D01*
X134823996Y-125222994D01*
X134906211Y-125061639D01*
X134962171Y-124889409D01*
X134990500Y-124710546D01*
X134990500Y-124529454D01*
X134962171Y-124350591D01*
X134962169Y-124350586D01*
X134962168Y-124350580D01*
X134906212Y-124178364D01*
X134906211Y-124178363D01*
X134906211Y-124178361D01*
X134823996Y-124017006D01*
X134717553Y-123870499D01*
X134589501Y-123742447D01*
X134504128Y-123680420D01*
X134442996Y-123636005D01*
X134281635Y-123553787D01*
X134281636Y-123553787D01*
X134109419Y-123497831D01*
X134109406Y-123497828D01*
X133930547Y-123469500D01*
X133930546Y-123469500D01*
X133749454Y-123469500D01*
X133749453Y-123469500D01*
X133570593Y-123497828D01*
X133570580Y-123497831D01*
X133398364Y-123553787D01*
X133237004Y-123636005D01*
X133237003Y-123636005D01*
X133090503Y-123742444D01*
X133090499Y-123742447D01*
X132962447Y-123870499D01*
X132962444Y-123870502D01*
X132962444Y-123870503D01*
X132856005Y-124017003D01*
X132856005Y-124017004D01*
X132773787Y-124178364D01*
X132717831Y-124350580D01*
X132717828Y-124350593D01*
X132689500Y-124529453D01*
X116800500Y-124529453D01*
X116800500Y-119449453D01*
X117449500Y-119449453D01*
X117449500Y-119630546D01*
X117477828Y-119809406D01*
X117477831Y-119809419D01*
X117533787Y-119981635D01*
X117533788Y-119981638D01*
X117533789Y-119981639D01*
X117567175Y-120047163D01*
X117616005Y-120142995D01*
X117616005Y-120142996D01*
X117643456Y-120180779D01*
X117722447Y-120289501D01*
X117850499Y-120417553D01*
X117997006Y-120523996D01*
X118158361Y-120606211D01*
X118158364Y-120606212D01*
X118158363Y-120606212D01*
X118330580Y-120662168D01*
X118330586Y-120662169D01*
X118330591Y-120662171D01*
X118442099Y-120679832D01*
X118509453Y-120690500D01*
X118509454Y-120690500D01*
X118690547Y-120690500D01*
X118757901Y-120679832D01*
X118869409Y-120662171D01*
X118869416Y-120662168D01*
X118869419Y-120662168D01*
X118947601Y-120636765D01*
X119041639Y-120606211D01*
X119202994Y-120523996D01*
X119349501Y-120417553D01*
X119477553Y-120289501D01*
X119583996Y-120142994D01*
X119666211Y-119981639D01*
X119714886Y-119831830D01*
X119722168Y-119809419D01*
X119722168Y-119809416D01*
X119722171Y-119809409D01*
X119732701Y-119742923D01*
X119762294Y-119694633D01*
X119805790Y-119680500D01*
X121010873Y-119680500D01*
X121010875Y-119680501D01*
X121066771Y-119680501D01*
X121097020Y-119667970D01*
X121118410Y-119659111D01*
X121157934Y-119619587D01*
X121157934Y-119619586D01*
X121168339Y-119609181D01*
X121168341Y-119609178D01*
X121549063Y-119228455D01*
X121601388Y-119206782D01*
X121653714Y-119228456D01*
X121671694Y-119264913D01*
X121673244Y-119264498D01*
X121710310Y-119402831D01*
X121710312Y-119402836D01*
X121779495Y-119522665D01*
X121877335Y-119620505D01*
X121972327Y-119675348D01*
X122006804Y-119720280D01*
X121999412Y-119776433D01*
X121972327Y-119803519D01*
X121927333Y-119829496D01*
X121829495Y-119927334D01*
X121760312Y-120047163D01*
X121760310Y-120047168D01*
X121724500Y-120180814D01*
X121724500Y-120319185D01*
X121760310Y-120452831D01*
X121760312Y-120452836D01*
X121829495Y-120572665D01*
X121927335Y-120670505D01*
X122047164Y-120739688D01*
X122180814Y-120775499D01*
X122180815Y-120775500D01*
X122180817Y-120775500D01*
X122319185Y-120775500D01*
X122319185Y-120775499D01*
X122452836Y-120739688D01*
X122513000Y-120704951D01*
X122569152Y-120697559D01*
X122587000Y-120704952D01*
X122647160Y-120739686D01*
X122647164Y-120739688D01*
X122647165Y-120739688D01*
X122647167Y-120739689D01*
X122708452Y-120756110D01*
X122780814Y-120775499D01*
X122780815Y-120775500D01*
X122780817Y-120775500D01*
X122919185Y-120775500D01*
X122919185Y-120775499D01*
X123052836Y-120739688D01*
X123138001Y-120690517D01*
X123194153Y-120683125D01*
X123211995Y-120690516D01*
X123297164Y-120739688D01*
X123430814Y-120775499D01*
X123430815Y-120775500D01*
X123430817Y-120775500D01*
X123569185Y-120775500D01*
X123569185Y-120775499D01*
X123702836Y-120739688D01*
X123769509Y-120701193D01*
X123825661Y-120693800D01*
X123843504Y-120701191D01*
X123923025Y-120747102D01*
X124056675Y-120782913D01*
X124056676Y-120782914D01*
X124056678Y-120782914D01*
X124195046Y-120782914D01*
X124195046Y-120782913D01*
X124319673Y-120749520D01*
X124375826Y-120756912D01*
X124391152Y-120768672D01*
X124637826Y-121015346D01*
X124659500Y-121067672D01*
X124659500Y-122211151D01*
X124637826Y-122263477D01*
X124463477Y-122437826D01*
X124411151Y-122459500D01*
X119788253Y-122459500D01*
X119735927Y-122437826D01*
X119714253Y-122385500D01*
X119717875Y-122362633D01*
X119722168Y-122349419D01*
X119722168Y-122349416D01*
X119722171Y-122349409D01*
X119750500Y-122170546D01*
X119750500Y-121989454D01*
X119722171Y-121810591D01*
X119722169Y-121810586D01*
X119722168Y-121810580D01*
X119666212Y-121638364D01*
X119666211Y-121638363D01*
X119666211Y-121638361D01*
X119583996Y-121477006D01*
X119477553Y-121330499D01*
X119349501Y-121202447D01*
X119264128Y-121140420D01*
X119202996Y-121096005D01*
X119041635Y-121013787D01*
X119041636Y-121013787D01*
X118869419Y-120957831D01*
X118869406Y-120957828D01*
X118690547Y-120929500D01*
X118690546Y-120929500D01*
X118509454Y-120929500D01*
X118509453Y-120929500D01*
X118330593Y-120957828D01*
X118330580Y-120957831D01*
X118158364Y-121013787D01*
X117997004Y-121096005D01*
X117997003Y-121096005D01*
X117850503Y-121202444D01*
X117850499Y-121202447D01*
X117722447Y-121330499D01*
X117722444Y-121330502D01*
X117722444Y-121330503D01*
X117616005Y-121477003D01*
X117616005Y-121477004D01*
X117533787Y-121638364D01*
X117477831Y-121810580D01*
X117477828Y-121810593D01*
X117449500Y-121989453D01*
X117449500Y-122170546D01*
X117477828Y-122349402D01*
X117477831Y-122349419D01*
X117533787Y-122521635D01*
X117533788Y-122521638D01*
X117533789Y-122521639D01*
X117614268Y-122679587D01*
X117616005Y-122682995D01*
X117616005Y-122682996D01*
X117642244Y-122719111D01*
X117722447Y-122829501D01*
X117850499Y-122957553D01*
X117997006Y-123063996D01*
X118158361Y-123146211D01*
X118158364Y-123146212D01*
X118158363Y-123146212D01*
X118330580Y-123202168D01*
X118330586Y-123202169D01*
X118330591Y-123202171D01*
X118449833Y-123221057D01*
X118509453Y-123230500D01*
X118509454Y-123230500D01*
X118690547Y-123230500D01*
X118735261Y-123223417D01*
X118869409Y-123202171D01*
X118869416Y-123202168D01*
X118869419Y-123202168D01*
X118947601Y-123176765D01*
X119041639Y-123146211D01*
X119202994Y-123063996D01*
X119349501Y-122957553D01*
X119477553Y-122829501D01*
X119520053Y-122771003D01*
X119568344Y-122741411D01*
X119579920Y-122740500D01*
X124472050Y-122740500D01*
X124472052Y-122740501D01*
X124527948Y-122740501D01*
X124558197Y-122727970D01*
X124579587Y-122719111D01*
X124619111Y-122679587D01*
X124619111Y-122679586D01*
X124629516Y-122669181D01*
X124629518Y-122669178D01*
X124879585Y-122419111D01*
X124879587Y-122419111D01*
X124919111Y-122379587D01*
X124931611Y-122349409D01*
X124940501Y-122327948D01*
X124940501Y-122272052D01*
X124940501Y-122266094D01*
X124940500Y-122266080D01*
X124940500Y-121989453D01*
X132689500Y-121989453D01*
X132689500Y-122170546D01*
X132717828Y-122349402D01*
X132717831Y-122349419D01*
X132773787Y-122521635D01*
X132773788Y-122521638D01*
X132773789Y-122521639D01*
X132854268Y-122679587D01*
X132856005Y-122682995D01*
X132856005Y-122682996D01*
X132882244Y-122719111D01*
X132962447Y-122829501D01*
X133090499Y-122957553D01*
X133237006Y-123063996D01*
X133398361Y-123146211D01*
X133398364Y-123146212D01*
X133398363Y-123146212D01*
X133570580Y-123202168D01*
X133570586Y-123202169D01*
X133570591Y-123202171D01*
X133689833Y-123221057D01*
X133749453Y-123230500D01*
X133749454Y-123230500D01*
X133930547Y-123230500D01*
X133975261Y-123223417D01*
X134109409Y-123202171D01*
X134109416Y-123202168D01*
X134109419Y-123202168D01*
X134187601Y-123176765D01*
X134281639Y-123146211D01*
X134442994Y-123063996D01*
X134589501Y-122957553D01*
X134717553Y-122829501D01*
X134823996Y-122682994D01*
X134906211Y-122521639D01*
X134952366Y-122379587D01*
X134962168Y-122349419D01*
X134962168Y-122349416D01*
X134962171Y-122349409D01*
X134990500Y-122170546D01*
X134990500Y-121989454D01*
X134962171Y-121810591D01*
X134962169Y-121810586D01*
X134962168Y-121810580D01*
X134906212Y-121638364D01*
X134906211Y-121638363D01*
X134906211Y-121638361D01*
X134823996Y-121477006D01*
X134717553Y-121330499D01*
X134589501Y-121202447D01*
X134504128Y-121140420D01*
X134442996Y-121096005D01*
X134281635Y-121013787D01*
X134281636Y-121013787D01*
X134109419Y-120957831D01*
X134109406Y-120957828D01*
X133930547Y-120929500D01*
X133930546Y-120929500D01*
X133749454Y-120929500D01*
X133749453Y-120929500D01*
X133570593Y-120957828D01*
X133570580Y-120957831D01*
X133398364Y-121013787D01*
X133237004Y-121096005D01*
X133237003Y-121096005D01*
X133090503Y-121202444D01*
X133090499Y-121202447D01*
X132962447Y-121330499D01*
X132962444Y-121330502D01*
X132962444Y-121330503D01*
X132856005Y-121477003D01*
X132856005Y-121477004D01*
X132773787Y-121638364D01*
X132717831Y-121810580D01*
X132717828Y-121810593D01*
X132689500Y-121989453D01*
X124940500Y-121989453D01*
X124940500Y-121020820D01*
X124940500Y-121006773D01*
X124940501Y-121006771D01*
X124940501Y-120950875D01*
X124927970Y-120920625D01*
X124919111Y-120899236D01*
X124880637Y-120860762D01*
X124858963Y-120808436D01*
X124880637Y-120756110D01*
X124901503Y-120742168D01*
X124901451Y-120742077D01*
X124902842Y-120741273D01*
X124904647Y-120740068D01*
X124905646Y-120739653D01*
X124905652Y-120739652D01*
X125025481Y-120670469D01*
X125123321Y-120572629D01*
X125192504Y-120452800D01*
X125228315Y-120319149D01*
X125228316Y-120319149D01*
X125228316Y-120180779D01*
X125228315Y-120180778D01*
X125218191Y-120142996D01*
X125192504Y-120047128D01*
X125123321Y-119927299D01*
X125025481Y-119829459D01*
X124905652Y-119760276D01*
X124905647Y-119760274D01*
X124772001Y-119724464D01*
X124771999Y-119724464D01*
X124633633Y-119724464D01*
X124632636Y-119724464D01*
X124580310Y-119702790D01*
X123531481Y-118653961D01*
X123517934Y-118640414D01*
X123517934Y-118640413D01*
X123478410Y-118600889D01*
X123457020Y-118592029D01*
X123447634Y-118588141D01*
X123447633Y-118588140D01*
X123426771Y-118579499D01*
X123370875Y-118579499D01*
X123362263Y-118579499D01*
X123362255Y-118579500D01*
X121895391Y-118579500D01*
X121895383Y-118579499D01*
X121886771Y-118579499D01*
X121830875Y-118579499D01*
X121800624Y-118592028D01*
X121800625Y-118592029D01*
X121779239Y-118600887D01*
X121779234Y-118600890D01*
X121739711Y-118640412D01*
X121739712Y-118640413D01*
X121739711Y-118640414D01*
X121739709Y-118640415D01*
X121721160Y-118658963D01*
X121668834Y-118680636D01*
X121616509Y-118658960D01*
X121597358Y-118625790D01*
X121589688Y-118597164D01*
X121520505Y-118477335D01*
X121422665Y-118379495D01*
X121302836Y-118310312D01*
X121302831Y-118310310D01*
X121169185Y-118274500D01*
X121169183Y-118274500D01*
X121030817Y-118274500D01*
X121030816Y-118274500D01*
X121010754Y-118279875D01*
X120954601Y-118272481D01*
X120920124Y-118227547D01*
X120920125Y-118189242D01*
X120925500Y-118169184D01*
X120925500Y-118030815D01*
X120925499Y-118030814D01*
X120889689Y-117897168D01*
X120889688Y-117897164D01*
X120820505Y-117777335D01*
X120722665Y-117679495D01*
X120602836Y-117610312D01*
X120602831Y-117610310D01*
X120469185Y-117574500D01*
X120469183Y-117574500D01*
X120330817Y-117574500D01*
X120330815Y-117574500D01*
X120197168Y-117610310D01*
X120197163Y-117610312D01*
X120077334Y-117679495D01*
X119979495Y-117777334D01*
X119910312Y-117897163D01*
X119910310Y-117897168D01*
X119874500Y-118030814D01*
X119874500Y-118169185D01*
X119910310Y-118302831D01*
X119910312Y-118302836D01*
X119979495Y-118422665D01*
X120077335Y-118520505D01*
X120197164Y-118589688D01*
X120330814Y-118625499D01*
X120330815Y-118625500D01*
X120330817Y-118625500D01*
X120469184Y-118625500D01*
X120479781Y-118622660D01*
X120489242Y-118620125D01*
X120545395Y-118627516D01*
X120579874Y-118672449D01*
X120579875Y-118710754D01*
X120574500Y-118730815D01*
X120574500Y-118869185D01*
X120610310Y-119002831D01*
X120610312Y-119002836D01*
X120679495Y-119122665D01*
X120777335Y-119220505D01*
X120807260Y-119237782D01*
X120848192Y-119261414D01*
X120882670Y-119306347D01*
X120875278Y-119362500D01*
X120830345Y-119396978D01*
X120811192Y-119399500D01*
X119805790Y-119399500D01*
X119753464Y-119377826D01*
X119732701Y-119337076D01*
X119727834Y-119306347D01*
X119722171Y-119270591D01*
X119722169Y-119270586D01*
X119722168Y-119270580D01*
X119666212Y-119098364D01*
X119666211Y-119098363D01*
X119666211Y-119098361D01*
X119583996Y-118937006D01*
X119477553Y-118790499D01*
X119349501Y-118662447D01*
X119259645Y-118597163D01*
X119202996Y-118556005D01*
X119041635Y-118473787D01*
X119041636Y-118473787D01*
X118869419Y-118417831D01*
X118869406Y-118417828D01*
X118690547Y-118389500D01*
X118690546Y-118389500D01*
X118509454Y-118389500D01*
X118509453Y-118389500D01*
X118330593Y-118417828D01*
X118330580Y-118417831D01*
X118158364Y-118473787D01*
X117997004Y-118556005D01*
X117997003Y-118556005D01*
X117862179Y-118653961D01*
X117850499Y-118662447D01*
X117722447Y-118790499D01*
X117722444Y-118790502D01*
X117722444Y-118790503D01*
X117616005Y-118937003D01*
X117616005Y-118937004D01*
X117533787Y-119098364D01*
X117477831Y-119270580D01*
X117477828Y-119270593D01*
X117449500Y-119449453D01*
X116800500Y-119449453D01*
X116800500Y-116909453D01*
X117449500Y-116909453D01*
X117449500Y-117090546D01*
X117477828Y-117269406D01*
X117477831Y-117269419D01*
X117533787Y-117441635D01*
X117533788Y-117441638D01*
X117533789Y-117441639D01*
X117601485Y-117574500D01*
X117616005Y-117602995D01*
X117616005Y-117602996D01*
X117641399Y-117637947D01*
X117722447Y-117749501D01*
X117850499Y-117877553D01*
X117997006Y-117983996D01*
X118158361Y-118066211D01*
X118158364Y-118066212D01*
X118158363Y-118066212D01*
X118330580Y-118122168D01*
X118330586Y-118122169D01*
X118330591Y-118122171D01*
X118449833Y-118141057D01*
X118509453Y-118150500D01*
X118509454Y-118150500D01*
X118690547Y-118150500D01*
X118735261Y-118143417D01*
X118869409Y-118122171D01*
X118869416Y-118122168D01*
X118869419Y-118122168D01*
X118990179Y-118082931D01*
X119041639Y-118066211D01*
X119202994Y-117983996D01*
X119349501Y-117877553D01*
X119477553Y-117749501D01*
X119583996Y-117602994D01*
X119666211Y-117441639D01*
X119722171Y-117269409D01*
X119732701Y-117202923D01*
X119762294Y-117154633D01*
X119805790Y-117140500D01*
X123534135Y-117140500D01*
X123586461Y-117162174D01*
X124685457Y-118261170D01*
X124707131Y-118313496D01*
X124697218Y-118350495D01*
X124687154Y-118367926D01*
X124687152Y-118367930D01*
X124651342Y-118501576D01*
X124651342Y-118639947D01*
X124687152Y-118773593D01*
X124687154Y-118773598D01*
X124756337Y-118893427D01*
X124854177Y-118991267D01*
X124974006Y-119060450D01*
X125107656Y-119096261D01*
X125107657Y-119096262D01*
X125107659Y-119096262D01*
X125246027Y-119096262D01*
X125246027Y-119096261D01*
X125379678Y-119060450D01*
X125499507Y-118991267D01*
X125597347Y-118893427D01*
X125666530Y-118773598D01*
X125702341Y-118639947D01*
X125702342Y-118639947D01*
X125702342Y-118501577D01*
X125702341Y-118501576D01*
X125695845Y-118477334D01*
X125666530Y-118367926D01*
X125597347Y-118248097D01*
X125499507Y-118150257D01*
X125425487Y-118107522D01*
X126449500Y-118107522D01*
X126449500Y-118252477D01*
X126487014Y-118392481D01*
X126487016Y-118392486D01*
X126533956Y-118473787D01*
X126559491Y-118518015D01*
X126661985Y-118620509D01*
X126787515Y-118692984D01*
X126787516Y-118692984D01*
X126787518Y-118692985D01*
X126853833Y-118710754D01*
X126927522Y-118730499D01*
X126927523Y-118730500D01*
X126927525Y-118730500D01*
X127072477Y-118730500D01*
X127072477Y-118730499D01*
X127212485Y-118692984D01*
X127338015Y-118620509D01*
X127440509Y-118518015D01*
X127450068Y-118501459D01*
X129799500Y-118501459D01*
X129799500Y-118698541D01*
X129805857Y-118730499D01*
X129837947Y-118891829D01*
X129837950Y-118891839D01*
X129913367Y-119073913D01*
X130016630Y-119228456D01*
X130022861Y-119237782D01*
X130162218Y-119377139D01*
X130326086Y-119486632D01*
X130508165Y-119562051D01*
X130701459Y-119600500D01*
X130701461Y-119600500D01*
X130898539Y-119600500D01*
X130898541Y-119600500D01*
X131091835Y-119562051D01*
X131273914Y-119486632D01*
X131329556Y-119449453D01*
X132689500Y-119449453D01*
X132689500Y-119630546D01*
X132717828Y-119809406D01*
X132717831Y-119809419D01*
X132773787Y-119981635D01*
X132773788Y-119981638D01*
X132773789Y-119981639D01*
X132807175Y-120047163D01*
X132856005Y-120142995D01*
X132856005Y-120142996D01*
X132883456Y-120180779D01*
X132962447Y-120289501D01*
X133090499Y-120417553D01*
X133237006Y-120523996D01*
X133398361Y-120606211D01*
X133398364Y-120606212D01*
X133398363Y-120606212D01*
X133570580Y-120662168D01*
X133570586Y-120662169D01*
X133570591Y-120662171D01*
X133682099Y-120679832D01*
X133749453Y-120690500D01*
X133749454Y-120690500D01*
X133930547Y-120690500D01*
X133997901Y-120679832D01*
X134109409Y-120662171D01*
X134109416Y-120662168D01*
X134109419Y-120662168D01*
X134187601Y-120636765D01*
X134281639Y-120606211D01*
X134442994Y-120523996D01*
X134589501Y-120417553D01*
X134717553Y-120289501D01*
X134823996Y-120142994D01*
X134906211Y-119981639D01*
X134954886Y-119831830D01*
X134962168Y-119809419D01*
X134962168Y-119809416D01*
X134962171Y-119809409D01*
X134990500Y-119630546D01*
X134990500Y-119449454D01*
X134962171Y-119270591D01*
X134962169Y-119270586D01*
X134962168Y-119270580D01*
X134906212Y-119098364D01*
X134906211Y-119098363D01*
X134906211Y-119098361D01*
X134823996Y-118937006D01*
X134717553Y-118790499D01*
X134589501Y-118662447D01*
X134499645Y-118597163D01*
X134442996Y-118556005D01*
X134281635Y-118473787D01*
X134281636Y-118473787D01*
X134109419Y-118417831D01*
X134109406Y-118417828D01*
X133930547Y-118389500D01*
X133930546Y-118389500D01*
X133749454Y-118389500D01*
X133749453Y-118389500D01*
X133570593Y-118417828D01*
X133570580Y-118417831D01*
X133398364Y-118473787D01*
X133237004Y-118556005D01*
X133237003Y-118556005D01*
X133102179Y-118653961D01*
X133090499Y-118662447D01*
X132962447Y-118790499D01*
X132962444Y-118790502D01*
X132962444Y-118790503D01*
X132856005Y-118937003D01*
X132856005Y-118937004D01*
X132773787Y-119098364D01*
X132717831Y-119270580D01*
X132717828Y-119270593D01*
X132689500Y-119449453D01*
X131329556Y-119449453D01*
X131437782Y-119377139D01*
X131577139Y-119237782D01*
X131686632Y-119073914D01*
X131762051Y-118891835D01*
X131800500Y-118698541D01*
X131800500Y-118501459D01*
X131762051Y-118308165D01*
X131738984Y-118252477D01*
X131686632Y-118126086D01*
X131577139Y-117962218D01*
X131437781Y-117822860D01*
X131273913Y-117713367D01*
X131091839Y-117637950D01*
X131091829Y-117637947D01*
X130952886Y-117610310D01*
X130898541Y-117599500D01*
X130701459Y-117599500D01*
X130647114Y-117610310D01*
X130508170Y-117637947D01*
X130508160Y-117637950D01*
X130326086Y-117713367D01*
X130162218Y-117822860D01*
X130162217Y-117822862D01*
X130022862Y-117962217D01*
X130022860Y-117962218D01*
X129913367Y-118126086D01*
X129837950Y-118308160D01*
X129837947Y-118308170D01*
X129821176Y-118392486D01*
X129799500Y-118501459D01*
X127450068Y-118501459D01*
X127512984Y-118392485D01*
X127550499Y-118252477D01*
X127550500Y-118252477D01*
X127550500Y-118107523D01*
X127550499Y-118107522D01*
X127512985Y-117967518D01*
X127512983Y-117967513D01*
X127440508Y-117841984D01*
X127338015Y-117739491D01*
X127212486Y-117667016D01*
X127212481Y-117667014D01*
X127072477Y-117629500D01*
X127072475Y-117629500D01*
X126927525Y-117629500D01*
X126927523Y-117629500D01*
X126787518Y-117667014D01*
X126787513Y-117667016D01*
X126661984Y-117739491D01*
X126559491Y-117841984D01*
X126487016Y-117967513D01*
X126487014Y-117967518D01*
X126449500Y-118107522D01*
X125425487Y-118107522D01*
X125379678Y-118081074D01*
X125379673Y-118081072D01*
X125246027Y-118045262D01*
X125246025Y-118045262D01*
X125107659Y-118045262D01*
X125107657Y-118045262D01*
X124974010Y-118081072D01*
X124969524Y-118082931D01*
X124968362Y-118080126D01*
X124921499Y-118086058D01*
X124888683Y-118067002D01*
X124052495Y-117230814D01*
X125274500Y-117230814D01*
X125274500Y-117369185D01*
X125310310Y-117502831D01*
X125310312Y-117502836D01*
X125379495Y-117622665D01*
X125477335Y-117720505D01*
X125597164Y-117789688D01*
X125730814Y-117825499D01*
X125730815Y-117825500D01*
X125730817Y-117825500D01*
X125869185Y-117825500D01*
X125869185Y-117825499D01*
X126002836Y-117789688D01*
X126122665Y-117720505D01*
X126220505Y-117622665D01*
X126289688Y-117502836D01*
X126325499Y-117369185D01*
X126325500Y-117369185D01*
X126325500Y-117230815D01*
X126325499Y-117230814D01*
X126289689Y-117097168D01*
X126289688Y-117097164D01*
X126220505Y-116977335D01*
X126122665Y-116879495D01*
X126002836Y-116810312D01*
X126002831Y-116810310D01*
X125869185Y-116774500D01*
X125869183Y-116774500D01*
X125730817Y-116774500D01*
X125730815Y-116774500D01*
X125597168Y-116810310D01*
X125597163Y-116810312D01*
X125477334Y-116879495D01*
X125379495Y-116977334D01*
X125310312Y-117097163D01*
X125310310Y-117097168D01*
X125274500Y-117230814D01*
X124052495Y-117230814D01*
X123755642Y-116933961D01*
X123742095Y-116920414D01*
X123742095Y-116920413D01*
X123702571Y-116880889D01*
X123681181Y-116872029D01*
X123671795Y-116868141D01*
X123671794Y-116868140D01*
X123650932Y-116859499D01*
X123595036Y-116859499D01*
X123586424Y-116859499D01*
X123586416Y-116859500D01*
X119805790Y-116859500D01*
X119753464Y-116837826D01*
X119732701Y-116797076D01*
X119722171Y-116730593D01*
X119722168Y-116730580D01*
X119666212Y-116558364D01*
X119666211Y-116558363D01*
X119666211Y-116558361D01*
X119583996Y-116397006D01*
X119477553Y-116250499D01*
X119349501Y-116122447D01*
X119264128Y-116060420D01*
X119202996Y-116016005D01*
X119041635Y-115933787D01*
X119041636Y-115933787D01*
X118869419Y-115877831D01*
X118869406Y-115877828D01*
X118690547Y-115849500D01*
X118690546Y-115849500D01*
X118509454Y-115849500D01*
X118509453Y-115849500D01*
X118330593Y-115877828D01*
X118330580Y-115877831D01*
X118158364Y-115933787D01*
X117997004Y-116016005D01*
X117997003Y-116016005D01*
X117850503Y-116122444D01*
X117850499Y-116122447D01*
X117722447Y-116250499D01*
X117722444Y-116250502D01*
X117722444Y-116250503D01*
X117616005Y-116397003D01*
X117616005Y-116397004D01*
X117533787Y-116558364D01*
X117477831Y-116730580D01*
X117477828Y-116730593D01*
X117449500Y-116909453D01*
X116800500Y-116909453D01*
X116800500Y-115730814D01*
X120774500Y-115730814D01*
X120774500Y-115869185D01*
X120810310Y-116002831D01*
X120810312Y-116002836D01*
X120879495Y-116122665D01*
X120977335Y-116220505D01*
X121097164Y-116289688D01*
X121230814Y-116325499D01*
X121230815Y-116325500D01*
X121230817Y-116325500D01*
X121369185Y-116325500D01*
X121369185Y-116325499D01*
X121502836Y-116289688D01*
X121613002Y-116226083D01*
X121669152Y-116218691D01*
X121686993Y-116226081D01*
X121797164Y-116289688D01*
X121930814Y-116325499D01*
X121930815Y-116325500D01*
X121930817Y-116325500D01*
X122069185Y-116325500D01*
X122069185Y-116325499D01*
X122202836Y-116289688D01*
X122268028Y-116252048D01*
X122324180Y-116244656D01*
X122342028Y-116252049D01*
X122420211Y-116297188D01*
X122553861Y-116332999D01*
X122553862Y-116333000D01*
X122553864Y-116333000D01*
X122692232Y-116333000D01*
X122692232Y-116332999D01*
X122825883Y-116297188D01*
X122825885Y-116297186D01*
X122825887Y-116297186D01*
X122881017Y-116265356D01*
X122937170Y-116257962D01*
X122955018Y-116265355D01*
X122997164Y-116289688D01*
X123130814Y-116325499D01*
X123130815Y-116325500D01*
X123130817Y-116325500D01*
X123269185Y-116325500D01*
X123269185Y-116325499D01*
X123402836Y-116289688D01*
X123451501Y-116261590D01*
X123507652Y-116254197D01*
X123525495Y-116261587D01*
X123574167Y-116289688D01*
X123707817Y-116325499D01*
X123707818Y-116325500D01*
X123707820Y-116325500D01*
X123846188Y-116325500D01*
X123846188Y-116325499D01*
X123979839Y-116289688D01*
X124099668Y-116220505D01*
X124099674Y-116220498D01*
X124101637Y-116218993D01*
X124102851Y-116218667D01*
X124103869Y-116218080D01*
X124104026Y-116218352D01*
X124156342Y-116204327D01*
X124183689Y-116213607D01*
X124272164Y-116264688D01*
X124405814Y-116300499D01*
X124405815Y-116300500D01*
X124405817Y-116300500D01*
X124544185Y-116300500D01*
X124544185Y-116300499D01*
X124677836Y-116264688D01*
X124797665Y-116195505D01*
X124835174Y-116157994D01*
X124887498Y-116136321D01*
X124939824Y-116157994D01*
X125002335Y-116220505D01*
X125122164Y-116289688D01*
X125255814Y-116325499D01*
X125255815Y-116325500D01*
X125255817Y-116325500D01*
X125394185Y-116325500D01*
X125394185Y-116325499D01*
X125527836Y-116289688D01*
X125613001Y-116240517D01*
X125669153Y-116233125D01*
X125686995Y-116240516D01*
X125772164Y-116289688D01*
X125905814Y-116325499D01*
X125905815Y-116325500D01*
X125905817Y-116325500D01*
X126044185Y-116325500D01*
X126044185Y-116325499D01*
X126133901Y-116301460D01*
X129799500Y-116301460D01*
X129799500Y-116498539D01*
X129837947Y-116691829D01*
X129837950Y-116691839D01*
X129913367Y-116873913D01*
X129982472Y-116977335D01*
X130022861Y-117037782D01*
X130162218Y-117177139D01*
X130326086Y-117286632D01*
X130508165Y-117362051D01*
X130701459Y-117400500D01*
X130701461Y-117400500D01*
X130898539Y-117400500D01*
X130898541Y-117400500D01*
X131091835Y-117362051D01*
X131273914Y-117286632D01*
X131437782Y-117177139D01*
X131577139Y-117037782D01*
X131662886Y-116909453D01*
X132689500Y-116909453D01*
X132689500Y-117090546D01*
X132717828Y-117269406D01*
X132717831Y-117269419D01*
X132773787Y-117441635D01*
X132773788Y-117441638D01*
X132773789Y-117441639D01*
X132841485Y-117574500D01*
X132856005Y-117602995D01*
X132856005Y-117602996D01*
X132881399Y-117637947D01*
X132962447Y-117749501D01*
X133090499Y-117877553D01*
X133237006Y-117983996D01*
X133398361Y-118066211D01*
X133398364Y-118066212D01*
X133398363Y-118066212D01*
X133570580Y-118122168D01*
X133570586Y-118122169D01*
X133570591Y-118122171D01*
X133689833Y-118141057D01*
X133749453Y-118150500D01*
X133749454Y-118150500D01*
X133930547Y-118150500D01*
X133975261Y-118143417D01*
X134109409Y-118122171D01*
X134109416Y-118122168D01*
X134109419Y-118122168D01*
X134230179Y-118082931D01*
X134281639Y-118066211D01*
X134442994Y-117983996D01*
X134589501Y-117877553D01*
X134717553Y-117749501D01*
X134823996Y-117602994D01*
X134906211Y-117441639D01*
X134962171Y-117269409D01*
X134990500Y-117090546D01*
X134990500Y-116909454D01*
X134984572Y-116872029D01*
X134979155Y-116837826D01*
X134962171Y-116730591D01*
X134962169Y-116730586D01*
X134962168Y-116730580D01*
X134906212Y-116558364D01*
X134906211Y-116558363D01*
X134906211Y-116558361D01*
X134823996Y-116397006D01*
X134717553Y-116250499D01*
X134589501Y-116122447D01*
X134504128Y-116060420D01*
X134442996Y-116016005D01*
X134281635Y-115933787D01*
X134281636Y-115933787D01*
X134109419Y-115877831D01*
X134109406Y-115877828D01*
X133930547Y-115849500D01*
X133930546Y-115849500D01*
X133749454Y-115849500D01*
X133749453Y-115849500D01*
X133570593Y-115877828D01*
X133570580Y-115877831D01*
X133398364Y-115933787D01*
X133237004Y-116016005D01*
X133237003Y-116016005D01*
X133090503Y-116122444D01*
X133090499Y-116122447D01*
X132962447Y-116250499D01*
X132962444Y-116250502D01*
X132962444Y-116250503D01*
X132856005Y-116397003D01*
X132856005Y-116397004D01*
X132773787Y-116558364D01*
X132717831Y-116730580D01*
X132717828Y-116730593D01*
X132689500Y-116909453D01*
X131662886Y-116909453D01*
X131686632Y-116873914D01*
X131762051Y-116691835D01*
X131800500Y-116498541D01*
X131800500Y-116301459D01*
X131762051Y-116108165D01*
X131686632Y-115926086D01*
X131577139Y-115762218D01*
X131437782Y-115622861D01*
X131419283Y-115610500D01*
X131273913Y-115513367D01*
X131091839Y-115437950D01*
X131091829Y-115437947D01*
X130962388Y-115412200D01*
X130898541Y-115399500D01*
X130701459Y-115399500D01*
X130646662Y-115410399D01*
X130508170Y-115437947D01*
X130508160Y-115437950D01*
X130326086Y-115513367D01*
X130162218Y-115622860D01*
X130162217Y-115622862D01*
X130022862Y-115762217D01*
X130022860Y-115762218D01*
X129913367Y-115926086D01*
X129837950Y-116108160D01*
X129837947Y-116108170D01*
X129807430Y-116261591D01*
X129800350Y-116297189D01*
X129799500Y-116301460D01*
X126133901Y-116301460D01*
X126177836Y-116289688D01*
X126297665Y-116220505D01*
X126395505Y-116122665D01*
X126464688Y-116002836D01*
X126500499Y-115869185D01*
X126500500Y-115869185D01*
X126500500Y-115730815D01*
X126500499Y-115730814D01*
X126464689Y-115597168D01*
X126464688Y-115597164D01*
X126395505Y-115477335D01*
X126297665Y-115379495D01*
X126177836Y-115310312D01*
X126177831Y-115310310D01*
X126044185Y-115274500D01*
X126044183Y-115274500D01*
X125905817Y-115274500D01*
X125905815Y-115274500D01*
X125772168Y-115310310D01*
X125772162Y-115310313D01*
X125687000Y-115359481D01*
X125630847Y-115366873D01*
X125613000Y-115359481D01*
X125575010Y-115337548D01*
X125527836Y-115310312D01*
X125527833Y-115310311D01*
X125527831Y-115310310D01*
X125394185Y-115274500D01*
X125394183Y-115274500D01*
X125255817Y-115274500D01*
X125255815Y-115274500D01*
X125122168Y-115310310D01*
X125122163Y-115310312D01*
X125002334Y-115379495D01*
X124964824Y-115417005D01*
X124912498Y-115438678D01*
X124860174Y-115417004D01*
X124797665Y-115354495D01*
X124677836Y-115285312D01*
X124677831Y-115285310D01*
X124544185Y-115249500D01*
X124544183Y-115249500D01*
X124405817Y-115249500D01*
X124405815Y-115249500D01*
X124272168Y-115285310D01*
X124272163Y-115285312D01*
X124152333Y-115354496D01*
X124150355Y-115356014D01*
X124149140Y-115356339D01*
X124148135Y-115356920D01*
X124147979Y-115356650D01*
X124095647Y-115370670D01*
X124068309Y-115361390D01*
X124065503Y-115359770D01*
X123979839Y-115310312D01*
X123979836Y-115310311D01*
X123979834Y-115310310D01*
X123846188Y-115274500D01*
X123846186Y-115274500D01*
X123707820Y-115274500D01*
X123707818Y-115274500D01*
X123574171Y-115310310D01*
X123574164Y-115310313D01*
X123525499Y-115338409D01*
X123469347Y-115345800D01*
X123451502Y-115338409D01*
X123450011Y-115337548D01*
X123402836Y-115310312D01*
X123402832Y-115310311D01*
X123402831Y-115310310D01*
X123269185Y-115274500D01*
X123269183Y-115274500D01*
X123130817Y-115274500D01*
X123130815Y-115274500D01*
X122997168Y-115310310D01*
X122997159Y-115310314D01*
X122942027Y-115342144D01*
X122885874Y-115349536D01*
X122868029Y-115342144D01*
X122825887Y-115317814D01*
X122825878Y-115317810D01*
X122692232Y-115282000D01*
X122692230Y-115282000D01*
X122553864Y-115282000D01*
X122553862Y-115282000D01*
X122420215Y-115317810D01*
X122420212Y-115317811D01*
X122420211Y-115317812D01*
X122365262Y-115349536D01*
X122355017Y-115355451D01*
X122298864Y-115362842D01*
X122281018Y-115355450D01*
X122251502Y-115338409D01*
X122202836Y-115310312D01*
X122202833Y-115310311D01*
X122202831Y-115310310D01*
X122069185Y-115274500D01*
X122069183Y-115274500D01*
X121930817Y-115274500D01*
X121930815Y-115274500D01*
X121797168Y-115310310D01*
X121797163Y-115310312D01*
X121687000Y-115373915D01*
X121630847Y-115381307D01*
X121613000Y-115373915D01*
X121607379Y-115370670D01*
X121502836Y-115310312D01*
X121502831Y-115310310D01*
X121369185Y-115274500D01*
X121369183Y-115274500D01*
X121230817Y-115274500D01*
X121230815Y-115274500D01*
X121097168Y-115310310D01*
X121097163Y-115310312D01*
X120977334Y-115379495D01*
X120879495Y-115477334D01*
X120810312Y-115597163D01*
X120810310Y-115597168D01*
X120774500Y-115730814D01*
X116800500Y-115730814D01*
X116800500Y-114369453D01*
X117449500Y-114369453D01*
X117449500Y-114550546D01*
X117477828Y-114729406D01*
X117477831Y-114729419D01*
X117533787Y-114901635D01*
X117533788Y-114901638D01*
X117533789Y-114901639D01*
X117616004Y-115062994D01*
X117722447Y-115209501D01*
X117850499Y-115337553D01*
X117997006Y-115443996D01*
X118158361Y-115526211D01*
X118158364Y-115526212D01*
X118158363Y-115526212D01*
X118330580Y-115582168D01*
X118330586Y-115582169D01*
X118330591Y-115582171D01*
X118425279Y-115597168D01*
X118509453Y-115610500D01*
X118509454Y-115610500D01*
X118690547Y-115610500D01*
X118735261Y-115603417D01*
X118869409Y-115582171D01*
X118869416Y-115582168D01*
X118869419Y-115582168D01*
X118947601Y-115556765D01*
X119041639Y-115526211D01*
X119202994Y-115443996D01*
X119349501Y-115337553D01*
X119477553Y-115209501D01*
X119583996Y-115062994D01*
X119666211Y-114901639D01*
X119722171Y-114729409D01*
X119750500Y-114550546D01*
X119750500Y-114369454D01*
X119750500Y-114369453D01*
X132689500Y-114369453D01*
X132689500Y-114550546D01*
X132717828Y-114729406D01*
X132717831Y-114729419D01*
X132773787Y-114901635D01*
X132773788Y-114901638D01*
X132773789Y-114901639D01*
X132856004Y-115062994D01*
X132962447Y-115209501D01*
X133090499Y-115337553D01*
X133237006Y-115443996D01*
X133398361Y-115526211D01*
X133398364Y-115526212D01*
X133398363Y-115526212D01*
X133570580Y-115582168D01*
X133570586Y-115582169D01*
X133570591Y-115582171D01*
X133665279Y-115597168D01*
X133749453Y-115610500D01*
X133749454Y-115610500D01*
X133930547Y-115610500D01*
X133975261Y-115603417D01*
X134109409Y-115582171D01*
X134109416Y-115582168D01*
X134109419Y-115582168D01*
X134187601Y-115556765D01*
X134281639Y-115526211D01*
X134442994Y-115443996D01*
X134589501Y-115337553D01*
X134717553Y-115209501D01*
X134823996Y-115062994D01*
X134906211Y-114901639D01*
X134962171Y-114729409D01*
X134990500Y-114550546D01*
X134990500Y-114369454D01*
X134962171Y-114190591D01*
X134962169Y-114190586D01*
X134962168Y-114190580D01*
X134906212Y-114018364D01*
X134906211Y-114018363D01*
X134906211Y-114018361D01*
X134823996Y-113857006D01*
X134717553Y-113710499D01*
X134589501Y-113582447D01*
X134504128Y-113520420D01*
X134442996Y-113476005D01*
X134281635Y-113393787D01*
X134281636Y-113393787D01*
X134109419Y-113337831D01*
X134109406Y-113337828D01*
X133930547Y-113309500D01*
X133930546Y-113309500D01*
X133749454Y-113309500D01*
X133749453Y-113309500D01*
X133570593Y-113337828D01*
X133570580Y-113337831D01*
X133398364Y-113393787D01*
X133237004Y-113476005D01*
X133237003Y-113476005D01*
X133090503Y-113582444D01*
X133090499Y-113582447D01*
X132962447Y-113710499D01*
X132962444Y-113710502D01*
X132962444Y-113710503D01*
X132856005Y-113857003D01*
X132856005Y-113857004D01*
X132773787Y-114018364D01*
X132717831Y-114190580D01*
X132717828Y-114190593D01*
X132689500Y-114369453D01*
X119750500Y-114369453D01*
X119722171Y-114190591D01*
X119722169Y-114190586D01*
X119722168Y-114190580D01*
X119666212Y-114018364D01*
X119666211Y-114018363D01*
X119666211Y-114018361D01*
X119583996Y-113857006D01*
X119477553Y-113710499D01*
X119349501Y-113582447D01*
X119264128Y-113520420D01*
X119202996Y-113476005D01*
X119041635Y-113393787D01*
X119041636Y-113393787D01*
X118869419Y-113337831D01*
X118869406Y-113337828D01*
X118690547Y-113309500D01*
X118690546Y-113309500D01*
X118509454Y-113309500D01*
X118509453Y-113309500D01*
X118330593Y-113337828D01*
X118330580Y-113337831D01*
X118158364Y-113393787D01*
X117997004Y-113476005D01*
X117997003Y-113476005D01*
X117850503Y-113582444D01*
X117850499Y-113582447D01*
X117722447Y-113710499D01*
X117722444Y-113710502D01*
X117722444Y-113710503D01*
X117616005Y-113857003D01*
X117616005Y-113857004D01*
X117533787Y-114018364D01*
X117477831Y-114190580D01*
X117477828Y-114190593D01*
X117449500Y-114369453D01*
X116800500Y-114369453D01*
X116800500Y-111829453D01*
X117449500Y-111829453D01*
X117449500Y-112010546D01*
X117477828Y-112189406D01*
X117477831Y-112189419D01*
X117533787Y-112361635D01*
X117533788Y-112361638D01*
X117533789Y-112361639D01*
X117616004Y-112522994D01*
X117722447Y-112669501D01*
X117850499Y-112797553D01*
X117997006Y-112903996D01*
X118158361Y-112986211D01*
X118158364Y-112986212D01*
X118158363Y-112986212D01*
X118330580Y-113042168D01*
X118330586Y-113042169D01*
X118330591Y-113042171D01*
X118449833Y-113061057D01*
X118509453Y-113070500D01*
X118509454Y-113070500D01*
X118690547Y-113070500D01*
X118735261Y-113063417D01*
X118869409Y-113042171D01*
X118869416Y-113042168D01*
X118869419Y-113042168D01*
X118947601Y-113016765D01*
X119041639Y-112986211D01*
X119202994Y-112903996D01*
X119349501Y-112797553D01*
X119477553Y-112669501D01*
X119583996Y-112522994D01*
X119666211Y-112361639D01*
X119709787Y-112227525D01*
X119709788Y-112227522D01*
X121349500Y-112227522D01*
X121349500Y-112372477D01*
X121387014Y-112512481D01*
X121387016Y-112512486D01*
X121430336Y-112587518D01*
X121459491Y-112638015D01*
X121561985Y-112740509D01*
X121687515Y-112812984D01*
X121687516Y-112812984D01*
X121687518Y-112812985D01*
X121754057Y-112830814D01*
X121827522Y-112850499D01*
X121827523Y-112850500D01*
X121827525Y-112850500D01*
X121972477Y-112850500D01*
X121972477Y-112850499D01*
X122045942Y-112830814D01*
X125374500Y-112830814D01*
X125374500Y-112969185D01*
X125410310Y-113102831D01*
X125410312Y-113102836D01*
X125479495Y-113222665D01*
X125577335Y-113320505D01*
X125697164Y-113389688D01*
X125830814Y-113425499D01*
X125830815Y-113425500D01*
X125830817Y-113425500D01*
X125969185Y-113425500D01*
X125969185Y-113425499D01*
X126102836Y-113389688D01*
X126222665Y-113320505D01*
X126320505Y-113222665D01*
X126389688Y-113102836D01*
X126425499Y-112969185D01*
X126425500Y-112969185D01*
X126425500Y-112830815D01*
X126425499Y-112830814D01*
X126401656Y-112741828D01*
X126397823Y-112727522D01*
X128449500Y-112727522D01*
X128449500Y-112872477D01*
X128487014Y-113012481D01*
X128487016Y-113012486D01*
X128504155Y-113042171D01*
X128559491Y-113138015D01*
X128661985Y-113240509D01*
X128753876Y-113293563D01*
X128781480Y-113309500D01*
X128787515Y-113312984D01*
X128787516Y-113312984D01*
X128787518Y-113312985D01*
X128815583Y-113320505D01*
X128927522Y-113350499D01*
X128927523Y-113350500D01*
X128927525Y-113350500D01*
X129072477Y-113350500D01*
X129072477Y-113350499D01*
X129212485Y-113312984D01*
X129338015Y-113240509D01*
X129440509Y-113138015D01*
X129512984Y-113012485D01*
X129550499Y-112872477D01*
X129550500Y-112872477D01*
X129550500Y-112727523D01*
X129550499Y-112727522D01*
X129512985Y-112587518D01*
X129512983Y-112587513D01*
X129440508Y-112461984D01*
X129338015Y-112359491D01*
X129212486Y-112287016D01*
X129212481Y-112287014D01*
X129072477Y-112249500D01*
X129072475Y-112249500D01*
X128927525Y-112249500D01*
X128927523Y-112249500D01*
X128787518Y-112287014D01*
X128787513Y-112287016D01*
X128661984Y-112359491D01*
X128559491Y-112461984D01*
X128487016Y-112587513D01*
X128487014Y-112587518D01*
X128449500Y-112727522D01*
X126397823Y-112727522D01*
X126389689Y-112697168D01*
X126389688Y-112697164D01*
X126320505Y-112577335D01*
X126222665Y-112479495D01*
X126102836Y-112410312D01*
X126102831Y-112410310D01*
X125969185Y-112374500D01*
X125969183Y-112374500D01*
X125830817Y-112374500D01*
X125830815Y-112374500D01*
X125697168Y-112410310D01*
X125697163Y-112410312D01*
X125577334Y-112479495D01*
X125479495Y-112577334D01*
X125410312Y-112697163D01*
X125410310Y-112697168D01*
X125374500Y-112830814D01*
X122045942Y-112830814D01*
X122112485Y-112812984D01*
X122238015Y-112740509D01*
X122340509Y-112638015D01*
X122412984Y-112512485D01*
X122450499Y-112372477D01*
X122450500Y-112372477D01*
X122450500Y-112227523D01*
X122450499Y-112227522D01*
X122443074Y-112199813D01*
X122412984Y-112087515D01*
X122340509Y-111961985D01*
X122238015Y-111859491D01*
X122185988Y-111829453D01*
X122112486Y-111787016D01*
X122112481Y-111787014D01*
X121972477Y-111749500D01*
X121972475Y-111749500D01*
X121827525Y-111749500D01*
X121827523Y-111749500D01*
X121687518Y-111787014D01*
X121687513Y-111787016D01*
X121561984Y-111859491D01*
X121459491Y-111961984D01*
X121387016Y-112087513D01*
X121387014Y-112087518D01*
X121349500Y-112227522D01*
X119709788Y-112227522D01*
X119718791Y-112199813D01*
X119718792Y-112199809D01*
X119719117Y-112198807D01*
X119722171Y-112189409D01*
X119750500Y-112010546D01*
X119750500Y-111829454D01*
X119722171Y-111650591D01*
X119722169Y-111650586D01*
X119722168Y-111650580D01*
X119666212Y-111478364D01*
X119666211Y-111478363D01*
X119666211Y-111478361D01*
X119583996Y-111317006D01*
X119477553Y-111170499D01*
X119349501Y-111042447D01*
X119239014Y-110962174D01*
X119202996Y-110936005D01*
X119041635Y-110853787D01*
X119041636Y-110853787D01*
X118869419Y-110797831D01*
X118869406Y-110797828D01*
X118690547Y-110769500D01*
X118690546Y-110769500D01*
X118509454Y-110769500D01*
X118509453Y-110769500D01*
X118330593Y-110797828D01*
X118330580Y-110797831D01*
X118158364Y-110853787D01*
X117997004Y-110936005D01*
X117997003Y-110936005D01*
X117862603Y-111033653D01*
X117850499Y-111042447D01*
X117722447Y-111170499D01*
X117722444Y-111170502D01*
X117722444Y-111170503D01*
X117616005Y-111317003D01*
X117616005Y-111317004D01*
X117533787Y-111478364D01*
X117477831Y-111650580D01*
X117477828Y-111650593D01*
X117449500Y-111829453D01*
X116800500Y-111829453D01*
X116800500Y-109289453D01*
X117449500Y-109289453D01*
X117449500Y-109470546D01*
X117477828Y-109649406D01*
X117477831Y-109649419D01*
X117533787Y-109821635D01*
X117533788Y-109821638D01*
X117533789Y-109821639D01*
X117616004Y-109982994D01*
X117722447Y-110129501D01*
X117850499Y-110257553D01*
X117997006Y-110363996D01*
X118158361Y-110446211D01*
X118158364Y-110446212D01*
X118158363Y-110446212D01*
X118330580Y-110502168D01*
X118330586Y-110502169D01*
X118330591Y-110502171D01*
X118449833Y-110521057D01*
X118509453Y-110530500D01*
X118509454Y-110530500D01*
X118690547Y-110530500D01*
X118747111Y-110521541D01*
X118869409Y-110502171D01*
X118869416Y-110502168D01*
X118869419Y-110502168D01*
X118997661Y-110460500D01*
X119041639Y-110446211D01*
X119202994Y-110363996D01*
X119349501Y-110257553D01*
X119477553Y-110129501D01*
X119583996Y-109982994D01*
X119666211Y-109821639D01*
X119699010Y-109720691D01*
X119722168Y-109649419D01*
X119722168Y-109649416D01*
X119722171Y-109649409D01*
X119750500Y-109470546D01*
X119750500Y-109289454D01*
X119747289Y-109269183D01*
X119735069Y-109192029D01*
X119722171Y-109110591D01*
X119722169Y-109110586D01*
X119722168Y-109110580D01*
X119666212Y-108938364D01*
X119666211Y-108938363D01*
X119666211Y-108938361D01*
X119583996Y-108777006D01*
X119477553Y-108630499D01*
X119349501Y-108502447D01*
X119236716Y-108420504D01*
X119202996Y-108396005D01*
X119096768Y-108341879D01*
X119041639Y-108313789D01*
X119041638Y-108313788D01*
X119041635Y-108313787D01*
X119041636Y-108313787D01*
X118869419Y-108257831D01*
X118869406Y-108257828D01*
X118690547Y-108229500D01*
X118690546Y-108229500D01*
X118509454Y-108229500D01*
X118509453Y-108229500D01*
X118330593Y-108257828D01*
X118330580Y-108257831D01*
X118158364Y-108313787D01*
X117997004Y-108396005D01*
X117997003Y-108396005D01*
X117868060Y-108489688D01*
X117850499Y-108502447D01*
X117722447Y-108630499D01*
X117722444Y-108630502D01*
X117722444Y-108630503D01*
X117616005Y-108777003D01*
X117616005Y-108777004D01*
X117533787Y-108938364D01*
X117477831Y-109110580D01*
X117477828Y-109110593D01*
X117449500Y-109289453D01*
X116800500Y-109289453D01*
X116800500Y-106749453D01*
X117449500Y-106749453D01*
X117449500Y-106930546D01*
X117477828Y-107109406D01*
X117477831Y-107109419D01*
X117533787Y-107281635D01*
X117533788Y-107281638D01*
X117533789Y-107281639D01*
X117611821Y-107434785D01*
X117616005Y-107442995D01*
X117616005Y-107442996D01*
X117635991Y-107470504D01*
X117722447Y-107589501D01*
X117850499Y-107717553D01*
X117997006Y-107823996D01*
X118158361Y-107906211D01*
X118158364Y-107906212D01*
X118158363Y-107906212D01*
X118330580Y-107962168D01*
X118330586Y-107962169D01*
X118330591Y-107962171D01*
X118448513Y-107980848D01*
X118509453Y-107990500D01*
X118509454Y-107990500D01*
X118690547Y-107990500D01*
X118735261Y-107983417D01*
X118869409Y-107962171D01*
X118869416Y-107962168D01*
X118869419Y-107962168D01*
X118993814Y-107921750D01*
X119041639Y-107906211D01*
X119202994Y-107823996D01*
X119349501Y-107717553D01*
X119459616Y-107607438D01*
X119511942Y-107585764D01*
X119564268Y-107607438D01*
X119577335Y-107620505D01*
X119697164Y-107689688D01*
X119704651Y-107691694D01*
X119749584Y-107726168D01*
X119759500Y-107763172D01*
X119759500Y-108463175D01*
X119759499Y-108463178D01*
X119759499Y-108519074D01*
X119769177Y-108542437D01*
X119780889Y-108570713D01*
X119780890Y-108570714D01*
X119830820Y-108620644D01*
X119830822Y-108620645D01*
X122089762Y-110879585D01*
X122089763Y-110879587D01*
X122129287Y-110919111D01*
X122150676Y-110927970D01*
X122180926Y-110940501D01*
X122245434Y-110940501D01*
X122245442Y-110940500D01*
X126200164Y-110940500D01*
X126252490Y-110962174D01*
X126274164Y-111014500D01*
X126252490Y-111066826D01*
X126237166Y-111078583D01*
X126184972Y-111108718D01*
X126127334Y-111141995D01*
X126029495Y-111239834D01*
X125960312Y-111359663D01*
X125960310Y-111359668D01*
X125924500Y-111493314D01*
X125924500Y-111631685D01*
X125960310Y-111765331D01*
X125960311Y-111765333D01*
X125960312Y-111765336D01*
X126029495Y-111885165D01*
X126127335Y-111983005D01*
X126247164Y-112052188D01*
X126380814Y-112087999D01*
X126380815Y-112088000D01*
X126380817Y-112088000D01*
X126519185Y-112088000D01*
X126519185Y-112087999D01*
X126652836Y-112052188D01*
X126772665Y-111983005D01*
X126870505Y-111885165D01*
X126902670Y-111829453D01*
X132689500Y-111829453D01*
X132689500Y-112010546D01*
X132717828Y-112189406D01*
X132717831Y-112189419D01*
X132773787Y-112361635D01*
X132773788Y-112361638D01*
X132773789Y-112361639D01*
X132856004Y-112522994D01*
X132962447Y-112669501D01*
X133090499Y-112797553D01*
X133237006Y-112903996D01*
X133398361Y-112986211D01*
X133398364Y-112986212D01*
X133398363Y-112986212D01*
X133570580Y-113042168D01*
X133570586Y-113042169D01*
X133570591Y-113042171D01*
X133689833Y-113061057D01*
X133749453Y-113070500D01*
X133749454Y-113070500D01*
X133930547Y-113070500D01*
X133975261Y-113063417D01*
X134109409Y-113042171D01*
X134109416Y-113042168D01*
X134109419Y-113042168D01*
X134187601Y-113016765D01*
X134281639Y-112986211D01*
X134442994Y-112903996D01*
X134589501Y-112797553D01*
X134717553Y-112669501D01*
X134823996Y-112522994D01*
X134906211Y-112361639D01*
X134962171Y-112189409D01*
X134990500Y-112010546D01*
X134990500Y-111829454D01*
X134962171Y-111650591D01*
X134962169Y-111650586D01*
X134962168Y-111650580D01*
X134906212Y-111478364D01*
X134906211Y-111478363D01*
X134906211Y-111478361D01*
X134823996Y-111317006D01*
X134717553Y-111170499D01*
X134589501Y-111042447D01*
X134479014Y-110962174D01*
X134442996Y-110936005D01*
X134281635Y-110853787D01*
X134281636Y-110853787D01*
X134109419Y-110797831D01*
X134109406Y-110797828D01*
X133930547Y-110769500D01*
X133930546Y-110769500D01*
X133749454Y-110769500D01*
X133749453Y-110769500D01*
X133570593Y-110797828D01*
X133570580Y-110797831D01*
X133398364Y-110853787D01*
X133237004Y-110936005D01*
X133237003Y-110936005D01*
X133102603Y-111033653D01*
X133090499Y-111042447D01*
X132962447Y-111170499D01*
X132962444Y-111170502D01*
X132962444Y-111170503D01*
X132856005Y-111317003D01*
X132856005Y-111317004D01*
X132773787Y-111478364D01*
X132717831Y-111650580D01*
X132717828Y-111650593D01*
X132689500Y-111829453D01*
X126902670Y-111829453D01*
X126939688Y-111765336D01*
X126975499Y-111631685D01*
X126975500Y-111631685D01*
X126975500Y-111493315D01*
X126975499Y-111493314D01*
X126971492Y-111478361D01*
X126939688Y-111359664D01*
X126870505Y-111239835D01*
X126772665Y-111141995D01*
X126662835Y-111078585D01*
X126628358Y-111033653D01*
X126635750Y-110977500D01*
X126680683Y-110943022D01*
X126699836Y-110940500D01*
X129361827Y-110940500D01*
X129414153Y-110962174D01*
X129433304Y-110995344D01*
X129435312Y-111002836D01*
X129435313Y-111002838D01*
X129458181Y-111042447D01*
X129504495Y-111122665D01*
X129602335Y-111220505D01*
X129722164Y-111289688D01*
X129855814Y-111325499D01*
X129855815Y-111325500D01*
X129855817Y-111325500D01*
X129994185Y-111325500D01*
X129994185Y-111325499D01*
X130127836Y-111289688D01*
X130247665Y-111220505D01*
X130345505Y-111122665D01*
X130414688Y-111002836D01*
X130420099Y-110982640D01*
X130454575Y-110937707D01*
X130510727Y-110930313D01*
X130555662Y-110964790D01*
X130555662Y-110964791D01*
X130559755Y-110971880D01*
X130559756Y-110971881D01*
X130657596Y-111069721D01*
X130777425Y-111138904D01*
X130911075Y-111174715D01*
X130911076Y-111174716D01*
X130911078Y-111174716D01*
X131049446Y-111174716D01*
X131049446Y-111174715D01*
X131183097Y-111138904D01*
X131302926Y-111069721D01*
X131400766Y-110971881D01*
X131469949Y-110852052D01*
X131505760Y-110718401D01*
X131505761Y-110718401D01*
X131505761Y-110580031D01*
X131505760Y-110580030D01*
X131493560Y-110534500D01*
X131469949Y-110446380D01*
X131400766Y-110326551D01*
X131302926Y-110228711D01*
X131183097Y-110159528D01*
X131183092Y-110159526D01*
X131049446Y-110123716D01*
X131049444Y-110123716D01*
X130911078Y-110123716D01*
X130911076Y-110123716D01*
X130777429Y-110159526D01*
X130777420Y-110159530D01*
X130707539Y-110199875D01*
X130651386Y-110207267D01*
X130641856Y-110204004D01*
X130635007Y-110201124D01*
X130634772Y-110200889D01*
X130613382Y-110192029D01*
X130583133Y-110179499D01*
X130527237Y-110179499D01*
X130518625Y-110179499D01*
X130518617Y-110179500D01*
X129087672Y-110179500D01*
X129035346Y-110157826D01*
X128650537Y-109773017D01*
X128628863Y-109720691D01*
X128650537Y-109668365D01*
X128702863Y-109646691D01*
X128739861Y-109656604D01*
X128797164Y-109689688D01*
X128930814Y-109725499D01*
X128930815Y-109725500D01*
X128930817Y-109725500D01*
X129069185Y-109725500D01*
X129069185Y-109725499D01*
X129202836Y-109689688D01*
X129322665Y-109620505D01*
X129420505Y-109522665D01*
X129489688Y-109402836D01*
X129525499Y-109269185D01*
X129525500Y-109269185D01*
X129525500Y-109130815D01*
X129525499Y-109130814D01*
X129520077Y-109110580D01*
X129489688Y-108997164D01*
X129420505Y-108877335D01*
X129322665Y-108779495D01*
X129202836Y-108710312D01*
X129202831Y-108710310D01*
X129069185Y-108674500D01*
X129069183Y-108674500D01*
X128930817Y-108674500D01*
X128930815Y-108674500D01*
X128797168Y-108710310D01*
X128797163Y-108710312D01*
X128677334Y-108779495D01*
X128579495Y-108877334D01*
X128510312Y-108997163D01*
X128510310Y-108997168D01*
X128474500Y-109130814D01*
X128474500Y-109269185D01*
X128510310Y-109402831D01*
X128510311Y-109402833D01*
X128510312Y-109402836D01*
X128523397Y-109425500D01*
X128543394Y-109460136D01*
X128550786Y-109516289D01*
X128516308Y-109561222D01*
X128460155Y-109568614D01*
X128426982Y-109549462D01*
X128131481Y-109253961D01*
X128117934Y-109240414D01*
X128117934Y-109240413D01*
X128078410Y-109200889D01*
X128057020Y-109192029D01*
X128047634Y-109188141D01*
X128047633Y-109188140D01*
X128026771Y-109179499D01*
X127970875Y-109179499D01*
X127962263Y-109179499D01*
X127962255Y-109179500D01*
X125293429Y-109179500D01*
X125241103Y-109157826D01*
X123738693Y-107655416D01*
X123717019Y-107603090D01*
X123738693Y-107550764D01*
X123754013Y-107539008D01*
X123872665Y-107470505D01*
X123970505Y-107372665D01*
X124039688Y-107252836D01*
X124075499Y-107119185D01*
X124075500Y-107119185D01*
X124075500Y-106980815D01*
X124075499Y-106980814D01*
X124046798Y-106873698D01*
X124054190Y-106817545D01*
X124065950Y-106802219D01*
X124070505Y-106797665D01*
X124139688Y-106677836D01*
X124175499Y-106544185D01*
X124175500Y-106544185D01*
X124175500Y-106428902D01*
X124197174Y-106376576D01*
X124204457Y-106370190D01*
X124207002Y-106368236D01*
X124207008Y-106368233D01*
X124304848Y-106270393D01*
X124374031Y-106150564D01*
X124409842Y-106016913D01*
X124409843Y-106016913D01*
X124409843Y-105878547D01*
X124409346Y-105874775D01*
X124424000Y-105820067D01*
X124430386Y-105812784D01*
X124433251Y-105809918D01*
X124433254Y-105809917D01*
X124531094Y-105712077D01*
X124600277Y-105592248D01*
X124636088Y-105458597D01*
X124636089Y-105458597D01*
X124636089Y-105442080D01*
X124657763Y-105389754D01*
X124673087Y-105377995D01*
X124772665Y-105320505D01*
X124802154Y-105291016D01*
X124854480Y-105269342D01*
X124906806Y-105291016D01*
X124936155Y-105320365D01*
X125055984Y-105389548D01*
X125189634Y-105425359D01*
X125189635Y-105425360D01*
X125189637Y-105425360D01*
X125328002Y-105425360D01*
X125328003Y-105425360D01*
X125329465Y-105424968D01*
X125330223Y-105425067D01*
X125332814Y-105424727D01*
X125332905Y-105425420D01*
X125385617Y-105432356D01*
X125400949Y-105444119D01*
X125477335Y-105520505D01*
X125597164Y-105589688D01*
X125730814Y-105625499D01*
X125730815Y-105625500D01*
X125730817Y-105625500D01*
X125869185Y-105625500D01*
X125869185Y-105625499D01*
X125980824Y-105595586D01*
X126036977Y-105602978D01*
X126071455Y-105647911D01*
X126064063Y-105704064D01*
X126010313Y-105797162D01*
X126010310Y-105797168D01*
X125974500Y-105930814D01*
X125974500Y-106069185D01*
X126010310Y-106202831D01*
X126010314Y-106202840D01*
X126019041Y-106217956D01*
X126026433Y-106274109D01*
X125991954Y-106319041D01*
X125935801Y-106326433D01*
X125917956Y-106319041D01*
X125902840Y-106310314D01*
X125902831Y-106310310D01*
X125769185Y-106274500D01*
X125769183Y-106274500D01*
X125630817Y-106274500D01*
X125630815Y-106274500D01*
X125497168Y-106310310D01*
X125497163Y-106310312D01*
X125377334Y-106379495D01*
X125279495Y-106477334D01*
X125210312Y-106597163D01*
X125210310Y-106597168D01*
X125174500Y-106730814D01*
X125174500Y-106869185D01*
X125210310Y-107002831D01*
X125210312Y-107002836D01*
X125279495Y-107122665D01*
X125314750Y-107157920D01*
X125336424Y-107210246D01*
X125326510Y-107247245D01*
X125302312Y-107289157D01*
X125302308Y-107289166D01*
X125266498Y-107422812D01*
X125266498Y-107561183D01*
X125302308Y-107694829D01*
X125302310Y-107694834D01*
X125371493Y-107814663D01*
X125469333Y-107912503D01*
X125589162Y-107981686D01*
X125643441Y-107996229D01*
X125688375Y-108030708D01*
X125695767Y-108048555D01*
X125710310Y-108102831D01*
X125710312Y-108102836D01*
X125779495Y-108222665D01*
X125877335Y-108320505D01*
X125997164Y-108389688D01*
X126130814Y-108425499D01*
X126130815Y-108425500D01*
X126130817Y-108425500D01*
X126269185Y-108425500D01*
X126269185Y-108425499D01*
X126402836Y-108389688D01*
X126508150Y-108328884D01*
X126564302Y-108321492D01*
X126597475Y-108340645D01*
X126677335Y-108420505D01*
X126797164Y-108489688D01*
X126930814Y-108525499D01*
X126930815Y-108525500D01*
X126930817Y-108525500D01*
X127069185Y-108525500D01*
X127069185Y-108525499D01*
X127202836Y-108489688D01*
X127322665Y-108420505D01*
X127420505Y-108322665D01*
X127446147Y-108278250D01*
X127491079Y-108243772D01*
X127547232Y-108251164D01*
X127581711Y-108296096D01*
X127581711Y-108296097D01*
X127610310Y-108402831D01*
X127610312Y-108402836D01*
X127679495Y-108522665D01*
X127777335Y-108620505D01*
X127897164Y-108689688D01*
X128030814Y-108725499D01*
X128030815Y-108725500D01*
X128030817Y-108725500D01*
X128169185Y-108725500D01*
X128169185Y-108725499D01*
X128302836Y-108689688D01*
X128422665Y-108620505D01*
X128520505Y-108522665D01*
X128589688Y-108402836D01*
X128606022Y-108341875D01*
X128610481Y-108336064D01*
X128610912Y-108328748D01*
X128625076Y-108317043D01*
X128640498Y-108296946D01*
X128653243Y-108291119D01*
X128655761Y-108290245D01*
X128751378Y-108264625D01*
X128784165Y-108245694D01*
X128790809Y-108243390D01*
X128812588Y-108244670D01*
X128834215Y-108241823D01*
X128845807Y-108246624D01*
X128847348Y-108246715D01*
X128848118Y-108247581D01*
X128852060Y-108249214D01*
X128922164Y-108289688D01*
X129055814Y-108325499D01*
X129055815Y-108325500D01*
X129055817Y-108325500D01*
X129194185Y-108325500D01*
X129194185Y-108325499D01*
X129327836Y-108289688D01*
X129447665Y-108220505D01*
X129545505Y-108122665D01*
X129555234Y-108105814D01*
X130411192Y-108105814D01*
X130411192Y-108244185D01*
X130447002Y-108377831D01*
X130447004Y-108377836D01*
X130516187Y-108497665D01*
X130614027Y-108595505D01*
X130733856Y-108664688D01*
X130867506Y-108700499D01*
X130867507Y-108700500D01*
X130912979Y-108700500D01*
X130965305Y-108722174D01*
X130986979Y-108774500D01*
X130984458Y-108793652D01*
X130974500Y-108830817D01*
X130974500Y-108969185D01*
X131010310Y-109102831D01*
X131010312Y-109102836D01*
X131079495Y-109222665D01*
X131177335Y-109320505D01*
X131297164Y-109389688D01*
X131430814Y-109425499D01*
X131430815Y-109425500D01*
X131430817Y-109425500D01*
X131569185Y-109425500D01*
X131569185Y-109425499D01*
X131702836Y-109389688D01*
X131822665Y-109320505D01*
X131853717Y-109289453D01*
X132689500Y-109289453D01*
X132689500Y-109470546D01*
X132717828Y-109649406D01*
X132717831Y-109649419D01*
X132773787Y-109821635D01*
X132773788Y-109821638D01*
X132773789Y-109821639D01*
X132856004Y-109982994D01*
X132962447Y-110129501D01*
X133090499Y-110257553D01*
X133237006Y-110363996D01*
X133398361Y-110446211D01*
X133398364Y-110446212D01*
X133398363Y-110446212D01*
X133570580Y-110502168D01*
X133570586Y-110502169D01*
X133570591Y-110502171D01*
X133689833Y-110521057D01*
X133749453Y-110530500D01*
X133749454Y-110530500D01*
X133930547Y-110530500D01*
X133987111Y-110521541D01*
X134109409Y-110502171D01*
X134109416Y-110502168D01*
X134109419Y-110502168D01*
X134237661Y-110460500D01*
X134281639Y-110446211D01*
X134442994Y-110363996D01*
X134589501Y-110257553D01*
X134717553Y-110129501D01*
X134823996Y-109982994D01*
X134906211Y-109821639D01*
X134939010Y-109720691D01*
X134962168Y-109649419D01*
X134962168Y-109649416D01*
X134962171Y-109649409D01*
X134990500Y-109470546D01*
X134990500Y-109289454D01*
X134987289Y-109269183D01*
X134975069Y-109192029D01*
X134962171Y-109110591D01*
X134962169Y-109110586D01*
X134962168Y-109110580D01*
X134906212Y-108938364D01*
X134906211Y-108938363D01*
X134906211Y-108938361D01*
X134823996Y-108777006D01*
X134717553Y-108630499D01*
X134589501Y-108502447D01*
X134476716Y-108420504D01*
X134442996Y-108396005D01*
X134336768Y-108341879D01*
X134281639Y-108313789D01*
X134281638Y-108313788D01*
X134281635Y-108313787D01*
X134281636Y-108313787D01*
X134109419Y-108257831D01*
X134109406Y-108257828D01*
X133930547Y-108229500D01*
X133930546Y-108229500D01*
X133749454Y-108229500D01*
X133749453Y-108229500D01*
X133570593Y-108257828D01*
X133570580Y-108257831D01*
X133398364Y-108313787D01*
X133237004Y-108396005D01*
X133237003Y-108396005D01*
X133108060Y-108489688D01*
X133090499Y-108502447D01*
X132962447Y-108630499D01*
X132962444Y-108630502D01*
X132962444Y-108630503D01*
X132856005Y-108777003D01*
X132856005Y-108777004D01*
X132773787Y-108938364D01*
X132717831Y-109110580D01*
X132717828Y-109110593D01*
X132689500Y-109289453D01*
X131853717Y-109289453D01*
X131920505Y-109222665D01*
X131989688Y-109102836D01*
X132025499Y-108969185D01*
X132025500Y-108969185D01*
X132025500Y-108830815D01*
X132025499Y-108830814D01*
X131998814Y-108731225D01*
X131989688Y-108697164D01*
X131920505Y-108577335D01*
X131822665Y-108479495D01*
X131702836Y-108410312D01*
X131702831Y-108410310D01*
X131569185Y-108374500D01*
X131569183Y-108374500D01*
X131523712Y-108374500D01*
X131471386Y-108352826D01*
X131449712Y-108300500D01*
X131452234Y-108281346D01*
X131462192Y-108244184D01*
X131462192Y-108105815D01*
X131462191Y-108105814D01*
X131434827Y-108003691D01*
X131426380Y-107972164D01*
X131357197Y-107852335D01*
X131259357Y-107754495D01*
X131139528Y-107685312D01*
X131139523Y-107685310D01*
X131005877Y-107649500D01*
X131005875Y-107649500D01*
X130867509Y-107649500D01*
X130867507Y-107649500D01*
X130733860Y-107685310D01*
X130733855Y-107685312D01*
X130614026Y-107754495D01*
X130516187Y-107852334D01*
X130447004Y-107972163D01*
X130447002Y-107972168D01*
X130411192Y-108105814D01*
X129555234Y-108105814D01*
X129614688Y-108002836D01*
X129650499Y-107869185D01*
X129650500Y-107869185D01*
X129650500Y-107730815D01*
X129650499Y-107730814D01*
X129646944Y-107717548D01*
X129614688Y-107597164D01*
X129545505Y-107477335D01*
X129499410Y-107431240D01*
X129477736Y-107378914D01*
X129499410Y-107326588D01*
X129514737Y-107314828D01*
X129514976Y-107314689D01*
X129514979Y-107314689D01*
X129634808Y-107245506D01*
X129732648Y-107147666D01*
X129801831Y-107027837D01*
X129837642Y-106894186D01*
X129837643Y-106894186D01*
X129837643Y-106755816D01*
X129837642Y-106755815D01*
X129835937Y-106749453D01*
X129801831Y-106622165D01*
X129732648Y-106502336D01*
X129634808Y-106404496D01*
X129514979Y-106335313D01*
X129514978Y-106335312D01*
X129514977Y-106335312D01*
X129510632Y-106334148D01*
X129465700Y-106299669D01*
X129458308Y-106243516D01*
X129477459Y-106210345D01*
X129493591Y-106194214D01*
X129562774Y-106074385D01*
X129598585Y-105940734D01*
X129598586Y-105940734D01*
X129598586Y-105802364D01*
X129598585Y-105802363D01*
X129597191Y-105797162D01*
X129562774Y-105668713D01*
X129526456Y-105605808D01*
X130459193Y-105605808D01*
X130459193Y-105744179D01*
X130495003Y-105877825D01*
X130495005Y-105877830D01*
X130564188Y-105997659D01*
X130662028Y-106095499D01*
X130662316Y-106095665D01*
X130675438Y-106103241D01*
X130709916Y-106148174D01*
X130702524Y-106204327D01*
X130690764Y-106219653D01*
X130608082Y-106302334D01*
X130538899Y-106422163D01*
X130538897Y-106422168D01*
X130503087Y-106555814D01*
X130503087Y-106694185D01*
X130538897Y-106827831D01*
X130538899Y-106827836D01*
X130608082Y-106947665D01*
X130705922Y-107045505D01*
X130825751Y-107114688D01*
X130959401Y-107150499D01*
X130959402Y-107150500D01*
X130959404Y-107150500D01*
X131097772Y-107150500D01*
X131097772Y-107150499D01*
X131231423Y-107114688D01*
X131351252Y-107045505D01*
X131449092Y-106947665D01*
X131518275Y-106827836D01*
X131554086Y-106694185D01*
X131554087Y-106694185D01*
X131554087Y-106555815D01*
X131554086Y-106555814D01*
X131539756Y-106502335D01*
X131518275Y-106422164D01*
X131449092Y-106302335D01*
X131351252Y-106204495D01*
X131351249Y-106204493D01*
X131351247Y-106204491D01*
X131337841Y-106196751D01*
X131303363Y-106151818D01*
X131310757Y-106095665D01*
X131322512Y-106080344D01*
X131405198Y-105997659D01*
X131474381Y-105877830D01*
X131510192Y-105744179D01*
X131510193Y-105744179D01*
X131510193Y-105605809D01*
X131510192Y-105605808D01*
X131505872Y-105589687D01*
X131474381Y-105472158D01*
X131405198Y-105352329D01*
X131307358Y-105254489D01*
X131187529Y-105185306D01*
X131187524Y-105185304D01*
X131053878Y-105149494D01*
X131053876Y-105149494D01*
X130915510Y-105149494D01*
X130915508Y-105149494D01*
X130781861Y-105185304D01*
X130781856Y-105185306D01*
X130662027Y-105254489D01*
X130564188Y-105352328D01*
X130495005Y-105472157D01*
X130495003Y-105472162D01*
X130459193Y-105605808D01*
X129526456Y-105605808D01*
X129493591Y-105548884D01*
X129395751Y-105451044D01*
X129275922Y-105381861D01*
X129275921Y-105381860D01*
X129275918Y-105381859D01*
X129274250Y-105381412D01*
X129273559Y-105380881D01*
X129271440Y-105380004D01*
X129271675Y-105379435D01*
X129229321Y-105346929D01*
X129221935Y-105290775D01*
X129241083Y-105257612D01*
X129359585Y-105139111D01*
X129359587Y-105139111D01*
X129399111Y-105099587D01*
X129411475Y-105069737D01*
X129420501Y-105047948D01*
X129420501Y-104992052D01*
X129420501Y-104986094D01*
X129420500Y-104986080D01*
X129420500Y-104080814D01*
X130424500Y-104080814D01*
X130424500Y-104219185D01*
X130460310Y-104352831D01*
X130460312Y-104352836D01*
X130529495Y-104472665D01*
X130627335Y-104570505D01*
X130747164Y-104639688D01*
X130880814Y-104675499D01*
X130880815Y-104675500D01*
X130880817Y-104675500D01*
X131019185Y-104675500D01*
X131019185Y-104675499D01*
X131152836Y-104639688D01*
X131272665Y-104570505D01*
X131370505Y-104472665D01*
X131439688Y-104352836D01*
X131475499Y-104219185D01*
X131475500Y-104219185D01*
X131475500Y-104080815D01*
X131475499Y-104080814D01*
X131448986Y-103981864D01*
X131456378Y-103925711D01*
X131468134Y-103910389D01*
X131540509Y-103838015D01*
X131612984Y-103712485D01*
X131650499Y-103572477D01*
X131650500Y-103572477D01*
X131650500Y-103427523D01*
X131650499Y-103427522D01*
X131650317Y-103426844D01*
X131612984Y-103287515D01*
X131609736Y-103281890D01*
X131575253Y-103222163D01*
X131540509Y-103161985D01*
X131438015Y-103059491D01*
X131388754Y-103031050D01*
X131312486Y-102987016D01*
X131312481Y-102987014D01*
X131172477Y-102949500D01*
X131172475Y-102949500D01*
X131027525Y-102949500D01*
X131027523Y-102949500D01*
X130887518Y-102987014D01*
X130887513Y-102987016D01*
X130761984Y-103059491D01*
X130659491Y-103161984D01*
X130587016Y-103287513D01*
X130587014Y-103287518D01*
X130549500Y-103427522D01*
X130549500Y-103572477D01*
X130588072Y-103716429D01*
X130580680Y-103772582D01*
X130568921Y-103787907D01*
X130529495Y-103827334D01*
X130460312Y-103947163D01*
X130460310Y-103947168D01*
X130424500Y-104080814D01*
X129420500Y-104080814D01*
X129420500Y-101022102D01*
X129420500Y-101007950D01*
X129420501Y-101007948D01*
X129420501Y-100952052D01*
X129407433Y-100920505D01*
X129399111Y-100900413D01*
X129359587Y-100860889D01*
X129355372Y-100856674D01*
X129355365Y-100856668D01*
X129311835Y-100813138D01*
X129290161Y-100760812D01*
X129292683Y-100741659D01*
X129300687Y-100711785D01*
X129325499Y-100619185D01*
X129325500Y-100619185D01*
X129325500Y-100480815D01*
X129325499Y-100480814D01*
X129312102Y-100430817D01*
X129289688Y-100347164D01*
X129220505Y-100227335D01*
X129122665Y-100129495D01*
X129002836Y-100060312D01*
X129002831Y-100060310D01*
X128869185Y-100024500D01*
X128869183Y-100024500D01*
X128730817Y-100024500D01*
X128730815Y-100024500D01*
X128597168Y-100060310D01*
X128597163Y-100060312D01*
X128477334Y-100129495D01*
X128379495Y-100227334D01*
X128310312Y-100347163D01*
X128310310Y-100347168D01*
X128274500Y-100480814D01*
X128274500Y-100619182D01*
X128298476Y-100708665D01*
X128291083Y-100764817D01*
X128279326Y-100780140D01*
X128266335Y-100793131D01*
X128197152Y-100912961D01*
X128197150Y-100912966D01*
X128161340Y-101046612D01*
X128161340Y-101184983D01*
X128197150Y-101318629D01*
X128197153Y-101318636D01*
X128211395Y-101343305D01*
X128218786Y-101399458D01*
X128206021Y-101425345D01*
X128204497Y-101427330D01*
X128135312Y-101547163D01*
X128135310Y-101547168D01*
X128099500Y-101680814D01*
X128099500Y-101819185D01*
X128135309Y-101952828D01*
X128137112Y-101957179D01*
X128137112Y-101971892D01*
X128142745Y-101985485D01*
X128137112Y-101999091D01*
X128137112Y-102013817D01*
X128126708Y-102024220D01*
X128121081Y-102037815D01*
X128107480Y-102043450D01*
X128097065Y-102053866D01*
X128081311Y-102057000D01*
X128081384Y-102057290D01*
X128081380Y-102057291D01*
X128077381Y-102057783D01*
X128068759Y-102059499D01*
X128063446Y-102059500D01*
X128063444Y-102059499D01*
X128063440Y-102059499D01*
X128063432Y-102059500D01*
X127689968Y-102059500D01*
X127637642Y-102037826D01*
X127618490Y-102004653D01*
X127589689Y-101897168D01*
X127589688Y-101897164D01*
X127520505Y-101777335D01*
X127422665Y-101679495D01*
X127302836Y-101610312D01*
X127302831Y-101610310D01*
X127169185Y-101574500D01*
X127169183Y-101574500D01*
X127030817Y-101574500D01*
X127030815Y-101574500D01*
X126897168Y-101610310D01*
X126897163Y-101610312D01*
X126777334Y-101679495D01*
X126752326Y-101704504D01*
X126700000Y-101726178D01*
X126647674Y-101704504D01*
X126622665Y-101679495D01*
X126502836Y-101610312D01*
X126502831Y-101610310D01*
X126369185Y-101574500D01*
X126369183Y-101574500D01*
X126230817Y-101574500D01*
X126230815Y-101574500D01*
X126097168Y-101610310D01*
X126097163Y-101610312D01*
X125977334Y-101679495D01*
X125879495Y-101777334D01*
X125810312Y-101897163D01*
X125810310Y-101897168D01*
X125774500Y-102030814D01*
X125774500Y-102169185D01*
X125810310Y-102302831D01*
X125810312Y-102302836D01*
X125879495Y-102422665D01*
X125977335Y-102520505D01*
X126097164Y-102589688D01*
X126230814Y-102625499D01*
X126230815Y-102625500D01*
X126230817Y-102625500D01*
X126369185Y-102625500D01*
X126369185Y-102625499D01*
X126502836Y-102589688D01*
X126622665Y-102520505D01*
X126647674Y-102495496D01*
X126700000Y-102473822D01*
X126752326Y-102495496D01*
X126777335Y-102520505D01*
X126897164Y-102589688D01*
X127030814Y-102625499D01*
X127030815Y-102625500D01*
X127030817Y-102625500D01*
X127169185Y-102625500D01*
X127169185Y-102625499D01*
X127302836Y-102589688D01*
X127422665Y-102520505D01*
X127520505Y-102422665D01*
X127546581Y-102377499D01*
X127591515Y-102343021D01*
X127610667Y-102340500D01*
X128011151Y-102340500D01*
X128063477Y-102362174D01*
X128537826Y-102836523D01*
X128559500Y-102888849D01*
X128559500Y-104673751D01*
X128537826Y-104726077D01*
X128066826Y-105197077D01*
X128014500Y-105218751D01*
X127962174Y-105197077D01*
X127940500Y-105144751D01*
X127940500Y-104863172D01*
X127962174Y-104810846D01*
X127995346Y-104791694D01*
X128002836Y-104789688D01*
X128122665Y-104720505D01*
X128220505Y-104622665D01*
X128289688Y-104502836D01*
X128325499Y-104369185D01*
X128325500Y-104369185D01*
X128325500Y-104230815D01*
X128325499Y-104230814D01*
X128319775Y-104209453D01*
X128289688Y-104097164D01*
X128220505Y-103977335D01*
X128122665Y-103879495D01*
X128002836Y-103810312D01*
X128002831Y-103810310D01*
X127869185Y-103774500D01*
X127869183Y-103774500D01*
X127730817Y-103774500D01*
X127730815Y-103774500D01*
X127597168Y-103810310D01*
X127597163Y-103810312D01*
X127477334Y-103879495D01*
X127467494Y-103889335D01*
X127415167Y-103911007D01*
X127396017Y-103908485D01*
X127370547Y-103901660D01*
X127269185Y-103874500D01*
X127269183Y-103874500D01*
X127130817Y-103874500D01*
X127130815Y-103874500D01*
X126997168Y-103910310D01*
X126997163Y-103910312D01*
X126877334Y-103979495D01*
X126779495Y-104077334D01*
X126710312Y-104197163D01*
X126710310Y-104197168D01*
X126674500Y-104330814D01*
X126674500Y-104469185D01*
X126710310Y-104602831D01*
X126712169Y-104607318D01*
X126709692Y-104608343D01*
X126715967Y-104655971D01*
X126681491Y-104700906D01*
X126625339Y-104708303D01*
X126625335Y-104708302D01*
X126499183Y-104674500D01*
X126360817Y-104674500D01*
X126360815Y-104674500D01*
X126227168Y-104710310D01*
X126222682Y-104712169D01*
X126221756Y-104709934D01*
X126173442Y-104716274D01*
X126140300Y-104697130D01*
X126122665Y-104679495D01*
X126002836Y-104610312D01*
X126002831Y-104610310D01*
X125869185Y-104574500D01*
X125869183Y-104574500D01*
X125730817Y-104574500D01*
X125730809Y-104574500D01*
X125729338Y-104574895D01*
X125728577Y-104574794D01*
X125726008Y-104575133D01*
X125725917Y-104574444D01*
X125673187Y-104567494D01*
X125657870Y-104555740D01*
X125581485Y-104479355D01*
X125461656Y-104410172D01*
X125461651Y-104410170D01*
X125328005Y-104374360D01*
X125328003Y-104374360D01*
X125189637Y-104374360D01*
X125189635Y-104374360D01*
X125055988Y-104410170D01*
X125055983Y-104410172D01*
X124936154Y-104479355D01*
X124906666Y-104508844D01*
X124854340Y-104530518D01*
X124802014Y-104508844D01*
X124772665Y-104479495D01*
X124652836Y-104410312D01*
X124652831Y-104410310D01*
X124519185Y-104374500D01*
X124519183Y-104374500D01*
X124380817Y-104374500D01*
X124380815Y-104374500D01*
X124247168Y-104410310D01*
X124247163Y-104410312D01*
X124127334Y-104479495D01*
X124029495Y-104577334D01*
X123960312Y-104697163D01*
X123960310Y-104697168D01*
X123924500Y-104830814D01*
X123924500Y-104847330D01*
X123902826Y-104899656D01*
X123887500Y-104911416D01*
X123787923Y-104968907D01*
X123690084Y-105066746D01*
X123620901Y-105186575D01*
X123620899Y-105186580D01*
X123585089Y-105320226D01*
X123585089Y-105458597D01*
X123585586Y-105462373D01*
X123570926Y-105517080D01*
X123564545Y-105524356D01*
X123463838Y-105625062D01*
X123394655Y-105744891D01*
X123394653Y-105744896D01*
X123358843Y-105878542D01*
X123358843Y-105993825D01*
X123337169Y-106046151D01*
X123329897Y-106052529D01*
X123327337Y-106054493D01*
X123229495Y-106152334D01*
X123160312Y-106272163D01*
X123160310Y-106272168D01*
X123124500Y-106405814D01*
X123124500Y-106405817D01*
X123124500Y-106544183D01*
X123138573Y-106596707D01*
X123153202Y-106651302D01*
X123145809Y-106707454D01*
X123134052Y-106722777D01*
X123129495Y-106727333D01*
X123060995Y-106845980D01*
X123016061Y-106880459D01*
X122959909Y-106873066D01*
X122944583Y-106861306D01*
X121033306Y-104950029D01*
X121011632Y-104897703D01*
X121033306Y-104845377D01*
X121066479Y-104826225D01*
X121145601Y-104805023D01*
X121202836Y-104789688D01*
X121322665Y-104720505D01*
X121420505Y-104622665D01*
X121489688Y-104502836D01*
X121525499Y-104369185D01*
X121525500Y-104369185D01*
X121525500Y-104230815D01*
X121525499Y-104230814D01*
X121519775Y-104209453D01*
X121489688Y-104097164D01*
X121442750Y-104015866D01*
X121435359Y-103959714D01*
X121469837Y-103914781D01*
X121506837Y-103904867D01*
X121645692Y-103904867D01*
X121645692Y-103904866D01*
X121785700Y-103867351D01*
X121911230Y-103794876D01*
X122013724Y-103692382D01*
X122086199Y-103566852D01*
X122123714Y-103426844D01*
X122123715Y-103426844D01*
X122123715Y-103281890D01*
X122123714Y-103281889D01*
X122086200Y-103141885D01*
X122086198Y-103141880D01*
X122013723Y-103016351D01*
X121911230Y-102913858D01*
X121785701Y-102841383D01*
X121785696Y-102841381D01*
X121645692Y-102803867D01*
X121645690Y-102803867D01*
X121517955Y-102803867D01*
X121465629Y-102782193D01*
X121443955Y-102729867D01*
X121465629Y-102677541D01*
X121492367Y-102650803D01*
X121520505Y-102622665D01*
X121589688Y-102502836D01*
X121625499Y-102369185D01*
X121625500Y-102369185D01*
X121625500Y-102230815D01*
X121625499Y-102230814D01*
X121609339Y-102170505D01*
X121589688Y-102097164D01*
X121520505Y-101977335D01*
X121495496Y-101952326D01*
X121473822Y-101900000D01*
X121495496Y-101847674D01*
X121520505Y-101822665D01*
X121589688Y-101702836D01*
X121625499Y-101569185D01*
X121625500Y-101569185D01*
X121625500Y-101447522D01*
X123049500Y-101447522D01*
X123049500Y-101592477D01*
X123087014Y-101732481D01*
X123087016Y-101732486D01*
X123153521Y-101847674D01*
X123159491Y-101858015D01*
X123261985Y-101960509D01*
X123353876Y-102013563D01*
X123383761Y-102030817D01*
X123387515Y-102032984D01*
X123387516Y-102032984D01*
X123387518Y-102032985D01*
X123405544Y-102037815D01*
X123527522Y-102070499D01*
X123527523Y-102070500D01*
X123527525Y-102070500D01*
X123672477Y-102070500D01*
X123672477Y-102070499D01*
X123812485Y-102032984D01*
X123938015Y-101960509D01*
X124040509Y-101858015D01*
X124112984Y-101732485D01*
X124150499Y-101592477D01*
X124150500Y-101592477D01*
X124150500Y-101447523D01*
X124150499Y-101447522D01*
X124146022Y-101430815D01*
X124115964Y-101318636D01*
X124112985Y-101307518D01*
X124112983Y-101307513D01*
X124082807Y-101255247D01*
X124040509Y-101181985D01*
X123938015Y-101079491D01*
X123812486Y-101007016D01*
X123812481Y-101007014D01*
X123672477Y-100969500D01*
X123672475Y-100969500D01*
X123527525Y-100969500D01*
X123527523Y-100969500D01*
X123387518Y-101007014D01*
X123387513Y-101007016D01*
X123261984Y-101079491D01*
X123159491Y-101181984D01*
X123087016Y-101307513D01*
X123087014Y-101307518D01*
X123049500Y-101447522D01*
X121625500Y-101447522D01*
X121625500Y-101430815D01*
X121625499Y-101430814D01*
X121624565Y-101427330D01*
X121589688Y-101297164D01*
X121520505Y-101177335D01*
X121477247Y-101134077D01*
X121455573Y-101081751D01*
X121465487Y-101044752D01*
X121489688Y-101002836D01*
X121525499Y-100869185D01*
X121525500Y-100869185D01*
X121525500Y-100730815D01*
X121525499Y-100730814D01*
X121518002Y-100702836D01*
X121489688Y-100597164D01*
X121420505Y-100477335D01*
X121373984Y-100430814D01*
X126174500Y-100430814D01*
X126174500Y-100569185D01*
X126210310Y-100702831D01*
X126210312Y-100702836D01*
X126279495Y-100822665D01*
X126377335Y-100920505D01*
X126497164Y-100989688D01*
X126630814Y-101025499D01*
X126630815Y-101025500D01*
X126630817Y-101025500D01*
X126769185Y-101025500D01*
X126769185Y-101025499D01*
X126902836Y-100989688D01*
X127022665Y-100920505D01*
X127120505Y-100822665D01*
X127189688Y-100702836D01*
X127225499Y-100569185D01*
X127225500Y-100569185D01*
X127225500Y-100430815D01*
X127225499Y-100430814D01*
X127201747Y-100342171D01*
X127189688Y-100297164D01*
X127120505Y-100177335D01*
X127022665Y-100079495D01*
X126902836Y-100010312D01*
X126902831Y-100010310D01*
X126769185Y-99974500D01*
X126769183Y-99974500D01*
X126630817Y-99974500D01*
X126630815Y-99974500D01*
X126497168Y-100010310D01*
X126497163Y-100010312D01*
X126377334Y-100079495D01*
X126279495Y-100177334D01*
X126210312Y-100297163D01*
X126210310Y-100297168D01*
X126174500Y-100430814D01*
X121373984Y-100430814D01*
X121322665Y-100379495D01*
X121202836Y-100310312D01*
X121202831Y-100310310D01*
X121069185Y-100274500D01*
X121069183Y-100274500D01*
X120930817Y-100274500D01*
X120930815Y-100274500D01*
X120797168Y-100310310D01*
X120797163Y-100310312D01*
X120677334Y-100379495D01*
X120579495Y-100477334D01*
X120510312Y-100597163D01*
X120510310Y-100597168D01*
X120474500Y-100730814D01*
X120474500Y-100869185D01*
X120510310Y-101002831D01*
X120510312Y-101002836D01*
X120579495Y-101122665D01*
X120622752Y-101165922D01*
X120644426Y-101218248D01*
X120634512Y-101255247D01*
X120610314Y-101297159D01*
X120610310Y-101297168D01*
X120574500Y-101430814D01*
X120574500Y-101569185D01*
X120610310Y-101702831D01*
X120610312Y-101702836D01*
X120679495Y-101822665D01*
X120704504Y-101847674D01*
X120726178Y-101900000D01*
X120704504Y-101952326D01*
X120679495Y-101977334D01*
X120610312Y-102097163D01*
X120610310Y-102097168D01*
X120574500Y-102230814D01*
X120574500Y-102369185D01*
X120610310Y-102502831D01*
X120610312Y-102502836D01*
X120679495Y-102622665D01*
X120777335Y-102720505D01*
X120818023Y-102743996D01*
X120848192Y-102761414D01*
X120882670Y-102806347D01*
X120875278Y-102862500D01*
X120830345Y-102896978D01*
X120811192Y-102899500D01*
X120705815Y-102899500D01*
X120572168Y-102935310D01*
X120572163Y-102935312D01*
X120452334Y-103004495D01*
X120354495Y-103102334D01*
X120285312Y-103222163D01*
X120285310Y-103222168D01*
X120249500Y-103355814D01*
X120249500Y-103494185D01*
X120285310Y-103627831D01*
X120285312Y-103627836D01*
X120354495Y-103747665D01*
X120452335Y-103845505D01*
X120502556Y-103874500D01*
X120540703Y-103896524D01*
X120575181Y-103941457D01*
X120567789Y-103997610D01*
X120510313Y-104097162D01*
X120510310Y-104097168D01*
X120474500Y-104230814D01*
X120474500Y-104369185D01*
X120510310Y-104502831D01*
X120510312Y-104502836D01*
X120579495Y-104622665D01*
X120637826Y-104680996D01*
X120659500Y-104733322D01*
X120659500Y-104881500D01*
X120659499Y-104881514D01*
X120659499Y-104887472D01*
X120659499Y-104943368D01*
X120662258Y-104950029D01*
X120670133Y-104969037D01*
X120670134Y-104969043D01*
X120670135Y-104969043D01*
X120680888Y-104995006D01*
X120730820Y-105044938D01*
X120730822Y-105044939D01*
X123120668Y-107434785D01*
X123142342Y-107487111D01*
X123120668Y-107539437D01*
X123068342Y-107561111D01*
X123066850Y-107561096D01*
X123056289Y-107560883D01*
X123052948Y-107559499D01*
X122997052Y-107559499D01*
X122997050Y-107559500D01*
X120963173Y-107559500D01*
X120910847Y-107537826D01*
X120891695Y-107504655D01*
X120889688Y-107497164D01*
X120820505Y-107377335D01*
X120722665Y-107279495D01*
X120602836Y-107210312D01*
X120602831Y-107210310D01*
X120475999Y-107176325D01*
X120431066Y-107141847D01*
X120423674Y-107124000D01*
X120389689Y-106997168D01*
X120389688Y-106997164D01*
X120320505Y-106877335D01*
X120222665Y-106779495D01*
X120102836Y-106710312D01*
X120102831Y-106710310D01*
X119969185Y-106674500D01*
X119969183Y-106674500D01*
X119830817Y-106674500D01*
X119826074Y-106675770D01*
X119821762Y-106676926D01*
X119765609Y-106669530D01*
X119731133Y-106624595D01*
X119729526Y-106617031D01*
X119722171Y-106570591D01*
X119722170Y-106570589D01*
X119722170Y-106570586D01*
X119666212Y-106398364D01*
X119666211Y-106398363D01*
X119666211Y-106398361D01*
X119583996Y-106237006D01*
X119477553Y-106090499D01*
X119349501Y-105962447D01*
X119257452Y-105895570D01*
X119202996Y-105856005D01*
X119132464Y-105820067D01*
X119041639Y-105773789D01*
X119041638Y-105773788D01*
X119041635Y-105773787D01*
X119041636Y-105773787D01*
X118869419Y-105717831D01*
X118869406Y-105717828D01*
X118690547Y-105689500D01*
X118690546Y-105689500D01*
X118509454Y-105689500D01*
X118509453Y-105689500D01*
X118330593Y-105717828D01*
X118330580Y-105717831D01*
X118158364Y-105773787D01*
X117997004Y-105856005D01*
X117997003Y-105856005D01*
X117850503Y-105962444D01*
X117850499Y-105962447D01*
X117722447Y-106090499D01*
X117722444Y-106090502D01*
X117722444Y-106090503D01*
X117616005Y-106237003D01*
X117616005Y-106237004D01*
X117533787Y-106398364D01*
X117477831Y-106570580D01*
X117477828Y-106570593D01*
X117449500Y-106749453D01*
X116800500Y-106749453D01*
X116800500Y-104209453D01*
X117449500Y-104209453D01*
X117449500Y-104390546D01*
X117477828Y-104569406D01*
X117477831Y-104569419D01*
X117533787Y-104741635D01*
X117533788Y-104741638D01*
X117533789Y-104741639D01*
X117614303Y-104899656D01*
X117616005Y-104902995D01*
X117616005Y-104902996D01*
X117650177Y-104950029D01*
X117722447Y-105049501D01*
X117850499Y-105177553D01*
X117997006Y-105283996D01*
X118158361Y-105366211D01*
X118158364Y-105366212D01*
X118158363Y-105366212D01*
X118330580Y-105422168D01*
X118330586Y-105422169D01*
X118330591Y-105422171D01*
X118449833Y-105441057D01*
X118509453Y-105450500D01*
X118509454Y-105450500D01*
X118690547Y-105450500D01*
X118743708Y-105442080D01*
X118869409Y-105422171D01*
X118869416Y-105422168D01*
X118869419Y-105422168D01*
X118993472Y-105381861D01*
X119041639Y-105366211D01*
X119202994Y-105283996D01*
X119349501Y-105177553D01*
X119477553Y-105049501D01*
X119583996Y-104902994D01*
X119666211Y-104741639D01*
X119711312Y-104602831D01*
X119722168Y-104569419D01*
X119722168Y-104569416D01*
X119722171Y-104569409D01*
X119750500Y-104390546D01*
X119750500Y-104209454D01*
X119748553Y-104197164D01*
X119730126Y-104080817D01*
X119722171Y-104030591D01*
X119722169Y-104030586D01*
X119722168Y-104030580D01*
X119666212Y-103858364D01*
X119666211Y-103858363D01*
X119666211Y-103858361D01*
X119583996Y-103697006D01*
X119580636Y-103692382D01*
X119533741Y-103627836D01*
X119477553Y-103550499D01*
X119349501Y-103422447D01*
X119257788Y-103355814D01*
X119202996Y-103316005D01*
X119041635Y-103233787D01*
X119041636Y-103233787D01*
X118869419Y-103177831D01*
X118869406Y-103177828D01*
X118690547Y-103149500D01*
X118690546Y-103149500D01*
X118509454Y-103149500D01*
X118509453Y-103149500D01*
X118330593Y-103177828D01*
X118330580Y-103177831D01*
X118158364Y-103233787D01*
X117997004Y-103316005D01*
X117997003Y-103316005D01*
X117850503Y-103422444D01*
X117850499Y-103422447D01*
X117722447Y-103550499D01*
X117722444Y-103550502D01*
X117722444Y-103550503D01*
X117616005Y-103697003D01*
X117616005Y-103697004D01*
X117533787Y-103858364D01*
X117477831Y-104030580D01*
X117477828Y-104030593D01*
X117449500Y-104209453D01*
X116800500Y-104209453D01*
X116800500Y-101669453D01*
X117449500Y-101669453D01*
X117449500Y-101850546D01*
X117477828Y-102029406D01*
X117477831Y-102029419D01*
X117533787Y-102201635D01*
X117533788Y-102201638D01*
X117533789Y-102201639D01*
X117615586Y-102362174D01*
X117616005Y-102362995D01*
X117616005Y-102362996D01*
X117620502Y-102369185D01*
X117722447Y-102509501D01*
X117850499Y-102637553D01*
X117997006Y-102743996D01*
X118158361Y-102826211D01*
X118158364Y-102826212D01*
X118158363Y-102826212D01*
X118330580Y-102882168D01*
X118330586Y-102882169D01*
X118330591Y-102882171D01*
X118449833Y-102901057D01*
X118509453Y-102910500D01*
X118509454Y-102910500D01*
X118690547Y-102910500D01*
X118735261Y-102903417D01*
X118869409Y-102882171D01*
X118869416Y-102882168D01*
X118869419Y-102882168D01*
X118947601Y-102856765D01*
X119041639Y-102826211D01*
X119202994Y-102743996D01*
X119349501Y-102637553D01*
X119477553Y-102509501D01*
X119583996Y-102362994D01*
X119666211Y-102201639D01*
X119721009Y-102032985D01*
X119722168Y-102029419D01*
X119722168Y-102029416D01*
X119722171Y-102029409D01*
X119750500Y-101850546D01*
X119750500Y-101669454D01*
X119722171Y-101490591D01*
X119722169Y-101490586D01*
X119722168Y-101490580D01*
X119666212Y-101318364D01*
X119666211Y-101318363D01*
X119666211Y-101318361D01*
X119583996Y-101157006D01*
X119477553Y-101010499D01*
X119349501Y-100882447D01*
X119254105Y-100813138D01*
X119202996Y-100776005D01*
X119041635Y-100693787D01*
X119041636Y-100693787D01*
X118869419Y-100637831D01*
X118869406Y-100637828D01*
X118690547Y-100609500D01*
X118690546Y-100609500D01*
X118509454Y-100609500D01*
X118509453Y-100609500D01*
X118330593Y-100637828D01*
X118330580Y-100637831D01*
X118158364Y-100693787D01*
X117997004Y-100776005D01*
X117997003Y-100776005D01*
X117850503Y-100882444D01*
X117850499Y-100882447D01*
X117722447Y-101010499D01*
X117722444Y-101010502D01*
X117722444Y-101010503D01*
X117616005Y-101157003D01*
X117616005Y-101157004D01*
X117533787Y-101318364D01*
X117477831Y-101490580D01*
X117477828Y-101490593D01*
X117449500Y-101669453D01*
X116800500Y-101669453D01*
X116800500Y-99129453D01*
X117449500Y-99129453D01*
X117449500Y-99310546D01*
X117477828Y-99489406D01*
X117477831Y-99489419D01*
X117533787Y-99661635D01*
X117533788Y-99661638D01*
X117533789Y-99661639D01*
X117616004Y-99822994D01*
X117722447Y-99969501D01*
X117850499Y-100097553D01*
X117997006Y-100203996D01*
X118158361Y-100286211D01*
X118158364Y-100286212D01*
X118158363Y-100286212D01*
X118330580Y-100342168D01*
X118330586Y-100342169D01*
X118330591Y-100342171D01*
X118449833Y-100361057D01*
X118509453Y-100370500D01*
X118509454Y-100370500D01*
X118690547Y-100370500D01*
X118735261Y-100363417D01*
X118869409Y-100342171D01*
X118869416Y-100342168D01*
X118869419Y-100342168D01*
X118947601Y-100316765D01*
X119041639Y-100286211D01*
X119202994Y-100203996D01*
X119349501Y-100097553D01*
X119477553Y-99969501D01*
X119583996Y-99822994D01*
X119666211Y-99661639D01*
X119722171Y-99489409D01*
X119750500Y-99310546D01*
X119750500Y-99129454D01*
X119722171Y-98950591D01*
X119722169Y-98950586D01*
X119722168Y-98950580D01*
X119666212Y-98778364D01*
X119666211Y-98778363D01*
X119666211Y-98778361D01*
X119583996Y-98617006D01*
X119477553Y-98470499D01*
X119349501Y-98342447D01*
X119264128Y-98280420D01*
X119202996Y-98236005D01*
X119041635Y-98153787D01*
X119041636Y-98153787D01*
X118869419Y-98097831D01*
X118869406Y-98097828D01*
X118859505Y-98096260D01*
X118771449Y-98082313D01*
X118690547Y-98069500D01*
X118690546Y-98069500D01*
X118509454Y-98069500D01*
X118509453Y-98069500D01*
X118330593Y-98097828D01*
X118330580Y-98097831D01*
X118158364Y-98153787D01*
X117997004Y-98236005D01*
X117997003Y-98236005D01*
X117850503Y-98342444D01*
X117850499Y-98342447D01*
X117722447Y-98470499D01*
X117722444Y-98470502D01*
X117722444Y-98470503D01*
X117616005Y-98617003D01*
X117616005Y-98617004D01*
X117533787Y-98778364D01*
X117477831Y-98950580D01*
X117477828Y-98950593D01*
X117449500Y-99129453D01*
X116800500Y-99129453D01*
X116800500Y-98027522D01*
X127649500Y-98027522D01*
X127649500Y-98172477D01*
X127687014Y-98312481D01*
X127687016Y-98312486D01*
X127759491Y-98438015D01*
X127861985Y-98540509D01*
X127987515Y-98612984D01*
X127987516Y-98612984D01*
X127987518Y-98612985D01*
X128002525Y-98617006D01*
X128127522Y-98650499D01*
X128127523Y-98650500D01*
X128127525Y-98650500D01*
X128272477Y-98650500D01*
X128272477Y-98650499D01*
X128412485Y-98612984D01*
X128538015Y-98540509D01*
X128640509Y-98438015D01*
X128712984Y-98312485D01*
X128750499Y-98172477D01*
X128750500Y-98172477D01*
X128750500Y-98027523D01*
X128750499Y-98027522D01*
X128712985Y-97887518D01*
X128712983Y-97887513D01*
X128663710Y-97802171D01*
X128640509Y-97761985D01*
X128538015Y-97659491D01*
X128412486Y-97587016D01*
X128412481Y-97587014D01*
X128272477Y-97549500D01*
X128272475Y-97549500D01*
X128127525Y-97549500D01*
X128127523Y-97549500D01*
X127987518Y-97587014D01*
X127987513Y-97587016D01*
X127861984Y-97659491D01*
X127759491Y-97761984D01*
X127687016Y-97887513D01*
X127687014Y-97887518D01*
X127649500Y-98027522D01*
X116800500Y-98027522D01*
X116800500Y-96589453D01*
X117449500Y-96589453D01*
X117449500Y-96770546D01*
X117477828Y-96949406D01*
X117477831Y-96949419D01*
X117533787Y-97121635D01*
X117533788Y-97121638D01*
X117533789Y-97121639D01*
X117616004Y-97282994D01*
X117722447Y-97429501D01*
X117850499Y-97557553D01*
X117997006Y-97663996D01*
X118158361Y-97746211D01*
X118158364Y-97746212D01*
X118158363Y-97746212D01*
X118330580Y-97802168D01*
X118330586Y-97802169D01*
X118330591Y-97802171D01*
X118449833Y-97821057D01*
X118509453Y-97830500D01*
X118509454Y-97830500D01*
X118690547Y-97830500D01*
X118735261Y-97823417D01*
X118869409Y-97802171D01*
X118869416Y-97802168D01*
X118869419Y-97802168D01*
X118947601Y-97776765D01*
X119041639Y-97746211D01*
X119202994Y-97663996D01*
X119349501Y-97557553D01*
X119477553Y-97429501D01*
X119551645Y-97327522D01*
X129849500Y-97327522D01*
X129849500Y-97472477D01*
X129887014Y-97612481D01*
X129887016Y-97612486D01*
X129916756Y-97663996D01*
X129959491Y-97738015D01*
X130061985Y-97840509D01*
X130187515Y-97912984D01*
X130187516Y-97912984D01*
X130187518Y-97912985D01*
X130257520Y-97931742D01*
X130327522Y-97950499D01*
X130327523Y-97950500D01*
X130327525Y-97950500D01*
X130472477Y-97950500D01*
X130472477Y-97950499D01*
X130612485Y-97912984D01*
X130738015Y-97840509D01*
X130840509Y-97738015D01*
X130912984Y-97612485D01*
X130950499Y-97472477D01*
X130950500Y-97472477D01*
X130950500Y-97327523D01*
X130950499Y-97327522D01*
X130912985Y-97187518D01*
X130912983Y-97187513D01*
X130840508Y-97061984D01*
X130738015Y-96959491D01*
X130612486Y-96887016D01*
X130612481Y-96887014D01*
X130472477Y-96849500D01*
X130472475Y-96849500D01*
X130327525Y-96849500D01*
X130327523Y-96849500D01*
X130187518Y-96887014D01*
X130187513Y-96887016D01*
X130061984Y-96959491D01*
X129959491Y-97061984D01*
X129887016Y-97187513D01*
X129887014Y-97187518D01*
X129849500Y-97327522D01*
X119551645Y-97327522D01*
X119583996Y-97282994D01*
X119666211Y-97121639D01*
X119700600Y-97015799D01*
X119722168Y-96949419D01*
X119722168Y-96949416D01*
X119722171Y-96949409D01*
X119750500Y-96770546D01*
X119750500Y-96589454D01*
X119729161Y-96454727D01*
X119729161Y-96454724D01*
X121103200Y-96454724D01*
X121103200Y-96585275D01*
X121136986Y-96711368D01*
X121136988Y-96711373D01*
X121171152Y-96770546D01*
X121202261Y-96824428D01*
X121294572Y-96916739D01*
X121407628Y-96982012D01*
X121407629Y-96982012D01*
X121407631Y-96982013D01*
X121470677Y-96998906D01*
X121533724Y-97015799D01*
X121533725Y-97015800D01*
X121533727Y-97015800D01*
X121664275Y-97015800D01*
X121664275Y-97015799D01*
X121790372Y-96982012D01*
X121903428Y-96916739D01*
X121995739Y-96824428D01*
X122061012Y-96711372D01*
X122094799Y-96585275D01*
X122094800Y-96585275D01*
X122094800Y-96454725D01*
X122094799Y-96454724D01*
X123135200Y-96454724D01*
X123135200Y-96585275D01*
X123168986Y-96711368D01*
X123168988Y-96711373D01*
X123203152Y-96770546D01*
X123234261Y-96824428D01*
X123326572Y-96916739D01*
X123439628Y-96982012D01*
X123439629Y-96982012D01*
X123439631Y-96982013D01*
X123502677Y-96998906D01*
X123565724Y-97015799D01*
X123565725Y-97015800D01*
X123565727Y-97015800D01*
X123696275Y-97015800D01*
X123696275Y-97015799D01*
X123822372Y-96982012D01*
X123935428Y-96916739D01*
X124027739Y-96824428D01*
X124093012Y-96711372D01*
X124126799Y-96585275D01*
X124126800Y-96585275D01*
X124126800Y-96454725D01*
X124126799Y-96454724D01*
X124093013Y-96328631D01*
X124093011Y-96328626D01*
X124027738Y-96215571D01*
X123935428Y-96123261D01*
X123822373Y-96057988D01*
X123822368Y-96057986D01*
X123696275Y-96024200D01*
X123696273Y-96024200D01*
X123565727Y-96024200D01*
X123565725Y-96024200D01*
X123439631Y-96057986D01*
X123439626Y-96057988D01*
X123326571Y-96123261D01*
X123234261Y-96215571D01*
X123168988Y-96328626D01*
X123168986Y-96328631D01*
X123135200Y-96454724D01*
X122094799Y-96454724D01*
X122061013Y-96328631D01*
X122061011Y-96328626D01*
X121995738Y-96215571D01*
X121903428Y-96123261D01*
X121790373Y-96057988D01*
X121790368Y-96057986D01*
X121664275Y-96024200D01*
X121664273Y-96024200D01*
X121533727Y-96024200D01*
X121533725Y-96024200D01*
X121407631Y-96057986D01*
X121407626Y-96057988D01*
X121294571Y-96123261D01*
X121202261Y-96215571D01*
X121136988Y-96328626D01*
X121136986Y-96328631D01*
X121103200Y-96454724D01*
X119729161Y-96454724D01*
X119728446Y-96450214D01*
X119722171Y-96410591D01*
X119722168Y-96410584D01*
X119722168Y-96410580D01*
X119666212Y-96238364D01*
X119666211Y-96238363D01*
X119666211Y-96238361D01*
X119583996Y-96077006D01*
X119477553Y-95930499D01*
X119349501Y-95802447D01*
X119264128Y-95740420D01*
X119202996Y-95696005D01*
X119041635Y-95613787D01*
X119041636Y-95613787D01*
X118869419Y-95557831D01*
X118869406Y-95557828D01*
X118690547Y-95529500D01*
X118690546Y-95529500D01*
X118509454Y-95529500D01*
X118509453Y-95529500D01*
X118330593Y-95557828D01*
X118330580Y-95557831D01*
X118158364Y-95613787D01*
X117997004Y-95696005D01*
X117997003Y-95696005D01*
X117850503Y-95802444D01*
X117850499Y-95802447D01*
X117722447Y-95930499D01*
X117722444Y-95930502D01*
X117722444Y-95930503D01*
X117616005Y-96077003D01*
X117616005Y-96077004D01*
X117533787Y-96238364D01*
X117477831Y-96410580D01*
X117477828Y-96410593D01*
X117449500Y-96589453D01*
X116800500Y-96589453D01*
X116800500Y-94049453D01*
X117449500Y-94049453D01*
X117449500Y-94230546D01*
X117477828Y-94409406D01*
X117477831Y-94409419D01*
X117533787Y-94581635D01*
X117533788Y-94581638D01*
X117533789Y-94581639D01*
X117616004Y-94742994D01*
X117722447Y-94889501D01*
X117850499Y-95017553D01*
X117997006Y-95123996D01*
X118158361Y-95206211D01*
X118158364Y-95206212D01*
X118158363Y-95206212D01*
X118330580Y-95262168D01*
X118330586Y-95262169D01*
X118330591Y-95262171D01*
X118449833Y-95281057D01*
X118509453Y-95290500D01*
X118509454Y-95290500D01*
X118690547Y-95290500D01*
X118735261Y-95283417D01*
X118869409Y-95262171D01*
X118869416Y-95262168D01*
X118869419Y-95262168D01*
X118947601Y-95236765D01*
X119041639Y-95206211D01*
X119202994Y-95123996D01*
X119331249Y-95030814D01*
X130774500Y-95030814D01*
X130774500Y-95169185D01*
X130810310Y-95302831D01*
X130810312Y-95302836D01*
X130879495Y-95422665D01*
X130977335Y-95520505D01*
X131097164Y-95589688D01*
X131230814Y-95625499D01*
X131230815Y-95625500D01*
X131230817Y-95625500D01*
X131369185Y-95625500D01*
X131369185Y-95625499D01*
X131502836Y-95589688D01*
X131509547Y-95585812D01*
X131565700Y-95578419D01*
X131598875Y-95597572D01*
X132037826Y-96036523D01*
X132059500Y-96088849D01*
X132059500Y-105172049D01*
X132059499Y-105172052D01*
X132059499Y-105227948D01*
X132070534Y-105254587D01*
X132074105Y-105263210D01*
X132074106Y-105263211D01*
X132080889Y-105279587D01*
X132130820Y-105329518D01*
X132130822Y-105329519D01*
X132888028Y-106086725D01*
X132909702Y-106139051D01*
X132895570Y-106182546D01*
X132856004Y-106237004D01*
X132773787Y-106398364D01*
X132717831Y-106570580D01*
X132717828Y-106570593D01*
X132689500Y-106749453D01*
X132689500Y-106930546D01*
X132717828Y-107109406D01*
X132717831Y-107109419D01*
X132773787Y-107281635D01*
X132773788Y-107281638D01*
X132773789Y-107281639D01*
X132851821Y-107434785D01*
X132856005Y-107442995D01*
X132856005Y-107442996D01*
X132875991Y-107470504D01*
X132962447Y-107589501D01*
X133090499Y-107717553D01*
X133237006Y-107823996D01*
X133398361Y-107906211D01*
X133398364Y-107906212D01*
X133398363Y-107906212D01*
X133570580Y-107962168D01*
X133570586Y-107962169D01*
X133570591Y-107962171D01*
X133688513Y-107980848D01*
X133749453Y-107990500D01*
X133749454Y-107990500D01*
X133930547Y-107990500D01*
X133975261Y-107983417D01*
X134109409Y-107962171D01*
X134109416Y-107962168D01*
X134109419Y-107962168D01*
X134233814Y-107921750D01*
X134281639Y-107906211D01*
X134442994Y-107823996D01*
X134589501Y-107717553D01*
X134717553Y-107589501D01*
X134823996Y-107442994D01*
X134906211Y-107281639D01*
X134951544Y-107142116D01*
X134962168Y-107109419D01*
X134962168Y-107109416D01*
X134962171Y-107109409D01*
X134990500Y-106930546D01*
X134990500Y-106749454D01*
X134962171Y-106570591D01*
X134962169Y-106570586D01*
X134962168Y-106570580D01*
X134906212Y-106398364D01*
X134906211Y-106398363D01*
X134906211Y-106398361D01*
X134823996Y-106237006D01*
X134717553Y-106090499D01*
X134589501Y-105962447D01*
X134497452Y-105895570D01*
X134442996Y-105856005D01*
X134372464Y-105820067D01*
X134281639Y-105773789D01*
X134281638Y-105773788D01*
X134281635Y-105773787D01*
X134281636Y-105773787D01*
X134109419Y-105717831D01*
X134109406Y-105717828D01*
X133930547Y-105689500D01*
X133930546Y-105689500D01*
X133749454Y-105689500D01*
X133749453Y-105689500D01*
X133570593Y-105717828D01*
X133570580Y-105717831D01*
X133398364Y-105773787D01*
X133237004Y-105856004D01*
X133182546Y-105895570D01*
X133127473Y-105908791D01*
X133086725Y-105888028D01*
X132362174Y-105163477D01*
X132340500Y-105111151D01*
X132340500Y-104209453D01*
X132689500Y-104209453D01*
X132689500Y-104390546D01*
X132717828Y-104569406D01*
X132717831Y-104569419D01*
X132773787Y-104741635D01*
X132773788Y-104741638D01*
X132773789Y-104741639D01*
X132854303Y-104899656D01*
X132856005Y-104902995D01*
X132856005Y-104902996D01*
X132890177Y-104950029D01*
X132962447Y-105049501D01*
X133090499Y-105177553D01*
X133237006Y-105283996D01*
X133398361Y-105366211D01*
X133398364Y-105366212D01*
X133398363Y-105366212D01*
X133570580Y-105422168D01*
X133570586Y-105422169D01*
X133570591Y-105422171D01*
X133689833Y-105441057D01*
X133749453Y-105450500D01*
X133749454Y-105450500D01*
X133930547Y-105450500D01*
X133983708Y-105442080D01*
X134109409Y-105422171D01*
X134109416Y-105422168D01*
X134109419Y-105422168D01*
X134233472Y-105381861D01*
X134281639Y-105366211D01*
X134442994Y-105283996D01*
X134589501Y-105177553D01*
X134717553Y-105049501D01*
X134823996Y-104902994D01*
X134906211Y-104741639D01*
X134951312Y-104602831D01*
X134962168Y-104569419D01*
X134962168Y-104569416D01*
X134962171Y-104569409D01*
X134990500Y-104390546D01*
X134990500Y-104209454D01*
X134988553Y-104197164D01*
X134970126Y-104080817D01*
X134962171Y-104030591D01*
X134962169Y-104030586D01*
X134962168Y-104030580D01*
X134906212Y-103858364D01*
X134906211Y-103858363D01*
X134906211Y-103858361D01*
X134823996Y-103697006D01*
X134820636Y-103692382D01*
X134773741Y-103627836D01*
X134717553Y-103550499D01*
X134589501Y-103422447D01*
X134497788Y-103355814D01*
X134442996Y-103316005D01*
X134281635Y-103233787D01*
X134281636Y-103233787D01*
X134109419Y-103177831D01*
X134109406Y-103177828D01*
X133930547Y-103149500D01*
X133930546Y-103149500D01*
X133749454Y-103149500D01*
X133749453Y-103149500D01*
X133570593Y-103177828D01*
X133570580Y-103177831D01*
X133398364Y-103233787D01*
X133237004Y-103316005D01*
X133237003Y-103316005D01*
X133090503Y-103422444D01*
X133090499Y-103422447D01*
X132962447Y-103550499D01*
X132962444Y-103550502D01*
X132962444Y-103550503D01*
X132856005Y-103697003D01*
X132856005Y-103697004D01*
X132773787Y-103858364D01*
X132717831Y-104030580D01*
X132717828Y-104030593D01*
X132689500Y-104209453D01*
X132340500Y-104209453D01*
X132340500Y-101669453D01*
X132689500Y-101669453D01*
X132689500Y-101850546D01*
X132717828Y-102029406D01*
X132717831Y-102029419D01*
X132773787Y-102201635D01*
X132773788Y-102201638D01*
X132773789Y-102201639D01*
X132855586Y-102362174D01*
X132856005Y-102362995D01*
X132856005Y-102362996D01*
X132860502Y-102369185D01*
X132962447Y-102509501D01*
X133090499Y-102637553D01*
X133237006Y-102743996D01*
X133398361Y-102826211D01*
X133398364Y-102826212D01*
X133398363Y-102826212D01*
X133570580Y-102882168D01*
X133570586Y-102882169D01*
X133570591Y-102882171D01*
X133689833Y-102901057D01*
X133749453Y-102910500D01*
X133749454Y-102910500D01*
X133930547Y-102910500D01*
X133975261Y-102903417D01*
X134109409Y-102882171D01*
X134109416Y-102882168D01*
X134109419Y-102882168D01*
X134187601Y-102856765D01*
X134281639Y-102826211D01*
X134442994Y-102743996D01*
X134589501Y-102637553D01*
X134717553Y-102509501D01*
X134823996Y-102362994D01*
X134906211Y-102201639D01*
X134961009Y-102032985D01*
X134962168Y-102029419D01*
X134962168Y-102029416D01*
X134962171Y-102029409D01*
X134990500Y-101850546D01*
X134990500Y-101669454D01*
X134962171Y-101490591D01*
X134962169Y-101490586D01*
X134962168Y-101490580D01*
X134906212Y-101318364D01*
X134906211Y-101318363D01*
X134906211Y-101318361D01*
X134823996Y-101157006D01*
X134717553Y-101010499D01*
X134589501Y-100882447D01*
X134494105Y-100813138D01*
X134442996Y-100776005D01*
X134281635Y-100693787D01*
X134281636Y-100693787D01*
X134109419Y-100637831D01*
X134109406Y-100637828D01*
X133930547Y-100609500D01*
X133930546Y-100609500D01*
X133749454Y-100609500D01*
X133749453Y-100609500D01*
X133570593Y-100637828D01*
X133570580Y-100637831D01*
X133398364Y-100693787D01*
X133237004Y-100776005D01*
X133237003Y-100776005D01*
X133090503Y-100882444D01*
X133090499Y-100882447D01*
X132962447Y-101010499D01*
X132962444Y-101010502D01*
X132962444Y-101010503D01*
X132856005Y-101157003D01*
X132856005Y-101157004D01*
X132773787Y-101318364D01*
X132717831Y-101490580D01*
X132717828Y-101490593D01*
X132689500Y-101669453D01*
X132340500Y-101669453D01*
X132340500Y-99129453D01*
X132689500Y-99129453D01*
X132689500Y-99310546D01*
X132717828Y-99489406D01*
X132717831Y-99489419D01*
X132773787Y-99661635D01*
X132773788Y-99661638D01*
X132773789Y-99661639D01*
X132856004Y-99822994D01*
X132962447Y-99969501D01*
X133090499Y-100097553D01*
X133237006Y-100203996D01*
X133398361Y-100286211D01*
X133398364Y-100286212D01*
X133398363Y-100286212D01*
X133570580Y-100342168D01*
X133570586Y-100342169D01*
X133570591Y-100342171D01*
X133689833Y-100361057D01*
X133749453Y-100370500D01*
X133749454Y-100370500D01*
X133930547Y-100370500D01*
X133975261Y-100363417D01*
X134109409Y-100342171D01*
X134109416Y-100342168D01*
X134109419Y-100342168D01*
X134187601Y-100316765D01*
X134281639Y-100286211D01*
X134442994Y-100203996D01*
X134589501Y-100097553D01*
X134717553Y-99969501D01*
X134823996Y-99822994D01*
X134906211Y-99661639D01*
X134962171Y-99489409D01*
X134990500Y-99310546D01*
X134990500Y-99129454D01*
X134962171Y-98950591D01*
X134962169Y-98950586D01*
X134962168Y-98950580D01*
X134906212Y-98778364D01*
X134906211Y-98778363D01*
X134906211Y-98778361D01*
X134823996Y-98617006D01*
X134717553Y-98470499D01*
X134589501Y-98342447D01*
X134504128Y-98280420D01*
X134442996Y-98236005D01*
X134281635Y-98153787D01*
X134281636Y-98153787D01*
X134109419Y-98097831D01*
X134109406Y-98097828D01*
X133930547Y-98069500D01*
X133930546Y-98069500D01*
X133749454Y-98069500D01*
X133749453Y-98069500D01*
X133570593Y-98097828D01*
X133570580Y-98097831D01*
X133398364Y-98153787D01*
X133237004Y-98236005D01*
X133237003Y-98236005D01*
X133090503Y-98342444D01*
X133090499Y-98342447D01*
X132962447Y-98470499D01*
X132962444Y-98470502D01*
X132962444Y-98470503D01*
X132856005Y-98617003D01*
X132856005Y-98617004D01*
X132773787Y-98778364D01*
X132717831Y-98950580D01*
X132717828Y-98950593D01*
X132689500Y-99129453D01*
X132340500Y-99129453D01*
X132340500Y-96589453D01*
X132689500Y-96589453D01*
X132689500Y-96770546D01*
X132717828Y-96949406D01*
X132717831Y-96949419D01*
X132773787Y-97121635D01*
X132773788Y-97121638D01*
X132773789Y-97121639D01*
X132856004Y-97282994D01*
X132962447Y-97429501D01*
X133090499Y-97557553D01*
X133237006Y-97663996D01*
X133398361Y-97746211D01*
X133398364Y-97746212D01*
X133398363Y-97746212D01*
X133570580Y-97802168D01*
X133570586Y-97802169D01*
X133570591Y-97802171D01*
X133689833Y-97821057D01*
X133749453Y-97830500D01*
X133749454Y-97830500D01*
X133930547Y-97830500D01*
X133975261Y-97823417D01*
X134109409Y-97802171D01*
X134109416Y-97802168D01*
X134109419Y-97802168D01*
X134187601Y-97776765D01*
X134281639Y-97746211D01*
X134442994Y-97663996D01*
X134589501Y-97557553D01*
X134717553Y-97429501D01*
X134823996Y-97282994D01*
X134906211Y-97121639D01*
X134940600Y-97015799D01*
X134962168Y-96949419D01*
X134962168Y-96949416D01*
X134962171Y-96949409D01*
X134990500Y-96770546D01*
X134990500Y-96589454D01*
X134962171Y-96410591D01*
X134962169Y-96410586D01*
X134962168Y-96410580D01*
X134906212Y-96238364D01*
X134906211Y-96238363D01*
X134906211Y-96238361D01*
X134823996Y-96077006D01*
X134717553Y-95930499D01*
X134589501Y-95802447D01*
X134504128Y-95740420D01*
X134442996Y-95696005D01*
X134281635Y-95613787D01*
X134281636Y-95613787D01*
X134109419Y-95557831D01*
X134109406Y-95557828D01*
X133930547Y-95529500D01*
X133930546Y-95529500D01*
X133749454Y-95529500D01*
X133749453Y-95529500D01*
X133570593Y-95557828D01*
X133570580Y-95557831D01*
X133398364Y-95613787D01*
X133237004Y-95696005D01*
X133237003Y-95696005D01*
X133090503Y-95802444D01*
X133090499Y-95802447D01*
X132962447Y-95930499D01*
X132962444Y-95930502D01*
X132962444Y-95930503D01*
X132856005Y-96077003D01*
X132856005Y-96077004D01*
X132773787Y-96238364D01*
X132717831Y-96410580D01*
X132717828Y-96410593D01*
X132689500Y-96589453D01*
X132340500Y-96589453D01*
X132340500Y-96041997D01*
X132340500Y-96027950D01*
X132340501Y-96027948D01*
X132340501Y-95972052D01*
X132327970Y-95941802D01*
X132319111Y-95920413D01*
X132279587Y-95880889D01*
X132275372Y-95876674D01*
X132275365Y-95876668D01*
X131797572Y-95398875D01*
X131775898Y-95346549D01*
X131785813Y-95309547D01*
X131789688Y-95302836D01*
X131825499Y-95169185D01*
X131825500Y-95169185D01*
X131825500Y-95030815D01*
X131825499Y-95030814D01*
X131821944Y-95017548D01*
X131789688Y-94897164D01*
X131720505Y-94777335D01*
X131622665Y-94679495D01*
X131502836Y-94610312D01*
X131502831Y-94610310D01*
X131369185Y-94574500D01*
X131369183Y-94574500D01*
X131230817Y-94574500D01*
X131230815Y-94574500D01*
X131097168Y-94610310D01*
X131097163Y-94610312D01*
X130977334Y-94679495D01*
X130879495Y-94777334D01*
X130810312Y-94897163D01*
X130810310Y-94897168D01*
X130774500Y-95030814D01*
X119331249Y-95030814D01*
X119349501Y-95017553D01*
X119477553Y-94889501D01*
X119583996Y-94742994D01*
X119666211Y-94581639D01*
X119722171Y-94409409D01*
X119734619Y-94330814D01*
X124974500Y-94330814D01*
X124974500Y-94469185D01*
X125010310Y-94602831D01*
X125010312Y-94602836D01*
X125079495Y-94722665D01*
X125177335Y-94820505D01*
X125297164Y-94889688D01*
X125430814Y-94925499D01*
X125430815Y-94925500D01*
X125430817Y-94925500D01*
X125569185Y-94925500D01*
X125569185Y-94925499D01*
X125702836Y-94889688D01*
X125822665Y-94820505D01*
X125920505Y-94722665D01*
X125989688Y-94602836D01*
X126025499Y-94469185D01*
X126025500Y-94469185D01*
X126025500Y-94330815D01*
X126025499Y-94330814D01*
X125989689Y-94197168D01*
X125989688Y-94197164D01*
X125920505Y-94077335D01*
X125892623Y-94049453D01*
X132689500Y-94049453D01*
X132689500Y-94230546D01*
X132717828Y-94409406D01*
X132717831Y-94409419D01*
X132773787Y-94581635D01*
X132773788Y-94581638D01*
X132773789Y-94581639D01*
X132856004Y-94742994D01*
X132962447Y-94889501D01*
X133090499Y-95017553D01*
X133237006Y-95123996D01*
X133398361Y-95206211D01*
X133398364Y-95206212D01*
X133398363Y-95206212D01*
X133570580Y-95262168D01*
X133570586Y-95262169D01*
X133570591Y-95262171D01*
X133689833Y-95281057D01*
X133749453Y-95290500D01*
X133749454Y-95290500D01*
X133930547Y-95290500D01*
X133975261Y-95283417D01*
X134109409Y-95262171D01*
X134109416Y-95262168D01*
X134109419Y-95262168D01*
X134187601Y-95236765D01*
X134281639Y-95206211D01*
X134442994Y-95123996D01*
X134589501Y-95017553D01*
X134717553Y-94889501D01*
X134823996Y-94742994D01*
X134906211Y-94581639D01*
X134962171Y-94409409D01*
X134990500Y-94230546D01*
X134990500Y-94049454D01*
X134962171Y-93870591D01*
X134962169Y-93870586D01*
X134962168Y-93870580D01*
X134906212Y-93698364D01*
X134906211Y-93698363D01*
X134906211Y-93698361D01*
X134823996Y-93537006D01*
X134717553Y-93390499D01*
X134589501Y-93262447D01*
X134504128Y-93200420D01*
X134442996Y-93156005D01*
X134281635Y-93073787D01*
X134281636Y-93073787D01*
X134109419Y-93017831D01*
X134109406Y-93017828D01*
X133930547Y-92989500D01*
X133930546Y-92989500D01*
X133749454Y-92989500D01*
X133749453Y-92989500D01*
X133570593Y-93017828D01*
X133570580Y-93017831D01*
X133398364Y-93073787D01*
X133237004Y-93156005D01*
X133237003Y-93156005D01*
X133090503Y-93262444D01*
X133090499Y-93262447D01*
X132962447Y-93390499D01*
X132962444Y-93390502D01*
X132962444Y-93390503D01*
X132856005Y-93537003D01*
X132856005Y-93537004D01*
X132773787Y-93698364D01*
X132717831Y-93870580D01*
X132717828Y-93870593D01*
X132689500Y-94049453D01*
X125892623Y-94049453D01*
X125822665Y-93979495D01*
X125702836Y-93910312D01*
X125702831Y-93910310D01*
X125569185Y-93874500D01*
X125569183Y-93874500D01*
X125430817Y-93874500D01*
X125430815Y-93874500D01*
X125297168Y-93910310D01*
X125297163Y-93910312D01*
X125177334Y-93979495D01*
X125079495Y-94077334D01*
X125010312Y-94197163D01*
X125010310Y-94197168D01*
X124974500Y-94330814D01*
X119734619Y-94330814D01*
X119750500Y-94230546D01*
X119750500Y-94049454D01*
X119722171Y-93870591D01*
X119722169Y-93870586D01*
X119722168Y-93870580D01*
X119666212Y-93698364D01*
X119666211Y-93698363D01*
X119666211Y-93698361D01*
X119583996Y-93537006D01*
X119477553Y-93390499D01*
X119349501Y-93262447D01*
X119264128Y-93200420D01*
X119202996Y-93156005D01*
X119202990Y-93156002D01*
X119077186Y-93091901D01*
X119041639Y-93073789D01*
X119041638Y-93073788D01*
X119041635Y-93073787D01*
X119041636Y-93073787D01*
X118909377Y-93030814D01*
X124374500Y-93030814D01*
X124374500Y-93169185D01*
X124410310Y-93302831D01*
X124410312Y-93302836D01*
X124479495Y-93422665D01*
X124577335Y-93520505D01*
X124697164Y-93589688D01*
X124830814Y-93625499D01*
X124830815Y-93625500D01*
X124830817Y-93625500D01*
X124969185Y-93625500D01*
X124969185Y-93625499D01*
X125102836Y-93589688D01*
X125222665Y-93520505D01*
X125320505Y-93422665D01*
X125389688Y-93302836D01*
X125425499Y-93169185D01*
X125425500Y-93169185D01*
X125425500Y-93030815D01*
X125425499Y-93030814D01*
X125422019Y-93017828D01*
X125389688Y-92897164D01*
X125320505Y-92777335D01*
X125222665Y-92679495D01*
X125132645Y-92627522D01*
X126049500Y-92627522D01*
X126049500Y-92772477D01*
X126087014Y-92912481D01*
X126087016Y-92912486D01*
X126147838Y-93017831D01*
X126159491Y-93038015D01*
X126261985Y-93140509D01*
X126387515Y-93212984D01*
X126387516Y-93212984D01*
X126387518Y-93212985D01*
X126457520Y-93231742D01*
X126527522Y-93250499D01*
X126527523Y-93250500D01*
X126527525Y-93250500D01*
X126672477Y-93250500D01*
X126672477Y-93250499D01*
X126812485Y-93212984D01*
X126938015Y-93140509D01*
X127040509Y-93038015D01*
X127112984Y-92912485D01*
X127150499Y-92772477D01*
X127150500Y-92772477D01*
X127150500Y-92627523D01*
X127150499Y-92627522D01*
X127149224Y-92622765D01*
X127121685Y-92519986D01*
X127112985Y-92487518D01*
X127112983Y-92487513D01*
X127040508Y-92361984D01*
X126938015Y-92259491D01*
X126812486Y-92187016D01*
X126812481Y-92187014D01*
X126672477Y-92149500D01*
X126672475Y-92149500D01*
X126527525Y-92149500D01*
X126527523Y-92149500D01*
X126387518Y-92187014D01*
X126387513Y-92187016D01*
X126261984Y-92259491D01*
X126159491Y-92361984D01*
X126087016Y-92487513D01*
X126087014Y-92487518D01*
X126049500Y-92627522D01*
X125132645Y-92627522D01*
X125102836Y-92610312D01*
X125102831Y-92610310D01*
X124969185Y-92574500D01*
X124969183Y-92574500D01*
X124830817Y-92574500D01*
X124830815Y-92574500D01*
X124697168Y-92610310D01*
X124697163Y-92610312D01*
X124577334Y-92679495D01*
X124479495Y-92777334D01*
X124410312Y-92897163D01*
X124410310Y-92897168D01*
X124374500Y-93030814D01*
X118909377Y-93030814D01*
X118869419Y-93017831D01*
X118869406Y-93017828D01*
X118690547Y-92989500D01*
X118690546Y-92989500D01*
X118509454Y-92989500D01*
X118509453Y-92989500D01*
X118330593Y-93017828D01*
X118330580Y-93017831D01*
X118158364Y-93073787D01*
X117997004Y-93156005D01*
X117997003Y-93156005D01*
X117850503Y-93262444D01*
X117850499Y-93262447D01*
X117722447Y-93390499D01*
X117722444Y-93390502D01*
X117722444Y-93390503D01*
X117616005Y-93537003D01*
X117616005Y-93537004D01*
X117533787Y-93698364D01*
X117477831Y-93870580D01*
X117477828Y-93870593D01*
X117449500Y-94049453D01*
X116800500Y-94049453D01*
X116800500Y-90705135D01*
X117449500Y-90705135D01*
X117449500Y-92494863D01*
X117452414Y-92519986D01*
X117452415Y-92519991D01*
X117497794Y-92622765D01*
X117577235Y-92702206D01*
X117680009Y-92747585D01*
X117705135Y-92750500D01*
X119494864Y-92750499D01*
X119519991Y-92747585D01*
X119622765Y-92702206D01*
X119702206Y-92622765D01*
X119747585Y-92519991D01*
X119750500Y-92494865D01*
X119750500Y-92327522D01*
X120649500Y-92327522D01*
X120649500Y-92472477D01*
X120687014Y-92612481D01*
X120687016Y-92612486D01*
X120759491Y-92738015D01*
X120861985Y-92840509D01*
X120953876Y-92893563D01*
X120986650Y-92912485D01*
X120987515Y-92912984D01*
X120987516Y-92912984D01*
X120987518Y-92912985D01*
X121057520Y-92931742D01*
X121127522Y-92950499D01*
X121127523Y-92950500D01*
X121127525Y-92950500D01*
X121272477Y-92950500D01*
X121272477Y-92950499D01*
X121412485Y-92912984D01*
X121538015Y-92840509D01*
X121640509Y-92738015D01*
X121712984Y-92612485D01*
X121750499Y-92472477D01*
X121750500Y-92472477D01*
X121750500Y-92327523D01*
X121750499Y-92327522D01*
X121712985Y-92187518D01*
X121712983Y-92187513D01*
X121640508Y-92061984D01*
X121538015Y-91959491D01*
X121412486Y-91887016D01*
X121412481Y-91887014D01*
X121272477Y-91849500D01*
X121272475Y-91849500D01*
X121127525Y-91849500D01*
X121127523Y-91849500D01*
X120987518Y-91887014D01*
X120987513Y-91887016D01*
X120861984Y-91959491D01*
X120759491Y-92061984D01*
X120687016Y-92187513D01*
X120687014Y-92187518D01*
X120649500Y-92327522D01*
X119750500Y-92327522D01*
X119750499Y-91374724D01*
X122119200Y-91374724D01*
X122119200Y-91505275D01*
X122152986Y-91631368D01*
X122152988Y-91631373D01*
X122218261Y-91744428D01*
X122310572Y-91836739D01*
X122423628Y-91902012D01*
X122423629Y-91902012D01*
X122423631Y-91902013D01*
X122486677Y-91918906D01*
X122549724Y-91935799D01*
X122549725Y-91935800D01*
X122549727Y-91935800D01*
X122680275Y-91935800D01*
X122680275Y-91935799D01*
X122806372Y-91902012D01*
X122919428Y-91836739D01*
X123011739Y-91744428D01*
X123077012Y-91631372D01*
X123110799Y-91505275D01*
X123110800Y-91505275D01*
X123110800Y-91374725D01*
X123110799Y-91374724D01*
X123077013Y-91248631D01*
X123077011Y-91248626D01*
X123011738Y-91135571D01*
X122919428Y-91043261D01*
X122806373Y-90977988D01*
X122806368Y-90977986D01*
X122680275Y-90944200D01*
X122680273Y-90944200D01*
X122549727Y-90944200D01*
X122549725Y-90944200D01*
X122423631Y-90977986D01*
X122423626Y-90977988D01*
X122310571Y-91043261D01*
X122218261Y-91135571D01*
X122152988Y-91248626D01*
X122152986Y-91248631D01*
X122119200Y-91374724D01*
X119750499Y-91374724D01*
X119750499Y-90705136D01*
X119750499Y-90705135D01*
X132689500Y-90705135D01*
X132689500Y-92494863D01*
X132692414Y-92519986D01*
X132692415Y-92519991D01*
X132737794Y-92622765D01*
X132817235Y-92702206D01*
X132920009Y-92747585D01*
X132945135Y-92750500D01*
X134734864Y-92750499D01*
X134759991Y-92747585D01*
X134862765Y-92702206D01*
X134942206Y-92622765D01*
X134987585Y-92519991D01*
X134990500Y-92494865D01*
X134990499Y-90705136D01*
X134987585Y-90680009D01*
X134942206Y-90577235D01*
X134862765Y-90497794D01*
X134759991Y-90452415D01*
X134759990Y-90452414D01*
X134759988Y-90452414D01*
X134738659Y-90449940D01*
X134734865Y-90449500D01*
X134734864Y-90449500D01*
X132945136Y-90449500D01*
X132920013Y-90452414D01*
X132920007Y-90452415D01*
X132817234Y-90497794D01*
X132737794Y-90577234D01*
X132692414Y-90680011D01*
X132689500Y-90705135D01*
X119750499Y-90705135D01*
X119747585Y-90680009D01*
X119702206Y-90577235D01*
X119622765Y-90497794D01*
X119519991Y-90452415D01*
X119519990Y-90452414D01*
X119519988Y-90452414D01*
X119498659Y-90449940D01*
X119494865Y-90449500D01*
X119494864Y-90449500D01*
X117705136Y-90449500D01*
X117680013Y-90452414D01*
X117680007Y-90452415D01*
X117577234Y-90497794D01*
X117497794Y-90577234D01*
X117452414Y-90680011D01*
X117449500Y-90705135D01*
X116800500Y-90705135D01*
X116800500Y-89874500D01*
X116822174Y-89822174D01*
X116874500Y-89800500D01*
X135525500Y-89800500D01*
X135577826Y-89822174D01*
G37*
%TD.AperFunction*%
%TD*%
M02*
