%TF.GenerationSoftware,KiCad,Pcbnew,10.0.3*%
%TF.CreationDate,2026-05-27T13:41:06-07:00*%
%TF.ProjectId,RXProg,52585072-6f67-42e6-9b69-6361645f7063,rev?*%
%TF.SameCoordinates,Original*%
%TF.FileFunction,Copper,L4,Inr*%
%TF.FilePolarity,Positive*%
%FSLAX46Y46*%
G04 Gerber Fmt 4.6, Leading zero omitted, Abs format (unit mm)*
G04 Created by KiCad (PCBNEW 10.0.3) date 2026-05-27 13:41:06*
%MOMM*%
%LPD*%
G01*
G04 APERTURE LIST*
%TA.AperFunction,ComponentPad*%
%ADD10C,1.400000*%
%TD*%
%TA.AperFunction,ComponentPad*%
%ADD11O,1.350000X1.700000*%
%TD*%
%TA.AperFunction,ComponentPad*%
%ADD12O,1.100000X1.500000*%
%TD*%
%TA.AperFunction,ComponentPad*%
%ADD13R,1.700000X1.700000*%
%TD*%
%TA.AperFunction,ComponentPad*%
%ADD14C,1.700000*%
%TD*%
%TA.AperFunction,ViaPad*%
%ADD15C,0.350000*%
%TD*%
%TA.AperFunction,ViaPad*%
%ADD16C,0.500000*%
%TD*%
%TA.AperFunction,Conductor*%
%ADD17C,0.100000*%
%TD*%
G04 APERTURE END LIST*
D10*
%TO.N,~{CS3}*%
%TO.C,J4*%
X130800000Y-118600000D03*
%TD*%
D11*
%TO.N,GND*%
%TO.C,J5*%
X123490000Y-124600000D03*
D12*
X123800000Y-121600000D03*
X128640000Y-121600000D03*
D11*
X128950000Y-124600000D03*
%TD*%
D13*
%TO.N,{slash}VBAT*%
%TO.C,J2*%
X133840000Y-91600000D03*
D14*
%TO.N,{slash}~{WE}*%
X133840000Y-94140000D03*
%TO.N,VBAT{slash}~{RES}*%
X133840000Y-96680000D03*
%TO.N,A8*%
X133840000Y-99220000D03*
%TO.N,A9*%
X133840000Y-101760000D03*
%TO.N,~{WE}{slash}A11*%
X133840000Y-104300000D03*
%TO.N,RES{slash}~{OE}*%
X133840000Y-106840000D03*
%TO.N,A10*%
X133840000Y-109380000D03*
%TO.N,~{CS1}*%
X133840000Y-111920000D03*
%TO.N,D8*%
X133840000Y-114460000D03*
%TO.N,D7*%
X133840000Y-117000000D03*
%TO.N,D6*%
X133840000Y-119540000D03*
%TO.N,D5*%
X133840000Y-122080000D03*
%TO.N,D4*%
X133840000Y-124620000D03*
%TD*%
D10*
%TO.N,~{CS2}*%
%TO.C,J3*%
X130800000Y-116400000D03*
%TD*%
D13*
%TO.N,unconnected-(J1-Pin_1-Pad1)*%
%TO.C,J1*%
X118600000Y-91600000D03*
D14*
%TO.N,{slash}A12*%
X118600000Y-94140000D03*
%TO.N,A7*%
X118600000Y-96680000D03*
%TO.N,A6*%
X118600000Y-99220000D03*
%TO.N,A5*%
X118600000Y-101760000D03*
%TO.N,A4*%
X118600000Y-104300000D03*
%TO.N,A3*%
X118600000Y-106840000D03*
%TO.N,A2*%
X118600000Y-109380000D03*
%TO.N,A1*%
X118600000Y-111920000D03*
%TO.N,A0*%
X118600000Y-114460000D03*
%TO.N,D1*%
X118600000Y-117000000D03*
%TO.N,D2*%
X118600000Y-119540000D03*
%TO.N,D3*%
X118600000Y-122080000D03*
%TO.N,GND*%
X118600000Y-124620000D03*
%TD*%
D15*
%TO.N,~{CS3}*%
X121000000Y-100800000D03*
D16*
%TO.N,+3V3*%
X129000000Y-112800000D03*
X121900000Y-112300000D03*
X131100000Y-103500000D03*
D15*
X125800000Y-117300000D03*
D16*
X128200000Y-98100000D03*
X126600000Y-92700000D03*
X121200000Y-92400000D03*
%TO.N,GND*%
X131100000Y-113950000D03*
X120400000Y-110300000D03*
X126300000Y-98800000D03*
X131500000Y-107245000D03*
X131700000Y-121300000D03*
X120700000Y-91000000D03*
X120700000Y-115100000D03*
X126500000Y-94500000D03*
X120400000Y-111700000D03*
X131500000Y-104800000D03*
X128900000Y-115700000D03*
X126900000Y-110300000D03*
X121000000Y-98900000D03*
X127200000Y-108000000D03*
X128400000Y-120100000D03*
X124100000Y-99100000D03*
X125333880Y-105535521D03*
X130700000Y-99150000D03*
X131200000Y-101500000D03*
X120700000Y-121400000D03*
X131700000Y-124800000D03*
X120700000Y-124600000D03*
X131700000Y-111500000D03*
X127300000Y-114300000D03*
X123600000Y-104450000D03*
X126050000Y-119650000D03*
X120700000Y-94500000D03*
X132300000Y-95100000D03*
%TO.N,{slash}VBAT*%
X127000000Y-118180000D03*
X120926752Y-108803700D03*
X121573215Y-103354367D03*
X123600000Y-101520000D03*
X130400000Y-97400000D03*
D15*
%TO.N,Net-(U1-PA0)*%
X125200000Y-115800000D03*
X126350000Y-105450000D03*
%TO.N,Net-(U1-PA1)*%
X124706500Y-115800000D03*
X126000000Y-105000000D03*
%TO.N,Net-(U1-PA2)*%
X125200000Y-105000000D03*
X124200000Y-115800000D03*
%TO.N,Net-(U1-PA3)*%
X123706500Y-115800000D03*
X124400000Y-105000000D03*
%TO.N,Net-(U1-PA4)*%
X123200000Y-115800000D03*
X124110589Y-105389412D03*
%TO.N,Net-(U1-PA5)*%
X122706500Y-115800000D03*
X123900000Y-105900000D03*
%TO.N,Net-(U1-PA6)*%
X123700000Y-106400000D03*
X122200000Y-115800000D03*
%TO.N,Net-(U1-PA7)*%
X123505926Y-106942523D03*
X121706500Y-115800000D03*
%TO.N,Net-(U1-PB0)*%
X130937048Y-110701863D03*
X121000000Y-104300000D03*
%TO.N,Net-(U1-PB1)*%
X129925000Y-110800000D03*
X119900000Y-107200000D03*
%TO.N,Net-(U1-PB2)*%
X127800000Y-109800000D03*
X120400000Y-107700000D03*
%TO.N,Net-(U1-PB10)*%
X130599407Y-104224962D03*
X120400000Y-108300000D03*
%TO.N,Net-(U1-PB11)*%
X127800000Y-104300000D03*
X126500000Y-106000000D03*
%TO.N,Net-(U1-PB12)*%
X125700000Y-106800000D03*
X127100000Y-102100000D03*
%TO.N,Net-(U1-PB13)*%
X125700000Y-107500000D03*
X128600000Y-101700000D03*
%TO.N,Net-(U1-PB14)*%
X128800000Y-101200000D03*
X126100000Y-108000000D03*
%TO.N,Net-(U1-PB15)*%
X129000000Y-100700000D03*
X126600000Y-108000000D03*
%TO.N,Net-(U1-PA8)*%
X125900000Y-112900000D03*
X120400000Y-118100000D03*
%TO.N,~{ADDR_OE}*%
X126450000Y-111562500D03*
%TO.N,Net-(J6-SWDIO)*%
X128100000Y-108200000D03*
X124900000Y-93100000D03*
%TO.N,Net-(J6-SWCLK)*%
X128500000Y-107800000D03*
X125500000Y-94400000D03*
%TO.N,Net-(JP1-B)*%
X126700000Y-100500000D03*
X131500000Y-108900000D03*
%TO.N,Net-(U1-PB3)*%
X129000000Y-109200000D03*
%TO.N,Net-(U1-PB4)*%
X130947658Y-108225000D03*
%TO.N,Net-(U1-PB5)*%
X130362500Y-107725000D03*
%TO.N,Net-(U1-PB6)*%
X129350822Y-106753618D03*
%TO.N,Net-(U1-PB7)*%
X130936678Y-106696382D03*
%TO.N,Net-(U1-PB8)*%
X129024536Y-105966455D03*
%TO.N,Net-(U1-PB9)*%
X130936678Y-105696382D03*
%TO.N,RES{slash}~{OE}*%
X131300000Y-95100000D03*
%TO.N,A8*%
X128500000Y-106500000D03*
%TO.N,A9*%
X120750000Y-103850000D03*
%TO.N,~{WE}{slash}A11*%
X126300000Y-102100000D03*
%TO.N,A10*%
X127200000Y-104400000D03*
%TO.N,~{CS1}*%
X121100000Y-102300000D03*
%TO.N,D8*%
X121100000Y-118800000D03*
%TO.N,D7*%
X122200000Y-119200000D03*
%TO.N,D6*%
X121996186Y-119911918D03*
%TO.N,D5*%
X121500000Y-120000000D03*
%TO.N,D4*%
X123500000Y-120200000D03*
%TO.N,~{CS2}*%
X121100000Y-101500000D03*
%TO.N,D1*%
X125145969Y-118522985D03*
%TO.N,D2*%
X124700000Y-120200000D03*
%TO.N,D3*%
X124200000Y-120200000D03*
%TD*%
%TO.N,Net-(U1-PA0)*%
D17*
X125200000Y-106600000D02*
X125200000Y-115800000D01*
X126350000Y-105450000D02*
X125200000Y-106600000D01*
%TO.N,Net-(U1-PA1)*%
X125920000Y-105271888D02*
X126000000Y-105191888D01*
X126000000Y-105191888D02*
X126000000Y-105000000D01*
X125920000Y-105611300D02*
X125920000Y-105271888D01*
X125000000Y-115321177D02*
X125000000Y-106531299D01*
X124706500Y-115614677D02*
X125000000Y-115321177D01*
X124706500Y-115800000D02*
X124706500Y-115614677D01*
X125000000Y-106531299D02*
X125920000Y-105611300D01*
%TO.N,Net-(U1-PA2)*%
X124800000Y-115000000D02*
X124800000Y-105400000D01*
X124200000Y-115600000D02*
X124800000Y-115000000D01*
X124200000Y-115800000D02*
X124200000Y-115600000D01*
X124800000Y-105400000D02*
X125200000Y-105000000D01*
%TO.N,Net-(U1-PA3)*%
X124465650Y-115065650D02*
X124255527Y-115065650D01*
X123706500Y-115614677D02*
X123706500Y-115800000D01*
X124255527Y-115065650D02*
X123706500Y-115614677D01*
X124600000Y-105200000D02*
X124600000Y-114931300D01*
X124400000Y-105000000D02*
X124600000Y-105200000D01*
X124600000Y-114931300D02*
X124465650Y-115065650D01*
%TO.N,Net-(U1-PA4)*%
X123926238Y-115126239D02*
X123701438Y-115126239D01*
X124410000Y-114642476D02*
X123926238Y-115126239D01*
X124410000Y-105688823D02*
X124410000Y-114642476D01*
X123200000Y-115627677D02*
X123200000Y-115800000D01*
X124110589Y-105389412D02*
X124410000Y-105688823D01*
X123701438Y-115126239D02*
X123200000Y-115627677D01*
%TO.N,Net-(U1-PA5)*%
X123479488Y-115079489D02*
X123241688Y-115079489D01*
X123900000Y-105900000D02*
X124220000Y-106220000D01*
X122706500Y-115614677D02*
X122706500Y-115800000D01*
X124220000Y-106220000D02*
X124220000Y-114338976D01*
X124220000Y-114338976D02*
X123479488Y-115079489D01*
X123241688Y-115079489D02*
X122706500Y-115614677D01*
%TO.N,Net-(U1-PA6)*%
X122200000Y-115800000D02*
X122200000Y-115627677D01*
X124000000Y-114200000D02*
X124000000Y-106700000D01*
X124000000Y-106700000D02*
X123700000Y-106400000D01*
X123310511Y-114889489D02*
X124000000Y-114200000D01*
X122938188Y-114889489D02*
X123310511Y-114889489D01*
X122200000Y-115627677D02*
X122938188Y-114889489D01*
%TO.N,Net-(U1-PA7)*%
X123800000Y-114131300D02*
X123231811Y-114699489D01*
X122800511Y-114699489D02*
X122500000Y-115000000D01*
X123231811Y-114699489D02*
X122800511Y-114699489D01*
X123800000Y-107236597D02*
X123800000Y-114131300D01*
X121706500Y-115614677D02*
X121706500Y-115800000D01*
X122321177Y-115000000D02*
X121706500Y-115614677D01*
X123505926Y-106942523D02*
X123800000Y-107236597D01*
X122500000Y-115000000D02*
X122321177Y-115000000D01*
%TO.N,Net-(U1-PB10)*%
X120400000Y-108300000D02*
X120521178Y-108300000D01*
X120408112Y-108300000D02*
X120400000Y-108300000D01*
X122900000Y-105808112D02*
X120408112Y-108300000D01*
X130194445Y-103820000D02*
X122980000Y-103820000D01*
X122980000Y-103820000D02*
X122900000Y-103900000D01*
X130599407Y-104224962D02*
X130194445Y-103820000D01*
X122900000Y-103900000D02*
X122900000Y-105808112D01*
%TO.N,A8*%
X135100000Y-105200000D02*
X135100000Y-100480000D01*
X128500000Y-105812168D02*
X129112168Y-105200000D01*
X131656532Y-105600000D02*
X134700000Y-105600000D01*
X128500000Y-106500000D02*
X128500000Y-105812168D01*
X131256532Y-105200000D02*
X131656532Y-105600000D01*
X134700000Y-105600000D02*
X135100000Y-105200000D01*
X135100000Y-100480000D02*
X133840000Y-99220000D01*
X129112168Y-105200000D02*
X131256532Y-105200000D01*
%TO.N,A9*%
X127300000Y-99600000D02*
X121500000Y-99600000D01*
X121500000Y-99600000D02*
X120500000Y-100600000D01*
X120500000Y-103600000D02*
X120750000Y-103850000D01*
X127800000Y-100100000D02*
X127300000Y-99600000D01*
X132180000Y-100100000D02*
X127800000Y-100100000D01*
X133840000Y-101760000D02*
X132180000Y-100100000D01*
X120500000Y-100600000D02*
X120500000Y-103600000D01*
%TO.N,~{WE}{slash}A11*%
X126300000Y-102100000D02*
X126400000Y-102100000D01*
X132440000Y-102900000D02*
X133840000Y-104300000D01*
X127200000Y-102900000D02*
X132440000Y-102900000D01*
X126400000Y-102100000D02*
X127200000Y-102900000D01*
%TO.N,A10*%
X133840000Y-109380000D02*
X130701177Y-109380000D01*
X127200000Y-105878823D02*
X127200000Y-104400000D01*
X130701177Y-109380000D02*
X127200000Y-105878823D01*
%TO.N,D8*%
X123300000Y-116600000D02*
X126100000Y-116600000D01*
X128240000Y-114460000D02*
X133840000Y-114460000D01*
X126100000Y-116600000D02*
X128240000Y-114460000D01*
X121100000Y-118800000D02*
X123300000Y-116600000D01*
%TO.N,D7*%
X124600000Y-116800000D02*
X126168701Y-116800000D01*
X126168701Y-116800000D02*
X128318700Y-114650000D01*
X122200000Y-119200000D02*
X124600000Y-116800000D01*
X131490000Y-114650000D02*
X133840000Y-117000000D01*
X128318700Y-114650000D02*
X131490000Y-114650000D01*
%TO.N,D6*%
X126422837Y-118042985D02*
X126965822Y-117500000D01*
X121996186Y-119911918D02*
X122188082Y-119911918D01*
X122188082Y-119911918D02*
X124057015Y-118042985D01*
X124057015Y-118042985D02*
X126422837Y-118042985D01*
X126965822Y-117500000D02*
X131800000Y-117500000D01*
X131800000Y-117500000D02*
X133840000Y-119540000D01*
%TO.N,D5*%
X123597015Y-119002985D02*
X129202985Y-119002985D01*
X121500000Y-120094555D02*
X121797363Y-120391918D01*
X121797363Y-120391918D02*
X122208082Y-120391918D01*
X131960000Y-120200000D02*
X133840000Y-122080000D01*
X121500000Y-120000000D02*
X121500000Y-120094555D01*
X130400000Y-120200000D02*
X131960000Y-120200000D01*
X129202985Y-119002985D02*
X130400000Y-120200000D01*
X122208082Y-120391918D02*
X123597015Y-119002985D01*
%TO.N,D4*%
X133840000Y-124620000D02*
X128412985Y-119192985D01*
X123500000Y-120200000D02*
X124507015Y-119192985D01*
X124507015Y-119192985D02*
X128412985Y-119192985D01*
%TD*%
M02*
