M48
; DRILL file KiCad 10.0.3 date 2026-05-28T08:34:56
; FORMAT={-:-/ absolute / inch / decimal}
; #@! TF.CreationDate,2026-05-28T08:34:56-07:00
; #@! TF.GenerationSoftware,Kicad,Pcbnew,10.0.3
; #@! TF.FileFunction,Plated,1,6,PTH
FMAT,2
INCH
; #@! TA.AperFunction,Plated,PTH,ViaDrill
T1C0.0079
; #@! TA.AperFunction,Plated,PTH,ViaDrill
T2C0.0098
; #@! TA.AperFunction,Plated,PTH,ComponentDrill
T3C0.0256
; #@! TA.AperFunction,Plated,PTH,ComponentDrill
T4C0.0276
; #@! TA.AperFunction,Plated,PTH,ComponentDrill
T5C0.0394
%
G90
G05
T1
X4.7205Y-4.2205
X4.7402Y-4.2402
X4.7402Y-4.2638
X4.7402Y-4.6496
X4.7549Y-4.0719
X4.7638Y-3.9685
X4.7638Y-4.1063
X4.7677Y-3.9961
X4.7677Y-4.0276
X4.7677Y-4.6772
X4.7756Y-4.5591
X4.8031Y-4.5591
X4.811Y-4.6929
X4.813Y-4.7343
X4.8277Y-4.5594
X4.8366Y-4.7343
X4.8504Y-4.5591
X4.8622Y-4.7343
X4.8642Y-4.2146
X4.8681Y-4.1919
X4.8731Y-4.5591
X4.8773Y-4.1712
X4.8862Y-4.1492
X4.8868Y-4.7345
X4.8996Y-4.1299
X4.9006Y-4.5581
X4.9096Y-4.7343
X4.9173Y-3.6654
X4.9282Y-4.6681
X4.9314Y-4.1299
X4.9341Y-4.5591
X4.9409Y-3.7165
X4.9488Y-4.2047
X4.9524Y-4.232
X4.9528Y-4.1378
X4.9528Y-4.6181
X4.9567Y-4.4449
X4.9596Y-4.5591
X4.9685Y-4.248
X4.9724Y-4.0197
X4.9776Y-4.1417
X4.9783Y-4.3922
X4.9803Y-4.1732
X4.9882Y-3.9567
X5.0Y-4.252
X5.0039Y-4.0197
X5.0079Y-4.1102
X5.0315Y-4.1063
X5.0315Y-4.3228
X5.0433Y-4.2598
X5.0591Y-4.1929
X5.061Y-4.2431
X5.064Y-4.0059
X5.0664Y-3.9809
X5.0709Y-3.9587
X5.0787Y-4.2992
X5.0816Y-4.1682
X5.0837Y-4.2441
X5.091Y-4.2057
X5.1152Y-4.3622
X5.155Y-4.2589
X5.1555Y-4.1004
X5.1567Y-4.3563
X5.1569Y-4.1604
X5.1586Y-4.1978
X5.1693Y-3.7441
X5.1772Y-4.2874
T2
X4.7402Y-4.3425
X4.7402Y-4.3976
X4.752Y-3.5827
X4.752Y-3.7205
X4.752Y-4.5315
X4.752Y-4.7795
X4.752Y-4.9055
X4.7609Y-4.2836
X4.7638Y-3.8937
X4.7717Y-3.6378
X4.7863Y-4.0691
X4.7992Y-4.4213
X4.8661Y-3.9969
X4.8661Y-4.1122
X4.8858Y-3.9016
X4.9344Y-4.1549
X4.9626Y-4.7106
X4.9724Y-3.8898
X4.9803Y-3.7205
X4.9843Y-3.6496
X4.9961Y-4.3425
X5.0Y-4.2795
X5.0Y-4.6528
X5.0118Y-4.5
X5.0472Y-3.8622
X5.0551Y-4.7283
X5.0748Y-4.5551
X5.0787Y-4.4409
X5.1339Y-3.8346
X5.1457Y-3.9035
X5.1614Y-4.0748
X5.1614Y-4.4862
X5.1654Y-3.9961
X5.1772Y-4.126
X5.1772Y-4.2222
X5.185Y-4.3898
X5.185Y-4.7756
X5.185Y-4.9134
X5.2087Y-3.7441
T4
X5.1496Y-4.5827
X5.1496Y-4.6693
T5
X4.6693Y-3.6063
X4.6693Y-3.7063
X4.6693Y-3.8063
X4.6693Y-3.9063
X4.6693Y-4.0063
X4.6693Y-4.1063
X4.6693Y-4.2063
X4.6693Y-4.3063
X4.6693Y-4.4063
X4.6693Y-4.5063
X4.6693Y-4.6063
X4.6693Y-4.7063
X4.6693Y-4.8063
X4.6693Y-4.9063
X5.2693Y-3.6063
X5.2693Y-3.7063
X5.2693Y-3.8063
X5.2693Y-3.9063
X5.2693Y-4.0063
X5.2693Y-4.1063
X5.2693Y-4.2063
X5.2693Y-4.3063
X5.2693Y-4.4063
X5.2693Y-4.5063
X5.2693Y-4.6063
X5.2693Y-4.7063
X5.2693Y-4.8063
X5.2693Y-4.9063
T3
G00X4.874Y-4.7953
M15
G01X4.874Y-4.7795
M16
G05
G00X5.0646Y-4.7953
M15
G01X5.0646Y-4.7795
M16
G05
T4
G00X4.8618Y-4.9154
M15
G01X4.8618Y-4.8957
M16
G05
G00X5.0768Y-4.9154
M15
G01X5.0768Y-4.8957
M16
G05
M30
