%TF.GenerationSoftware,KiCad,Pcbnew,10.0.3*%
%TF.CreationDate,2026-05-27T13:41:06-07:00*%
%TF.ProjectId,RXProg,52585072-6f67-42e6-9b69-6361645f7063,rev?*%
%TF.SameCoordinates,Original*%
%TF.FileFunction,Copper,L2,Inr*%
%TF.FilePolarity,Positive*%
%FSLAX46Y46*%
G04 Gerber Fmt 4.6, Leading zero omitted, Abs format (unit mm)*
G04 Created by KiCad (PCBNEW 10.0.3) date 2026-05-27 13:41:06*
%MOMM*%
%LPD*%
G01*
G04 APERTURE LIST*
%TA.AperFunction,ComponentPad*%
%ADD10C,1.400000*%
%TD*%
%TA.AperFunction,ComponentPad*%
%ADD11O,1.350000X1.700000*%
%TD*%
%TA.AperFunction,ComponentPad*%
%ADD12O,1.100000X1.500000*%
%TD*%
%TA.AperFunction,ComponentPad*%
%ADD13R,1.700000X1.700000*%
%TD*%
%TA.AperFunction,ComponentPad*%
%ADD14C,1.700000*%
%TD*%
%TA.AperFunction,ViaPad*%
%ADD15C,0.350000*%
%TD*%
%TA.AperFunction,ViaPad*%
%ADD16C,0.500000*%
%TD*%
%TA.AperFunction,Conductor*%
%ADD17C,0.100000*%
%TD*%
G04 APERTURE END LIST*
D10*
%TO.N,~{CS3}*%
%TO.C,J4*%
X130800000Y-118600000D03*
%TD*%
D11*
%TO.N,GND*%
%TO.C,J5*%
X123490000Y-124600000D03*
D12*
X123800000Y-121600000D03*
X128640000Y-121600000D03*
D11*
X128950000Y-124600000D03*
%TD*%
D13*
%TO.N,{slash}VBAT*%
%TO.C,J2*%
X133840000Y-91600000D03*
D14*
%TO.N,{slash}~{WE}*%
X133840000Y-94140000D03*
%TO.N,VBAT{slash}~{RES}*%
X133840000Y-96680000D03*
%TO.N,A8*%
X133840000Y-99220000D03*
%TO.N,A9*%
X133840000Y-101760000D03*
%TO.N,~{WE}{slash}A11*%
X133840000Y-104300000D03*
%TO.N,RES{slash}~{OE}*%
X133840000Y-106840000D03*
%TO.N,A10*%
X133840000Y-109380000D03*
%TO.N,~{CS1}*%
X133840000Y-111920000D03*
%TO.N,D8*%
X133840000Y-114460000D03*
%TO.N,D7*%
X133840000Y-117000000D03*
%TO.N,D6*%
X133840000Y-119540000D03*
%TO.N,D5*%
X133840000Y-122080000D03*
%TO.N,D4*%
X133840000Y-124620000D03*
%TD*%
D10*
%TO.N,~{CS2}*%
%TO.C,J3*%
X130800000Y-116400000D03*
%TD*%
D13*
%TO.N,unconnected-(J1-Pin_1-Pad1)*%
%TO.C,J1*%
X118600000Y-91600000D03*
D14*
%TO.N,{slash}A12*%
X118600000Y-94140000D03*
%TO.N,A7*%
X118600000Y-96680000D03*
%TO.N,A6*%
X118600000Y-99220000D03*
%TO.N,A5*%
X118600000Y-101760000D03*
%TO.N,A4*%
X118600000Y-104300000D03*
%TO.N,A3*%
X118600000Y-106840000D03*
%TO.N,A2*%
X118600000Y-109380000D03*
%TO.N,A1*%
X118600000Y-111920000D03*
%TO.N,A0*%
X118600000Y-114460000D03*
%TO.N,D1*%
X118600000Y-117000000D03*
%TO.N,D2*%
X118600000Y-119540000D03*
%TO.N,D3*%
X118600000Y-122080000D03*
%TO.N,GND*%
X118600000Y-124620000D03*
%TD*%
D15*
%TO.N,~{CS3}*%
X121000000Y-100800000D03*
D16*
%TO.N,+3V3*%
X129000000Y-112800000D03*
X121900000Y-112300000D03*
X131100000Y-103500000D03*
D15*
X125800000Y-117300000D03*
D16*
X128200000Y-98100000D03*
X126600000Y-92700000D03*
X121200000Y-92400000D03*
%TO.N,GND*%
X131100000Y-113950000D03*
X120400000Y-110300000D03*
X126300000Y-98800000D03*
X131500000Y-107245000D03*
X131700000Y-121300000D03*
X120700000Y-91000000D03*
X120700000Y-115100000D03*
X126500000Y-94500000D03*
X120400000Y-111700000D03*
X131500000Y-104800000D03*
X128900000Y-115700000D03*
X126900000Y-110300000D03*
X121000000Y-98900000D03*
X127200000Y-108000000D03*
X128400000Y-120100000D03*
X124100000Y-99100000D03*
X125333880Y-105535521D03*
X130700000Y-99150000D03*
X131200000Y-101500000D03*
X120700000Y-121400000D03*
X131700000Y-124800000D03*
X120700000Y-124600000D03*
X131700000Y-111500000D03*
X127300000Y-114300000D03*
X123600000Y-104450000D03*
X126050000Y-119650000D03*
X120700000Y-94500000D03*
X132300000Y-95100000D03*
%TO.N,{slash}VBAT*%
X127000000Y-118180000D03*
X120926752Y-108803700D03*
X121573215Y-103354367D03*
X123600000Y-101520000D03*
X130400000Y-97400000D03*
D15*
%TO.N,Net-(U1-PA0)*%
X125200000Y-115800000D03*
X126350000Y-105450000D03*
%TO.N,Net-(U1-PA1)*%
X124706500Y-115800000D03*
X126000000Y-105000000D03*
%TO.N,Net-(U1-PA2)*%
X125200000Y-105000000D03*
X124200000Y-115800000D03*
%TO.N,Net-(U1-PA3)*%
X123706500Y-115800000D03*
X124400000Y-105000000D03*
%TO.N,Net-(U1-PA4)*%
X123200000Y-115800000D03*
X124110589Y-105389412D03*
%TO.N,Net-(U1-PA5)*%
X122706500Y-115800000D03*
X123900000Y-105900000D03*
%TO.N,Net-(U1-PA6)*%
X123700000Y-106400000D03*
X122200000Y-115800000D03*
%TO.N,Net-(U1-PA7)*%
X123505926Y-106942523D03*
X121706500Y-115800000D03*
%TO.N,Net-(U1-PB0)*%
X130937048Y-110701863D03*
X121000000Y-104300000D03*
%TO.N,Net-(U1-PB1)*%
X129925000Y-110800000D03*
X119900000Y-107200000D03*
%TO.N,Net-(U1-PB2)*%
X127800000Y-109800000D03*
X120400000Y-107700000D03*
%TO.N,Net-(U1-PB10)*%
X130599407Y-104224962D03*
X120400000Y-108300000D03*
%TO.N,Net-(U1-PB11)*%
X127800000Y-104300000D03*
X126500000Y-106000000D03*
%TO.N,Net-(U1-PB12)*%
X125700000Y-106800000D03*
X127100000Y-102100000D03*
%TO.N,Net-(U1-PB13)*%
X125700000Y-107500000D03*
X128600000Y-101700000D03*
%TO.N,Net-(U1-PB14)*%
X128800000Y-101200000D03*
X126100000Y-108000000D03*
%TO.N,Net-(U1-PB15)*%
X129000000Y-100700000D03*
X126600000Y-108000000D03*
%TO.N,Net-(U1-PA8)*%
X125900000Y-112900000D03*
X120400000Y-118100000D03*
%TO.N,~{ADDR_OE}*%
X126450000Y-111562500D03*
%TO.N,Net-(J6-SWDIO)*%
X128100000Y-108200000D03*
X124900000Y-93100000D03*
%TO.N,Net-(J6-SWCLK)*%
X128500000Y-107800000D03*
X125500000Y-94400000D03*
%TO.N,Net-(JP1-B)*%
X126700000Y-100500000D03*
X131500000Y-108900000D03*
%TO.N,Net-(U1-PB3)*%
X129000000Y-109200000D03*
%TO.N,Net-(U1-PB4)*%
X130947658Y-108225000D03*
%TO.N,Net-(U1-PB5)*%
X130362500Y-107725000D03*
%TO.N,Net-(U1-PB6)*%
X129350822Y-106753618D03*
%TO.N,Net-(U1-PB7)*%
X130936678Y-106696382D03*
%TO.N,Net-(U1-PB8)*%
X129024536Y-105966455D03*
%TO.N,Net-(U1-PB9)*%
X130936678Y-105696382D03*
%TO.N,RES{slash}~{OE}*%
X131300000Y-95100000D03*
%TO.N,A8*%
X128500000Y-106500000D03*
%TO.N,A9*%
X120750000Y-103850000D03*
%TO.N,~{WE}{slash}A11*%
X126300000Y-102100000D03*
%TO.N,A10*%
X127200000Y-104400000D03*
%TO.N,~{CS1}*%
X121100000Y-102300000D03*
%TO.N,D8*%
X121100000Y-118800000D03*
%TO.N,D7*%
X122200000Y-119200000D03*
%TO.N,D6*%
X121996186Y-119911918D03*
%TO.N,D5*%
X121500000Y-120000000D03*
%TO.N,D4*%
X123500000Y-120200000D03*
%TO.N,~{CS2}*%
X121100000Y-101500000D03*
%TO.N,D1*%
X125145969Y-118522985D03*
%TO.N,D2*%
X124700000Y-120200000D03*
%TO.N,D3*%
X124200000Y-120200000D03*
%TD*%
%TO.N,Net-(U1-PB0)*%
D17*
X123910000Y-107510000D02*
X125720000Y-109320000D01*
X123394580Y-107510000D02*
X123910000Y-107510000D01*
X128998823Y-110320000D02*
X130555185Y-110320000D01*
X120800000Y-104915420D02*
X123394580Y-107510000D01*
X120800000Y-104500000D02*
X120800000Y-104915420D01*
X130555185Y-110320000D02*
X130937048Y-110701863D01*
X121000000Y-104300000D02*
X120800000Y-104500000D01*
X127998823Y-109320000D02*
X128998823Y-110320000D01*
X125720000Y-109320000D02*
X127998823Y-109320000D01*
%TO.N,Net-(U1-PB1)*%
X119900000Y-107200000D02*
X119900000Y-108491126D01*
X122208874Y-110800000D02*
X129925000Y-110800000D01*
X119900000Y-108491126D02*
X122208874Y-110800000D01*
%TO.N,Net-(U1-PB2)*%
X125900000Y-109800000D02*
X123800000Y-107700000D01*
X127800000Y-109800000D02*
X125900000Y-109800000D01*
X123800000Y-107700000D02*
X120400000Y-107700000D01*
%TO.N,Net-(U1-PB11)*%
X127800000Y-105393900D02*
X127193900Y-106000000D01*
X127800000Y-104300000D02*
X127800000Y-105393900D01*
X127193900Y-106000000D02*
X126500000Y-106000000D01*
%TO.N,Net-(U1-PB12)*%
X125963050Y-106536950D02*
X126925650Y-106536950D01*
X128700000Y-102800000D02*
X128100000Y-102200000D01*
X127200000Y-102200000D02*
X127100000Y-102100000D01*
X125700000Y-106800000D02*
X125963050Y-106536950D01*
X128100000Y-102200000D02*
X127200000Y-102200000D01*
X126925650Y-106536950D02*
X128700000Y-104762600D01*
X128700000Y-104762600D02*
X128700000Y-102800000D01*
%TO.N,Net-(U1-PB13)*%
X126300000Y-106900000D02*
X126831300Y-106900000D01*
X125700000Y-107500000D02*
X126300000Y-106900000D01*
X126831300Y-106900000D02*
X128890000Y-104841300D01*
X128890000Y-104841300D02*
X128890000Y-101990000D01*
X128890000Y-101990000D02*
X128600000Y-101700000D01*
%TO.N,Net-(U1-PB14)*%
X128800000Y-101200000D02*
X129080000Y-101480000D01*
X126700000Y-107300000D02*
X126621177Y-107300000D01*
X126621177Y-107300000D02*
X126100000Y-107821177D01*
X126100000Y-107821177D02*
X126100000Y-108000000D01*
X129080000Y-104920000D02*
X126700000Y-107300000D01*
X129080000Y-101480000D02*
X129080000Y-104920000D01*
%TO.N,Net-(U1-PB15)*%
X129000000Y-100700000D02*
X129280000Y-100980000D01*
X126600000Y-107700000D02*
X126600000Y-108000000D01*
X129280000Y-100980000D02*
X129280000Y-105020000D01*
X129280000Y-105020000D02*
X126600000Y-107700000D01*
%TO.N,RES{slash}~{OE}*%
X132200000Y-105200000D02*
X133840000Y-106840000D01*
X132200000Y-96000000D02*
X132200000Y-105200000D01*
X131300000Y-95100000D02*
X132200000Y-96000000D01*
%TO.N,D1*%
X123622984Y-117000000D02*
X118600000Y-117000000D01*
X125145969Y-118522985D02*
X123622984Y-117000000D01*
%TO.N,D2*%
X123398823Y-118720000D02*
X121858823Y-118720000D01*
X121858823Y-118720000D02*
X121038823Y-119540000D01*
X121038823Y-119540000D02*
X118600000Y-119540000D01*
X124700000Y-120021177D02*
X123398823Y-118720000D01*
X124700000Y-120200000D02*
X124700000Y-120021177D01*
%TO.N,D3*%
X124500000Y-122600000D02*
X119120000Y-122600000D01*
X124800000Y-122300000D02*
X124500000Y-122600000D01*
X124200000Y-120200000D02*
X124200000Y-120378823D01*
X124200000Y-120378823D02*
X124800000Y-120978823D01*
X124800000Y-120978823D02*
X124800000Y-122300000D01*
X119120000Y-122600000D02*
X118600000Y-122080000D01*
%TD*%
%TA.AperFunction,Conductor*%
%TO.N,GND*%
G36*
X123763477Y-107862174D02*
G01*
X125780888Y-109879585D01*
X125780889Y-109879587D01*
X125820413Y-109919111D01*
X125856927Y-109934235D01*
X125872052Y-109940500D01*
X125872053Y-109940500D01*
X127289634Y-109940500D01*
X127341960Y-109962174D01*
X127353719Y-109979774D01*
X127354480Y-109979336D01*
X127356905Y-109983537D01*
X127419505Y-110091964D01*
X127508036Y-110180495D01*
X127616464Y-110243095D01*
X127616463Y-110243095D01*
X127674952Y-110258767D01*
X127737396Y-110275499D01*
X127737397Y-110275500D01*
X127737399Y-110275500D01*
X127862603Y-110275500D01*
X127862603Y-110275499D01*
X127983536Y-110243095D01*
X128091964Y-110180495D01*
X128180495Y-110091964D01*
X128243095Y-109983536D01*
X128256533Y-109933382D01*
X128291010Y-109888451D01*
X128347163Y-109881058D01*
X128380337Y-109900211D01*
X128879711Y-110399585D01*
X128879712Y-110399587D01*
X128919236Y-110439111D01*
X128945056Y-110449805D01*
X128970876Y-110460501D01*
X129035383Y-110460501D01*
X129035391Y-110460500D01*
X129443779Y-110460500D01*
X129461484Y-110467833D01*
X129480495Y-110470251D01*
X129486716Y-110478285D01*
X129496105Y-110482174D01*
X129503439Y-110499880D01*
X129515172Y-110515032D01*
X129513873Y-110525070D01*
X129517779Y-110534500D01*
X129508028Y-110571216D01*
X129507973Y-110571310D01*
X129481905Y-110616464D01*
X129481670Y-110617337D01*
X129478883Y-110622216D01*
X129459917Y-110636902D01*
X129442955Y-110653866D01*
X129436301Y-110655189D01*
X129434102Y-110656893D01*
X129430220Y-110656399D01*
X129414634Y-110659500D01*
X122297723Y-110659500D01*
X122245397Y-110637826D01*
X121060317Y-109452746D01*
X121038643Y-109400420D01*
X121060317Y-109348094D01*
X121093488Y-109328942D01*
X121139237Y-109316684D01*
X121264767Y-109244209D01*
X121367261Y-109141715D01*
X121439736Y-109016185D01*
X121477251Y-108876177D01*
X121477252Y-108876177D01*
X121477252Y-108731223D01*
X121477251Y-108731222D01*
X121439737Y-108591218D01*
X121439735Y-108591213D01*
X121398334Y-108519505D01*
X121367261Y-108465685D01*
X121264767Y-108363191D01*
X121179639Y-108314042D01*
X121139238Y-108290716D01*
X121139233Y-108290714D01*
X120999229Y-108253200D01*
X120999227Y-108253200D01*
X120936516Y-108253200D01*
X120884190Y-108231526D01*
X120865038Y-108198353D01*
X120843096Y-108116466D01*
X120828950Y-108091964D01*
X120797215Y-108036997D01*
X120795923Y-108027181D01*
X120789874Y-108019341D01*
X120792369Y-108000189D01*
X120789823Y-107980847D01*
X120797117Y-107963172D01*
X120843095Y-107883536D01*
X120843339Y-107882624D01*
X120846183Y-107877669D01*
X120865127Y-107863052D01*
X120882045Y-107846134D01*
X120888797Y-107844790D01*
X120891025Y-107843072D01*
X120894914Y-107843573D01*
X120910366Y-107840500D01*
X123711151Y-107840500D01*
X123763477Y-107862174D01*
G37*
%TD.AperFunction*%
%TA.AperFunction,Conductor*%
G36*
X135577826Y-89822174D02*
G01*
X135599500Y-89874500D01*
X135599500Y-126325500D01*
X135577826Y-126377826D01*
X135525500Y-126399500D01*
X116874500Y-126399500D01*
X116822174Y-126377826D01*
X116800500Y-126325500D01*
X116800500Y-124529453D01*
X132689500Y-124529453D01*
X132689500Y-124710546D01*
X132717828Y-124889406D01*
X132717831Y-124889419D01*
X132773787Y-125061635D01*
X132773788Y-125061638D01*
X132773789Y-125061639D01*
X132856004Y-125222994D01*
X132962447Y-125369501D01*
X133090499Y-125497553D01*
X133237006Y-125603996D01*
X133398361Y-125686211D01*
X133398364Y-125686212D01*
X133398363Y-125686212D01*
X133570580Y-125742168D01*
X133570586Y-125742169D01*
X133570591Y-125742171D01*
X133689833Y-125761057D01*
X133749453Y-125770500D01*
X133749454Y-125770500D01*
X133930547Y-125770500D01*
X133975261Y-125763417D01*
X134109409Y-125742171D01*
X134109416Y-125742168D01*
X134109419Y-125742168D01*
X134187601Y-125716765D01*
X134281639Y-125686211D01*
X134442994Y-125603996D01*
X134589501Y-125497553D01*
X134717553Y-125369501D01*
X134823996Y-125222994D01*
X134906211Y-125061639D01*
X134962171Y-124889409D01*
X134990500Y-124710546D01*
X134990500Y-124529454D01*
X134962171Y-124350591D01*
X134962169Y-124350586D01*
X134962168Y-124350580D01*
X134906212Y-124178364D01*
X134906211Y-124178363D01*
X134906211Y-124178361D01*
X134823996Y-124017006D01*
X134717553Y-123870499D01*
X134589501Y-123742447D01*
X134504128Y-123680420D01*
X134442996Y-123636005D01*
X134281635Y-123553787D01*
X134281636Y-123553787D01*
X134109419Y-123497831D01*
X134109406Y-123497828D01*
X133930547Y-123469500D01*
X133930546Y-123469500D01*
X133749454Y-123469500D01*
X133749453Y-123469500D01*
X133570593Y-123497828D01*
X133570580Y-123497831D01*
X133398364Y-123553787D01*
X133237004Y-123636005D01*
X133237003Y-123636005D01*
X133090503Y-123742444D01*
X133090499Y-123742447D01*
X132962447Y-123870499D01*
X132962444Y-123870502D01*
X132962444Y-123870503D01*
X132856005Y-124017003D01*
X132856005Y-124017004D01*
X132773787Y-124178364D01*
X132717831Y-124350580D01*
X132717828Y-124350593D01*
X132689500Y-124529453D01*
X116800500Y-124529453D01*
X116800500Y-119449453D01*
X117449500Y-119449453D01*
X117449500Y-119630546D01*
X117477828Y-119809406D01*
X117477831Y-119809419D01*
X117533787Y-119981635D01*
X117533788Y-119981638D01*
X117533789Y-119981639D01*
X117613153Y-120137399D01*
X117616005Y-120142995D01*
X117616005Y-120142996D01*
X117645459Y-120183536D01*
X117722447Y-120289501D01*
X117850499Y-120417553D01*
X117997006Y-120523996D01*
X118158361Y-120606211D01*
X118158364Y-120606212D01*
X118158363Y-120606212D01*
X118330580Y-120662168D01*
X118330586Y-120662169D01*
X118330591Y-120662171D01*
X118449833Y-120681057D01*
X118509453Y-120690500D01*
X118509454Y-120690500D01*
X118690547Y-120690500D01*
X118735261Y-120683417D01*
X118869409Y-120662171D01*
X118869416Y-120662168D01*
X118869419Y-120662168D01*
X118947601Y-120636765D01*
X119041639Y-120606211D01*
X119202994Y-120523996D01*
X119349501Y-120417553D01*
X119477553Y-120289501D01*
X119583996Y-120142994D01*
X119666211Y-119981639D01*
X119709993Y-119846889D01*
X119722168Y-119809419D01*
X119722168Y-119809416D01*
X119722171Y-119809409D01*
X119732701Y-119742923D01*
X119762294Y-119694633D01*
X119805790Y-119680500D01*
X121002270Y-119680500D01*
X121007247Y-119680501D01*
X121019486Y-119685573D01*
X121020203Y-119682709D01*
X121020207Y-119682710D01*
X121019490Y-119685575D01*
X121032117Y-119690808D01*
X121059558Y-119702175D01*
X121059561Y-119702183D01*
X121059568Y-119702186D01*
X121069684Y-119726623D01*
X121081232Y-119754501D01*
X121081229Y-119754510D01*
X121081232Y-119754516D01*
X121081220Y-119754543D01*
X121071318Y-119791498D01*
X121064217Y-119803797D01*
X121056903Y-119816466D01*
X121024500Y-119937396D01*
X121024500Y-120062603D01*
X121056904Y-120183535D01*
X121118086Y-120289506D01*
X121119505Y-120291964D01*
X121208036Y-120380495D01*
X121316464Y-120443095D01*
X121316463Y-120443095D01*
X121386286Y-120461804D01*
X121437396Y-120475499D01*
X121437397Y-120475500D01*
X121437399Y-120475500D01*
X121562603Y-120475500D01*
X121562603Y-120475499D01*
X121683536Y-120443095D01*
X121791964Y-120380495D01*
X121791969Y-120380489D01*
X121792974Y-120379719D01*
X121793598Y-120379551D01*
X121796165Y-120378070D01*
X121796561Y-120378757D01*
X121847680Y-120365055D01*
X121857178Y-120366944D01*
X121894765Y-120377015D01*
X121933584Y-120387418D01*
X121933585Y-120387418D01*
X122058789Y-120387418D01*
X122058789Y-120387417D01*
X122179722Y-120355013D01*
X122288150Y-120292413D01*
X122376681Y-120203882D01*
X122439281Y-120095454D01*
X122471685Y-119974521D01*
X122471686Y-119974521D01*
X122471686Y-119849315D01*
X122471685Y-119849314D01*
X122439282Y-119728385D01*
X122439281Y-119728383D01*
X122439281Y-119728382D01*
X122425413Y-119704363D01*
X122418021Y-119648212D01*
X122452496Y-119603280D01*
X122491964Y-119580495D01*
X122580495Y-119491964D01*
X122643095Y-119383536D01*
X122675499Y-119262603D01*
X122675500Y-119262603D01*
X122675500Y-119137397D01*
X122675499Y-119137396D01*
X122643096Y-119016466D01*
X122624084Y-118983536D01*
X122617134Y-118971499D01*
X122609743Y-118915347D01*
X122644221Y-118870414D01*
X122681221Y-118860500D01*
X123309974Y-118860500D01*
X123362300Y-118882174D01*
X124099788Y-119619662D01*
X124121462Y-119671988D01*
X124099788Y-119724314D01*
X124066616Y-119743466D01*
X124016463Y-119756904D01*
X123908036Y-119819504D01*
X123902326Y-119825215D01*
X123850000Y-119846889D01*
X123797674Y-119825215D01*
X123791963Y-119819504D01*
X123683534Y-119756904D01*
X123683536Y-119756904D01*
X123562603Y-119724500D01*
X123562601Y-119724500D01*
X123437399Y-119724500D01*
X123437397Y-119724500D01*
X123316464Y-119756904D01*
X123208036Y-119819504D01*
X123119504Y-119908036D01*
X123056904Y-120016464D01*
X123024500Y-120137396D01*
X123024500Y-120262603D01*
X123056904Y-120383535D01*
X123110000Y-120475500D01*
X123119505Y-120491964D01*
X123208036Y-120580495D01*
X123316464Y-120643095D01*
X123316463Y-120643095D01*
X123386286Y-120661804D01*
X123437396Y-120675499D01*
X123437397Y-120675500D01*
X123437399Y-120675500D01*
X123562603Y-120675500D01*
X123562603Y-120675499D01*
X123683536Y-120643095D01*
X123791964Y-120580495D01*
X123797674Y-120574785D01*
X123850000Y-120553111D01*
X123902326Y-120574785D01*
X123908036Y-120580495D01*
X124016464Y-120643095D01*
X124016463Y-120643095D01*
X124086286Y-120661804D01*
X124137396Y-120675499D01*
X124137397Y-120675500D01*
X124267328Y-120675500D01*
X124319654Y-120697174D01*
X124637826Y-121015346D01*
X124659500Y-121067672D01*
X124659500Y-122211151D01*
X124637826Y-122263477D01*
X124463477Y-122437826D01*
X124411151Y-122459500D01*
X119788253Y-122459500D01*
X119735927Y-122437826D01*
X119714253Y-122385500D01*
X119717875Y-122362633D01*
X119722168Y-122349419D01*
X119722168Y-122349416D01*
X119722171Y-122349409D01*
X119750500Y-122170546D01*
X119750500Y-121989454D01*
X119722171Y-121810591D01*
X119722169Y-121810586D01*
X119722168Y-121810580D01*
X119666212Y-121638364D01*
X119666211Y-121638363D01*
X119666211Y-121638361D01*
X119583996Y-121477006D01*
X119477553Y-121330499D01*
X119349501Y-121202447D01*
X119264128Y-121140420D01*
X119202996Y-121096005D01*
X119041635Y-121013787D01*
X119041636Y-121013787D01*
X118869419Y-120957831D01*
X118869406Y-120957828D01*
X118690547Y-120929500D01*
X118690546Y-120929500D01*
X118509454Y-120929500D01*
X118509453Y-120929500D01*
X118330593Y-120957828D01*
X118330580Y-120957831D01*
X118158364Y-121013787D01*
X117997004Y-121096005D01*
X117997003Y-121096005D01*
X117850503Y-121202444D01*
X117850499Y-121202447D01*
X117722447Y-121330499D01*
X117722444Y-121330502D01*
X117722444Y-121330503D01*
X117616005Y-121477003D01*
X117616005Y-121477004D01*
X117533787Y-121638364D01*
X117477831Y-121810580D01*
X117477828Y-121810593D01*
X117449500Y-121989453D01*
X117449500Y-122170546D01*
X117477828Y-122349402D01*
X117477831Y-122349419D01*
X117533787Y-122521635D01*
X117533788Y-122521638D01*
X117533789Y-122521639D01*
X117614268Y-122679587D01*
X117616005Y-122682995D01*
X117616005Y-122682996D01*
X117642244Y-122719111D01*
X117722447Y-122829501D01*
X117850499Y-122957553D01*
X117997006Y-123063996D01*
X118158361Y-123146211D01*
X118158364Y-123146212D01*
X118158363Y-123146212D01*
X118330580Y-123202168D01*
X118330586Y-123202169D01*
X118330591Y-123202171D01*
X118449833Y-123221057D01*
X118509453Y-123230500D01*
X118509454Y-123230500D01*
X118690547Y-123230500D01*
X118735261Y-123223417D01*
X118869409Y-123202171D01*
X118869416Y-123202168D01*
X118869419Y-123202168D01*
X118947601Y-123176765D01*
X119041639Y-123146211D01*
X119202994Y-123063996D01*
X119349501Y-122957553D01*
X119477553Y-122829501D01*
X119520053Y-122771003D01*
X119568344Y-122741411D01*
X119579920Y-122740500D01*
X124472050Y-122740500D01*
X124472052Y-122740501D01*
X124527948Y-122740501D01*
X124558197Y-122727970D01*
X124579587Y-122719111D01*
X124619111Y-122679587D01*
X124619111Y-122679586D01*
X124629516Y-122669181D01*
X124629518Y-122669178D01*
X124879585Y-122419111D01*
X124879587Y-122419111D01*
X124919111Y-122379587D01*
X124931611Y-122349409D01*
X124940501Y-122327948D01*
X124940501Y-122272052D01*
X124940501Y-122266094D01*
X124940500Y-122266080D01*
X124940500Y-121989453D01*
X132689500Y-121989453D01*
X132689500Y-122170546D01*
X132717828Y-122349402D01*
X132717831Y-122349419D01*
X132773787Y-122521635D01*
X132773788Y-122521638D01*
X132773789Y-122521639D01*
X132854268Y-122679587D01*
X132856005Y-122682995D01*
X132856005Y-122682996D01*
X132882244Y-122719111D01*
X132962447Y-122829501D01*
X133090499Y-122957553D01*
X133237006Y-123063996D01*
X133398361Y-123146211D01*
X133398364Y-123146212D01*
X133398363Y-123146212D01*
X133570580Y-123202168D01*
X133570586Y-123202169D01*
X133570591Y-123202171D01*
X133689833Y-123221057D01*
X133749453Y-123230500D01*
X133749454Y-123230500D01*
X133930547Y-123230500D01*
X133975261Y-123223417D01*
X134109409Y-123202171D01*
X134109416Y-123202168D01*
X134109419Y-123202168D01*
X134187601Y-123176765D01*
X134281639Y-123146211D01*
X134442994Y-123063996D01*
X134589501Y-122957553D01*
X134717553Y-122829501D01*
X134823996Y-122682994D01*
X134906211Y-122521639D01*
X134952366Y-122379587D01*
X134962168Y-122349419D01*
X134962168Y-122349416D01*
X134962171Y-122349409D01*
X134990500Y-122170546D01*
X134990500Y-121989454D01*
X134962171Y-121810591D01*
X134962169Y-121810586D01*
X134962168Y-121810580D01*
X134906212Y-121638364D01*
X134906211Y-121638363D01*
X134906211Y-121638361D01*
X134823996Y-121477006D01*
X134717553Y-121330499D01*
X134589501Y-121202447D01*
X134504128Y-121140420D01*
X134442996Y-121096005D01*
X134281635Y-121013787D01*
X134281636Y-121013787D01*
X134109419Y-120957831D01*
X134109406Y-120957828D01*
X133930547Y-120929500D01*
X133930546Y-120929500D01*
X133749454Y-120929500D01*
X133749453Y-120929500D01*
X133570593Y-120957828D01*
X133570580Y-120957831D01*
X133398364Y-121013787D01*
X133237004Y-121096005D01*
X133237003Y-121096005D01*
X133090503Y-121202444D01*
X133090499Y-121202447D01*
X132962447Y-121330499D01*
X132962444Y-121330502D01*
X132962444Y-121330503D01*
X132856005Y-121477003D01*
X132856005Y-121477004D01*
X132773787Y-121638364D01*
X132717831Y-121810580D01*
X132717828Y-121810593D01*
X132689500Y-121989453D01*
X124940500Y-121989453D01*
X124940500Y-121020820D01*
X124940500Y-121006773D01*
X124940501Y-121006771D01*
X124940501Y-120950875D01*
X124927970Y-120920625D01*
X124919111Y-120899236D01*
X124879587Y-120859712D01*
X124875372Y-120855497D01*
X124875365Y-120855491D01*
X124800211Y-120780337D01*
X124778537Y-120728011D01*
X124800211Y-120675685D01*
X124833381Y-120656534D01*
X124883536Y-120643095D01*
X124991964Y-120580495D01*
X125080495Y-120491964D01*
X125143095Y-120383536D01*
X125175499Y-120262603D01*
X125175500Y-120262603D01*
X125175500Y-120137397D01*
X125175499Y-120137396D01*
X125143095Y-120016464D01*
X125080495Y-119908036D01*
X124991963Y-119819504D01*
X124883534Y-119756904D01*
X124883536Y-119756904D01*
X124762603Y-119724500D01*
X124762601Y-119724500D01*
X124637399Y-119724500D01*
X124632672Y-119724500D01*
X124580346Y-119702826D01*
X123531481Y-118653961D01*
X123517934Y-118640414D01*
X123517934Y-118640413D01*
X123478410Y-118600889D01*
X123457020Y-118592029D01*
X123447634Y-118588141D01*
X123447633Y-118588140D01*
X123426771Y-118579499D01*
X123370875Y-118579499D01*
X123362263Y-118579499D01*
X123362255Y-118579500D01*
X121895391Y-118579500D01*
X121895383Y-118579499D01*
X121886771Y-118579499D01*
X121830875Y-118579499D01*
X121800624Y-118592028D01*
X121800625Y-118592029D01*
X121779239Y-118600887D01*
X121779234Y-118600890D01*
X121739711Y-118640412D01*
X121739712Y-118640413D01*
X121739711Y-118640414D01*
X121739710Y-118640414D01*
X121680336Y-118699787D01*
X121628010Y-118721461D01*
X121575685Y-118699786D01*
X121556533Y-118666616D01*
X121543095Y-118616464D01*
X121480495Y-118508036D01*
X121391964Y-118419505D01*
X121391963Y-118419504D01*
X121283534Y-118356904D01*
X121283536Y-118356904D01*
X121162603Y-118324500D01*
X121162601Y-118324500D01*
X121037399Y-118324500D01*
X120940044Y-118350586D01*
X120883892Y-118343193D01*
X120849413Y-118298259D01*
X120849414Y-118259954D01*
X120875499Y-118162603D01*
X120875500Y-118162603D01*
X120875500Y-118037397D01*
X120875499Y-118037396D01*
X120843095Y-117916464D01*
X120780495Y-117808036D01*
X120691963Y-117719504D01*
X120601049Y-117667016D01*
X120583536Y-117656905D01*
X120583535Y-117656904D01*
X120583536Y-117656904D01*
X120462603Y-117624500D01*
X120462601Y-117624500D01*
X120337399Y-117624500D01*
X120337397Y-117624500D01*
X120216464Y-117656904D01*
X120108036Y-117719504D01*
X120019504Y-117808036D01*
X119956904Y-117916464D01*
X119924500Y-118037396D01*
X119924500Y-118162603D01*
X119956904Y-118283535D01*
X119995616Y-118350586D01*
X120019505Y-118391964D01*
X120108036Y-118480495D01*
X120216464Y-118543095D01*
X120216463Y-118543095D01*
X120240046Y-118549414D01*
X120337396Y-118575499D01*
X120337397Y-118575500D01*
X120337399Y-118575500D01*
X120462603Y-118575500D01*
X120462603Y-118575499D01*
X120559954Y-118549414D01*
X120616106Y-118556806D01*
X120650585Y-118601739D01*
X120650586Y-118640044D01*
X120624500Y-118737399D01*
X120624500Y-118862603D01*
X120656904Y-118983535D01*
X120675917Y-119016466D01*
X120719505Y-119091964D01*
X120808036Y-119180495D01*
X120916464Y-119243095D01*
X120916463Y-119243095D01*
X120957242Y-119254022D01*
X121002175Y-119288500D01*
X121009567Y-119344653D01*
X120975089Y-119389586D01*
X120938089Y-119399500D01*
X119805790Y-119399500D01*
X119753464Y-119377826D01*
X119732701Y-119337076D01*
X119725007Y-119288500D01*
X119722171Y-119270591D01*
X119722169Y-119270586D01*
X119722168Y-119270580D01*
X119666212Y-119098364D01*
X119666211Y-119098363D01*
X119666211Y-119098361D01*
X119583996Y-118937006D01*
X119477553Y-118790499D01*
X119349501Y-118662447D01*
X119264128Y-118600420D01*
X119202996Y-118556005D01*
X119041635Y-118473787D01*
X119041636Y-118473787D01*
X118869419Y-118417831D01*
X118869406Y-118417828D01*
X118690547Y-118389500D01*
X118690546Y-118389500D01*
X118509454Y-118389500D01*
X118509453Y-118389500D01*
X118330593Y-118417828D01*
X118330580Y-118417831D01*
X118158364Y-118473787D01*
X117997004Y-118556005D01*
X117997003Y-118556005D01*
X117880826Y-118640413D01*
X117850499Y-118662447D01*
X117722447Y-118790499D01*
X117722444Y-118790502D01*
X117722444Y-118790503D01*
X117616005Y-118937003D01*
X117616005Y-118937004D01*
X117533787Y-119098364D01*
X117477831Y-119270580D01*
X117477828Y-119270593D01*
X117449500Y-119449453D01*
X116800500Y-119449453D01*
X116800500Y-116909453D01*
X117449500Y-116909453D01*
X117449500Y-117090546D01*
X117477828Y-117269406D01*
X117477831Y-117269419D01*
X117533787Y-117441635D01*
X117533788Y-117441638D01*
X117533789Y-117441639D01*
X117610383Y-117591963D01*
X117616005Y-117602995D01*
X117616005Y-117602996D01*
X117641399Y-117637947D01*
X117722447Y-117749501D01*
X117850499Y-117877553D01*
X117997006Y-117983996D01*
X118158361Y-118066211D01*
X118158364Y-118066212D01*
X118158363Y-118066212D01*
X118330580Y-118122168D01*
X118330586Y-118122169D01*
X118330591Y-118122171D01*
X118449833Y-118141057D01*
X118509453Y-118150500D01*
X118509454Y-118150500D01*
X118690547Y-118150500D01*
X118741126Y-118142489D01*
X118869409Y-118122171D01*
X118869416Y-118122168D01*
X118869419Y-118122168D01*
X118995676Y-118081145D01*
X119041639Y-118066211D01*
X119202994Y-117983996D01*
X119349501Y-117877553D01*
X119477553Y-117749501D01*
X119583996Y-117602994D01*
X119666211Y-117441639D01*
X119722171Y-117269409D01*
X119732701Y-117202923D01*
X119762294Y-117154633D01*
X119805790Y-117140500D01*
X123534135Y-117140500D01*
X123586461Y-117162174D01*
X124685737Y-118261450D01*
X124707411Y-118313776D01*
X124703283Y-118334538D01*
X124704129Y-118334765D01*
X124670469Y-118460381D01*
X124670469Y-118585588D01*
X124702873Y-118706520D01*
X124702874Y-118706521D01*
X124765474Y-118814949D01*
X124854005Y-118903480D01*
X124962433Y-118966080D01*
X124962432Y-118966080D01*
X125032255Y-118984789D01*
X125083365Y-118998484D01*
X125083366Y-118998485D01*
X125083368Y-118998485D01*
X125208572Y-118998485D01*
X125208572Y-118998484D01*
X125329505Y-118966080D01*
X125437933Y-118903480D01*
X125526464Y-118814949D01*
X125589064Y-118706521D01*
X125621468Y-118585588D01*
X125621469Y-118585588D01*
X125621469Y-118460382D01*
X125621468Y-118460381D01*
X125589064Y-118339449D01*
X125526464Y-118231021D01*
X125437932Y-118142489D01*
X125377366Y-118107522D01*
X126449500Y-118107522D01*
X126449500Y-118252477D01*
X126487014Y-118392481D01*
X126487016Y-118392486D01*
X126533956Y-118473787D01*
X126559491Y-118518015D01*
X126661985Y-118620509D01*
X126787515Y-118692984D01*
X126787516Y-118692984D01*
X126787518Y-118692985D01*
X126838031Y-118706520D01*
X126927522Y-118730499D01*
X126927523Y-118730500D01*
X126927525Y-118730500D01*
X127072477Y-118730500D01*
X127072477Y-118730499D01*
X127212485Y-118692984D01*
X127338015Y-118620509D01*
X127440509Y-118518015D01*
X127450068Y-118501459D01*
X129799500Y-118501459D01*
X129799500Y-118698541D01*
X129812200Y-118762388D01*
X129837947Y-118891829D01*
X129837950Y-118891839D01*
X129913367Y-119073913D01*
X130018778Y-119231671D01*
X130022861Y-119237782D01*
X130162218Y-119377139D01*
X130326086Y-119486632D01*
X130508165Y-119562051D01*
X130701459Y-119600500D01*
X130701461Y-119600500D01*
X130898539Y-119600500D01*
X130898541Y-119600500D01*
X131091835Y-119562051D01*
X131273914Y-119486632D01*
X131329556Y-119449453D01*
X132689500Y-119449453D01*
X132689500Y-119630546D01*
X132717828Y-119809406D01*
X132717831Y-119809419D01*
X132773787Y-119981635D01*
X132773788Y-119981638D01*
X132773789Y-119981639D01*
X132853153Y-120137399D01*
X132856005Y-120142995D01*
X132856005Y-120142996D01*
X132885459Y-120183536D01*
X132962447Y-120289501D01*
X133090499Y-120417553D01*
X133237006Y-120523996D01*
X133398361Y-120606211D01*
X133398364Y-120606212D01*
X133398363Y-120606212D01*
X133570580Y-120662168D01*
X133570586Y-120662169D01*
X133570591Y-120662171D01*
X133689833Y-120681057D01*
X133749453Y-120690500D01*
X133749454Y-120690500D01*
X133930547Y-120690500D01*
X133975261Y-120683417D01*
X134109409Y-120662171D01*
X134109416Y-120662168D01*
X134109419Y-120662168D01*
X134187601Y-120636765D01*
X134281639Y-120606211D01*
X134442994Y-120523996D01*
X134589501Y-120417553D01*
X134717553Y-120289501D01*
X134823996Y-120142994D01*
X134906211Y-119981639D01*
X134949993Y-119846889D01*
X134962168Y-119809419D01*
X134962168Y-119809416D01*
X134962171Y-119809409D01*
X134990500Y-119630546D01*
X134990500Y-119449454D01*
X134962171Y-119270591D01*
X134962169Y-119270586D01*
X134962168Y-119270580D01*
X134906212Y-119098364D01*
X134906211Y-119098363D01*
X134906211Y-119098361D01*
X134823996Y-118937006D01*
X134717553Y-118790499D01*
X134589501Y-118662447D01*
X134504128Y-118600420D01*
X134442996Y-118556005D01*
X134281635Y-118473787D01*
X134281636Y-118473787D01*
X134109419Y-118417831D01*
X134109406Y-118417828D01*
X133930547Y-118389500D01*
X133930546Y-118389500D01*
X133749454Y-118389500D01*
X133749453Y-118389500D01*
X133570593Y-118417828D01*
X133570580Y-118417831D01*
X133398364Y-118473787D01*
X133237004Y-118556005D01*
X133237003Y-118556005D01*
X133120826Y-118640413D01*
X133090499Y-118662447D01*
X132962447Y-118790499D01*
X132962444Y-118790502D01*
X132962444Y-118790503D01*
X132856005Y-118937003D01*
X132856005Y-118937004D01*
X132773787Y-119098364D01*
X132717831Y-119270580D01*
X132717828Y-119270593D01*
X132689500Y-119449453D01*
X131329556Y-119449453D01*
X131437782Y-119377139D01*
X131577139Y-119237782D01*
X131686632Y-119073914D01*
X131762051Y-118891835D01*
X131800500Y-118698541D01*
X131800500Y-118501459D01*
X131762051Y-118308165D01*
X131759026Y-118300863D01*
X131686632Y-118126086D01*
X131577139Y-117962218D01*
X131437781Y-117822860D01*
X131273913Y-117713367D01*
X131091839Y-117637950D01*
X131091829Y-117637947D01*
X130962388Y-117612200D01*
X130898541Y-117599500D01*
X130701459Y-117599500D01*
X130646662Y-117610399D01*
X130508170Y-117637947D01*
X130508160Y-117637950D01*
X130326086Y-117713367D01*
X130162218Y-117822860D01*
X130162217Y-117822862D01*
X130022862Y-117962217D01*
X130022860Y-117962218D01*
X129913367Y-118126086D01*
X129837950Y-118308160D01*
X129837947Y-118308170D01*
X129821176Y-118392486D01*
X129799500Y-118501459D01*
X127450068Y-118501459D01*
X127512984Y-118392485D01*
X127550499Y-118252477D01*
X127550500Y-118252477D01*
X127550500Y-118107523D01*
X127550499Y-118107522D01*
X127512985Y-117967518D01*
X127512983Y-117967513D01*
X127440508Y-117841984D01*
X127338015Y-117739491D01*
X127212486Y-117667016D01*
X127212481Y-117667014D01*
X127072477Y-117629500D01*
X127072475Y-117629500D01*
X126927525Y-117629500D01*
X126927523Y-117629500D01*
X126787518Y-117667014D01*
X126787513Y-117667016D01*
X126661984Y-117739491D01*
X126559491Y-117841984D01*
X126487016Y-117967513D01*
X126487014Y-117967518D01*
X126449500Y-118107522D01*
X125377366Y-118107522D01*
X125329503Y-118079889D01*
X125329505Y-118079889D01*
X125208572Y-118047485D01*
X125208570Y-118047485D01*
X125083368Y-118047485D01*
X125083366Y-118047485D01*
X124957749Y-118081145D01*
X124957120Y-118078799D01*
X124908426Y-118078788D01*
X124884434Y-118062753D01*
X124059077Y-117237396D01*
X125324500Y-117237396D01*
X125324500Y-117362603D01*
X125356904Y-117483535D01*
X125356905Y-117483536D01*
X125419505Y-117591964D01*
X125508036Y-117680495D01*
X125616464Y-117743095D01*
X125616463Y-117743095D01*
X125686286Y-117761804D01*
X125737396Y-117775499D01*
X125737397Y-117775500D01*
X125737399Y-117775500D01*
X125862603Y-117775500D01*
X125862603Y-117775499D01*
X125983536Y-117743095D01*
X126091964Y-117680495D01*
X126180495Y-117591964D01*
X126243095Y-117483536D01*
X126275499Y-117362603D01*
X126275500Y-117362603D01*
X126275500Y-117237397D01*
X126275499Y-117237396D01*
X126253322Y-117154633D01*
X126243095Y-117116464D01*
X126180495Y-117008036D01*
X126091964Y-116919505D01*
X126091963Y-116919504D01*
X125983534Y-116856904D01*
X125983536Y-116856904D01*
X125862603Y-116824500D01*
X125862601Y-116824500D01*
X125737399Y-116824500D01*
X125737397Y-116824500D01*
X125616464Y-116856904D01*
X125508036Y-116919504D01*
X125419504Y-117008036D01*
X125356904Y-117116464D01*
X125324500Y-117237396D01*
X124059077Y-117237396D01*
X123755642Y-116933961D01*
X123742095Y-116920414D01*
X123742095Y-116920413D01*
X123702571Y-116880889D01*
X123681181Y-116872029D01*
X123671795Y-116868141D01*
X123671794Y-116868140D01*
X123650932Y-116859499D01*
X123595036Y-116859499D01*
X123586424Y-116859499D01*
X123586416Y-116859500D01*
X119805790Y-116859500D01*
X119753464Y-116837826D01*
X119732701Y-116797076D01*
X119722171Y-116730593D01*
X119722168Y-116730580D01*
X119666212Y-116558364D01*
X119666211Y-116558363D01*
X119666211Y-116558361D01*
X119583996Y-116397006D01*
X119514578Y-116301460D01*
X129799500Y-116301460D01*
X129799500Y-116498539D01*
X129837947Y-116691829D01*
X129837950Y-116691839D01*
X129913367Y-116873913D01*
X129944438Y-116920413D01*
X130022861Y-117037782D01*
X130162218Y-117177139D01*
X130326086Y-117286632D01*
X130508165Y-117362051D01*
X130701459Y-117400500D01*
X130701461Y-117400500D01*
X130898539Y-117400500D01*
X130898541Y-117400500D01*
X131091835Y-117362051D01*
X131273914Y-117286632D01*
X131437782Y-117177139D01*
X131577139Y-117037782D01*
X131662886Y-116909453D01*
X132689500Y-116909453D01*
X132689500Y-117090546D01*
X132717828Y-117269406D01*
X132717831Y-117269419D01*
X132773787Y-117441635D01*
X132773788Y-117441638D01*
X132773789Y-117441639D01*
X132850383Y-117591963D01*
X132856005Y-117602995D01*
X132856005Y-117602996D01*
X132881399Y-117637947D01*
X132962447Y-117749501D01*
X133090499Y-117877553D01*
X133237006Y-117983996D01*
X133398361Y-118066211D01*
X133398364Y-118066212D01*
X133398363Y-118066212D01*
X133570580Y-118122168D01*
X133570586Y-118122169D01*
X133570591Y-118122171D01*
X133689833Y-118141057D01*
X133749453Y-118150500D01*
X133749454Y-118150500D01*
X133930547Y-118150500D01*
X133981126Y-118142489D01*
X134109409Y-118122171D01*
X134109416Y-118122168D01*
X134109419Y-118122168D01*
X134235676Y-118081145D01*
X134281639Y-118066211D01*
X134442994Y-117983996D01*
X134589501Y-117877553D01*
X134717553Y-117749501D01*
X134823996Y-117602994D01*
X134906211Y-117441639D01*
X134962171Y-117269409D01*
X134990500Y-117090546D01*
X134990500Y-116909454D01*
X134984572Y-116872029D01*
X134962171Y-116730593D01*
X134962168Y-116730580D01*
X134906212Y-116558364D01*
X134906211Y-116558363D01*
X134906211Y-116558361D01*
X134823996Y-116397006D01*
X134717553Y-116250499D01*
X134589501Y-116122447D01*
X134504128Y-116060420D01*
X134442996Y-116016005D01*
X134281635Y-115933787D01*
X134281636Y-115933787D01*
X134109419Y-115877831D01*
X134109406Y-115877828D01*
X133930547Y-115849500D01*
X133930546Y-115849500D01*
X133749454Y-115849500D01*
X133749453Y-115849500D01*
X133570593Y-115877828D01*
X133570580Y-115877831D01*
X133398364Y-115933787D01*
X133237004Y-116016005D01*
X133237003Y-116016005D01*
X133090503Y-116122444D01*
X133090499Y-116122447D01*
X132962447Y-116250499D01*
X132962444Y-116250502D01*
X132962444Y-116250503D01*
X132856005Y-116397003D01*
X132856005Y-116397004D01*
X132773787Y-116558364D01*
X132717831Y-116730580D01*
X132717828Y-116730593D01*
X132689500Y-116909453D01*
X131662886Y-116909453D01*
X131686632Y-116873914D01*
X131762051Y-116691835D01*
X131800500Y-116498541D01*
X131800500Y-116301459D01*
X131762051Y-116108165D01*
X131686632Y-115926086D01*
X131577139Y-115762218D01*
X131437782Y-115622861D01*
X131428209Y-115616464D01*
X131273913Y-115513367D01*
X131091839Y-115437950D01*
X131091829Y-115437947D01*
X130962388Y-115412200D01*
X130898541Y-115399500D01*
X130701459Y-115399500D01*
X130646662Y-115410399D01*
X130508170Y-115437947D01*
X130508160Y-115437950D01*
X130326086Y-115513367D01*
X130162218Y-115622860D01*
X130162217Y-115622862D01*
X130022862Y-115762217D01*
X130022860Y-115762218D01*
X129913367Y-115926086D01*
X129837950Y-116108160D01*
X129837947Y-116108170D01*
X129799500Y-116301460D01*
X119514578Y-116301460D01*
X119477553Y-116250499D01*
X119349501Y-116122447D01*
X119264128Y-116060420D01*
X119202996Y-116016005D01*
X119041635Y-115933787D01*
X119041636Y-115933787D01*
X118869419Y-115877831D01*
X118869406Y-115877828D01*
X118690547Y-115849500D01*
X118690546Y-115849500D01*
X118509454Y-115849500D01*
X118509453Y-115849500D01*
X118330593Y-115877828D01*
X118330580Y-115877831D01*
X118158364Y-115933787D01*
X117997004Y-116016005D01*
X117997003Y-116016005D01*
X117850503Y-116122444D01*
X117850499Y-116122447D01*
X117722447Y-116250499D01*
X117722444Y-116250502D01*
X117722444Y-116250503D01*
X117616005Y-116397003D01*
X117616005Y-116397004D01*
X117533787Y-116558364D01*
X117477831Y-116730580D01*
X117477828Y-116730593D01*
X117449500Y-116909453D01*
X116800500Y-116909453D01*
X116800500Y-115737396D01*
X121231000Y-115737396D01*
X121231000Y-115862603D01*
X121263404Y-115983535D01*
X121282151Y-116016005D01*
X121326005Y-116091964D01*
X121414536Y-116180495D01*
X121522964Y-116243095D01*
X121522963Y-116243095D01*
X121592786Y-116261804D01*
X121643896Y-116275499D01*
X121643897Y-116275500D01*
X121643899Y-116275500D01*
X121769103Y-116275500D01*
X121769103Y-116275499D01*
X121890036Y-116243095D01*
X121890038Y-116243093D01*
X121890040Y-116243093D01*
X121916249Y-116227961D01*
X121972402Y-116220567D01*
X121990251Y-116227961D01*
X122016459Y-116243093D01*
X122016467Y-116243096D01*
X122076931Y-116259297D01*
X122137396Y-116275499D01*
X122137397Y-116275500D01*
X122137399Y-116275500D01*
X122262603Y-116275500D01*
X122262603Y-116275499D01*
X122347607Y-116252722D01*
X122383533Y-116243096D01*
X122383533Y-116243095D01*
X122383536Y-116243095D01*
X122416251Y-116224206D01*
X122472402Y-116216814D01*
X122490245Y-116224205D01*
X122522961Y-116243093D01*
X122522966Y-116243096D01*
X122607970Y-116265872D01*
X122643896Y-116275499D01*
X122643897Y-116275500D01*
X122643899Y-116275500D01*
X122769103Y-116275500D01*
X122769103Y-116275499D01*
X122890036Y-116243095D01*
X122890038Y-116243093D01*
X122890040Y-116243093D01*
X122916249Y-116227961D01*
X122972402Y-116220567D01*
X122990251Y-116227961D01*
X123016459Y-116243093D01*
X123016467Y-116243096D01*
X123076931Y-116259297D01*
X123137396Y-116275499D01*
X123137397Y-116275500D01*
X123137399Y-116275500D01*
X123262603Y-116275500D01*
X123262603Y-116275499D01*
X123347607Y-116252722D01*
X123383533Y-116243096D01*
X123383533Y-116243095D01*
X123383536Y-116243095D01*
X123416251Y-116224206D01*
X123472402Y-116216814D01*
X123490245Y-116224205D01*
X123522961Y-116243093D01*
X123522966Y-116243096D01*
X123607970Y-116265872D01*
X123643896Y-116275499D01*
X123643897Y-116275500D01*
X123643899Y-116275500D01*
X123769103Y-116275500D01*
X123769103Y-116275499D01*
X123890036Y-116243095D01*
X123890038Y-116243093D01*
X123890040Y-116243093D01*
X123916249Y-116227961D01*
X123972402Y-116220567D01*
X123990251Y-116227961D01*
X124016459Y-116243093D01*
X124016467Y-116243096D01*
X124076931Y-116259297D01*
X124137396Y-116275499D01*
X124137397Y-116275500D01*
X124137399Y-116275500D01*
X124262603Y-116275500D01*
X124262603Y-116275499D01*
X124347607Y-116252722D01*
X124383533Y-116243096D01*
X124383533Y-116243095D01*
X124383536Y-116243095D01*
X124416251Y-116224206D01*
X124472402Y-116216814D01*
X124490245Y-116224205D01*
X124522961Y-116243093D01*
X124522966Y-116243096D01*
X124607970Y-116265872D01*
X124643896Y-116275499D01*
X124643897Y-116275500D01*
X124643899Y-116275500D01*
X124769103Y-116275500D01*
X124769103Y-116275499D01*
X124890036Y-116243095D01*
X124890038Y-116243093D01*
X124890040Y-116243093D01*
X124916249Y-116227961D01*
X124972402Y-116220567D01*
X124990251Y-116227961D01*
X125016459Y-116243093D01*
X125016467Y-116243096D01*
X125076931Y-116259297D01*
X125137396Y-116275499D01*
X125137397Y-116275500D01*
X125137399Y-116275500D01*
X125262603Y-116275500D01*
X125262603Y-116275499D01*
X125347607Y-116252722D01*
X125383533Y-116243096D01*
X125383533Y-116243095D01*
X125383536Y-116243095D01*
X125491964Y-116180495D01*
X125580495Y-116091964D01*
X125643095Y-115983536D01*
X125675499Y-115862603D01*
X125675500Y-115862603D01*
X125675500Y-115737397D01*
X125675499Y-115737396D01*
X125643095Y-115616464D01*
X125580495Y-115508036D01*
X125491963Y-115419504D01*
X125383534Y-115356904D01*
X125383536Y-115356904D01*
X125262603Y-115324500D01*
X125262601Y-115324500D01*
X125137399Y-115324500D01*
X125137397Y-115324500D01*
X125016465Y-115356904D01*
X124990248Y-115372040D01*
X124934095Y-115379431D01*
X124916252Y-115372040D01*
X124890034Y-115356904D01*
X124769103Y-115324500D01*
X124769101Y-115324500D01*
X124643899Y-115324500D01*
X124643897Y-115324500D01*
X124522967Y-115356903D01*
X124522964Y-115356905D01*
X124490247Y-115375793D01*
X124434096Y-115383184D01*
X124416254Y-115375794D01*
X124383536Y-115356905D01*
X124383535Y-115356904D01*
X124383532Y-115356903D01*
X124262603Y-115324500D01*
X124262601Y-115324500D01*
X124137399Y-115324500D01*
X124137397Y-115324500D01*
X124016465Y-115356904D01*
X123990248Y-115372040D01*
X123934095Y-115379431D01*
X123916252Y-115372040D01*
X123890034Y-115356904D01*
X123769103Y-115324500D01*
X123769101Y-115324500D01*
X123643899Y-115324500D01*
X123643897Y-115324500D01*
X123522967Y-115356903D01*
X123522964Y-115356905D01*
X123490247Y-115375793D01*
X123434096Y-115383184D01*
X123416254Y-115375794D01*
X123383536Y-115356905D01*
X123383535Y-115356904D01*
X123383532Y-115356903D01*
X123262603Y-115324500D01*
X123262601Y-115324500D01*
X123137399Y-115324500D01*
X123137397Y-115324500D01*
X123016465Y-115356904D01*
X122990248Y-115372040D01*
X122934095Y-115379431D01*
X122916252Y-115372040D01*
X122890034Y-115356904D01*
X122769103Y-115324500D01*
X122769101Y-115324500D01*
X122643899Y-115324500D01*
X122643897Y-115324500D01*
X122522967Y-115356903D01*
X122522964Y-115356905D01*
X122490247Y-115375793D01*
X122434096Y-115383184D01*
X122416254Y-115375794D01*
X122383536Y-115356905D01*
X122383535Y-115356904D01*
X122383532Y-115356903D01*
X122262603Y-115324500D01*
X122262601Y-115324500D01*
X122137399Y-115324500D01*
X122137397Y-115324500D01*
X122016465Y-115356904D01*
X121990248Y-115372040D01*
X121934095Y-115379431D01*
X121916252Y-115372040D01*
X121890034Y-115356904D01*
X121769103Y-115324500D01*
X121769101Y-115324500D01*
X121643899Y-115324500D01*
X121643897Y-115324500D01*
X121522964Y-115356904D01*
X121414536Y-115419504D01*
X121326004Y-115508036D01*
X121263404Y-115616464D01*
X121231000Y-115737396D01*
X116800500Y-115737396D01*
X116800500Y-114369453D01*
X117449500Y-114369453D01*
X117449500Y-114550546D01*
X117477828Y-114729406D01*
X117477831Y-114729419D01*
X117533787Y-114901635D01*
X117533788Y-114901638D01*
X117533789Y-114901639D01*
X117616004Y-115062994D01*
X117722447Y-115209501D01*
X117850499Y-115337553D01*
X117997006Y-115443996D01*
X118158361Y-115526211D01*
X118158364Y-115526212D01*
X118158363Y-115526212D01*
X118330580Y-115582168D01*
X118330586Y-115582169D01*
X118330591Y-115582171D01*
X118449833Y-115601057D01*
X118509453Y-115610500D01*
X118509454Y-115610500D01*
X118690547Y-115610500D01*
X118735261Y-115603417D01*
X118869409Y-115582171D01*
X118869416Y-115582168D01*
X118869419Y-115582168D01*
X118947601Y-115556765D01*
X119041639Y-115526211D01*
X119202994Y-115443996D01*
X119349501Y-115337553D01*
X119477553Y-115209501D01*
X119583996Y-115062994D01*
X119666211Y-114901639D01*
X119722171Y-114729409D01*
X119750500Y-114550546D01*
X119750500Y-114369454D01*
X119750500Y-114369453D01*
X132689500Y-114369453D01*
X132689500Y-114550546D01*
X132717828Y-114729406D01*
X132717831Y-114729419D01*
X132773787Y-114901635D01*
X132773788Y-114901638D01*
X132773789Y-114901639D01*
X132856004Y-115062994D01*
X132962447Y-115209501D01*
X133090499Y-115337553D01*
X133237006Y-115443996D01*
X133398361Y-115526211D01*
X133398364Y-115526212D01*
X133398363Y-115526212D01*
X133570580Y-115582168D01*
X133570586Y-115582169D01*
X133570591Y-115582171D01*
X133689833Y-115601057D01*
X133749453Y-115610500D01*
X133749454Y-115610500D01*
X133930547Y-115610500D01*
X133975261Y-115603417D01*
X134109409Y-115582171D01*
X134109416Y-115582168D01*
X134109419Y-115582168D01*
X134187601Y-115556765D01*
X134281639Y-115526211D01*
X134442994Y-115443996D01*
X134589501Y-115337553D01*
X134717553Y-115209501D01*
X134823996Y-115062994D01*
X134906211Y-114901639D01*
X134962171Y-114729409D01*
X134990500Y-114550546D01*
X134990500Y-114369454D01*
X134962171Y-114190591D01*
X134962169Y-114190586D01*
X134962168Y-114190580D01*
X134906212Y-114018364D01*
X134906211Y-114018363D01*
X134906211Y-114018361D01*
X134823996Y-113857006D01*
X134717553Y-113710499D01*
X134589501Y-113582447D01*
X134504128Y-113520420D01*
X134442996Y-113476005D01*
X134281635Y-113393787D01*
X134281636Y-113393787D01*
X134109419Y-113337831D01*
X134109406Y-113337828D01*
X133930547Y-113309500D01*
X133930546Y-113309500D01*
X133749454Y-113309500D01*
X133749453Y-113309500D01*
X133570593Y-113337828D01*
X133570580Y-113337831D01*
X133398364Y-113393787D01*
X133237004Y-113476005D01*
X133237003Y-113476005D01*
X133090503Y-113582444D01*
X133090499Y-113582447D01*
X132962447Y-113710499D01*
X132962444Y-113710502D01*
X132962444Y-113710503D01*
X132856005Y-113857003D01*
X132856005Y-113857004D01*
X132773787Y-114018364D01*
X132717831Y-114190580D01*
X132717828Y-114190593D01*
X132689500Y-114369453D01*
X119750500Y-114369453D01*
X119722171Y-114190591D01*
X119722169Y-114190586D01*
X119722168Y-114190580D01*
X119666212Y-114018364D01*
X119666211Y-114018363D01*
X119666211Y-114018361D01*
X119583996Y-113857006D01*
X119477553Y-113710499D01*
X119349501Y-113582447D01*
X119264128Y-113520420D01*
X119202996Y-113476005D01*
X119041635Y-113393787D01*
X119041636Y-113393787D01*
X118869419Y-113337831D01*
X118869406Y-113337828D01*
X118690547Y-113309500D01*
X118690546Y-113309500D01*
X118509454Y-113309500D01*
X118509453Y-113309500D01*
X118330593Y-113337828D01*
X118330580Y-113337831D01*
X118158364Y-113393787D01*
X117997004Y-113476005D01*
X117997003Y-113476005D01*
X117850503Y-113582444D01*
X117850499Y-113582447D01*
X117722447Y-113710499D01*
X117722444Y-113710502D01*
X117722444Y-113710503D01*
X117616005Y-113857003D01*
X117616005Y-113857004D01*
X117533787Y-114018364D01*
X117477831Y-114190580D01*
X117477828Y-114190593D01*
X117449500Y-114369453D01*
X116800500Y-114369453D01*
X116800500Y-111829453D01*
X117449500Y-111829453D01*
X117449500Y-112010546D01*
X117477828Y-112189406D01*
X117477831Y-112189419D01*
X117533787Y-112361635D01*
X117533788Y-112361638D01*
X117533789Y-112361639D01*
X117616004Y-112522994D01*
X117722447Y-112669501D01*
X117850499Y-112797553D01*
X117997006Y-112903996D01*
X118158361Y-112986211D01*
X118158364Y-112986212D01*
X118158363Y-112986212D01*
X118330580Y-113042168D01*
X118330586Y-113042169D01*
X118330591Y-113042171D01*
X118449833Y-113061057D01*
X118509453Y-113070500D01*
X118509454Y-113070500D01*
X118690547Y-113070500D01*
X118735261Y-113063417D01*
X118869409Y-113042171D01*
X118869416Y-113042168D01*
X118869419Y-113042168D01*
X118947601Y-113016765D01*
X119041639Y-112986211D01*
X119202994Y-112903996D01*
X119349501Y-112797553D01*
X119477553Y-112669501D01*
X119583996Y-112522994D01*
X119666211Y-112361639D01*
X119709787Y-112227525D01*
X119709788Y-112227522D01*
X121349500Y-112227522D01*
X121349500Y-112372477D01*
X121387014Y-112512481D01*
X121387016Y-112512486D01*
X121459491Y-112638015D01*
X121561985Y-112740509D01*
X121687515Y-112812984D01*
X121687516Y-112812984D01*
X121687518Y-112812985D01*
X121757520Y-112831742D01*
X121827522Y-112850499D01*
X121827523Y-112850500D01*
X121827525Y-112850500D01*
X121972477Y-112850500D01*
X121972477Y-112850499D01*
X122021378Y-112837396D01*
X125424500Y-112837396D01*
X125424500Y-112962603D01*
X125456904Y-113083535D01*
X125456905Y-113083536D01*
X125519505Y-113191964D01*
X125608036Y-113280495D01*
X125716464Y-113343095D01*
X125716463Y-113343095D01*
X125744099Y-113350500D01*
X125837396Y-113375499D01*
X125837397Y-113375500D01*
X125837399Y-113375500D01*
X125962603Y-113375500D01*
X125962603Y-113375499D01*
X126083536Y-113343095D01*
X126191964Y-113280495D01*
X126280495Y-113191964D01*
X126343095Y-113083536D01*
X126375499Y-112962603D01*
X126375500Y-112962603D01*
X126375500Y-112837397D01*
X126375499Y-112837396D01*
X126349892Y-112741828D01*
X126346058Y-112727522D01*
X128449500Y-112727522D01*
X128449500Y-112872477D01*
X128487014Y-113012481D01*
X128487016Y-113012486D01*
X128504155Y-113042171D01*
X128559491Y-113138015D01*
X128661985Y-113240509D01*
X128731243Y-113280495D01*
X128781480Y-113309500D01*
X128787515Y-113312984D01*
X128787516Y-113312984D01*
X128787518Y-113312985D01*
X128857520Y-113331742D01*
X128927522Y-113350499D01*
X128927523Y-113350500D01*
X128927525Y-113350500D01*
X129072477Y-113350500D01*
X129072477Y-113350499D01*
X129212485Y-113312984D01*
X129338015Y-113240509D01*
X129440509Y-113138015D01*
X129512984Y-113012485D01*
X129550499Y-112872477D01*
X129550500Y-112872477D01*
X129550500Y-112727523D01*
X129550499Y-112727522D01*
X129512985Y-112587518D01*
X129512983Y-112587513D01*
X129440508Y-112461984D01*
X129338015Y-112359491D01*
X129212486Y-112287016D01*
X129212481Y-112287014D01*
X129072477Y-112249500D01*
X129072475Y-112249500D01*
X128927525Y-112249500D01*
X128927523Y-112249500D01*
X128787518Y-112287014D01*
X128787513Y-112287016D01*
X128661984Y-112359491D01*
X128559491Y-112461984D01*
X128487016Y-112587513D01*
X128487014Y-112587518D01*
X128449500Y-112727522D01*
X126346058Y-112727522D01*
X126343095Y-112716464D01*
X126280495Y-112608036D01*
X126191963Y-112519504D01*
X126083534Y-112456904D01*
X126083536Y-112456904D01*
X125962603Y-112424500D01*
X125962601Y-112424500D01*
X125837399Y-112424500D01*
X125837397Y-112424500D01*
X125716464Y-112456904D01*
X125608036Y-112519504D01*
X125519504Y-112608036D01*
X125456904Y-112716464D01*
X125424500Y-112837396D01*
X122021378Y-112837396D01*
X122112485Y-112812984D01*
X122238015Y-112740509D01*
X122340509Y-112638015D01*
X122412984Y-112512485D01*
X122450499Y-112372477D01*
X122450500Y-112372477D01*
X122450500Y-112227523D01*
X122450499Y-112227522D01*
X122443074Y-112199813D01*
X122412984Y-112087515D01*
X122340509Y-111961985D01*
X122238015Y-111859491D01*
X122185988Y-111829453D01*
X122112486Y-111787016D01*
X122112481Y-111787014D01*
X121972477Y-111749500D01*
X121972475Y-111749500D01*
X121827525Y-111749500D01*
X121827523Y-111749500D01*
X121687518Y-111787014D01*
X121687513Y-111787016D01*
X121561984Y-111859491D01*
X121459491Y-111961984D01*
X121387016Y-112087513D01*
X121387014Y-112087518D01*
X121349500Y-112227522D01*
X119709788Y-112227522D01*
X119718791Y-112199813D01*
X119718792Y-112199809D01*
X119719117Y-112198807D01*
X119722171Y-112189409D01*
X119750500Y-112010546D01*
X119750500Y-111829454D01*
X119722171Y-111650591D01*
X119722169Y-111650586D01*
X119722168Y-111650580D01*
X119666212Y-111478364D01*
X119666211Y-111478363D01*
X119666211Y-111478361D01*
X119583996Y-111317006D01*
X119477553Y-111170499D01*
X119349501Y-111042447D01*
X119209184Y-110940501D01*
X119202996Y-110936005D01*
X119041635Y-110853787D01*
X119041636Y-110853787D01*
X118869419Y-110797831D01*
X118869406Y-110797828D01*
X118690547Y-110769500D01*
X118690546Y-110769500D01*
X118509454Y-110769500D01*
X118509453Y-110769500D01*
X118330593Y-110797828D01*
X118330580Y-110797831D01*
X118158364Y-110853787D01*
X117997004Y-110936005D01*
X117997003Y-110936005D01*
X117850503Y-111042444D01*
X117850499Y-111042447D01*
X117722447Y-111170499D01*
X117722444Y-111170502D01*
X117722444Y-111170503D01*
X117616005Y-111317003D01*
X117616005Y-111317004D01*
X117533787Y-111478364D01*
X117477831Y-111650580D01*
X117477828Y-111650593D01*
X117449500Y-111829453D01*
X116800500Y-111829453D01*
X116800500Y-109289453D01*
X117449500Y-109289453D01*
X117449500Y-109470546D01*
X117477828Y-109649406D01*
X117477831Y-109649419D01*
X117533787Y-109821635D01*
X117533788Y-109821638D01*
X117533789Y-109821639D01*
X117614363Y-109979774D01*
X117616005Y-109982995D01*
X117616005Y-109982996D01*
X117660420Y-110044128D01*
X117722447Y-110129501D01*
X117850499Y-110257553D01*
X117997006Y-110363996D01*
X118158361Y-110446211D01*
X118158364Y-110446212D01*
X118158363Y-110446212D01*
X118330580Y-110502168D01*
X118330586Y-110502169D01*
X118330591Y-110502171D01*
X118449833Y-110521057D01*
X118509453Y-110530500D01*
X118509454Y-110530500D01*
X118690547Y-110530500D01*
X118735261Y-110523417D01*
X118869409Y-110502171D01*
X118869416Y-110502168D01*
X118869419Y-110502168D01*
X118997661Y-110460500D01*
X119041639Y-110446211D01*
X119202994Y-110363996D01*
X119349501Y-110257553D01*
X119477553Y-110129501D01*
X119583996Y-109982994D01*
X119666211Y-109821639D01*
X119713694Y-109675499D01*
X119722168Y-109649419D01*
X119722168Y-109649416D01*
X119722171Y-109649409D01*
X119750500Y-109470546D01*
X119750500Y-109289454D01*
X119722171Y-109110591D01*
X119722169Y-109110586D01*
X119722168Y-109110580D01*
X119666212Y-108938364D01*
X119666211Y-108938363D01*
X119666211Y-108938361D01*
X119583996Y-108777006D01*
X119477553Y-108630499D01*
X119349501Y-108502447D01*
X119220242Y-108408535D01*
X119202996Y-108396005D01*
X119076098Y-108331347D01*
X119041639Y-108313789D01*
X119041638Y-108313788D01*
X119041635Y-108313787D01*
X119041636Y-108313787D01*
X118869419Y-108257831D01*
X118869406Y-108257828D01*
X118690547Y-108229500D01*
X118690546Y-108229500D01*
X118509454Y-108229500D01*
X118509453Y-108229500D01*
X118330593Y-108257828D01*
X118330580Y-108257831D01*
X118158364Y-108313787D01*
X117997004Y-108396005D01*
X117997003Y-108396005D01*
X117850503Y-108502444D01*
X117850499Y-108502447D01*
X117722447Y-108630499D01*
X117722444Y-108630502D01*
X117722444Y-108630503D01*
X117616005Y-108777003D01*
X117616005Y-108777004D01*
X117533787Y-108938364D01*
X117477831Y-109110580D01*
X117477828Y-109110593D01*
X117449500Y-109289453D01*
X116800500Y-109289453D01*
X116800500Y-106749453D01*
X117449500Y-106749453D01*
X117449500Y-106930546D01*
X117477828Y-107109406D01*
X117477831Y-107109419D01*
X117533787Y-107281635D01*
X117533788Y-107281638D01*
X117533789Y-107281639D01*
X117613153Y-107437399D01*
X117616005Y-107442995D01*
X117616005Y-107442996D01*
X117624628Y-107454864D01*
X117722447Y-107589501D01*
X117850499Y-107717553D01*
X117972767Y-107806386D01*
X117990824Y-107819505D01*
X117997006Y-107823996D01*
X118158361Y-107906211D01*
X118158364Y-107906212D01*
X118158363Y-107906212D01*
X118330580Y-107962168D01*
X118330586Y-107962169D01*
X118330591Y-107962171D01*
X118448507Y-107980847D01*
X118509453Y-107990500D01*
X118509454Y-107990500D01*
X118690547Y-107990500D01*
X118751493Y-107980847D01*
X118869409Y-107962171D01*
X118869416Y-107962168D01*
X118869419Y-107962168D01*
X118959079Y-107933036D01*
X119041639Y-107906211D01*
X119202994Y-107823996D01*
X119349501Y-107717553D01*
X119477553Y-107589501D01*
X119485319Y-107578810D01*
X119533607Y-107549213D01*
X119588680Y-107562430D01*
X119597516Y-107569975D01*
X119608036Y-107580495D01*
X119720664Y-107645520D01*
X119719446Y-107647628D01*
X119753866Y-107682045D01*
X119759500Y-107710366D01*
X119759500Y-108463175D01*
X119759499Y-108463178D01*
X119759499Y-108519074D01*
X119770617Y-108545913D01*
X119774183Y-108554522D01*
X119780889Y-108570713D01*
X119830820Y-108620644D01*
X119830822Y-108620645D01*
X122089762Y-110879585D01*
X122089763Y-110879587D01*
X122129287Y-110919111D01*
X122150676Y-110927970D01*
X122180926Y-110940501D01*
X122245434Y-110940501D01*
X122245442Y-110940500D01*
X126372058Y-110940500D01*
X126424384Y-110962174D01*
X126446058Y-111014500D01*
X126424384Y-111066826D01*
X126391211Y-111085978D01*
X126266464Y-111119404D01*
X126158036Y-111182004D01*
X126069504Y-111270536D01*
X126006904Y-111378964D01*
X125974500Y-111499896D01*
X125974500Y-111625103D01*
X126006904Y-111746035D01*
X126055066Y-111829454D01*
X126069505Y-111854464D01*
X126158036Y-111942995D01*
X126266464Y-112005595D01*
X126266463Y-112005595D01*
X126336286Y-112024304D01*
X126387396Y-112037999D01*
X126387397Y-112038000D01*
X126387399Y-112038000D01*
X126512603Y-112038000D01*
X126512603Y-112037999D01*
X126633536Y-112005595D01*
X126741964Y-111942995D01*
X126830495Y-111854464D01*
X126844935Y-111829453D01*
X132689500Y-111829453D01*
X132689500Y-112010546D01*
X132717828Y-112189406D01*
X132717831Y-112189419D01*
X132773787Y-112361635D01*
X132773788Y-112361638D01*
X132773789Y-112361639D01*
X132856004Y-112522994D01*
X132962447Y-112669501D01*
X133090499Y-112797553D01*
X133237006Y-112903996D01*
X133398361Y-112986211D01*
X133398364Y-112986212D01*
X133398363Y-112986212D01*
X133570580Y-113042168D01*
X133570586Y-113042169D01*
X133570591Y-113042171D01*
X133689833Y-113061057D01*
X133749453Y-113070500D01*
X133749454Y-113070500D01*
X133930547Y-113070500D01*
X133975261Y-113063417D01*
X134109409Y-113042171D01*
X134109416Y-113042168D01*
X134109419Y-113042168D01*
X134187601Y-113016765D01*
X134281639Y-112986211D01*
X134442994Y-112903996D01*
X134589501Y-112797553D01*
X134717553Y-112669501D01*
X134823996Y-112522994D01*
X134906211Y-112361639D01*
X134962171Y-112189409D01*
X134990500Y-112010546D01*
X134990500Y-111829454D01*
X134962171Y-111650591D01*
X134962169Y-111650586D01*
X134962168Y-111650580D01*
X134906212Y-111478364D01*
X134906211Y-111478363D01*
X134906211Y-111478361D01*
X134823996Y-111317006D01*
X134717553Y-111170499D01*
X134589501Y-111042447D01*
X134449184Y-110940501D01*
X134442996Y-110936005D01*
X134281635Y-110853787D01*
X134281636Y-110853787D01*
X134109419Y-110797831D01*
X134109406Y-110797828D01*
X133930547Y-110769500D01*
X133930546Y-110769500D01*
X133749454Y-110769500D01*
X133749453Y-110769500D01*
X133570593Y-110797828D01*
X133570580Y-110797831D01*
X133398364Y-110853787D01*
X133237004Y-110936005D01*
X133237003Y-110936005D01*
X133090503Y-111042444D01*
X133090499Y-111042447D01*
X132962447Y-111170499D01*
X132962444Y-111170502D01*
X132962444Y-111170503D01*
X132856005Y-111317003D01*
X132856005Y-111317004D01*
X132773787Y-111478364D01*
X132717831Y-111650580D01*
X132717828Y-111650593D01*
X132689500Y-111829453D01*
X126844935Y-111829453D01*
X126893095Y-111746036D01*
X126925499Y-111625103D01*
X126925500Y-111625103D01*
X126925500Y-111499897D01*
X126925499Y-111499896D01*
X126919729Y-111478364D01*
X126893095Y-111378964D01*
X126830495Y-111270536D01*
X126741964Y-111182005D01*
X126741963Y-111182004D01*
X126633534Y-111119404D01*
X126633536Y-111119404D01*
X126508789Y-111085978D01*
X126463856Y-111051500D01*
X126456464Y-110995347D01*
X126490942Y-110950414D01*
X126527942Y-110940500D01*
X129414634Y-110940500D01*
X129466960Y-110962174D01*
X129478719Y-110979774D01*
X129479480Y-110979336D01*
X129529991Y-111066826D01*
X129544505Y-111091964D01*
X129633036Y-111180495D01*
X129741464Y-111243095D01*
X129741463Y-111243095D01*
X129811286Y-111261804D01*
X129862396Y-111275499D01*
X129862397Y-111275500D01*
X129862399Y-111275500D01*
X129987603Y-111275500D01*
X129987603Y-111275499D01*
X130108536Y-111243095D01*
X130216964Y-111180495D01*
X130305495Y-111091964D01*
X130368095Y-110983536D01*
X130379712Y-110940178D01*
X130414189Y-110895248D01*
X130470342Y-110887854D01*
X130515275Y-110922332D01*
X130515276Y-110922333D01*
X130550612Y-110983537D01*
X130556553Y-110993827D01*
X130645084Y-111082358D01*
X130753512Y-111144958D01*
X130753511Y-111144958D01*
X130823334Y-111163667D01*
X130874444Y-111177362D01*
X130874445Y-111177363D01*
X130874447Y-111177363D01*
X130999651Y-111177363D01*
X130999651Y-111177362D01*
X131120584Y-111144958D01*
X131229012Y-111082358D01*
X131317543Y-110993827D01*
X131380143Y-110885399D01*
X131412547Y-110764466D01*
X131412548Y-110764466D01*
X131412548Y-110639260D01*
X131412547Y-110639259D01*
X131411915Y-110636902D01*
X131380143Y-110518327D01*
X131317543Y-110409899D01*
X131229012Y-110321368D01*
X131229011Y-110321367D01*
X131120582Y-110258767D01*
X131120584Y-110258767D01*
X130999651Y-110226363D01*
X130999649Y-110226363D01*
X130874447Y-110226363D01*
X130874445Y-110226363D01*
X130748828Y-110260023D01*
X130748201Y-110257685D01*
X130746257Y-110257684D01*
X130737742Y-110262638D01*
X130723018Y-110257667D01*
X130699473Y-110257651D01*
X130682986Y-110248162D01*
X130679027Y-110245145D01*
X130674296Y-110240414D01*
X130674296Y-110240413D01*
X130634772Y-110200889D01*
X130613382Y-110192029D01*
X130583133Y-110179499D01*
X130527237Y-110179499D01*
X130518625Y-110179499D01*
X130518617Y-110179500D01*
X129087672Y-110179500D01*
X129035346Y-110157826D01*
X128129822Y-109252302D01*
X128117934Y-109240414D01*
X128117934Y-109240413D01*
X128078410Y-109200889D01*
X128056862Y-109191964D01*
X128056860Y-109191963D01*
X128056860Y-109191962D01*
X128056857Y-109191962D01*
X128026771Y-109179499D01*
X127970875Y-109179499D01*
X127962263Y-109179499D01*
X127962255Y-109179500D01*
X125808849Y-109179500D01*
X125756523Y-109157826D01*
X125736093Y-109137396D01*
X128524500Y-109137396D01*
X128524500Y-109262603D01*
X128556904Y-109383535D01*
X128613853Y-109482174D01*
X128619505Y-109491964D01*
X128708036Y-109580495D01*
X128816464Y-109643095D01*
X128816463Y-109643095D01*
X128856661Y-109653866D01*
X128937396Y-109675499D01*
X128937397Y-109675500D01*
X128937399Y-109675500D01*
X129062603Y-109675500D01*
X129062603Y-109675499D01*
X129183536Y-109643095D01*
X129291964Y-109580495D01*
X129380495Y-109491964D01*
X129443095Y-109383536D01*
X129475499Y-109262603D01*
X129475500Y-109262603D01*
X129475500Y-109137397D01*
X129475499Y-109137396D01*
X129443095Y-109016464D01*
X129380495Y-108908036D01*
X129291963Y-108819504D01*
X129183534Y-108756904D01*
X129183536Y-108756904D01*
X129062603Y-108724500D01*
X129062601Y-108724500D01*
X128937399Y-108724500D01*
X128937397Y-108724500D01*
X128816464Y-108756904D01*
X128708036Y-108819504D01*
X128619504Y-108908036D01*
X128556904Y-109016464D01*
X128524500Y-109137396D01*
X125736093Y-109137396D01*
X124042658Y-107443961D01*
X124029111Y-107430414D01*
X124029111Y-107430413D01*
X123989587Y-107390889D01*
X123968197Y-107382029D01*
X123958811Y-107378141D01*
X123958810Y-107378140D01*
X123937948Y-107369499D01*
X123930061Y-107369499D01*
X123877735Y-107347825D01*
X123856061Y-107295499D01*
X123877735Y-107243173D01*
X123886421Y-107234487D01*
X123949021Y-107126059D01*
X123981425Y-107005126D01*
X123981426Y-107005126D01*
X123981426Y-106879922D01*
X123981024Y-106878423D01*
X123973699Y-106851086D01*
X123981090Y-106794935D01*
X123992847Y-106779611D01*
X124080495Y-106691964D01*
X124143095Y-106583536D01*
X124175499Y-106462603D01*
X124175500Y-106462603D01*
X124175500Y-106332548D01*
X124176980Y-106332548D01*
X124190211Y-106283145D01*
X124196591Y-106275867D01*
X124280495Y-106191964D01*
X124343095Y-106083536D01*
X124375499Y-105962603D01*
X124375500Y-105962603D01*
X124375500Y-105837398D01*
X124375489Y-105837315D01*
X124375500Y-105837273D01*
X124375500Y-105832549D01*
X124376766Y-105832549D01*
X124390144Y-105782607D01*
X124399269Y-105773483D01*
X124399123Y-105773337D01*
X124430497Y-105741963D01*
X124491084Y-105681376D01*
X124553684Y-105572948D01*
X124581450Y-105469326D01*
X124615927Y-105424394D01*
X124691964Y-105380495D01*
X124747674Y-105324785D01*
X124800000Y-105303111D01*
X124852326Y-105324785D01*
X124908036Y-105380495D01*
X125016464Y-105443095D01*
X125016463Y-105443095D01*
X125067846Y-105456863D01*
X125137396Y-105475499D01*
X125137397Y-105475500D01*
X125137399Y-105475500D01*
X125262603Y-105475500D01*
X125262603Y-105475499D01*
X125383536Y-105443095D01*
X125491964Y-105380495D01*
X125547674Y-105324785D01*
X125600000Y-105303111D01*
X125652326Y-105324785D01*
X125708036Y-105380495D01*
X125816464Y-105443095D01*
X125819650Y-105443948D01*
X125864583Y-105478423D01*
X125872502Y-105507973D01*
X125873867Y-105507794D01*
X125874500Y-105512603D01*
X125906904Y-105633535D01*
X125969504Y-105741963D01*
X126023967Y-105796426D01*
X126045641Y-105848752D01*
X126043120Y-105867903D01*
X126024500Y-105937398D01*
X126024500Y-106062603D01*
X126056904Y-106183535D01*
X126115744Y-106285451D01*
X126118265Y-106304601D01*
X126125658Y-106322450D01*
X126121830Y-106331689D01*
X126123136Y-106341603D01*
X126111377Y-106356926D01*
X126103984Y-106374776D01*
X126094744Y-106378603D01*
X126088657Y-106386536D01*
X126051658Y-106396450D01*
X125999618Y-106396450D01*
X125999610Y-106396449D01*
X125990998Y-106396449D01*
X125971857Y-106396449D01*
X125934858Y-106386535D01*
X125883534Y-106356904D01*
X125883536Y-106356904D01*
X125762603Y-106324500D01*
X125762601Y-106324500D01*
X125637399Y-106324500D01*
X125637397Y-106324500D01*
X125516464Y-106356904D01*
X125408036Y-106419504D01*
X125319504Y-106508036D01*
X125256904Y-106616464D01*
X125224500Y-106737396D01*
X125224500Y-106862603D01*
X125256904Y-106983535D01*
X125319504Y-107091963D01*
X125325215Y-107097674D01*
X125346889Y-107150000D01*
X125325215Y-107202326D01*
X125319504Y-107208036D01*
X125256904Y-107316464D01*
X125224500Y-107437396D01*
X125224500Y-107562603D01*
X125256904Y-107683535D01*
X125313698Y-107781905D01*
X125319505Y-107791964D01*
X125408036Y-107880495D01*
X125516464Y-107943095D01*
X125569654Y-107957347D01*
X125614586Y-107991825D01*
X125624500Y-108028825D01*
X125624500Y-108062603D01*
X125656904Y-108183535D01*
X125716985Y-108287599D01*
X125719505Y-108291964D01*
X125808036Y-108380495D01*
X125916464Y-108443095D01*
X125916463Y-108443095D01*
X125986286Y-108461804D01*
X126037396Y-108475499D01*
X126037397Y-108475500D01*
X126037399Y-108475500D01*
X126162603Y-108475500D01*
X126162603Y-108475499D01*
X126283536Y-108443095D01*
X126313000Y-108426084D01*
X126369152Y-108418691D01*
X126387000Y-108426084D01*
X126414927Y-108442208D01*
X126416464Y-108443095D01*
X126416465Y-108443095D01*
X126416467Y-108443096D01*
X126449451Y-108451934D01*
X126537396Y-108475499D01*
X126537397Y-108475500D01*
X126537399Y-108475500D01*
X126662603Y-108475500D01*
X126662603Y-108475499D01*
X126783536Y-108443095D01*
X126891964Y-108380495D01*
X126980495Y-108291964D01*
X127043095Y-108183536D01*
X127055458Y-108137399D01*
X127055459Y-108137396D01*
X127624500Y-108137396D01*
X127624500Y-108262603D01*
X127656904Y-108383535D01*
X127710000Y-108475500D01*
X127719505Y-108491964D01*
X127808036Y-108580495D01*
X127916464Y-108643095D01*
X127916463Y-108643095D01*
X127986286Y-108661804D01*
X128037396Y-108675499D01*
X128037397Y-108675500D01*
X128037399Y-108675500D01*
X128162603Y-108675500D01*
X128162603Y-108675499D01*
X128283536Y-108643095D01*
X128391964Y-108580495D01*
X128480495Y-108491964D01*
X128543095Y-108383536D01*
X128561716Y-108314039D01*
X128596194Y-108269108D01*
X128614034Y-108261718D01*
X128683536Y-108243095D01*
X128791964Y-108180495D01*
X128880495Y-108091964D01*
X128943095Y-107983536D01*
X128975499Y-107862603D01*
X128975500Y-107862603D01*
X128975500Y-107737400D01*
X128959236Y-107676702D01*
X128959236Y-107676700D01*
X128955403Y-107662396D01*
X129887000Y-107662396D01*
X129887000Y-107787603D01*
X129919404Y-107908535D01*
X129962706Y-107983536D01*
X129982005Y-108016964D01*
X130070536Y-108105495D01*
X130178964Y-108168095D01*
X130178963Y-108168095D01*
X130248786Y-108186804D01*
X130299896Y-108200499D01*
X130299897Y-108200500D01*
X130398158Y-108200500D01*
X130450484Y-108222174D01*
X130472158Y-108274500D01*
X130472158Y-108287603D01*
X130504562Y-108408535D01*
X130558785Y-108502452D01*
X130567163Y-108516964D01*
X130655694Y-108605495D01*
X130764122Y-108668095D01*
X130764121Y-108668095D01*
X130791757Y-108675500D01*
X130885054Y-108700499D01*
X130885055Y-108700500D01*
X130964743Y-108700500D01*
X131017069Y-108722174D01*
X131038743Y-108774500D01*
X131036222Y-108793653D01*
X131024500Y-108837400D01*
X131024500Y-108962603D01*
X131056904Y-109083535D01*
X131119503Y-109191962D01*
X131119504Y-109191963D01*
X131119505Y-109191964D01*
X131208036Y-109280495D01*
X131316464Y-109343095D01*
X131316463Y-109343095D01*
X131386286Y-109361804D01*
X131437396Y-109375499D01*
X131437397Y-109375500D01*
X131437399Y-109375500D01*
X131562603Y-109375500D01*
X131562603Y-109375499D01*
X131683536Y-109343095D01*
X131776448Y-109289453D01*
X132689500Y-109289453D01*
X132689500Y-109470546D01*
X132717828Y-109649406D01*
X132717831Y-109649419D01*
X132773787Y-109821635D01*
X132773788Y-109821638D01*
X132773789Y-109821639D01*
X132854363Y-109979774D01*
X132856005Y-109982995D01*
X132856005Y-109982996D01*
X132900420Y-110044128D01*
X132962447Y-110129501D01*
X133090499Y-110257553D01*
X133237006Y-110363996D01*
X133398361Y-110446211D01*
X133398364Y-110446212D01*
X133398363Y-110446212D01*
X133570580Y-110502168D01*
X133570586Y-110502169D01*
X133570591Y-110502171D01*
X133689833Y-110521057D01*
X133749453Y-110530500D01*
X133749454Y-110530500D01*
X133930547Y-110530500D01*
X133975261Y-110523417D01*
X134109409Y-110502171D01*
X134109416Y-110502168D01*
X134109419Y-110502168D01*
X134237661Y-110460500D01*
X134281639Y-110446211D01*
X134442994Y-110363996D01*
X134589501Y-110257553D01*
X134717553Y-110129501D01*
X134823996Y-109982994D01*
X134906211Y-109821639D01*
X134953694Y-109675499D01*
X134962168Y-109649419D01*
X134962168Y-109649416D01*
X134962171Y-109649409D01*
X134990500Y-109470546D01*
X134990500Y-109289454D01*
X134962171Y-109110591D01*
X134962169Y-109110586D01*
X134962168Y-109110580D01*
X134906212Y-108938364D01*
X134906211Y-108938363D01*
X134906211Y-108938361D01*
X134823996Y-108777006D01*
X134717553Y-108630499D01*
X134589501Y-108502447D01*
X134460242Y-108408535D01*
X134442996Y-108396005D01*
X134316098Y-108331347D01*
X134281639Y-108313789D01*
X134281638Y-108313788D01*
X134281635Y-108313787D01*
X134281636Y-108313787D01*
X134109419Y-108257831D01*
X134109406Y-108257828D01*
X133930547Y-108229500D01*
X133930546Y-108229500D01*
X133749454Y-108229500D01*
X133749453Y-108229500D01*
X133570593Y-108257828D01*
X133570580Y-108257831D01*
X133398364Y-108313787D01*
X133237004Y-108396005D01*
X133237003Y-108396005D01*
X133090503Y-108502444D01*
X133090499Y-108502447D01*
X132962447Y-108630499D01*
X132962444Y-108630502D01*
X132962444Y-108630503D01*
X132856005Y-108777003D01*
X132856005Y-108777004D01*
X132773787Y-108938364D01*
X132717831Y-109110580D01*
X132717828Y-109110593D01*
X132689500Y-109289453D01*
X131776448Y-109289453D01*
X131791964Y-109280495D01*
X131880495Y-109191964D01*
X131880496Y-109191962D01*
X131880497Y-109191962D01*
X131927481Y-109110580D01*
X131943095Y-109083536D01*
X131975499Y-108962603D01*
X131975500Y-108962603D01*
X131975500Y-108837397D01*
X131975499Y-108837396D01*
X131943095Y-108716464D01*
X131880495Y-108608036D01*
X131791963Y-108519504D01*
X131683534Y-108456904D01*
X131683536Y-108456904D01*
X131562603Y-108424500D01*
X131562601Y-108424500D01*
X131482915Y-108424500D01*
X131430589Y-108402826D01*
X131408915Y-108350500D01*
X131411436Y-108331347D01*
X131416141Y-108313787D01*
X131423158Y-108287601D01*
X131423158Y-108162399D01*
X131423158Y-108162397D01*
X131423157Y-108162396D01*
X131410849Y-108116464D01*
X131390753Y-108041464D01*
X131328153Y-107933036D01*
X131239622Y-107844505D01*
X131239621Y-107844504D01*
X131131192Y-107781904D01*
X131131194Y-107781904D01*
X131010261Y-107749500D01*
X131010259Y-107749500D01*
X130912000Y-107749500D01*
X130859674Y-107727826D01*
X130838000Y-107675500D01*
X130838000Y-107662397D01*
X130837999Y-107662396D01*
X130825691Y-107616464D01*
X130805595Y-107541464D01*
X130742995Y-107433036D01*
X130654464Y-107344505D01*
X130654463Y-107344504D01*
X130546034Y-107281904D01*
X130546036Y-107281904D01*
X130425103Y-107249500D01*
X130425101Y-107249500D01*
X130299899Y-107249500D01*
X130299897Y-107249500D01*
X130178964Y-107281904D01*
X130070536Y-107344504D01*
X129982004Y-107433036D01*
X129919404Y-107541464D01*
X129887000Y-107662396D01*
X128955403Y-107662396D01*
X128943095Y-107616463D01*
X128880495Y-107508036D01*
X128791963Y-107419504D01*
X128712584Y-107373676D01*
X128683536Y-107356905D01*
X128683535Y-107356904D01*
X128683536Y-107356904D01*
X128562603Y-107324500D01*
X128562601Y-107324500D01*
X128437399Y-107324500D01*
X128437397Y-107324500D01*
X128316464Y-107356904D01*
X128208036Y-107419504D01*
X128119504Y-107508036D01*
X128056904Y-107616464D01*
X128038282Y-107685958D01*
X128003802Y-107730891D01*
X127985958Y-107738282D01*
X127916464Y-107756904D01*
X127808036Y-107819504D01*
X127719504Y-107908036D01*
X127656904Y-108016464D01*
X127624500Y-108137396D01*
X127055459Y-108137396D01*
X127061890Y-108113396D01*
X127075499Y-108062603D01*
X127075500Y-108062603D01*
X127075500Y-107937397D01*
X127075499Y-107937396D01*
X127049535Y-107840500D01*
X127043095Y-107816464D01*
X126980495Y-107708036D01*
X126937903Y-107665444D01*
X126916229Y-107613118D01*
X126937902Y-107560793D01*
X127915189Y-106583507D01*
X127967512Y-106561835D01*
X128019838Y-106583509D01*
X128038990Y-106616681D01*
X128056904Y-106683536D01*
X128119504Y-106791963D01*
X128119505Y-106791964D01*
X128208036Y-106880495D01*
X128316464Y-106943095D01*
X128316463Y-106943095D01*
X128331593Y-106947149D01*
X128437396Y-106975499D01*
X128437397Y-106975500D01*
X128437399Y-106975500D01*
X128562603Y-106975500D01*
X128562603Y-106975499D01*
X128668407Y-106947149D01*
X128683533Y-106943096D01*
X128683533Y-106943095D01*
X128683536Y-106943095D01*
X128791964Y-106880495D01*
X128791966Y-106880492D01*
X128795551Y-106878423D01*
X128851704Y-106871031D01*
X128896637Y-106905509D01*
X128904029Y-106923355D01*
X128907726Y-106937153D01*
X128946969Y-107005124D01*
X128970327Y-107045582D01*
X129058858Y-107134113D01*
X129167286Y-107196713D01*
X129167285Y-107196713D01*
X129209543Y-107208036D01*
X129288218Y-107229117D01*
X129288219Y-107229118D01*
X129288221Y-107229118D01*
X129413425Y-107229118D01*
X129413425Y-107229117D01*
X129534358Y-107196713D01*
X129642786Y-107134113D01*
X129731317Y-107045582D01*
X129793917Y-106937154D01*
X129826321Y-106816221D01*
X129826322Y-106816221D01*
X129826322Y-106691015D01*
X129826321Y-106691014D01*
X129822686Y-106677450D01*
X129793917Y-106570082D01*
X129731317Y-106461654D01*
X129642786Y-106373123D01*
X129642785Y-106373122D01*
X129534356Y-106310522D01*
X129534357Y-106310522D01*
X129489457Y-106298491D01*
X129444524Y-106264012D01*
X129437132Y-106207860D01*
X129444522Y-106190016D01*
X129467631Y-106149991D01*
X129470563Y-106139051D01*
X129500035Y-106029058D01*
X129500036Y-106029058D01*
X129500036Y-105903852D01*
X129500035Y-105903851D01*
X129482343Y-105837826D01*
X129467631Y-105782919D01*
X129443986Y-105741964D01*
X129405033Y-105674493D01*
X129364318Y-105633778D01*
X130461178Y-105633778D01*
X130461178Y-105758985D01*
X130493582Y-105879917D01*
X130541229Y-105962444D01*
X130556183Y-105988346D01*
X130644714Y-106076877D01*
X130698684Y-106108036D01*
X130740704Y-106132296D01*
X130775182Y-106177229D01*
X130767790Y-106233382D01*
X130740704Y-106260468D01*
X130644713Y-106315887D01*
X130556182Y-106404418D01*
X130493582Y-106512846D01*
X130461178Y-106633778D01*
X130461178Y-106758985D01*
X130493582Y-106879917D01*
X130548766Y-106975499D01*
X130556183Y-106988346D01*
X130644714Y-107076877D01*
X130753142Y-107139477D01*
X130753141Y-107139477D01*
X130822964Y-107158186D01*
X130874074Y-107171881D01*
X130874075Y-107171882D01*
X130874077Y-107171882D01*
X130999281Y-107171882D01*
X130999281Y-107171881D01*
X131120214Y-107139477D01*
X131228642Y-107076877D01*
X131317173Y-106988346D01*
X131379773Y-106879918D01*
X131412177Y-106758985D01*
X131412178Y-106758985D01*
X131412178Y-106633779D01*
X131412177Y-106633778D01*
X131395246Y-106570593D01*
X131379773Y-106512846D01*
X131317173Y-106404418D01*
X131228642Y-106315887D01*
X131228641Y-106315886D01*
X131132652Y-106260468D01*
X131098173Y-106215535D01*
X131105565Y-106159383D01*
X131132652Y-106132296D01*
X131174672Y-106108036D01*
X131228642Y-106076877D01*
X131317173Y-105988346D01*
X131379773Y-105879918D01*
X131412177Y-105758985D01*
X131412178Y-105758985D01*
X131412178Y-105633779D01*
X131412177Y-105633778D01*
X131405279Y-105608036D01*
X131379773Y-105512846D01*
X131317173Y-105404418D01*
X131228642Y-105315887D01*
X131228641Y-105315886D01*
X131120212Y-105253286D01*
X131120214Y-105253286D01*
X130999281Y-105220882D01*
X130999279Y-105220882D01*
X130874077Y-105220882D01*
X130874075Y-105220882D01*
X130753142Y-105253286D01*
X130644714Y-105315886D01*
X130556182Y-105404418D01*
X130493582Y-105512846D01*
X130461178Y-105633778D01*
X129364318Y-105633778D01*
X129316499Y-105585959D01*
X129208072Y-105523359D01*
X129148322Y-105507349D01*
X129103390Y-105472870D01*
X129095998Y-105416717D01*
X129115147Y-105383549D01*
X129359585Y-105139111D01*
X129359587Y-105139111D01*
X129399111Y-105099587D01*
X129418520Y-105052727D01*
X129420500Y-105047948D01*
X129420500Y-104992053D01*
X129420500Y-104162358D01*
X130123907Y-104162358D01*
X130123907Y-104287565D01*
X130156311Y-104408497D01*
X130199635Y-104483536D01*
X130218912Y-104516926D01*
X130307443Y-104605457D01*
X130415871Y-104668057D01*
X130415870Y-104668057D01*
X130462289Y-104680495D01*
X130536803Y-104700461D01*
X130536804Y-104700462D01*
X130536806Y-104700462D01*
X130662010Y-104700462D01*
X130662010Y-104700461D01*
X130782943Y-104668057D01*
X130891371Y-104605457D01*
X130979902Y-104516926D01*
X131042502Y-104408498D01*
X131074906Y-104287565D01*
X131074907Y-104287565D01*
X131074907Y-104162361D01*
X131069894Y-104143652D01*
X131077287Y-104087500D01*
X131122221Y-104053021D01*
X131141373Y-104050500D01*
X131172477Y-104050500D01*
X131172477Y-104050499D01*
X131312485Y-104012984D01*
X131438015Y-103940509D01*
X131540509Y-103838015D01*
X131612984Y-103712485D01*
X131650499Y-103572477D01*
X131650500Y-103572477D01*
X131650500Y-103427523D01*
X131650499Y-103427522D01*
X131650317Y-103426844D01*
X131631742Y-103357520D01*
X131612985Y-103287518D01*
X131612983Y-103287513D01*
X131581964Y-103233787D01*
X131540509Y-103161985D01*
X131438015Y-103059491D01*
X131312486Y-102987016D01*
X131312481Y-102987014D01*
X131172477Y-102949500D01*
X131172475Y-102949500D01*
X131027525Y-102949500D01*
X131027523Y-102949500D01*
X130887518Y-102987014D01*
X130887513Y-102987016D01*
X130761984Y-103059491D01*
X130659491Y-103161984D01*
X130587016Y-103287513D01*
X130587014Y-103287518D01*
X130549500Y-103427522D01*
X130549500Y-103572477D01*
X130573743Y-103662953D01*
X130566351Y-103719106D01*
X130521418Y-103753584D01*
X130415871Y-103781866D01*
X130307443Y-103844466D01*
X130218911Y-103932998D01*
X130156311Y-104041426D01*
X130123907Y-104162358D01*
X129420500Y-104162358D01*
X129420500Y-101007950D01*
X129420501Y-101007948D01*
X129420501Y-100952052D01*
X129420202Y-100951330D01*
X129420166Y-100943415D01*
X129426464Y-100928011D01*
X129430080Y-100906077D01*
X129443095Y-100883536D01*
X129475499Y-100762603D01*
X129475500Y-100762603D01*
X129475500Y-100637397D01*
X129475499Y-100637396D01*
X129443095Y-100516464D01*
X129380495Y-100408036D01*
X129291963Y-100319504D01*
X129183534Y-100256904D01*
X129183536Y-100256904D01*
X129062603Y-100224500D01*
X129062601Y-100224500D01*
X128937399Y-100224500D01*
X128937397Y-100224500D01*
X128816464Y-100256904D01*
X128708036Y-100319504D01*
X128619504Y-100408036D01*
X128556904Y-100516464D01*
X128524500Y-100637396D01*
X128524500Y-100767451D01*
X128523025Y-100767451D01*
X128509777Y-100816870D01*
X128503400Y-100824141D01*
X128419504Y-100908036D01*
X128356904Y-101016464D01*
X128324500Y-101137396D01*
X128324500Y-101267451D01*
X128323025Y-101267451D01*
X128309777Y-101316870D01*
X128303400Y-101324141D01*
X128219504Y-101408036D01*
X128156904Y-101516464D01*
X128124500Y-101637396D01*
X128124500Y-101762603D01*
X128156904Y-101883535D01*
X128194411Y-101948500D01*
X128196932Y-101967650D01*
X128204325Y-101985498D01*
X128200497Y-101994737D01*
X128201803Y-102004652D01*
X128190044Y-102019975D01*
X128182652Y-102037824D01*
X128173411Y-102041651D01*
X128167324Y-102049585D01*
X128130326Y-102059499D01*
X128127948Y-102059499D01*
X128072052Y-102059499D01*
X128072050Y-102059499D01*
X128063433Y-102059500D01*
X128063432Y-102059499D01*
X128063432Y-102059500D01*
X127638204Y-102059500D01*
X127585878Y-102037826D01*
X127566726Y-102004653D01*
X127543095Y-101916464D01*
X127480495Y-101808036D01*
X127391963Y-101719504D01*
X127283534Y-101656904D01*
X127283536Y-101656904D01*
X127162603Y-101624500D01*
X127162601Y-101624500D01*
X127037399Y-101624500D01*
X127037397Y-101624500D01*
X126916464Y-101656904D01*
X126808036Y-101719504D01*
X126752326Y-101775215D01*
X126700000Y-101796889D01*
X126647674Y-101775215D01*
X126591963Y-101719504D01*
X126483534Y-101656904D01*
X126483536Y-101656904D01*
X126362603Y-101624500D01*
X126362601Y-101624500D01*
X126237399Y-101624500D01*
X126237397Y-101624500D01*
X126116464Y-101656904D01*
X126008036Y-101719504D01*
X125919504Y-101808036D01*
X125856904Y-101916464D01*
X125824500Y-102037396D01*
X125824500Y-102162603D01*
X125856904Y-102283535D01*
X125902781Y-102362996D01*
X125919505Y-102391964D01*
X126008036Y-102480495D01*
X126116464Y-102543095D01*
X126116463Y-102543095D01*
X126186286Y-102561804D01*
X126237396Y-102575499D01*
X126237397Y-102575500D01*
X126237399Y-102575500D01*
X126362603Y-102575500D01*
X126362603Y-102575499D01*
X126483536Y-102543095D01*
X126591964Y-102480495D01*
X126647674Y-102424785D01*
X126700000Y-102403111D01*
X126752326Y-102424785D01*
X126808036Y-102480495D01*
X126916464Y-102543095D01*
X126916463Y-102543095D01*
X126986286Y-102561804D01*
X127037396Y-102575499D01*
X127037397Y-102575500D01*
X127037399Y-102575500D01*
X127162603Y-102575500D01*
X127162603Y-102575499D01*
X127283536Y-102543095D01*
X127391964Y-102480495D01*
X127480495Y-102391964D01*
X127488844Y-102377501D01*
X127533776Y-102343022D01*
X127552931Y-102340500D01*
X128011151Y-102340500D01*
X128063477Y-102362174D01*
X128537826Y-102836523D01*
X128559500Y-102888849D01*
X128559500Y-104673751D01*
X128537826Y-104726077D01*
X128066826Y-105197077D01*
X128014500Y-105218751D01*
X127962174Y-105197077D01*
X127940500Y-105144751D01*
X127940500Y-104810366D01*
X127962174Y-104758040D01*
X127979774Y-104746280D01*
X127979336Y-104745520D01*
X128038756Y-104711214D01*
X128091964Y-104680495D01*
X128180495Y-104591964D01*
X128243095Y-104483536D01*
X128275499Y-104362603D01*
X128275500Y-104362603D01*
X128275500Y-104237397D01*
X128275499Y-104237396D01*
X128273649Y-104230493D01*
X128243095Y-104116464D01*
X128180495Y-104008036D01*
X128091964Y-103919505D01*
X128091963Y-103919504D01*
X128001629Y-103867351D01*
X127983536Y-103856905D01*
X127983535Y-103856904D01*
X127983536Y-103856904D01*
X127862603Y-103824500D01*
X127862601Y-103824500D01*
X127737399Y-103824500D01*
X127737397Y-103824500D01*
X127616464Y-103856904D01*
X127508036Y-103919504D01*
X127478903Y-103948636D01*
X127426577Y-103970308D01*
X127389581Y-103960395D01*
X127383534Y-103956904D01*
X127262603Y-103924500D01*
X127262601Y-103924500D01*
X127137399Y-103924500D01*
X127137397Y-103924500D01*
X127016464Y-103956904D01*
X126908036Y-104019504D01*
X126819504Y-104108036D01*
X126756904Y-104216464D01*
X126724500Y-104337396D01*
X126724500Y-104462603D01*
X126756904Y-104583535D01*
X126808990Y-104673751D01*
X126819505Y-104691964D01*
X126908036Y-104780495D01*
X127016464Y-104843095D01*
X127016463Y-104843095D01*
X127040367Y-104849500D01*
X127137396Y-104875499D01*
X127137397Y-104875500D01*
X127137399Y-104875500D01*
X127262603Y-104875500D01*
X127262603Y-104875499D01*
X127383536Y-104843095D01*
X127491964Y-104780495D01*
X127521093Y-104751364D01*
X127538335Y-104744222D01*
X127552929Y-104732583D01*
X127563358Y-104733856D01*
X127573417Y-104729690D01*
X127609210Y-104738921D01*
X127609778Y-104739235D01*
X127616464Y-104743095D01*
X127617045Y-104743250D01*
X127621291Y-104745597D01*
X127636556Y-104764736D01*
X127653866Y-104782045D01*
X127655030Y-104787899D01*
X127656607Y-104789876D01*
X127656179Y-104793673D01*
X127659500Y-104810366D01*
X127659500Y-105305051D01*
X127637826Y-105357377D01*
X127157377Y-105837826D01*
X127105051Y-105859500D01*
X127010366Y-105859500D01*
X126958040Y-105837826D01*
X126946280Y-105820225D01*
X126945520Y-105820664D01*
X126880495Y-105708036D01*
X126826031Y-105653572D01*
X126804357Y-105601246D01*
X126806878Y-105582095D01*
X126824608Y-105515931D01*
X126825500Y-105512602D01*
X126825500Y-105387397D01*
X126825499Y-105387396D01*
X126819822Y-105366211D01*
X126793095Y-105266464D01*
X126730495Y-105158036D01*
X126641964Y-105069505D01*
X126641963Y-105069504D01*
X126533535Y-105006904D01*
X126530346Y-105006050D01*
X126485413Y-104971571D01*
X126477497Y-104942026D01*
X126476133Y-104942206D01*
X126475500Y-104937403D01*
X126475500Y-104937399D01*
X126443095Y-104816464D01*
X126380495Y-104708036D01*
X126291964Y-104619505D01*
X126291963Y-104619504D01*
X126183534Y-104556904D01*
X126183536Y-104556904D01*
X126062603Y-104524500D01*
X126062601Y-104524500D01*
X125937399Y-104524500D01*
X125937397Y-104524500D01*
X125816464Y-104556904D01*
X125708036Y-104619504D01*
X125652326Y-104675215D01*
X125600000Y-104696889D01*
X125547674Y-104675215D01*
X125491963Y-104619504D01*
X125383534Y-104556904D01*
X125383536Y-104556904D01*
X125262603Y-104524500D01*
X125262601Y-104524500D01*
X125137399Y-104524500D01*
X125137397Y-104524500D01*
X125016464Y-104556904D01*
X124908036Y-104619504D01*
X124852326Y-104675215D01*
X124800000Y-104696889D01*
X124747674Y-104675215D01*
X124691963Y-104619504D01*
X124583534Y-104556904D01*
X124583536Y-104556904D01*
X124462603Y-104524500D01*
X124462601Y-104524500D01*
X124337399Y-104524500D01*
X124337397Y-104524500D01*
X124216464Y-104556904D01*
X124108036Y-104619504D01*
X124019504Y-104708036D01*
X123956904Y-104816463D01*
X123929138Y-104920085D01*
X123894661Y-104965016D01*
X123818625Y-105008916D01*
X123730093Y-105097448D01*
X123667493Y-105205876D01*
X123635089Y-105326808D01*
X123635089Y-105452016D01*
X123635101Y-105452108D01*
X123635089Y-105452152D01*
X123635089Y-105456863D01*
X123633826Y-105456863D01*
X123620436Y-105506814D01*
X123611321Y-105515931D01*
X123611466Y-105516076D01*
X123608038Y-105519503D01*
X123608036Y-105519505D01*
X123565484Y-105562056D01*
X123519503Y-105608037D01*
X123456904Y-105716464D01*
X123424500Y-105837396D01*
X123424500Y-105967451D01*
X123423025Y-105967451D01*
X123409777Y-106016870D01*
X123403400Y-106024141D01*
X123319504Y-106108036D01*
X123256904Y-106216464D01*
X123224500Y-106337396D01*
X123224500Y-106462603D01*
X123232226Y-106491437D01*
X123224834Y-106547590D01*
X123213074Y-106562916D01*
X123125430Y-106650559D01*
X123062830Y-106758986D01*
X123049392Y-106809139D01*
X123014913Y-106854071D01*
X122958760Y-106861463D01*
X122925588Y-106842311D01*
X120985103Y-104901826D01*
X120963429Y-104849500D01*
X120985103Y-104797174D01*
X121037429Y-104775500D01*
X121062603Y-104775500D01*
X121062603Y-104775499D01*
X121183536Y-104743095D01*
X121291964Y-104680495D01*
X121380495Y-104591964D01*
X121443095Y-104483536D01*
X121475499Y-104362603D01*
X121475500Y-104362603D01*
X121475500Y-104237397D01*
X121475499Y-104237396D01*
X121473649Y-104230493D01*
X121443095Y-104116464D01*
X121405011Y-104050499D01*
X121378070Y-104003835D01*
X121380288Y-104002554D01*
X121367766Y-103955863D01*
X121396074Y-103906808D01*
X121450778Y-103892137D01*
X121460288Y-103894028D01*
X121481008Y-103899579D01*
X121500737Y-103904866D01*
X121500738Y-103904867D01*
X121500740Y-103904867D01*
X121645692Y-103904867D01*
X121645692Y-103904866D01*
X121785700Y-103867351D01*
X121911230Y-103794876D01*
X122013724Y-103692382D01*
X122086199Y-103566852D01*
X122123714Y-103426844D01*
X122123715Y-103426844D01*
X122123715Y-103281890D01*
X122123714Y-103281889D01*
X122086200Y-103141885D01*
X122086198Y-103141880D01*
X122013723Y-103016351D01*
X121911230Y-102913858D01*
X121785701Y-102841383D01*
X121785696Y-102841381D01*
X121645692Y-102803867D01*
X121645690Y-102803867D01*
X121500740Y-102803867D01*
X121441948Y-102819620D01*
X121385796Y-102812227D01*
X121351317Y-102767293D01*
X121358710Y-102711141D01*
X121385798Y-102684054D01*
X121391964Y-102680495D01*
X121480495Y-102591964D01*
X121543095Y-102483536D01*
X121575499Y-102362603D01*
X121575500Y-102362603D01*
X121575500Y-102237397D01*
X121575499Y-102237396D01*
X121558799Y-102175073D01*
X121543095Y-102116464D01*
X121480495Y-102008036D01*
X121424785Y-101952326D01*
X121403111Y-101900000D01*
X121424785Y-101847674D01*
X121430639Y-101841820D01*
X121480495Y-101791964D01*
X121543095Y-101683536D01*
X121575499Y-101562603D01*
X121575500Y-101562603D01*
X121575500Y-101447522D01*
X123049500Y-101447522D01*
X123049500Y-101592477D01*
X123087014Y-101732481D01*
X123087016Y-101732486D01*
X123150141Y-101841820D01*
X123159491Y-101858015D01*
X123261985Y-101960509D01*
X123387515Y-102032984D01*
X123387516Y-102032984D01*
X123387518Y-102032985D01*
X123405585Y-102037826D01*
X123527522Y-102070499D01*
X123527523Y-102070500D01*
X123527525Y-102070500D01*
X123672477Y-102070500D01*
X123672477Y-102070499D01*
X123812485Y-102032984D01*
X123938015Y-101960509D01*
X124040509Y-101858015D01*
X124112984Y-101732485D01*
X124150499Y-101592477D01*
X124150500Y-101592477D01*
X124150500Y-101447523D01*
X124150499Y-101447522D01*
X124112985Y-101307518D01*
X124112983Y-101307513D01*
X124056696Y-101210022D01*
X124040509Y-101181985D01*
X123938015Y-101079491D01*
X123892095Y-101052979D01*
X123812486Y-101007016D01*
X123812481Y-101007014D01*
X123672477Y-100969500D01*
X123672475Y-100969500D01*
X123527525Y-100969500D01*
X123527523Y-100969500D01*
X123387518Y-101007014D01*
X123387513Y-101007016D01*
X123261984Y-101079491D01*
X123159491Y-101181984D01*
X123087016Y-101307513D01*
X123087014Y-101307518D01*
X123049500Y-101447522D01*
X121575500Y-101447522D01*
X121575500Y-101437397D01*
X121575499Y-101437396D01*
X121543095Y-101316464D01*
X121480495Y-101208036D01*
X121414763Y-101142304D01*
X121393089Y-101089978D01*
X121403003Y-101052979D01*
X121429540Y-101007014D01*
X121443095Y-100983536D01*
X121475499Y-100862603D01*
X121475500Y-100862603D01*
X121475500Y-100737397D01*
X121475499Y-100737396D01*
X121463814Y-100693789D01*
X121443095Y-100616464D01*
X121380495Y-100508036D01*
X121309855Y-100437396D01*
X126224500Y-100437396D01*
X126224500Y-100562603D01*
X126256904Y-100683535D01*
X126310291Y-100776004D01*
X126319505Y-100791964D01*
X126408036Y-100880495D01*
X126516464Y-100943095D01*
X126516463Y-100943095D01*
X126549891Y-100952052D01*
X126637396Y-100975499D01*
X126637397Y-100975500D01*
X126637399Y-100975500D01*
X126762603Y-100975500D01*
X126762603Y-100975499D01*
X126883536Y-100943095D01*
X126991964Y-100880495D01*
X127080495Y-100791964D01*
X127143095Y-100683536D01*
X127175499Y-100562603D01*
X127175500Y-100562603D01*
X127175500Y-100437397D01*
X127175499Y-100437396D01*
X127143095Y-100316464D01*
X127080495Y-100208036D01*
X126991963Y-100119504D01*
X126883534Y-100056904D01*
X126883536Y-100056904D01*
X126762603Y-100024500D01*
X126762601Y-100024500D01*
X126637399Y-100024500D01*
X126637397Y-100024500D01*
X126516464Y-100056904D01*
X126408036Y-100119504D01*
X126319504Y-100208036D01*
X126256904Y-100316464D01*
X126224500Y-100437396D01*
X121309855Y-100437396D01*
X121291964Y-100419505D01*
X121291963Y-100419504D01*
X121183534Y-100356904D01*
X121183536Y-100356904D01*
X121062603Y-100324500D01*
X121062601Y-100324500D01*
X120937399Y-100324500D01*
X120937397Y-100324500D01*
X120816464Y-100356904D01*
X120708036Y-100419504D01*
X120619504Y-100508036D01*
X120556904Y-100616464D01*
X120524500Y-100737396D01*
X120524500Y-100862603D01*
X120556904Y-100983535D01*
X120619504Y-101091963D01*
X120685237Y-101157696D01*
X120706911Y-101210022D01*
X120696997Y-101247021D01*
X120656904Y-101316464D01*
X120624500Y-101437396D01*
X120624500Y-101562603D01*
X120656904Y-101683535D01*
X120719504Y-101791963D01*
X120775215Y-101847674D01*
X120796889Y-101900000D01*
X120775215Y-101952326D01*
X120719504Y-102008036D01*
X120656904Y-102116464D01*
X120624500Y-102237396D01*
X120624500Y-102362603D01*
X120656904Y-102483535D01*
X120710000Y-102575500D01*
X120719505Y-102591964D01*
X120808036Y-102680495D01*
X120916464Y-102743095D01*
X120916463Y-102743095D01*
X120986286Y-102761804D01*
X121037396Y-102775499D01*
X121037397Y-102775500D01*
X121037399Y-102775500D01*
X121162601Y-102775500D01*
X121202319Y-102764857D01*
X121258469Y-102772248D01*
X121292949Y-102817180D01*
X121285558Y-102873333D01*
X121258474Y-102900419D01*
X121235200Y-102913857D01*
X121132706Y-103016351D01*
X121060231Y-103141880D01*
X121060229Y-103141885D01*
X121022715Y-103281889D01*
X121022715Y-103334361D01*
X121001041Y-103386687D01*
X120948715Y-103408361D01*
X120929562Y-103405840D01*
X120887341Y-103394527D01*
X120812601Y-103374500D01*
X120687399Y-103374500D01*
X120687397Y-103374500D01*
X120566464Y-103406904D01*
X120458036Y-103469504D01*
X120369504Y-103558036D01*
X120306904Y-103666464D01*
X120274500Y-103787396D01*
X120274500Y-103912603D01*
X120306904Y-104033535D01*
X120354783Y-104116464D01*
X120369505Y-104141964D01*
X120458036Y-104230495D01*
X120487500Y-104247505D01*
X120521978Y-104292437D01*
X120524500Y-104311591D01*
X120524500Y-104362603D01*
X120556904Y-104483535D01*
X120619504Y-104591963D01*
X120637826Y-104610285D01*
X120659500Y-104662611D01*
X120659500Y-104887469D01*
X120659499Y-104887472D01*
X120659499Y-104943368D01*
X120672029Y-104973617D01*
X120675486Y-104981964D01*
X120675487Y-104981967D01*
X120680888Y-104995006D01*
X120730820Y-105044938D01*
X120730822Y-105044939D01*
X123119057Y-107433174D01*
X123140731Y-107485500D01*
X123119057Y-107537826D01*
X123066731Y-107559500D01*
X120910366Y-107559500D01*
X120858040Y-107537826D01*
X120846280Y-107520225D01*
X120845520Y-107520664D01*
X120780495Y-107408036D01*
X120691963Y-107319504D01*
X120583534Y-107256904D01*
X120583536Y-107256904D01*
X120462603Y-107224500D01*
X120462601Y-107224500D01*
X120449500Y-107224500D01*
X120397174Y-107202826D01*
X120375500Y-107150500D01*
X120375500Y-107137397D01*
X120375499Y-107137396D01*
X120374619Y-107134113D01*
X120343095Y-107016464D01*
X120280495Y-106908036D01*
X120191964Y-106819505D01*
X120191963Y-106819504D01*
X120087140Y-106758986D01*
X120083536Y-106756905D01*
X120083535Y-106756904D01*
X120083536Y-106756904D01*
X119962603Y-106724500D01*
X119962601Y-106724500D01*
X119837399Y-106724500D01*
X119837398Y-106724500D01*
X119829625Y-106726582D01*
X119773473Y-106719185D01*
X119738998Y-106674249D01*
X119737389Y-106666678D01*
X119734836Y-106650559D01*
X119722171Y-106570591D01*
X119722169Y-106570586D01*
X119722168Y-106570580D01*
X119666212Y-106398364D01*
X119666211Y-106398363D01*
X119666211Y-106398361D01*
X119583996Y-106237006D01*
X119568396Y-106215535D01*
X119545147Y-106183535D01*
X119477553Y-106090499D01*
X119349501Y-105962447D01*
X119257452Y-105895570D01*
X119202996Y-105856005D01*
X119078312Y-105792475D01*
X119041639Y-105773789D01*
X119041638Y-105773788D01*
X119041635Y-105773787D01*
X119041636Y-105773787D01*
X118869419Y-105717831D01*
X118869406Y-105717828D01*
X118690547Y-105689500D01*
X118690546Y-105689500D01*
X118509454Y-105689500D01*
X118509453Y-105689500D01*
X118330593Y-105717828D01*
X118330580Y-105717831D01*
X118158364Y-105773787D01*
X117997004Y-105856005D01*
X117997003Y-105856005D01*
X117850503Y-105962444D01*
X117850499Y-105962447D01*
X117722447Y-106090499D01*
X117722444Y-106090502D01*
X117722444Y-106090503D01*
X117616005Y-106237003D01*
X117616005Y-106237004D01*
X117533787Y-106398364D01*
X117477831Y-106570580D01*
X117477828Y-106570593D01*
X117449500Y-106749453D01*
X116800500Y-106749453D01*
X116800500Y-104209453D01*
X117449500Y-104209453D01*
X117449500Y-104390546D01*
X117477828Y-104569406D01*
X117477831Y-104569419D01*
X117533787Y-104741635D01*
X117533788Y-104741638D01*
X117533789Y-104741639D01*
X117608095Y-104887472D01*
X117616005Y-104902995D01*
X117616005Y-104902996D01*
X117644362Y-104942026D01*
X117722447Y-105049501D01*
X117850499Y-105177553D01*
X117997006Y-105283996D01*
X118158361Y-105366211D01*
X118158364Y-105366212D01*
X118158363Y-105366212D01*
X118330580Y-105422168D01*
X118330586Y-105422169D01*
X118330591Y-105422171D01*
X118449833Y-105441057D01*
X118509453Y-105450500D01*
X118509454Y-105450500D01*
X118690547Y-105450500D01*
X118735261Y-105443417D01*
X118869409Y-105422171D01*
X118869416Y-105422168D01*
X118869419Y-105422168D01*
X118976437Y-105387396D01*
X119041639Y-105366211D01*
X119202994Y-105283996D01*
X119349501Y-105177553D01*
X119477553Y-105049501D01*
X119583996Y-104902994D01*
X119666211Y-104741639D01*
X119705894Y-104619505D01*
X119722168Y-104569419D01*
X119722168Y-104569416D01*
X119722171Y-104569409D01*
X119750500Y-104390546D01*
X119750500Y-104209454D01*
X119722171Y-104030591D01*
X119722169Y-104030586D01*
X119722168Y-104030580D01*
X119666212Y-103858364D01*
X119666211Y-103858363D01*
X119666211Y-103858361D01*
X119583996Y-103697006D01*
X119580636Y-103692382D01*
X119559255Y-103662953D01*
X119477553Y-103550499D01*
X119349501Y-103422447D01*
X119264128Y-103360420D01*
X119202996Y-103316005D01*
X119041635Y-103233787D01*
X119041636Y-103233787D01*
X118869419Y-103177831D01*
X118869406Y-103177828D01*
X118690547Y-103149500D01*
X118690546Y-103149500D01*
X118509454Y-103149500D01*
X118509453Y-103149500D01*
X118330593Y-103177828D01*
X118330580Y-103177831D01*
X118158364Y-103233787D01*
X117997004Y-103316005D01*
X117997003Y-103316005D01*
X117850503Y-103422444D01*
X117850499Y-103422447D01*
X117722447Y-103550499D01*
X117722444Y-103550502D01*
X117722444Y-103550503D01*
X117616005Y-103697003D01*
X117616005Y-103697004D01*
X117533787Y-103858364D01*
X117477831Y-104030580D01*
X117477828Y-104030593D01*
X117449500Y-104209453D01*
X116800500Y-104209453D01*
X116800500Y-101669453D01*
X117449500Y-101669453D01*
X117449500Y-101850546D01*
X117477828Y-102029406D01*
X117477831Y-102029419D01*
X117533787Y-102201635D01*
X117533788Y-102201638D01*
X117533789Y-102201639D01*
X117615586Y-102362174D01*
X117616005Y-102362995D01*
X117616005Y-102362996D01*
X117660420Y-102424128D01*
X117722447Y-102509501D01*
X117850499Y-102637553D01*
X117997006Y-102743996D01*
X118158361Y-102826211D01*
X118158364Y-102826212D01*
X118158363Y-102826212D01*
X118330580Y-102882168D01*
X118330586Y-102882169D01*
X118330591Y-102882171D01*
X118445805Y-102900419D01*
X118509453Y-102910500D01*
X118509454Y-102910500D01*
X118690547Y-102910500D01*
X118754195Y-102900419D01*
X118869409Y-102882171D01*
X118869416Y-102882168D01*
X118869419Y-102882168D01*
X118947601Y-102856765D01*
X119041639Y-102826211D01*
X119202994Y-102743996D01*
X119349501Y-102637553D01*
X119477553Y-102509501D01*
X119583996Y-102362994D01*
X119666211Y-102201639D01*
X119705444Y-102080889D01*
X119722168Y-102029419D01*
X119722168Y-102029416D01*
X119722171Y-102029409D01*
X119750500Y-101850546D01*
X119750500Y-101669454D01*
X119748512Y-101656905D01*
X119738308Y-101592475D01*
X119722171Y-101490591D01*
X119722169Y-101490586D01*
X119722168Y-101490580D01*
X119666212Y-101318364D01*
X119666211Y-101318363D01*
X119666211Y-101318361D01*
X119583996Y-101157006D01*
X119477553Y-101010499D01*
X119349501Y-100882447D01*
X119259242Y-100816870D01*
X119202996Y-100776005D01*
X119041635Y-100693787D01*
X119041636Y-100693787D01*
X118869419Y-100637831D01*
X118869406Y-100637828D01*
X118690547Y-100609500D01*
X118690546Y-100609500D01*
X118509454Y-100609500D01*
X118509453Y-100609500D01*
X118330593Y-100637828D01*
X118330580Y-100637831D01*
X118158364Y-100693787D01*
X117997004Y-100776005D01*
X117997003Y-100776005D01*
X117877812Y-100862603D01*
X117850499Y-100882447D01*
X117722447Y-101010499D01*
X117722444Y-101010502D01*
X117722444Y-101010503D01*
X117616005Y-101157003D01*
X117616005Y-101157004D01*
X117533787Y-101318364D01*
X117477831Y-101490580D01*
X117477828Y-101490593D01*
X117449500Y-101669453D01*
X116800500Y-101669453D01*
X116800500Y-99129453D01*
X117449500Y-99129453D01*
X117449500Y-99310546D01*
X117477828Y-99489406D01*
X117477831Y-99489419D01*
X117533787Y-99661635D01*
X117533788Y-99661638D01*
X117533789Y-99661639D01*
X117616004Y-99822994D01*
X117722447Y-99969501D01*
X117850499Y-100097553D01*
X117997006Y-100203996D01*
X118158361Y-100286211D01*
X118158364Y-100286212D01*
X118158363Y-100286212D01*
X118330580Y-100342168D01*
X118330586Y-100342169D01*
X118330591Y-100342171D01*
X118449833Y-100361057D01*
X118509453Y-100370500D01*
X118509454Y-100370500D01*
X118690547Y-100370500D01*
X118735261Y-100363417D01*
X118869409Y-100342171D01*
X118869416Y-100342168D01*
X118869419Y-100342168D01*
X118948528Y-100316464D01*
X119041639Y-100286211D01*
X119202994Y-100203996D01*
X119349501Y-100097553D01*
X119477553Y-99969501D01*
X119583996Y-99822994D01*
X119666211Y-99661639D01*
X119722171Y-99489409D01*
X119750500Y-99310546D01*
X119750500Y-99129454D01*
X119722171Y-98950591D01*
X119722169Y-98950586D01*
X119722168Y-98950580D01*
X119666212Y-98778364D01*
X119666211Y-98778363D01*
X119666211Y-98778361D01*
X119583996Y-98617006D01*
X119477553Y-98470499D01*
X119349501Y-98342447D01*
X119264128Y-98280420D01*
X119202996Y-98236005D01*
X119041635Y-98153787D01*
X119041636Y-98153787D01*
X118869419Y-98097831D01*
X118869406Y-98097828D01*
X118859505Y-98096260D01*
X118771449Y-98082313D01*
X118690547Y-98069500D01*
X118690546Y-98069500D01*
X118509454Y-98069500D01*
X118509453Y-98069500D01*
X118330593Y-98097828D01*
X118330580Y-98097831D01*
X118158364Y-98153787D01*
X117997004Y-98236005D01*
X117997003Y-98236005D01*
X117850503Y-98342444D01*
X117850499Y-98342447D01*
X117722447Y-98470499D01*
X117722444Y-98470502D01*
X117722444Y-98470503D01*
X117616005Y-98617003D01*
X117616005Y-98617004D01*
X117533787Y-98778364D01*
X117477831Y-98950580D01*
X117477828Y-98950593D01*
X117449500Y-99129453D01*
X116800500Y-99129453D01*
X116800500Y-98027522D01*
X127649500Y-98027522D01*
X127649500Y-98172477D01*
X127687014Y-98312481D01*
X127687016Y-98312486D01*
X127759491Y-98438015D01*
X127861985Y-98540509D01*
X127987515Y-98612984D01*
X127987516Y-98612984D01*
X127987518Y-98612985D01*
X128002525Y-98617006D01*
X128127522Y-98650499D01*
X128127523Y-98650500D01*
X128127525Y-98650500D01*
X128272477Y-98650500D01*
X128272477Y-98650499D01*
X128412485Y-98612984D01*
X128538015Y-98540509D01*
X128640509Y-98438015D01*
X128712984Y-98312485D01*
X128750499Y-98172477D01*
X128750500Y-98172477D01*
X128750500Y-98027523D01*
X128750499Y-98027522D01*
X128712985Y-97887518D01*
X128712983Y-97887513D01*
X128663710Y-97802171D01*
X128640509Y-97761985D01*
X128538015Y-97659491D01*
X128412486Y-97587016D01*
X128412481Y-97587014D01*
X128272477Y-97549500D01*
X128272475Y-97549500D01*
X128127525Y-97549500D01*
X128127523Y-97549500D01*
X127987518Y-97587014D01*
X127987513Y-97587016D01*
X127861984Y-97659491D01*
X127759491Y-97761984D01*
X127687016Y-97887513D01*
X127687014Y-97887518D01*
X127649500Y-98027522D01*
X116800500Y-98027522D01*
X116800500Y-96589453D01*
X117449500Y-96589453D01*
X117449500Y-96770546D01*
X117477828Y-96949406D01*
X117477831Y-96949419D01*
X117533787Y-97121635D01*
X117533788Y-97121638D01*
X117533789Y-97121639D01*
X117616004Y-97282994D01*
X117722447Y-97429501D01*
X117850499Y-97557553D01*
X117997006Y-97663996D01*
X118158361Y-97746211D01*
X118158364Y-97746212D01*
X118158363Y-97746212D01*
X118330580Y-97802168D01*
X118330586Y-97802169D01*
X118330591Y-97802171D01*
X118449833Y-97821057D01*
X118509453Y-97830500D01*
X118509454Y-97830500D01*
X118690547Y-97830500D01*
X118735261Y-97823417D01*
X118869409Y-97802171D01*
X118869416Y-97802168D01*
X118869419Y-97802168D01*
X118947601Y-97776765D01*
X119041639Y-97746211D01*
X119202994Y-97663996D01*
X119349501Y-97557553D01*
X119477553Y-97429501D01*
X119551645Y-97327522D01*
X129849500Y-97327522D01*
X129849500Y-97472477D01*
X129887014Y-97612481D01*
X129887016Y-97612486D01*
X129916756Y-97663996D01*
X129959491Y-97738015D01*
X130061985Y-97840509D01*
X130187515Y-97912984D01*
X130187516Y-97912984D01*
X130187518Y-97912985D01*
X130257520Y-97931742D01*
X130327522Y-97950499D01*
X130327523Y-97950500D01*
X130327525Y-97950500D01*
X130472477Y-97950500D01*
X130472477Y-97950499D01*
X130612485Y-97912984D01*
X130738015Y-97840509D01*
X130840509Y-97738015D01*
X130912984Y-97612485D01*
X130950499Y-97472477D01*
X130950500Y-97472477D01*
X130950500Y-97327523D01*
X130950499Y-97327522D01*
X130912985Y-97187518D01*
X130912983Y-97187513D01*
X130840508Y-97061984D01*
X130738015Y-96959491D01*
X130612486Y-96887016D01*
X130612481Y-96887014D01*
X130472477Y-96849500D01*
X130472475Y-96849500D01*
X130327525Y-96849500D01*
X130327523Y-96849500D01*
X130187518Y-96887014D01*
X130187513Y-96887016D01*
X130061984Y-96959491D01*
X129959491Y-97061984D01*
X129887016Y-97187513D01*
X129887014Y-97187518D01*
X129849500Y-97327522D01*
X119551645Y-97327522D01*
X119583996Y-97282994D01*
X119666211Y-97121639D01*
X119700600Y-97015799D01*
X119722168Y-96949419D01*
X119722168Y-96949416D01*
X119722171Y-96949409D01*
X119750500Y-96770546D01*
X119750500Y-96589454D01*
X119729161Y-96454727D01*
X119729161Y-96454724D01*
X121103200Y-96454724D01*
X121103200Y-96585275D01*
X121136986Y-96711368D01*
X121136988Y-96711373D01*
X121171152Y-96770546D01*
X121202261Y-96824428D01*
X121294572Y-96916739D01*
X121407628Y-96982012D01*
X121407629Y-96982012D01*
X121407631Y-96982013D01*
X121470677Y-96998906D01*
X121533724Y-97015799D01*
X121533725Y-97015800D01*
X121533727Y-97015800D01*
X121664275Y-97015800D01*
X121664275Y-97015799D01*
X121790372Y-96982012D01*
X121903428Y-96916739D01*
X121995739Y-96824428D01*
X122061012Y-96711372D01*
X122094799Y-96585275D01*
X122094800Y-96585275D01*
X122094800Y-96454725D01*
X122094799Y-96454724D01*
X123135200Y-96454724D01*
X123135200Y-96585275D01*
X123168986Y-96711368D01*
X123168988Y-96711373D01*
X123203152Y-96770546D01*
X123234261Y-96824428D01*
X123326572Y-96916739D01*
X123439628Y-96982012D01*
X123439629Y-96982012D01*
X123439631Y-96982013D01*
X123502677Y-96998906D01*
X123565724Y-97015799D01*
X123565725Y-97015800D01*
X123565727Y-97015800D01*
X123696275Y-97015800D01*
X123696275Y-97015799D01*
X123822372Y-96982012D01*
X123935428Y-96916739D01*
X124027739Y-96824428D01*
X124093012Y-96711372D01*
X124126799Y-96585275D01*
X124126800Y-96585275D01*
X124126800Y-96454725D01*
X124126799Y-96454724D01*
X124093013Y-96328631D01*
X124093011Y-96328626D01*
X124027738Y-96215571D01*
X123935428Y-96123261D01*
X123822373Y-96057988D01*
X123822368Y-96057986D01*
X123696275Y-96024200D01*
X123696273Y-96024200D01*
X123565727Y-96024200D01*
X123565725Y-96024200D01*
X123439631Y-96057986D01*
X123439626Y-96057988D01*
X123326571Y-96123261D01*
X123234261Y-96215571D01*
X123168988Y-96328626D01*
X123168986Y-96328631D01*
X123135200Y-96454724D01*
X122094799Y-96454724D01*
X122061013Y-96328631D01*
X122061011Y-96328626D01*
X121995738Y-96215571D01*
X121903428Y-96123261D01*
X121790373Y-96057988D01*
X121790368Y-96057986D01*
X121664275Y-96024200D01*
X121664273Y-96024200D01*
X121533727Y-96024200D01*
X121533725Y-96024200D01*
X121407631Y-96057986D01*
X121407626Y-96057988D01*
X121294571Y-96123261D01*
X121202261Y-96215571D01*
X121136988Y-96328626D01*
X121136986Y-96328631D01*
X121103200Y-96454724D01*
X119729161Y-96454724D01*
X119728446Y-96450214D01*
X119722171Y-96410591D01*
X119722168Y-96410584D01*
X119722168Y-96410580D01*
X119666212Y-96238364D01*
X119666211Y-96238363D01*
X119666211Y-96238361D01*
X119583996Y-96077006D01*
X119477553Y-95930499D01*
X119349501Y-95802447D01*
X119264128Y-95740420D01*
X119202996Y-95696005D01*
X119041635Y-95613787D01*
X119041636Y-95613787D01*
X118869419Y-95557831D01*
X118869406Y-95557828D01*
X118690547Y-95529500D01*
X118690546Y-95529500D01*
X118509454Y-95529500D01*
X118509453Y-95529500D01*
X118330593Y-95557828D01*
X118330580Y-95557831D01*
X118158364Y-95613787D01*
X117997004Y-95696005D01*
X117997003Y-95696005D01*
X117850503Y-95802444D01*
X117850499Y-95802447D01*
X117722447Y-95930499D01*
X117722444Y-95930502D01*
X117722444Y-95930503D01*
X117616005Y-96077003D01*
X117616005Y-96077004D01*
X117533787Y-96238364D01*
X117477831Y-96410580D01*
X117477828Y-96410593D01*
X117449500Y-96589453D01*
X116800500Y-96589453D01*
X116800500Y-94049453D01*
X117449500Y-94049453D01*
X117449500Y-94230546D01*
X117477828Y-94409406D01*
X117477831Y-94409419D01*
X117533787Y-94581635D01*
X117533788Y-94581638D01*
X117533789Y-94581639D01*
X117616004Y-94742994D01*
X117722447Y-94889501D01*
X117850499Y-95017553D01*
X117997006Y-95123996D01*
X118158361Y-95206211D01*
X118158364Y-95206212D01*
X118158363Y-95206212D01*
X118330580Y-95262168D01*
X118330586Y-95262169D01*
X118330591Y-95262171D01*
X118449833Y-95281057D01*
X118509453Y-95290500D01*
X118509454Y-95290500D01*
X118690547Y-95290500D01*
X118735261Y-95283417D01*
X118869409Y-95262171D01*
X118869416Y-95262168D01*
X118869419Y-95262168D01*
X118947601Y-95236765D01*
X119041639Y-95206211D01*
X119202994Y-95123996D01*
X119322189Y-95037396D01*
X130824500Y-95037396D01*
X130824500Y-95162603D01*
X130856904Y-95283535D01*
X130879182Y-95322121D01*
X130919505Y-95391964D01*
X131008036Y-95480495D01*
X131116464Y-95543095D01*
X131116463Y-95543095D01*
X131180415Y-95560231D01*
X131237396Y-95575499D01*
X131237397Y-95575500D01*
X131237399Y-95575500D01*
X131362603Y-95575500D01*
X131362603Y-95575499D01*
X131433018Y-95556631D01*
X131488221Y-95541840D01*
X131488853Y-95544202D01*
X131537484Y-95544172D01*
X131561534Y-95560231D01*
X132037826Y-96036523D01*
X132059500Y-96088849D01*
X132059500Y-105172049D01*
X132059499Y-105172052D01*
X132059499Y-105227948D01*
X132070042Y-105253399D01*
X132073653Y-105262119D01*
X132073654Y-105262120D01*
X132080888Y-105279586D01*
X132130820Y-105329518D01*
X132130822Y-105329519D01*
X132888028Y-106086725D01*
X132909702Y-106139051D01*
X132895570Y-106182546D01*
X132856004Y-106237004D01*
X132773787Y-106398364D01*
X132717831Y-106570580D01*
X132717828Y-106570593D01*
X132689500Y-106749453D01*
X132689500Y-106930546D01*
X132717828Y-107109406D01*
X132717831Y-107109419D01*
X132773787Y-107281635D01*
X132773788Y-107281638D01*
X132773789Y-107281639D01*
X132853153Y-107437399D01*
X132856005Y-107442995D01*
X132856005Y-107442996D01*
X132864628Y-107454864D01*
X132962447Y-107589501D01*
X133090499Y-107717553D01*
X133212767Y-107806386D01*
X133230824Y-107819505D01*
X133237006Y-107823996D01*
X133398361Y-107906211D01*
X133398364Y-107906212D01*
X133398363Y-107906212D01*
X133570580Y-107962168D01*
X133570586Y-107962169D01*
X133570591Y-107962171D01*
X133688507Y-107980847D01*
X133749453Y-107990500D01*
X133749454Y-107990500D01*
X133930547Y-107990500D01*
X133991493Y-107980847D01*
X134109409Y-107962171D01*
X134109416Y-107962168D01*
X134109419Y-107962168D01*
X134199079Y-107933036D01*
X134281639Y-107906211D01*
X134442994Y-107823996D01*
X134589501Y-107717553D01*
X134717553Y-107589501D01*
X134823996Y-107442994D01*
X134906211Y-107281639D01*
X134948820Y-107150500D01*
X134962168Y-107109419D01*
X134962168Y-107109416D01*
X134962171Y-107109409D01*
X134990500Y-106930546D01*
X134990500Y-106749454D01*
X134986877Y-106726582D01*
X134969471Y-106616681D01*
X134962171Y-106570591D01*
X134962169Y-106570586D01*
X134962168Y-106570580D01*
X134906212Y-106398364D01*
X134906211Y-106398363D01*
X134906211Y-106398361D01*
X134823996Y-106237006D01*
X134808396Y-106215535D01*
X134785147Y-106183535D01*
X134717553Y-106090499D01*
X134589501Y-105962447D01*
X134497452Y-105895570D01*
X134442996Y-105856005D01*
X134318312Y-105792475D01*
X134281639Y-105773789D01*
X134281638Y-105773788D01*
X134281635Y-105773787D01*
X134281636Y-105773787D01*
X134109419Y-105717831D01*
X134109406Y-105717828D01*
X133930547Y-105689500D01*
X133930546Y-105689500D01*
X133749454Y-105689500D01*
X133749453Y-105689500D01*
X133570593Y-105717828D01*
X133570580Y-105717831D01*
X133398364Y-105773787D01*
X133237004Y-105856004D01*
X133182546Y-105895570D01*
X133127473Y-105908791D01*
X133086725Y-105888028D01*
X132362174Y-105163477D01*
X132340500Y-105111151D01*
X132340500Y-104209453D01*
X132689500Y-104209453D01*
X132689500Y-104390546D01*
X132717828Y-104569406D01*
X132717831Y-104569419D01*
X132773787Y-104741635D01*
X132773788Y-104741638D01*
X132773789Y-104741639D01*
X132848095Y-104887472D01*
X132856005Y-104902995D01*
X132856005Y-104902996D01*
X132884362Y-104942026D01*
X132962447Y-105049501D01*
X133090499Y-105177553D01*
X133237006Y-105283996D01*
X133398361Y-105366211D01*
X133398364Y-105366212D01*
X133398363Y-105366212D01*
X133570580Y-105422168D01*
X133570586Y-105422169D01*
X133570591Y-105422171D01*
X133689833Y-105441057D01*
X133749453Y-105450500D01*
X133749454Y-105450500D01*
X133930547Y-105450500D01*
X133975261Y-105443417D01*
X134109409Y-105422171D01*
X134109416Y-105422168D01*
X134109419Y-105422168D01*
X134216437Y-105387396D01*
X134281639Y-105366211D01*
X134442994Y-105283996D01*
X134589501Y-105177553D01*
X134717553Y-105049501D01*
X134823996Y-104902994D01*
X134906211Y-104741639D01*
X134945894Y-104619505D01*
X134962168Y-104569419D01*
X134962168Y-104569416D01*
X134962171Y-104569409D01*
X134990500Y-104390546D01*
X134990500Y-104209454D01*
X134962171Y-104030591D01*
X134962169Y-104030586D01*
X134962168Y-104030580D01*
X134906212Y-103858364D01*
X134906211Y-103858363D01*
X134906211Y-103858361D01*
X134823996Y-103697006D01*
X134820636Y-103692382D01*
X134799255Y-103662953D01*
X134717553Y-103550499D01*
X134589501Y-103422447D01*
X134504128Y-103360420D01*
X134442996Y-103316005D01*
X134281635Y-103233787D01*
X134281636Y-103233787D01*
X134109419Y-103177831D01*
X134109406Y-103177828D01*
X133930547Y-103149500D01*
X133930546Y-103149500D01*
X133749454Y-103149500D01*
X133749453Y-103149500D01*
X133570593Y-103177828D01*
X133570580Y-103177831D01*
X133398364Y-103233787D01*
X133237004Y-103316005D01*
X133237003Y-103316005D01*
X133090503Y-103422444D01*
X133090499Y-103422447D01*
X132962447Y-103550499D01*
X132962444Y-103550502D01*
X132962444Y-103550503D01*
X132856005Y-103697003D01*
X132856005Y-103697004D01*
X132773787Y-103858364D01*
X132717831Y-104030580D01*
X132717828Y-104030593D01*
X132689500Y-104209453D01*
X132340500Y-104209453D01*
X132340500Y-101669453D01*
X132689500Y-101669453D01*
X132689500Y-101850546D01*
X132717828Y-102029406D01*
X132717831Y-102029419D01*
X132773787Y-102201635D01*
X132773788Y-102201638D01*
X132773789Y-102201639D01*
X132855586Y-102362174D01*
X132856005Y-102362995D01*
X132856005Y-102362996D01*
X132900420Y-102424128D01*
X132962447Y-102509501D01*
X133090499Y-102637553D01*
X133237006Y-102743996D01*
X133398361Y-102826211D01*
X133398364Y-102826212D01*
X133398363Y-102826212D01*
X133570580Y-102882168D01*
X133570586Y-102882169D01*
X133570591Y-102882171D01*
X133685805Y-102900419D01*
X133749453Y-102910500D01*
X133749454Y-102910500D01*
X133930547Y-102910500D01*
X133994195Y-102900419D01*
X134109409Y-102882171D01*
X134109416Y-102882168D01*
X134109419Y-102882168D01*
X134187601Y-102856765D01*
X134281639Y-102826211D01*
X134442994Y-102743996D01*
X134589501Y-102637553D01*
X134717553Y-102509501D01*
X134823996Y-102362994D01*
X134906211Y-102201639D01*
X134945444Y-102080889D01*
X134962168Y-102029419D01*
X134962168Y-102029416D01*
X134962171Y-102029409D01*
X134990500Y-101850546D01*
X134990500Y-101669454D01*
X134988512Y-101656905D01*
X134978308Y-101592475D01*
X134962171Y-101490591D01*
X134962169Y-101490586D01*
X134962168Y-101490580D01*
X134906212Y-101318364D01*
X134906211Y-101318363D01*
X134906211Y-101318361D01*
X134823996Y-101157006D01*
X134717553Y-101010499D01*
X134589501Y-100882447D01*
X134499242Y-100816870D01*
X134442996Y-100776005D01*
X134281635Y-100693787D01*
X134281636Y-100693787D01*
X134109419Y-100637831D01*
X134109406Y-100637828D01*
X133930547Y-100609500D01*
X133930546Y-100609500D01*
X133749454Y-100609500D01*
X133749453Y-100609500D01*
X133570593Y-100637828D01*
X133570580Y-100637831D01*
X133398364Y-100693787D01*
X133237004Y-100776005D01*
X133237003Y-100776005D01*
X133117812Y-100862603D01*
X133090499Y-100882447D01*
X132962447Y-101010499D01*
X132962444Y-101010502D01*
X132962444Y-101010503D01*
X132856005Y-101157003D01*
X132856005Y-101157004D01*
X132773787Y-101318364D01*
X132717831Y-101490580D01*
X132717828Y-101490593D01*
X132689500Y-101669453D01*
X132340500Y-101669453D01*
X132340500Y-99129453D01*
X132689500Y-99129453D01*
X132689500Y-99310546D01*
X132717828Y-99489406D01*
X132717831Y-99489419D01*
X132773787Y-99661635D01*
X132773788Y-99661638D01*
X132773789Y-99661639D01*
X132856004Y-99822994D01*
X132962447Y-99969501D01*
X133090499Y-100097553D01*
X133237006Y-100203996D01*
X133398361Y-100286211D01*
X133398364Y-100286212D01*
X133398363Y-100286212D01*
X133570580Y-100342168D01*
X133570586Y-100342169D01*
X133570591Y-100342171D01*
X133689833Y-100361057D01*
X133749453Y-100370500D01*
X133749454Y-100370500D01*
X133930547Y-100370500D01*
X133975261Y-100363417D01*
X134109409Y-100342171D01*
X134109416Y-100342168D01*
X134109419Y-100342168D01*
X134188528Y-100316464D01*
X134281639Y-100286211D01*
X134442994Y-100203996D01*
X134589501Y-100097553D01*
X134717553Y-99969501D01*
X134823996Y-99822994D01*
X134906211Y-99661639D01*
X134962171Y-99489409D01*
X134990500Y-99310546D01*
X134990500Y-99129454D01*
X134962171Y-98950591D01*
X134962169Y-98950586D01*
X134962168Y-98950580D01*
X134906212Y-98778364D01*
X134906211Y-98778363D01*
X134906211Y-98778361D01*
X134823996Y-98617006D01*
X134717553Y-98470499D01*
X134589501Y-98342447D01*
X134504128Y-98280420D01*
X134442996Y-98236005D01*
X134281635Y-98153787D01*
X134281636Y-98153787D01*
X134109419Y-98097831D01*
X134109406Y-98097828D01*
X133930547Y-98069500D01*
X133930546Y-98069500D01*
X133749454Y-98069500D01*
X133749453Y-98069500D01*
X133570593Y-98097828D01*
X133570580Y-98097831D01*
X133398364Y-98153787D01*
X133237004Y-98236005D01*
X133237003Y-98236005D01*
X133090503Y-98342444D01*
X133090499Y-98342447D01*
X132962447Y-98470499D01*
X132962444Y-98470502D01*
X132962444Y-98470503D01*
X132856005Y-98617003D01*
X132856005Y-98617004D01*
X132773787Y-98778364D01*
X132717831Y-98950580D01*
X132717828Y-98950593D01*
X132689500Y-99129453D01*
X132340500Y-99129453D01*
X132340500Y-96589453D01*
X132689500Y-96589453D01*
X132689500Y-96770546D01*
X132717828Y-96949406D01*
X132717831Y-96949419D01*
X132773787Y-97121635D01*
X132773788Y-97121638D01*
X132773789Y-97121639D01*
X132856004Y-97282994D01*
X132962447Y-97429501D01*
X133090499Y-97557553D01*
X133237006Y-97663996D01*
X133398361Y-97746211D01*
X133398364Y-97746212D01*
X133398363Y-97746212D01*
X133570580Y-97802168D01*
X133570586Y-97802169D01*
X133570591Y-97802171D01*
X133689833Y-97821057D01*
X133749453Y-97830500D01*
X133749454Y-97830500D01*
X133930547Y-97830500D01*
X133975261Y-97823417D01*
X134109409Y-97802171D01*
X134109416Y-97802168D01*
X134109419Y-97802168D01*
X134187601Y-97776765D01*
X134281639Y-97746211D01*
X134442994Y-97663996D01*
X134589501Y-97557553D01*
X134717553Y-97429501D01*
X134823996Y-97282994D01*
X134906211Y-97121639D01*
X134940600Y-97015799D01*
X134962168Y-96949419D01*
X134962168Y-96949416D01*
X134962171Y-96949409D01*
X134990500Y-96770546D01*
X134990500Y-96589454D01*
X134962171Y-96410591D01*
X134962169Y-96410586D01*
X134962168Y-96410580D01*
X134906212Y-96238364D01*
X134906211Y-96238363D01*
X134906211Y-96238361D01*
X134823996Y-96077006D01*
X134717553Y-95930499D01*
X134589501Y-95802447D01*
X134504128Y-95740420D01*
X134442996Y-95696005D01*
X134281635Y-95613787D01*
X134281636Y-95613787D01*
X134109419Y-95557831D01*
X134109406Y-95557828D01*
X133930547Y-95529500D01*
X133930546Y-95529500D01*
X133749454Y-95529500D01*
X133749453Y-95529500D01*
X133570593Y-95557828D01*
X133570580Y-95557831D01*
X133398364Y-95613787D01*
X133237004Y-95696005D01*
X133237003Y-95696005D01*
X133090503Y-95802444D01*
X133090499Y-95802447D01*
X132962447Y-95930499D01*
X132962444Y-95930502D01*
X132962444Y-95930503D01*
X132856005Y-96077003D01*
X132856005Y-96077004D01*
X132773787Y-96238364D01*
X132717831Y-96410580D01*
X132717828Y-96410593D01*
X132689500Y-96589453D01*
X132340500Y-96589453D01*
X132340500Y-96041997D01*
X132340500Y-96027950D01*
X132340501Y-96027948D01*
X132340501Y-95972052D01*
X132327970Y-95941802D01*
X132319111Y-95920413D01*
X132279587Y-95880889D01*
X132275372Y-95876674D01*
X132275365Y-95876668D01*
X131760231Y-95361534D01*
X131738557Y-95309208D01*
X131742692Y-95288449D01*
X131741840Y-95288221D01*
X131763814Y-95206212D01*
X131775499Y-95162603D01*
X131775500Y-95162603D01*
X131775500Y-95037397D01*
X131775499Y-95037396D01*
X131743095Y-94916464D01*
X131680495Y-94808036D01*
X131591963Y-94719504D01*
X131483534Y-94656904D01*
X131483536Y-94656904D01*
X131362603Y-94624500D01*
X131362601Y-94624500D01*
X131237399Y-94624500D01*
X131237397Y-94624500D01*
X131116464Y-94656904D01*
X131008036Y-94719504D01*
X130919504Y-94808036D01*
X130856904Y-94916464D01*
X130824500Y-95037396D01*
X119322189Y-95037396D01*
X119349501Y-95017553D01*
X119477553Y-94889501D01*
X119583996Y-94742994D01*
X119666211Y-94581639D01*
X119722171Y-94409409D01*
X119733577Y-94337396D01*
X125024500Y-94337396D01*
X125024500Y-94462603D01*
X125056904Y-94583535D01*
X125056905Y-94583536D01*
X125119505Y-94691964D01*
X125208036Y-94780495D01*
X125316464Y-94843095D01*
X125316463Y-94843095D01*
X125386286Y-94861804D01*
X125437396Y-94875499D01*
X125437397Y-94875500D01*
X125437399Y-94875500D01*
X125562603Y-94875500D01*
X125562603Y-94875499D01*
X125683536Y-94843095D01*
X125791964Y-94780495D01*
X125880495Y-94691964D01*
X125943095Y-94583536D01*
X125975499Y-94462603D01*
X125975500Y-94462603D01*
X125975500Y-94337397D01*
X125975499Y-94337396D01*
X125971098Y-94320973D01*
X125943095Y-94216464D01*
X125880495Y-94108036D01*
X125821912Y-94049453D01*
X132689500Y-94049453D01*
X132689500Y-94230546D01*
X132717828Y-94409406D01*
X132717831Y-94409419D01*
X132773787Y-94581635D01*
X132773788Y-94581638D01*
X132773789Y-94581639D01*
X132856004Y-94742994D01*
X132962447Y-94889501D01*
X133090499Y-95017553D01*
X133237006Y-95123996D01*
X133398361Y-95206211D01*
X133398364Y-95206212D01*
X133398363Y-95206212D01*
X133570580Y-95262168D01*
X133570586Y-95262169D01*
X133570591Y-95262171D01*
X133689833Y-95281057D01*
X133749453Y-95290500D01*
X133749454Y-95290500D01*
X133930547Y-95290500D01*
X133975261Y-95283417D01*
X134109409Y-95262171D01*
X134109416Y-95262168D01*
X134109419Y-95262168D01*
X134187601Y-95236765D01*
X134281639Y-95206211D01*
X134442994Y-95123996D01*
X134589501Y-95017553D01*
X134717553Y-94889501D01*
X134823996Y-94742994D01*
X134906211Y-94581639D01*
X134962171Y-94409409D01*
X134990500Y-94230546D01*
X134990500Y-94049454D01*
X134962171Y-93870591D01*
X134962169Y-93870586D01*
X134962168Y-93870580D01*
X134906212Y-93698364D01*
X134906211Y-93698363D01*
X134906211Y-93698361D01*
X134823996Y-93537006D01*
X134717553Y-93390499D01*
X134589501Y-93262447D01*
X134452077Y-93162603D01*
X134442996Y-93156005D01*
X134281635Y-93073787D01*
X134281636Y-93073787D01*
X134109419Y-93017831D01*
X134109406Y-93017828D01*
X133930547Y-92989500D01*
X133930546Y-92989500D01*
X133749454Y-92989500D01*
X133749453Y-92989500D01*
X133570593Y-93017828D01*
X133570580Y-93017831D01*
X133398364Y-93073787D01*
X133237004Y-93156005D01*
X133237003Y-93156005D01*
X133090503Y-93262444D01*
X133090499Y-93262447D01*
X132962447Y-93390499D01*
X132962444Y-93390502D01*
X132962444Y-93390503D01*
X132856005Y-93537003D01*
X132856005Y-93537004D01*
X132773787Y-93698364D01*
X132717831Y-93870580D01*
X132717828Y-93870593D01*
X132689500Y-94049453D01*
X125821912Y-94049453D01*
X125791964Y-94019505D01*
X125791963Y-94019504D01*
X125683534Y-93956904D01*
X125683536Y-93956904D01*
X125562603Y-93924500D01*
X125562601Y-93924500D01*
X125437399Y-93924500D01*
X125437397Y-93924500D01*
X125316464Y-93956904D01*
X125208036Y-94019504D01*
X125119504Y-94108036D01*
X125056904Y-94216464D01*
X125024500Y-94337396D01*
X119733577Y-94337396D01*
X119750500Y-94230546D01*
X119750500Y-94049454D01*
X119722171Y-93870591D01*
X119722169Y-93870586D01*
X119722168Y-93870580D01*
X119666212Y-93698364D01*
X119666211Y-93698363D01*
X119666211Y-93698361D01*
X119583996Y-93537006D01*
X119477553Y-93390499D01*
X119349501Y-93262447D01*
X119212077Y-93162603D01*
X119202996Y-93156005D01*
X119193267Y-93151048D01*
X119090102Y-93098482D01*
X119041640Y-93073789D01*
X119041636Y-93073787D01*
X118929635Y-93037396D01*
X124424500Y-93037396D01*
X124424500Y-93162603D01*
X124456904Y-93283535D01*
X124518662Y-93390503D01*
X124519505Y-93391964D01*
X124608036Y-93480495D01*
X124716464Y-93543095D01*
X124716463Y-93543095D01*
X124786286Y-93561804D01*
X124837396Y-93575499D01*
X124837397Y-93575500D01*
X124837399Y-93575500D01*
X124962603Y-93575500D01*
X124962603Y-93575499D01*
X125083536Y-93543095D01*
X125191964Y-93480495D01*
X125280495Y-93391964D01*
X125343095Y-93283536D01*
X125375499Y-93162603D01*
X125375500Y-93162603D01*
X125375500Y-93037397D01*
X125375499Y-93037396D01*
X125343095Y-92916464D01*
X125280495Y-92808036D01*
X125191963Y-92719504D01*
X125135249Y-92686761D01*
X125083536Y-92656905D01*
X125083533Y-92656903D01*
X124973881Y-92627522D01*
X126049500Y-92627522D01*
X126049500Y-92772477D01*
X126087014Y-92912481D01*
X126087016Y-92912486D01*
X126147838Y-93017831D01*
X126159491Y-93038015D01*
X126261985Y-93140509D01*
X126387515Y-93212984D01*
X126387516Y-93212984D01*
X126387518Y-93212985D01*
X126457520Y-93231742D01*
X126527522Y-93250499D01*
X126527523Y-93250500D01*
X126527525Y-93250500D01*
X126672477Y-93250500D01*
X126672477Y-93250499D01*
X126812485Y-93212984D01*
X126938015Y-93140509D01*
X127040509Y-93038015D01*
X127112984Y-92912485D01*
X127150499Y-92772477D01*
X127150500Y-92772477D01*
X127150500Y-92627523D01*
X127150499Y-92627522D01*
X127149224Y-92622765D01*
X127121685Y-92519986D01*
X127112985Y-92487518D01*
X127112983Y-92487513D01*
X127040508Y-92361984D01*
X126938015Y-92259491D01*
X126812486Y-92187016D01*
X126812481Y-92187014D01*
X126672477Y-92149500D01*
X126672475Y-92149500D01*
X126527525Y-92149500D01*
X126527523Y-92149500D01*
X126387518Y-92187014D01*
X126387513Y-92187016D01*
X126261984Y-92259491D01*
X126159491Y-92361984D01*
X126087016Y-92487513D01*
X126087014Y-92487518D01*
X126049500Y-92627522D01*
X124973881Y-92627522D01*
X124962603Y-92624500D01*
X124962601Y-92624500D01*
X124837399Y-92624500D01*
X124837397Y-92624500D01*
X124716464Y-92656904D01*
X124608036Y-92719504D01*
X124519504Y-92808036D01*
X124456904Y-92916464D01*
X124424500Y-93037396D01*
X118929635Y-93037396D01*
X118869419Y-93017831D01*
X118869406Y-93017828D01*
X118690547Y-92989500D01*
X118690546Y-92989500D01*
X118509454Y-92989500D01*
X118509453Y-92989500D01*
X118330593Y-93017828D01*
X118330580Y-93017831D01*
X118158364Y-93073787D01*
X117997004Y-93156005D01*
X117997003Y-93156005D01*
X117850503Y-93262444D01*
X117850499Y-93262447D01*
X117722447Y-93390499D01*
X117722444Y-93390502D01*
X117722444Y-93390503D01*
X117616005Y-93537003D01*
X117616005Y-93537004D01*
X117533787Y-93698364D01*
X117477831Y-93870580D01*
X117477828Y-93870593D01*
X117449500Y-94049453D01*
X116800500Y-94049453D01*
X116800500Y-90705135D01*
X117449500Y-90705135D01*
X117449500Y-92494863D01*
X117452414Y-92519986D01*
X117452415Y-92519991D01*
X117497794Y-92622765D01*
X117577235Y-92702206D01*
X117680009Y-92747585D01*
X117705135Y-92750500D01*
X119494864Y-92750499D01*
X119519991Y-92747585D01*
X119622765Y-92702206D01*
X119702206Y-92622765D01*
X119747585Y-92519991D01*
X119750500Y-92494865D01*
X119750500Y-92327522D01*
X120649500Y-92327522D01*
X120649500Y-92472477D01*
X120687014Y-92612481D01*
X120687016Y-92612486D01*
X120748804Y-92719504D01*
X120759491Y-92738015D01*
X120861985Y-92840509D01*
X120953876Y-92893563D01*
X120986650Y-92912485D01*
X120987515Y-92912984D01*
X120987516Y-92912984D01*
X120987518Y-92912985D01*
X121000502Y-92916464D01*
X121127522Y-92950499D01*
X121127523Y-92950500D01*
X121127525Y-92950500D01*
X121272477Y-92950500D01*
X121272477Y-92950499D01*
X121412485Y-92912984D01*
X121538015Y-92840509D01*
X121640509Y-92738015D01*
X121712984Y-92612485D01*
X121750499Y-92472477D01*
X121750500Y-92472477D01*
X121750500Y-92327523D01*
X121750499Y-92327522D01*
X121712985Y-92187518D01*
X121712983Y-92187513D01*
X121640508Y-92061984D01*
X121538015Y-91959491D01*
X121412486Y-91887016D01*
X121412481Y-91887014D01*
X121272477Y-91849500D01*
X121272475Y-91849500D01*
X121127525Y-91849500D01*
X121127523Y-91849500D01*
X120987518Y-91887014D01*
X120987513Y-91887016D01*
X120861984Y-91959491D01*
X120759491Y-92061984D01*
X120687016Y-92187513D01*
X120687014Y-92187518D01*
X120649500Y-92327522D01*
X119750500Y-92327522D01*
X119750499Y-91374724D01*
X122119200Y-91374724D01*
X122119200Y-91505275D01*
X122152986Y-91631368D01*
X122152988Y-91631373D01*
X122218261Y-91744428D01*
X122310572Y-91836739D01*
X122423628Y-91902012D01*
X122423629Y-91902012D01*
X122423631Y-91902013D01*
X122486677Y-91918906D01*
X122549724Y-91935799D01*
X122549725Y-91935800D01*
X122549727Y-91935800D01*
X122680275Y-91935800D01*
X122680275Y-91935799D01*
X122806372Y-91902012D01*
X122919428Y-91836739D01*
X123011739Y-91744428D01*
X123077012Y-91631372D01*
X123110799Y-91505275D01*
X123110800Y-91505275D01*
X123110800Y-91374725D01*
X123110799Y-91374724D01*
X123077013Y-91248631D01*
X123077011Y-91248626D01*
X123011738Y-91135571D01*
X122919428Y-91043261D01*
X122806373Y-90977988D01*
X122806368Y-90977986D01*
X122680275Y-90944200D01*
X122680273Y-90944200D01*
X122549727Y-90944200D01*
X122549725Y-90944200D01*
X122423631Y-90977986D01*
X122423626Y-90977988D01*
X122310571Y-91043261D01*
X122218261Y-91135571D01*
X122152988Y-91248626D01*
X122152986Y-91248631D01*
X122119200Y-91374724D01*
X119750499Y-91374724D01*
X119750499Y-90705136D01*
X119750499Y-90705135D01*
X132689500Y-90705135D01*
X132689500Y-92494863D01*
X132692414Y-92519986D01*
X132692415Y-92519991D01*
X132737794Y-92622765D01*
X132817235Y-92702206D01*
X132920009Y-92747585D01*
X132945135Y-92750500D01*
X134734864Y-92750499D01*
X134759991Y-92747585D01*
X134862765Y-92702206D01*
X134942206Y-92622765D01*
X134987585Y-92519991D01*
X134990500Y-92494865D01*
X134990499Y-90705136D01*
X134987585Y-90680009D01*
X134942206Y-90577235D01*
X134862765Y-90497794D01*
X134759991Y-90452415D01*
X134759990Y-90452414D01*
X134759988Y-90452414D01*
X134738659Y-90449940D01*
X134734865Y-90449500D01*
X134734864Y-90449500D01*
X132945136Y-90449500D01*
X132920013Y-90452414D01*
X132920007Y-90452415D01*
X132817234Y-90497794D01*
X132737794Y-90577234D01*
X132692414Y-90680011D01*
X132689500Y-90705135D01*
X119750499Y-90705135D01*
X119747585Y-90680009D01*
X119702206Y-90577235D01*
X119622765Y-90497794D01*
X119519991Y-90452415D01*
X119519990Y-90452414D01*
X119519988Y-90452414D01*
X119498659Y-90449940D01*
X119494865Y-90449500D01*
X119494864Y-90449500D01*
X117705136Y-90449500D01*
X117680013Y-90452414D01*
X117680007Y-90452415D01*
X117577234Y-90497794D01*
X117497794Y-90577234D01*
X117452414Y-90680011D01*
X117449500Y-90705135D01*
X116800500Y-90705135D01*
X116800500Y-89874500D01*
X116822174Y-89822174D01*
X116874500Y-89800500D01*
X135525500Y-89800500D01*
X135577826Y-89822174D01*
G37*
%TD.AperFunction*%
%TD*%
M02*
