%TF.GenerationSoftware,KiCad,Pcbnew,10.0.3*%
%TF.CreationDate,2026-05-28T08:34:56-07:00*%
%TF.ProjectId,RXProg,52585072-6f67-42e6-9b69-6361645f7063,rev?*%
%TF.SameCoordinates,Original*%
%TF.FileFunction,Soldermask,Bot*%
%TF.FilePolarity,Negative*%
%FSLAX46Y46*%
G04 Gerber Fmt 4.6, Leading zero omitted, Abs format (unit mm)*
G04 Created by KiCad (PCBNEW 10.0.3) date 2026-05-28 08:34:56*
%MOMM*%
%LPD*%
G01*
G04 APERTURE LIST*
G04 Aperture macros list*
%AMRoundRect*
0 Rectangle with rounded corners*
0 $1 Rounding radius*
0 $2 $3 $4 $5 $6 $7 $8 $9 X,Y pos of 4 corners*
0 Add a 4 corners polygon primitive as box body*
4,1,4,$2,$3,$4,$5,$6,$7,$8,$9,$2,$3,0*
0 Add four circle primitives for the rounded corners*
1,1,$1+$1,$2,$3*
1,1,$1+$1,$4,$5*
1,1,$1+$1,$6,$7*
1,1,$1+$1,$8,$9*
0 Add four rect primitives between the rounded corners*
20,1,$1+$1,$2,$3,$4,$5,0*
20,1,$1+$1,$4,$5,$6,$7,0*
20,1,$1+$1,$6,$7,$8,$9,0*
20,1,$1+$1,$8,$9,$2,$3,0*%
G04 Aperture macros list end*
%ADD10C,1.400000*%
%ADD11O,1.350000X1.700000*%
%ADD12O,1.100000X1.500000*%
%ADD13R,1.700000X1.700000*%
%ADD14C,1.700000*%
%ADD15C,0.990600*%
%ADD16RoundRect,0.075000X-0.662500X-0.075000X0.662500X-0.075000X0.662500X0.075000X-0.662500X0.075000X0*%
%ADD17RoundRect,0.100000X0.100000X-0.130000X0.100000X0.130000X-0.100000X0.130000X-0.100000X-0.130000X0*%
G04 APERTURE END LIST*
D10*
%TO.C,J4*%
X130800000Y-118600000D03*
%TD*%
D11*
%TO.C,J5*%
X123490000Y-124600000D03*
D12*
X123800000Y-121600000D03*
X128640000Y-121600000D03*
D11*
X128950000Y-124600000D03*
%TD*%
D13*
%TO.C,J2*%
X133840000Y-91600000D03*
D14*
X133840000Y-94140000D03*
X133840000Y-96680000D03*
X133840000Y-99220000D03*
X133840000Y-101760000D03*
X133840000Y-104300000D03*
X133840000Y-106840000D03*
X133840000Y-109380000D03*
X133840000Y-111920000D03*
X133840000Y-114460000D03*
X133840000Y-117000000D03*
X133840000Y-119540000D03*
X133840000Y-122080000D03*
X133840000Y-124620000D03*
%TD*%
D10*
%TO.C,J3*%
X130800000Y-116400000D03*
%TD*%
D13*
%TO.C,J1*%
X118600000Y-91600000D03*
D14*
X118600000Y-94140000D03*
X118600000Y-96680000D03*
X118600000Y-99220000D03*
X118600000Y-101760000D03*
X118600000Y-104300000D03*
X118600000Y-106840000D03*
X118600000Y-109380000D03*
X118600000Y-111920000D03*
X118600000Y-114460000D03*
X118600000Y-117000000D03*
X118600000Y-119540000D03*
X118600000Y-122080000D03*
X118600000Y-124620000D03*
%TD*%
D15*
%TO.C,J6*%
X122615000Y-91440000D03*
X123631000Y-96520000D03*
X121599000Y-96520000D03*
%TD*%
D16*
%TO.C,U2*%
X122500000Y-111800000D03*
X122500000Y-111300000D03*
X122500000Y-110800000D03*
X122500000Y-110300000D03*
X122500000Y-109800000D03*
X122500000Y-109300000D03*
X122500000Y-108800000D03*
X122500000Y-108300000D03*
X122500000Y-107800000D03*
X122500000Y-107300000D03*
X122500000Y-106800000D03*
X122500000Y-106300000D03*
X122500000Y-105800000D03*
X122500000Y-105300000D03*
X122500000Y-104800000D03*
X122500000Y-104300000D03*
X122500000Y-103800000D03*
X122500000Y-103300000D03*
X122500000Y-102800000D03*
X122500000Y-102300000D03*
X122500000Y-101800000D03*
X122500000Y-101300000D03*
X122500000Y-100800000D03*
X122500000Y-100300000D03*
X129925000Y-100300000D03*
X129925000Y-100800000D03*
X129925000Y-101300000D03*
X129925000Y-101800000D03*
X129925000Y-102300000D03*
X129925000Y-102800000D03*
X129925000Y-103300000D03*
X129925000Y-103800000D03*
X129925000Y-104300000D03*
X129925000Y-104800000D03*
X129925000Y-105300000D03*
X129925000Y-105800000D03*
X129925000Y-106300000D03*
X129925000Y-106800000D03*
X129925000Y-107300000D03*
X129925000Y-107800000D03*
X129925000Y-108300000D03*
X129925000Y-108800000D03*
X129925000Y-109300000D03*
X129925000Y-109800000D03*
X129925000Y-110300000D03*
X129925000Y-110800000D03*
X129925000Y-111300000D03*
X129925000Y-111800000D03*
%TD*%
D17*
%TO.C,C11*%
X131300000Y-102820000D03*
X131300000Y-102180000D03*
%TD*%
M02*
